<svg xmlns="http://www.w3.org/2000/svg" id="Calque_1" data-name="Calque 1" viewBox="0 0 475.75 469.08"><defs><style>.cls-1{fill:#00456b;}.cls-2{fill:#00aac4;}.cls-17,.cls-3{fill:#fff;}.cls-4{fill:#058793;}.cls-5{fill:#e84a3a;}.cls-6{fill:#fbc663;}.cls-7{fill:#2aaa5f;}.cls-8{fill:#eaf0fa;}.cls-9{fill:#353435;}.cls-10{fill:#ee8d05;}.cls-11{fill:#2e3533;}.cls-12{fill:#8da8ba;}.cls-13{fill:#d6dee6;}.cls-14{fill:#19a580;}.cls-15{fill:#e7ecf1;}.cls-16{fill:#3db49f;}.cls-17{fill-rule:evenodd;}</style></defs><g id="Groupe_11305" data-name="Groupe 11305"><g id="Groupe_10046" data-name="Groupe 10046"><g id="Groupe_10000" data-name="Groupe 10000"><path id="Trac&#xE9;_11849" data-name="Trac&#xE9; 11849" class="cls-1" d="M1229.35,468.07h-1.58V466h1.58Zm0-6.33h-1.58v-2.11h1.58Zm0-6.31-1.58,0c0-.72,0-1.44.1-2.16l1.58.13c0,.68-.09,1.37-.1,2.06Zm.68-6.14-1.55-.31c.14-.7.31-1.41.5-2.1l1.53.41c-.18.66-.35,1.34-.48,2Zm1.79-5.9-1.46-.6c.27-.66.56-1.32.87-2l1.43.68c-.3.62-.58,1.25-.84,1.88Zm2.85-5.46-1.33-.86c.39-.6.8-1.2,1.22-1.77l1.28.93c-.41.55-.8,1.12-1.17,1.7Zm3.8-4.86-1.15-1.08c.49-.52,1-1,1.53-1.52l1.08,1.15c-.5.47-1,1-1.46,1.45Zm4.63-4.07-.94-1.28c.58-.42,1.18-.83,1.79-1.22l.85,1.33c-.57.37-1.15.76-1.7,1.16Zm5.3-3.17-.68-1.43c.64-.3,1.31-.6,2-.87l.59,1.47c-.63.26-1.26.53-1.88.83Zm5.79-2.13-.41-1.53c.69-.18,1.4-.35,2.1-.49l.31,1.55c-.67.13-1.34.3-2,.47Zm6.08-1-.12-1.57c.71-.06,1.44-.09,2.15-.1l0,1.58c-.68,0-1.37,0-2,.09Zm6.9-.09h-.64V421h.63l1.44,0,.07,1.58-1.5,0Zm5.78-.48-.26-1.56c.68-.11,1.36-.25,2-.4l.36,1.54c-.7.16-1.41.3-2.12.42Zm6.25-1.65-.54-1.48c.64-.23,1.28-.49,1.9-.77l.64,1.45c-.66.29-1.33.56-2,.8Zm5.83-2.77-.81-1.36c.59-.35,1.17-.72,1.74-1.1l.88,1.31c-.59.4-1.2.79-1.81,1.15Zm5.22-3.79-1-1.19c.51-.45,1-.92,1.5-1.4l1.12,1.12c-.51.5-1,1-1.58,1.47Zm4.45-4.69-1.25-1c.43-.53.84-1.09,1.23-1.65l1.3.9c-.41.59-.84,1.17-1.29,1.73Zm3.51-5.42-1.4-.74c.32-.6.62-1.23.9-1.85l1.44.65c-.29.65-.61,1.3-.94,1.94Zm2.46-6-1.51-.46c.2-.66.38-1.33.54-2l1.53.37c-.16.69-.35,1.39-.56,2.08Zm1.31-6.33-1.57-.18c.07-.67.13-1.36.16-2.05l1.58.08c0,.72-.09,1.44-.17,2.15Zm.22-6.4h-1.58V383h1.58Zm0-6.33h-1.58v-2.11h1.58Z" transform="translate(-1138.41 -128.86)"></path></g><g id="Groupe_10001" data-name="Groupe 10001"><path id="Trac&#xE9;_11850" data-name="Trac&#xE9; 11850" class="cls-1" d="M1511.25,530.88h-1.58v-2.11h1.58Zm0-6.33h-1.58v-2.11h1.58Zm0-6.33h-1.58v-2.11h1.58Zm0-6.32h-1.58v-2.11h1.58Zm0-6.33h-1.58v-2.11h1.58Zm0-6.33h-1.58v-2.1h1.58Zm0-6.32h-1.58v-2.11h1.58Zm0-6.33h-1.58v-2.11h1.58Zm0-6.32h-1.58v-2.11h1.58Zm0-6.33h-1.58v-2.11h1.58Zm0-6.33h-1.58v-2.1h1.58Zm0-6.32h-1.58v-2.1l1.58,0v2.12Zm-1.9-6.2c-.1-.68-.21-1.36-.35-2l1.55-.31c.14.7.26,1.41.36,2.12Zm-1.4-6c-.22-.65-.46-1.3-.72-1.93l1.47-.59c.27.66.52,1.34.75,2Zm-2.49-5.64c-.33-.6-.69-1.19-1.06-1.77l1.34-.85c.38.6.75,1.22,1.1,1.85Zm-3.48-5.09c-.44-.53-.9-1.05-1.36-1.54l1.15-1.09c.49.53,1,1.07,1.43,1.62Zm-4.36-4.37c-.52-.44-1.07-.86-1.62-1.27l.94-1.27c.58.42,1.15.87,1.7,1.33Zm-5.08-3.5c-.6-.33-1.21-.65-1.82-1l.68-1.43c.65.31,1.29.65,1.92,1Zm-5.63-2.51c-.65-.21-1.31-.42-2-.6l.41-1.52c.69.18,1.38.4,2.06.62Zm-6-1.42c-.68-.1-1.37-.17-2.05-.22l.12-1.58c.72.06,1.44.14,2.15.24Zm-6.2-.32h-2.11v-1.59h2.11Zm-6.32,0h-2.11v-1.59h2.11Zm-6.32,0H1460v-1.59h2.11Zm-6.33,0h-2.1v-1.59h2.1Zm-6.38-.14c-.72-.06-1.44-.15-2.14-.25l.23-1.56q1,.15,2,.24Zm-6.36-1.15c-.69-.19-1.38-.41-2-.64l.51-1.5c.65.23,1.31.43,2,.62Zm-6-2.3c-.64-.32-1.28-.66-1.9-1l.78-1.38c.6.34,1.2.67,1.82,1Zm-5.5-3.38c-.57-.43-1.14-.88-1.69-1.34l1-1.21c.52.44,1.06.87,1.61,1.28Zm-4.79-4.33c-.49-.52-1-1.07-1.42-1.62l1.23-1c.43.53.88,1.05,1.35,1.55Zm-3.93-5.13c-.38-.6-.75-1.23-1.09-1.86l1.39-.76c.32.6.67,1.2,1,1.78Zm-2.92-5.77c-.26-.66-.51-1.35-.73-2l1.5-.49c.21.65.45,1.3.7,1.94Zm-1.8-6.2c-.13-.7-.25-1.42-.34-2.13l1.57-.2c.08.68.2,1.36.32,2Zm-.63-6.43v-2.12H1419v2.1Zm1.58-6.33h-1.58V383H1419Zm0-6.33h-1.58v-2.11H1419Z" transform="translate(-1138.41 -128.86)"></path></g><g id="Groupe_10002" data-name="Groupe 10002"><path id="Trac&#xE9;_11851" data-name="Trac&#xE9; 11851" class="cls-1" d="M1393.07,522.4H1391v-1.57h2.1Zm-6.32,0h-2.11v-1.57h2.11Zm10.56,0,0-1.58c.69,0,1.38-.05,2.06-.11l.13,1.58c-.71.05-1.44.09-2.15.11Zm6.41-.75-.33-1.55c.67-.14,1.34-.31,2-.5l.44,1.53c-.69.2-1.4.37-2.09.52Zm6.16-2-.62-1.45c.62-.28,1.25-.57,1.85-.88l.72,1.41c-.64.32-1.29.63-1.95.92Zm5.66-3.12-.9-1.31c.57-.38,1.12-.79,1.66-1.21l1,1.24c-.57.45-1.15.87-1.74,1.28Zm5-4.15-1.12-1.11c.48-.49,1-1,1.4-1.51l1.19,1c-.47.55-1,1.08-1.47,1.59Zm4.08-5-1.32-.88c.38-.57.74-1.15,1.08-1.75l1.37.79c-.35.62-.74,1.24-1.13,1.84Zm3-5.71-1.46-.6c.26-.64.5-1.28.72-1.93l1.5.51c-.23.67-.49,1.35-.76,2Zm1.88-6.2-1.55-.31c.13-.67.24-1.36.33-2l1.57.21c-.09.71-.21,1.43-.35,2.13Zm.65-6.44h-1.58v-.17c0-.63,0-1.27-.06-1.89l1.58-.1c0,.66.06,1.33.06,2ZM1428,482.9c-.13-.67-.28-1.35-.45-2l1.53-.39c.18.69.34,1.4.47,2.1Zm-1.73-5.92c-.25-.63-.53-1.26-.82-1.88l1.42-.68c.31.65.6,1.31.87,2Zm-2.83-5.46c-.37-.57-.76-1.14-1.17-1.69l1.27-.94c.43.57.84,1.17,1.23,1.77Zm-3.83-4.83c-.47-.49-1-1-1.47-1.43l1.06-1.17c.53.48,1,1,1.55,1.51Zm-4.68-4c-.56-.4-1.14-.78-1.72-1.13l.82-1.35c.61.37,1.22.77,1.81,1.18Zm-5.36-3c-.63-.28-1.27-.54-1.91-.77l.55-1.49c.67.25,1.34.52,2,.82Zm-5.85-1.94c-.67-.15-1.35-.28-2-.39l.25-1.56c.71.11,1.42.25,2.12.41Zm-6.11-.78h-2.08v-1.58h2.13Zm-6.33,0c-.72,0-1.44-.08-2.15-.15l.16-1.57c.68.07,1.37.11,2,.14Zm-6.4-.86c-.7-.16-1.4-.35-2.09-.56l.46-1.51c.65.2,1.32.38,2,.53Zm-6.13-2.07c-.65-.3-1.3-.61-1.93-1l.74-1.4c.6.32,1.22.62,1.84.9Zm-5.6-3.22c-.58-.41-1.16-.85-1.71-1.3l1-1.22c.53.43,1.08.84,1.63,1.24Zm-4.88-4.23c-.5-.51-1-1.06-1.44-1.61l1.21-1c.44.52.9,1,1.37,1.53Zm-4-5.08c-.38-.6-.75-1.23-1.1-1.86l1.39-.76c.33.6.68,1.19,1,1.76Zm-2.94-5.77c-.26-.66-.51-1.35-.73-2l1.51-.49c.21.66.44,1.3.69,1.94Zm-1.77-6.22c-.13-.7-.24-1.42-.32-2.13l1.57-.19c.08.68.18,1.37.3,2Zm1-6.43H1359v-2.11h1.58Zm0-6.33H1359v-2.11h1.58Zm0-6.32H1359v-2.11h1.58Zm0-6.33H1359v-2.11h1.58Zm0-6.33H1359V395.6h1.58Zm0-6.32H1359v-2.11h1.58Zm0-6.33H1359V383h1.58Zm0-6.33H1359v-2.1h1.58Z" transform="translate(-1138.41 -128.86)"></path></g><g id="Groupe_10045" data-name="Groupe 10045"><g id="Groupe_10006" data-name="Groupe 10006"><rect id="Rectangle_3176" data-name="Rectangle 3176" class="cls-2" y="309.3" width="192.01" height="130.01" rx="9"></rect><path id="Rectangle_3177" data-name="Rectangle 3177" d="M1147.41,432.31h174a9,9,0,0,1,9,9v109.5h-192V441.31A9,9,0,0,1,1147.41,432.31Z" transform="translate(-1138.41 -128.86)"></path><rect id="Rectangle_3178" data-name="Rectangle 3178" class="cls-3" x="6.38" y="309.76" width="179.26" height="104.93"></rect><rect id="Rectangle_3179" data-name="Rectangle 3179" class="cls-2" x="74.39" y="439.32" width="43.22" height="23.38"></rect><rect id="Rectangle_3180" data-name="Rectangle 3180" class="cls-4" x="57.74" y="462.7" width="76.52" height="6.38"></rect><circle id="Ellipse_1102" data-name="Ellipse 1102" class="cls-3" cx="96" cy="430.28" r="4.07"></circle><path id="Trac&#xE9;_11852" data-name="Trac&#xE9; 11852" class="cls-4" d="M1256,578.09l-43.22,6.38v-16.3H1256Z" transform="translate(-1138.41 -128.86)"></path><circle id="Ellipse_1103" data-name="Ellipse 1103" class="cls-5" cx="13.62" cy="317" r="2.42"></circle><circle id="Ellipse_1104" data-name="Ellipse 1104" class="cls-6" cx="22.31" cy="317" r="2.42"></circle><circle id="Ellipse_1105" data-name="Ellipse 1105" class="cls-7" cx="30.99" cy="317" r="2.42"></circle><g id="Groupe_10005" data-name="Groupe 10005"><g id="Groupe_10003" data-name="Groupe 10003"><path id="Trac&#xE9;_11853" data-name="Trac&#xE9; 11853" class="cls-2" d="M1253.08,511h-48.73a.76.76,0,0,1-.76-.76.88.88,0,0,1,.07-.32L1215.54,484a.76.76,0,0,1,.69-.44h48.25a.75.75,0,0,1,.75.76.77.77,0,0,1-.06.3l-11.4,25.94A.75.75,0,0,1,1253.08,511Zm-47.55-1.52h47.06l10.73-24.42h-46.6Z" transform="translate(-1138.41 -128.86)"></path></g><g id="Groupe_10004" data-name="Groupe 10004"><path id="Trac&#xE9;_11854" data-name="Trac&#xE9; 11854" class="cls-2" d="M1204.35,511a.76.76,0,0,1-.76-.76V471.93a.76.76,0,0,1,.76-.75h16.49a.75.75,0,0,1,.68.43l1.74,3.69h30.31a.76.76,0,0,1,.75.75h0V480a.76.76,0,1,1-1.51,0v-3.15h-30a.77.77,0,0,1-.69-.43l-1.73-3.69h-15.25v37.55A.76.76,0,0,1,1204.35,511Z" transform="translate(-1138.41 -128.86)"></path></g></g></g><g id="Groupe_10031" data-name="Groupe 10031"><g id="Groupe_10008" data-name="Groupe 10008"><path id="Rectangle_3181" data-name="Rectangle 3181" d="M1454.33,463.91h136.82a9,9,0,0,1,9,9v91.63H1445.33V472.91A9,9,0,0,1,1454.33,463.91Z" transform="translate(-1138.41 -128.86)"></path><rect id="Rectangle_3182" data-name="Rectangle 3182" class="cls-8" x="312.06" y="340.13" width="144.54" height="89.69"></rect><path id="Trac&#xE9;_11855" data-name="Trac&#xE9; 11855" class="cls-3" d="M1590,484v67.11a2.52,2.52,0,0,1-2.52,2.53H1458a2.53,2.53,0,0,1-2.53-2.53h0V476.56A2.52,2.52,0,0,1,1458,474h18.88a2.52,2.52,0,0,1,2.52,2.52h0V479a2.52,2.52,0,0,0,2.52,2.52h105.48A2.52,2.52,0,0,1,1590,484Z" transform="translate(-1138.41 -128.86)"></path><path id="Trac&#xE9;_11856" data-name="Trac&#xE9; 11856" class="cls-2" d="M1600.15,570.66H1445.33l-14-3.78v-2.34h182.85v2.34Z" transform="translate(-1138.41 -128.86)"></path><g id="Groupe_10007" data-name="Groupe 10007"><circle id="Ellipse_1106" data-name="Ellipse 1106" class="cls-5" cx="323.3" cy="348.9" r="1.61"></circle><circle id="Ellipse_1107" data-name="Ellipse 1107" class="cls-6" cx="329.07" cy="348.9" r="1.61"></circle><circle id="Ellipse_1108" data-name="Ellipse 1108" class="cls-7" cx="334.84" cy="348.9" r="1.61"></circle></g></g><g id="Groupe_10009" data-name="Groupe 10009"><circle id="Ellipse_1109" data-name="Ellipse 1109" class="cls-2" cx="384.33" cy="378.74" r="19.27"></circle></g><g id="Groupe_10015" data-name="Groupe 10015"><g id="Groupe_10010" data-name="Groupe 10010"><path id="Trac&#xE9;_11857" data-name="Trac&#xE9; 11857" class="cls-2" d="M1553,550.46a11.78,11.78,0,1,1,11.77-11.78h0A11.79,11.79,0,0,1,1553,550.46Zm0-22a10.26,10.26,0,1,0,10.26,10.26A10.26,10.26,0,0,0,1553,528.42Z" transform="translate(-1138.41 -128.86)"></path></g><g id="Groupe_10014" data-name="Groupe 10014"><g id="Groupe_10013" data-name="Groupe 10013"><g id="Groupe_10011" data-name="Groupe 10011"><path id="Trac&#xE9;_11858" data-name="Trac&#xE9; 11858" class="cls-2" d="M1556.66,545.62a.76.76,0,0,1-.75-.76h0v-.73a2.88,2.88,0,1,0-5.76,0h0v.73a.76.76,0,0,1-1.52,0h0v-.73a4.4,4.4,0,1,1,8.79,0v.73a.76.76,0,0,1-.76.76Z" transform="translate(-1138.41 -128.86)"></path></g><g id="Groupe_10012" data-name="Groupe 10012"><path id="Trac&#xE9;_11859" data-name="Trac&#xE9; 11859" class="cls-2" d="M1553,538.37a3.32,3.32,0,1,1,3.31-3.31A3.32,3.32,0,0,1,1553,538.37Zm0-5.12a1.8,1.8,0,1,0,1.8,1.8h0A1.81,1.81,0,0,0,1553,533.25Z" transform="translate(-1138.41 -128.86)"></path></g></g></g></g><g id="Groupe_10021" data-name="Groupe 10021"><g id="Groupe_10016" data-name="Groupe 10016"><path id="Trac&#xE9;_11860" data-name="Trac&#xE9; 11860" class="cls-2" d="M1492.44,550.46a11.78,11.78,0,1,1,11.78-11.78h0A11.79,11.79,0,0,1,1492.44,550.46Zm0-22a10.26,10.26,0,1,0,10.27,10.26h0a10.27,10.27,0,0,0-10.27-10.26Z" transform="translate(-1138.41 -128.86)"></path></g><g id="Groupe_10020" data-name="Groupe 10020"><g id="Groupe_10019" data-name="Groupe 10019"><g id="Groupe_10017" data-name="Groupe 10017"><path id="Trac&#xE9;_11861" data-name="Trac&#xE9; 11861" class="cls-2" d="M1496.08,545.62a.76.76,0,0,1-.76-.76h0v-.73a2.88,2.88,0,1,0-5.76,0h0v.73a.76.76,0,0,1-1.51,0v-.73a4.4,4.4,0,1,1,8.79,0v.73A.76.76,0,0,1,1496.08,545.62Z" transform="translate(-1138.41 -128.86)"></path></g><g id="Groupe_10018" data-name="Groupe 10018"><path id="Trac&#xE9;_11862" data-name="Trac&#xE9; 11862" class="cls-2" d="M1492.44,538.37a3.32,3.32,0,1,1,3.32-3.31A3.31,3.31,0,0,1,1492.44,538.37Zm0-5.12a1.8,1.8,0,1,0,1.8,1.8h0A1.8,1.8,0,0,0,1492.44,533.25Z" transform="translate(-1138.41 -128.86)"></path></g></g></g></g><g id="Groupe_10023" data-name="Groupe 10023"><g id="Groupe_10022" data-name="Groupe 10022"><path id="Trac&#xE9;_11863" data-name="Trac&#xE9; 11863" class="cls-2" d="M1545.34,531.55a.78.78,0,0,1-.54-.23l-9.16-9.4a.76.76,0,0,1,1.09-1l9.15,9.39a.76.76,0,0,1,0,1.07A.75.75,0,0,1,1545.34,531.55Z" transform="translate(-1138.41 -128.86)"></path></g></g><g id="Groupe_10025" data-name="Groupe 10025"><g id="Groupe_10024" data-name="Groupe 10024"><path id="Trac&#xE9;_11864" data-name="Trac&#xE9; 11864" class="cls-2" d="M1500.13,531.55a.76.76,0,0,1-.75-.76.74.74,0,0,1,.21-.53l9.16-9.39a.76.76,0,0,1,1.07,0,.77.77,0,0,1,0,1l-9.16,9.4A.76.76,0,0,1,1500.13,531.55Z" transform="translate(-1138.41 -128.86)"></path></g></g><g id="Groupe_10027" data-name="Groupe 10027"><g id="Groupe_10026" data-name="Groupe 10026"><path id="Trac&#xE9;_11865" data-name="Trac&#xE9; 11865" class="cls-2" d="M1542,539.44h-38.55a.76.76,0,0,1,0-1.52H1542a.76.76,0,0,1,0,1.52Z" transform="translate(-1138.41 -128.86)"></path></g></g><g id="Groupe_10030" data-name="Groupe 10030"><g id="Groupe_10028" data-name="Groupe 10028"><path id="Trac&#xE9;_11866" data-name="Trac&#xE9; 11866" class="cls-3" d="M1529.1,518.55a.76.76,0,0,1-.76-.76h0V516.5a5.6,5.6,0,0,0-11.2,0v1.29a.76.76,0,0,1-1.52.06V516.5a7.12,7.12,0,0,1,14.24,0v1.29a.76.76,0,0,1-.76.76Z" transform="translate(-1138.41 -128.86)"></path></g><g id="Groupe_10029" data-name="Groupe 10029"><path id="Trac&#xE9;_11867" data-name="Trac&#xE9; 11867" class="cls-3" d="M1522.74,507.1a5.23,5.23,0,1,1,5.23-5.23A5.23,5.23,0,0,1,1522.74,507.1Zm0-9a3.72,3.72,0,1,0,3.71,3.72h0a3.72,3.72,0,0,0-3.71-3.72Z" transform="translate(-1138.41 -128.86)"></path></g></g></g><g id="Groupe_10037" data-name="Groupe 10037"><g id="Groupe_10034" data-name="Groupe 10034"><path id="Trac&#xE9;_11870" data-name="Trac&#xE9; 11870" class="cls-2" d="M1378.66,500.84h-10.81a.87.87,0,1,1-.06-1.73h10.87a.87.87,0,0,1,.06,1.73Z" transform="translate(-1138.41 -128.86)"></path></g><g id="Groupe_10035" data-name="Groupe 10035"><path id="Trac&#xE9;_11871" data-name="Trac&#xE9; 11871" class="cls-2" d="M1385.55,506.18h-17.7a.87.87,0,1,1,0-1.73h17.7a.87.87,0,1,1,0,1.73Z" transform="translate(-1138.41 -128.86)"></path></g><g id="Groupe_10036" data-name="Groupe 10036"><path id="Trac&#xE9;_11872" data-name="Trac&#xE9; 11872" class="cls-2" d="M1385.55,511.51h-17.7a.87.87,0,1,1,0-1.73h17.7a.87.87,0,1,1,0,1.73Z" transform="translate(-1138.41 -128.86)"></path></g></g><g id="Groupe_11319" data-name="Groupe 11319"><g id="Groupe_11317" data-name="Groupe 11317"><rect id="Rectangle_3183" data-name="Rectangle 3183" x="220.03" y="343.43" width="52.37" height="95.09" rx="6.38"></rect><g id="Groupe_10033" data-name="Groupe 10033"><path id="Trac&#xE9;_11868" data-name="Trac&#xE9; 11868" class="cls-3" d="M1365.65,559.67a2,2,0,0,1-2-2.06v-77a2,2,0,0,1,2-2.06h3.53a1.08,1.08,0,0,1,1,1.12,4.27,4.27,0,0,0,4.13,4.39h20.29a4.26,4.26,0,0,0,4.12-4.39,1.1,1.1,0,0,1,1.06-1.12h3.53a2,2,0,0,1,1.94,2.06v77a2,2,0,0,1-1.94,2.07Z" transform="translate(-1138.41 -128.86)"></path><g id="Groupe_10032" data-name="Groupe 10032"><path id="Trac&#xE9;_11869" data-name="Trac&#xE9; 11869" class="cls-9" d="M1392.48,474.7h-11.87a1,1,0,0,0,0,2.07h11.87a1,1,0,0,0,0-2.07Z" transform="translate(-1138.41 -128.86)"></path><ellipse id="Ellipse_1110" data-name="Ellipse 1110" class="cls-9" cx="238.11" cy="346.88" rx="0.97" ry="1.03"></ellipse></g></g></g><g id="Groupe_11318" data-name="Groupe 11318"><g id="Groupe_10039" data-name="Groupe 10039"><circle id="Ellipse_1111" data-name="Ellipse 1111" class="cls-10" cx="275" cy="376.46" r="12.25"></circle><g id="Groupe_10038" data-name="Groupe 10038"><path id="Trac&#xE9;_11873" data-name="Trac&#xE9; 11873" class="cls-3" d="M1412.09,509.4h0a2.15,2.15,0,0,1-1.49-.67l-3.36-3.43a.86.86,0,0,1,1.23-1.21h0l3.38,3.44a.4.4,0,0,0,.27.14.43.43,0,0,0,.26-.13l6-6.06a.89.89,0,0,1,1.23,0,.88.88,0,0,1,0,1.22h0l-6,6.05a2.17,2.17,0,0,1-1.48.65Z" transform="translate(-1138.41 -128.86)"></path></g></g></g></g><g id="Groupe_10044" data-name="Groupe 10044"><path id="Trac&#xE9;_11874" data-name="Trac&#xE9; 11874" class="cls-2" d="M1387.27,522.64H1334v32.65h35.76l5.91,5.91v-5.91h11.58Z" transform="translate(-1138.41 -128.86)"></path><g id="Groupe_10043" data-name="Groupe 10043"><g id="Groupe_10040" data-name="Groupe 10040"><path id="Trac&#xE9;_11875" data-name="Trac&#xE9; 11875" class="cls-3" d="M1370.05,534.49h-18.8a.87.87,0,0,1,0-1.73h18.8a.87.87,0,0,1,0,1.73Z" transform="translate(-1138.41 -128.86)"></path></g><g id="Groupe_10041" data-name="Groupe 10041"><path id="Trac&#xE9;_11876" data-name="Trac&#xE9; 11876" class="cls-3" d="M1377.07,539.86h-32.84a.86.86,0,1,1,0-1.72h32.84a.86.86,0,0,1,0,1.72Z" transform="translate(-1138.41 -128.86)"></path></g><g id="Groupe_10042" data-name="Groupe 10042"><path id="Trac&#xE9;_11877" data-name="Trac&#xE9; 11877" class="cls-3" d="M1377.07,545.24h-32.84a.87.87,0,0,1,0-1.73h32.84a.87.87,0,0,1,0,1.73Z" transform="translate(-1138.41 -128.86)"></path></g></g></g></g><rect id="Rectangle_3184" data-name="Rectangle 3184" class="cls-2" x="160.62" y="241.89" width="5.8" height="22.03"></rect><rect id="Rectangle_3185" data-name="Rectangle 3185" class="cls-1" x="157.56" y="241.89" width="11.92" height="11.92"></rect><rect id="Rectangle_3186" data-name="Rectangle 3186" class="cls-2" x="218.19" y="241.89" width="5.8" height="22.03"></rect><rect id="Rectangle_3187" data-name="Rectangle 3187" class="cls-1" x="215.13" y="241.89" width="11.92" height="11.92"></rect><rect id="Rectangle_3188" data-name="Rectangle 3188" class="cls-2" x="276.65" y="241.89" width="5.8" height="22.03"></rect><rect id="Rectangle_3189" data-name="Rectangle 3189" class="cls-1" x="273.59" y="241.89" width="11.92" height="11.92"></rect><g id="Groupe_9103" data-name="Groupe 9103"><g id="Groupe_9028" data-name="Groupe 9028"><g id="Groupe_9022" data-name="Groupe 9022"><rect id="Rectangle_2775" data-name="Rectangle 2775" class="cls-11" x="295.23" y="187.07" width="3.98" height="14.56"></rect><path id="Trac&#xE9;_11288" data-name="Trac&#xE9; 11288" class="cls-11" d="M1440.77,332.6a5.14,5.14,0,1,0-5.14,5.15,5.14,5.14,0,0,0,5.14-5.15Z" transform="translate(-1138.41 -128.86)"></path><path id="Trac&#xE9;_11289" data-name="Trac&#xE9; 11289" class="cls-11" d="M1439,332.6a3.37,3.37,0,1,0-3.37,3.37A3.37,3.37,0,0,0,1439,332.6Z" transform="translate(-1138.41 -128.86)"></path></g><g id="Groupe_9023" data-name="Groupe 9023"><rect id="Rectangle_2776" data-name="Rectangle 2776" class="cls-11" x="196.36" y="187.07" width="3.98" height="14.56"></rect><path id="Trac&#xE9;_11290" data-name="Trac&#xE9; 11290" class="cls-11" d="M1341.9,332.6a5.14,5.14,0,1,0-5.14,5.15,5.14,5.14,0,0,0,5.14-5.15Z" transform="translate(-1138.41 -128.86)"></path><path id="Trac&#xE9;_11291" data-name="Trac&#xE9; 11291" class="cls-11" d="M1340.13,332.6a3.37,3.37,0,1,0-3.37,3.37,3.37,3.37,0,0,0,3.37-3.37Z" transform="translate(-1138.41 -128.86)"></path></g><g id="Groupe_9024" data-name="Groupe 9024"><rect id="Rectangle_2777" data-name="Rectangle 2777" class="cls-11" x="131.25" y="187.07" width="3.98" height="14.56"></rect><path id="Trac&#xE9;_11292" data-name="Trac&#xE9; 11292" class="cls-11" d="M1276.79,332.6a5.14,5.14,0,1,0-5.14,5.15,5.14,5.14,0,0,0,5.14-5.15Z" transform="translate(-1138.41 -128.86)"></path><path id="Trac&#xE9;_11293" data-name="Trac&#xE9; 11293" class="cls-11" d="M1275,332.6a3.37,3.37,0,1,0-3.37,3.37A3.37,3.37,0,0,0,1275,332.6Z" transform="translate(-1138.41 -128.86)"></path></g><path id="Rectangle_2778" data-name="Rectangle 2778" class="cls-12" d="M1317.6,325.81H1270a17.88,17.88,0,0,1-17.87-17.87h0v-116a39.27,39.27,0,0,1,39.27-39.26h26.24a17.87,17.87,0,0,1,17.87,17.87h0V307.94A17.87,17.87,0,0,1,1317.6,325.81Z" transform="translate(-1138.41 -128.86)"></path><path id="Rectangle_2779" data-name="Rectangle 2779" class="cls-13" d="M1433.7,325.81H1322V152.68h129.08V308.46A17.35,17.35,0,0,1,1433.7,325.81Z" transform="translate(-1138.41 -128.86)"></path><rect id="Rectangle_2780" data-name="Rectangle 2780" class="cls-11" x="137.96" y="15.75" width="132.39" height="8.08"></rect><rect id="Rectangle_2781" data-name="Rectangle 2781" class="cls-14" x="129.33" y="35.37" width="46.37" height="3.3"></rect><rect id="Rectangle_2782" data-name="Rectangle 2782" class="cls-14" x="129.33" y="43.43" width="46.37" height="3.3"></rect><path id="Trac&#xE9;_11294" data-name="Trac&#xE9; 11294" class="cls-13" d="M1294.32,144.6h144.79a15.74,15.74,0,0,0-15.74-15.74h-129Z" transform="translate(-1138.41 -128.86)"></path><path id="Trac&#xE9;_11295" data-name="Trac&#xE9; 11295" class="cls-12" d="M1260.2,144.6h75.27a15.74,15.74,0,0,0-15.74-15.74h-43.79a15.74,15.74,0,0,0-15.74,15.74Z" transform="translate(-1138.41 -128.86)"></path><g id="Groupe_9027" data-name="Groupe 9027"><path id="Trac&#xE9;_11296" data-name="Trac&#xE9; 11296" class="cls-1" d="M1448,152.68l11.9,22.59c1.81,3.44.49,6.22-2.94,6.22h-99.18c-3.44,0-7.69-2.78-9.5-6.22l-11.9-22.59Z" transform="translate(-1138.41 -128.86)"></path><path id="Trac&#xE9;_11297" data-name="Trac&#xE9; 11297" class="cls-14" d="M1363,181.49h99.17c3.44,0,4.76-2.78,2.95-6.22l-11.9-22.59H1341.59l11.9,22.59C1355.3,178.71,1359.55,181.49,1363,181.49Z" transform="translate(-1138.41 -128.86)"></path><path id="Trac&#xE9;_11298" data-name="Trac&#xE9; 11298" class="cls-15" d="M1366.05,173h29.6l-7.82-14.85h-29.6Z" transform="translate(-1138.41 -128.86)"></path><g id="Groupe_9025" data-name="Groupe 9025"><path id="Trac&#xE9;_11299" data-name="Trac&#xE9; 11299" class="cls-1" d="M1427.87,161.61a4.06,4.06,0,0,0,3.2,2.1c1.16,0,1.6-.94,1-2.1a4.08,4.08,0,0,0-3.2-2.1C1427.71,159.52,1427.26,160.45,1427.87,161.61Z" transform="translate(-1138.41 -128.86)"></path><path id="Trac&#xE9;_11300" data-name="Trac&#xE9; 11300" class="cls-1" d="M1416.41,161.61a4.08,4.08,0,0,0,3.2,2.1c1.16,0,1.6-.94,1-2.1a4.08,4.08,0,0,0-3.2-2.1C1416.24,159.52,1415.8,160.45,1416.41,161.61Z" transform="translate(-1138.41 -128.86)"></path><path id="Trac&#xE9;_11301" data-name="Trac&#xE9; 11301" class="cls-1" d="M1404.52,161.61a4.06,4.06,0,0,0,3.2,2.1c1.16,0,1.6-.94,1-2.1a4.08,4.08,0,0,0-3.2-2.1C1404.36,159.52,1403.91,160.45,1404.52,161.61Z" transform="translate(-1138.41 -128.86)"></path><path id="Trac&#xE9;_11302" data-name="Trac&#xE9; 11302" class="cls-1" d="M1432.37,170.14a4.08,4.08,0,0,0,3.2,2.1c1.16,0,1.6-.94,1-2.1a4.08,4.08,0,0,0-3.2-2.1C1432.2,168,1431.76,169,1432.37,170.14Z" transform="translate(-1138.41 -128.86)"></path><path id="Trac&#xE9;_11303" data-name="Trac&#xE9; 11303" class="cls-1" d="M1420.9,170.14a4.08,4.08,0,0,0,3.2,2.1c1.16,0,1.6-.94,1-2.1a4.08,4.08,0,0,0-3.2-2.1C1420.74,168,1420.29,169,1420.9,170.14Z" transform="translate(-1138.41 -128.86)"></path><path id="Trac&#xE9;_11304" data-name="Trac&#xE9; 11304" class="cls-1" d="M1409,170.14a4.08,4.08,0,0,0,3.2,2.1c1.15,0,1.6-.94,1-2.1a4.08,4.08,0,0,0-3.2-2.1C1408.85,168,1408.41,169,1409,170.14Z" transform="translate(-1138.41 -128.86)"></path></g><g id="Groupe_9026" data-name="Groupe 9026"><path id="Trac&#xE9;_11305" data-name="Trac&#xE9; 11305" class="cls-1" d="M1448.56,158.48a1.93,1.93,0,0,0,1.52,1c.55,0,.76-.44.47-1a2,2,0,0,0-1.52-1C1448.48,157.49,1448.27,157.93,1448.56,158.48Z" transform="translate(-1138.41 -128.86)"></path><path id="Trac&#xE9;_11306" data-name="Trac&#xE9; 11306" class="cls-1" d="M1443.11,158.48a1.93,1.93,0,0,0,1.52,1c.55,0,.76-.44.47-1a2,2,0,0,0-1.52-1C1443,157.49,1442.82,157.93,1443.11,158.48Z" transform="translate(-1138.41 -128.86)"></path><path id="Trac&#xE9;_11307" data-name="Trac&#xE9; 11307" class="cls-1" d="M1437.46,158.48a1.93,1.93,0,0,0,1.52,1c.55,0,.76-.44.47-1a2,2,0,0,0-1.52-1C1437.38,157.49,1437.17,157.93,1437.46,158.48Z" transform="translate(-1138.41 -128.86)"></path><path id="Trac&#xE9;_11308" data-name="Trac&#xE9; 11308" class="cls-1" d="M1450.69,162.54a2,2,0,0,0,1.52,1c.56,0,.77-.45.48-1a1.93,1.93,0,0,0-1.53-1C1450.61,161.54,1450.4,162,1450.69,162.54Z" transform="translate(-1138.41 -128.86)"></path><path id="Trac&#xE9;_11309" data-name="Trac&#xE9; 11309" class="cls-1" d="M1445.24,162.54a2,2,0,0,0,1.53,1c.55,0,.76-.45.47-1a1.93,1.93,0,0,0-1.52-1C1445.16,161.54,1445,162,1445.24,162.54Z" transform="translate(-1138.41 -128.86)"></path><path id="Trac&#xE9;_11310" data-name="Trac&#xE9; 11310" class="cls-1" d="M1439.59,162.54a2,2,0,0,0,1.53,1c.55,0,.76-.45.47-1a1.93,1.93,0,0,0-1.52-1C1439.52,161.54,1439.3,162,1439.59,162.54Z" transform="translate(-1138.41 -128.86)"></path></g></g><path id="Trac&#xE9;_11311" data-name="Trac&#xE9; 11311" class="cls-16" d="M1428,213.53h-70.79a2.45,2.45,0,0,1-2.45-2.45h0a2.45,2.45,0,0,1,2.45-2.45H1428a2.45,2.45,0,0,1,2.45,2.45h0A2.45,2.45,0,0,1,1428,213.53Z" transform="translate(-1138.41 -128.86)"></path><path id="Trac&#xE9;_11312" data-name="Trac&#xE9; 11312" class="cls-16" d="M1428,224.83h-70.79a2.45,2.45,0,0,1-2.45-2.45h0a2.45,2.45,0,0,1,2.45-2.45H1428a2.45,2.45,0,0,1,2.45,2.45h0A2.45,2.45,0,0,1,1428,224.83Z" transform="translate(-1138.41 -128.86)"></path></g><g id="Groupe_9102" data-name="Groupe 9102"><path id="Trac&#xE9;_6324" data-name="Trac&#xE9; 6324" class="cls-17" d="M1273.93,257.67h9.58v-9.58h-9.58v9.58m1.37-1.37h6.84v-6.84h-6.84v6.84" transform="translate(-1138.41 -128.86)"></path><path id="Trac&#xE9;_6325" data-name="Trac&#xE9; 6325" class="cls-17" d="M1286.24,249.46h1.37v-1.37h-1.37" transform="translate(-1138.41 -128.86)"></path><path id="Trac&#xE9;_6326" data-name="Trac&#xE9; 6326" class="cls-17" d="M1290.35,249.46h1.37v-1.37h-1.37" transform="translate(-1138.41 -128.86)"></path><path id="Trac&#xE9;_6327" data-name="Trac&#xE9; 6327" class="cls-17" d="M1293.08,257.67h9.58v-9.58h-9.58v9.58m1.37-1.37h6.84v-6.84h-6.84v6.84" transform="translate(-1138.41 -128.86)"></path><path id="Trac&#xE9;_6328" data-name="Trac&#xE9; 6328" class="cls-17" d="M1284.87,250.83h1.37v-1.37h-1.37" transform="translate(-1138.41 -128.86)"></path><path id="Trac&#xE9;_6329" data-name="Trac&#xE9; 6329" class="cls-17" d="M1289,250.83h1.37v-1.37H1289" transform="translate(-1138.41 -128.86)"></path><path id="Trac&#xE9;_6330" data-name="Trac&#xE9; 6330" class="cls-17" d="M1276.66,254.93h4.1v-4.1h-4.1v4.1" transform="translate(-1138.41 -128.86)"></path><path id="Trac&#xE9;_6331" data-name="Trac&#xE9; 6331" class="cls-17" d="M1286.24,252.2h1.37v-1.37h-1.37" transform="translate(-1138.41 -128.86)"></path><path id="Trac&#xE9;_6332" data-name="Trac&#xE9; 6332" class="cls-17" d="M1295.82,254.93h4.1v-4.1h-4.1v4.1" transform="translate(-1138.41 -128.86)"></path><path id="Trac&#xE9;_6333" data-name="Trac&#xE9; 6333" class="cls-17" d="M1284.87,253.56h1.37v-1.37h-1.37" transform="translate(-1138.41 -128.86)"></path><path id="Trac&#xE9;_6334" data-name="Trac&#xE9; 6334" class="cls-17" d="M1290.35,261.77h1.36V260.4h1.37V259h-1.36v-5.48h-1.37V252.2H1289v1.36h-1.37v1.37h-2.73v2.74h1.37V256.3h1.36V259h2.74v2.73m-1.37-4.1h1.37v-2.73H1289v2.73" transform="translate(-1138.41 -128.86)"></path><path id="Trac&#xE9;_6335" data-name="Trac&#xE9; 6335" class="cls-17" d="M1275.3,261.77h1.36V260.4H1278v1.37h1.37V260.4h1.37V259h-6.84v1.36h1.37v1.37" transform="translate(-1138.41 -128.86)"></path><path id="Trac&#xE9;_6336" data-name="Trac&#xE9; 6336" class="cls-17" d="M1286.24,261.77H1289V260.4h-1.37V259h-5.47v1.36h4.1v1.37" transform="translate(-1138.41 -128.86)"></path><path id="Trac&#xE9;_6337" data-name="Trac&#xE9; 6337" class="cls-17" d="M1294.45,261.77h1.37V259h-1.37v2.73" transform="translate(-1138.41 -128.86)"></path><path id="Trac&#xE9;_6338" data-name="Trac&#xE9; 6338" class="cls-17" d="M1297.19,261.77h1.37V259h-1.37v2.73" transform="translate(-1138.41 -128.86)"></path><path id="Trac&#xE9;_6339" data-name="Trac&#xE9; 6339" class="cls-17" d="M1299.92,260.4h1.37V259h-1.37" transform="translate(-1138.41 -128.86)"></path><path id="Trac&#xE9;_6340" data-name="Trac&#xE9; 6340" class="cls-17" d="M1280.77,263.14h4.1v-1.37h-2.74V260.4h-1.36v2.74" transform="translate(-1138.41 -128.86)"></path><path id="Trac&#xE9;_6341" data-name="Trac&#xE9; 6341" class="cls-17" d="M1273.93,263.14h1.37v-1.37h-1.37" transform="translate(-1138.41 -128.86)"></path><path id="Trac&#xE9;_6342" data-name="Trac&#xE9; 6342" class="cls-17" d="M1289,263.14h1.37v-1.37H1289" transform="translate(-1138.41 -128.86)"></path><path id="Trac&#xE9;_6343" data-name="Trac&#xE9; 6343" class="cls-17" d="M1291.72,263.14h1.36v-1.37h-1.36" transform="translate(-1138.41 -128.86)"></path><path id="Trac&#xE9;_6344" data-name="Trac&#xE9; 6344" class="cls-17" d="M1295.82,265.88h1.37v-1.37h1.37v1.37h1.36v-2.74h1.37v-1.37h-2.73v1.37h-1.37v-1.37h-1.37v1.37h-1.37v1.37h1.37v1.36" transform="translate(-1138.41 -128.86)"></path><path id="Trac&#xE9;_6345" data-name="Trac&#xE9; 6345" class="cls-17" d="M1275.3,265.88h1.36v-2.74h-1.36v2.74" transform="translate(-1138.41 -128.86)"></path><path id="Trac&#xE9;_6346" data-name="Trac&#xE9; 6346" class="cls-17" d="M1278,265.88h1.37v-2.74H1278v2.74" transform="translate(-1138.41 -128.86)"></path><path id="Trac&#xE9;_6347" data-name="Trac&#xE9; 6347" class="cls-17" d="M1290.35,272.72h1.36V270h2.74v-1.37h1.37v-1.37h-1.37v-1.36h-1.37v-1.37h-1.36v1.37h-1.37v-1.37h-2.74v-1.36h-2.73v1.36h1.37v1.37h-1.37v2.74h4.1v-1.37h1.37v1.37H1289V270h1.37v2.74m1.36-4.11h1.37v-1.37h-1.36v1.37" transform="translate(-1138.41 -128.86)"></path><path id="Trac&#xE9;_6348" data-name="Trac&#xE9; 6348" class="cls-17" d="M1301.29,264.51h1.37v-1.37h-1.37" transform="translate(-1138.41 -128.86)"></path><path id="Trac&#xE9;_6349" data-name="Trac&#xE9; 6349" class="cls-17" d="M1282.14,265.88h1.37v-1.37h-1.37" transform="translate(-1138.41 -128.86)"></path><path id="Trac&#xE9;_6350" data-name="Trac&#xE9; 6350" class="cls-17" d="M1295.82,276.82h1.37v-2.73h1.37v-1.37h1.36v-1.37h1.37V270h-1.37v-1.37h-1.36v-2.73h-1.37V270h1.37v1.37h-1.37v1.36h-1.37v1.37h-1.37v1.37h1.37v1.37" transform="translate(-1138.41 -128.86)"></path><path id="Trac&#xE9;_6351" data-name="Trac&#xE9; 6351" class="cls-17" d="M1273.93,276.82h9.58v-9.58h-9.58v9.58m1.37-1.37h6.84v-6.84h-6.84v6.84" transform="translate(-1138.41 -128.86)"></path><path id="Trac&#xE9;_6352" data-name="Trac&#xE9; 6352" class="cls-17" d="M1299.92,268.61h1.37v-1.37h-1.37" transform="translate(-1138.41 -128.86)"></path><path id="Trac&#xE9;_6353" data-name="Trac&#xE9; 6353" class="cls-17" d="M1276.66,274.09h4.1V270h-4.1v4.1" transform="translate(-1138.41 -128.86)"></path><path id="Trac&#xE9;_6354" data-name="Trac&#xE9; 6354" class="cls-17" d="M1284.87,276.82h1.37v-1.37H1289v-1.37h1.37v-1.36H1289v-1.37h-1.37v2.74h-1.37v-2.74h1.37V270h-2.74v6.84" transform="translate(-1138.41 -128.86)"></path><path id="Trac&#xE9;_6355" data-name="Trac&#xE9; 6355" class="cls-17" d="M1294.45,272.72h1.37V270h-1.37v2.74" transform="translate(-1138.41 -128.86)"></path><path id="Trac&#xE9;_6356" data-name="Trac&#xE9; 6356" class="cls-17" d="M1291.72,274.09h1.36v-1.37h-1.36" transform="translate(-1138.41 -128.86)"></path><path id="Trac&#xE9;_6357" data-name="Trac&#xE9; 6357" class="cls-17" d="M1298.56,276.82h2.73v-1.37h-1.37v-1.36h-1.36v2.73" transform="translate(-1138.41 -128.86)"></path><path id="Trac&#xE9;_6358" data-name="Trac&#xE9; 6358" class="cls-17" d="M1289,276.82h1.37v-1.37H1289" transform="translate(-1138.41 -128.86)"></path><path id="Trac&#xE9;_6359" data-name="Trac&#xE9; 6359" class="cls-17" d="M1291.72,276.82h1.36v-1.37h-1.36" transform="translate(-1138.41 -128.86)"></path></g></g></g></g></svg>