<svg xmlns="http://www.w3.org/2000/svg" xmlns:xlink="http://www.w3.org/1999/xlink" id="Calque_1" data-name="Calque 1" viewBox="0 0 891.33 665.07"><defs><style>.cls-1,.cls-2{fill:none;}.cls-2{stroke:#00456b;stroke-linecap:round;stroke-miterlimit:10;stroke-width:6px;stroke-dasharray:18;}.cls-3{fill:#fff;}.cls-4{fill:#5e7b86;}.cls-5{fill:#d6dee6;}.cls-6{fill:#8da8ba;}.cls-7{fill:#f3f3f3;}.cls-8{fill:#b4b1b1;}.cls-9{fill:#1f1f1f;}.cls-10{fill:#3d3d3d;}.cls-11{fill:#e2e2e2;}.cls-12{fill:#708691;}.cls-13{fill:#878585;}.cls-14{fill:#656464;}.cls-15{fill:#444343;}.cls-16{fill:#9b9b9b;}.cls-17{fill:#5a5959;}.cls-18{fill:#cfcece;}.cls-19{fill:#058793;}.cls-20{fill:#6cbfd3;}.cls-21{fill:#c7cdd3;}.cls-22{fill:#acabab;}.cls-23{fill:#e5e4e4;}.cls-24,.cls-50{fill:#00456b;}.cls-25{fill:#02405b;}.cls-26{fill:#19a580;}.cls-27{fill:#fafafa;}.cls-28{fill:#263238;}.cls-29{fill:#e8505b;}.cls-30{fill:#00aac4;}.cls-31{fill:#f5f5f5;}.cls-32{fill:#ebebeb;}.cls-33{fill:#2e3533;}.cls-34{fill:#455a64;}.cls-35{fill:#d54d30;}.cls-36{fill:#221f1f;}.cls-37{fill:#b0bfc5;}.cls-38{fill:#1a1e1d;}.cls-39{fill:#17162f;}.cls-40{clip-path:url(#clip-path);}.cls-41{fill:#3fa68d;}.cls-42{fill:gray;}.cls-43{fill:#c53389;}.cls-44{fill:#e4e4e4;}.cls-45{fill:#419680;}.cls-46{fill:#cacaca;}.cls-47{fill:#ccd6df;}.cls-48{fill:#f0f0f0;}.cls-49{fill:#16a9c5;}.cls-50{fill-rule:evenodd;}.cls-51{fill:#979797;}.cls-52{fill:#666;}</style><clipPath id="clip-path" transform="translate(-845.3 10.13)"><rect class="cls-1" x="1633.61" y="421.99" width="30.95" height="31.02"></rect></clipPath></defs><g id="Groupe_11326" data-name="Groupe 11326"><path id="Trac&#xE9;_13382" data-name="Trac&#xE9; 13382" class="cls-2" d="M970.68,524.61l326.17-345,305,350.7Z" transform="translate(-845.3 10.13)"></path><ellipse id="Ellipse_1177" data-name="Ellipse 1177" class="cls-3" cx="754.27" cy="535.33" rx="29.65" ry="37.48"></ellipse><g id="Groupe_10379" data-name="Groupe 10379"><g id="Groupe_10376" data-name="Groupe 10376"><path id="Trac&#xE9;_12221" data-name="Trac&#xE9; 12221" class="cls-4" d="M1226.36,127a8.6,8.6,0,1,1-8.6-8.6,8.6,8.6,0,0,1,8.6,8.6Z" transform="translate(-845.3 10.13)"></path><circle id="Ellipse_1133" data-name="Ellipse 1133" class="cls-4" cx="406.85" cy="137.09" r="8.6"></circle><path id="Trac&#xE9;_12222" data-name="Trac&#xE9; 12222" class="cls-4" d="M1341.83,127a8.6,8.6,0,1,1-8.6-8.6,8.6,8.6,0,0,1,8.6,8.6Z" transform="translate(-845.3 10.13)"></path><circle id="Ellipse_1134" data-name="Ellipse 1134" class="cls-4" cx="522.32" cy="137.09" r="8.6"></circle><rect id="Rectangle_3239" data-name="Rectangle 3239" class="cls-5" x="326.62" y="137.1" width="241.54" height="62.64"></rect><path id="Trac&#xE9;_12223" data-name="Trac&#xE9; 12223" class="cls-5" d="M1239.37,181.76l-3.78.5L1221.43,174l9.34-1.17Z" transform="translate(-845.3 10.13)"></path><g id="Groupe_10365" data-name="Groupe 10365"><path id="Trac&#xE9;_12224" data-name="Trac&#xE9; 12224" class="cls-4" d="M1252.28,194.67H1215v12.9h50.17Z" transform="translate(-845.3 10.13)"></path><rect id="Rectangle_3240" data-name="Rectangle 3240" class="cls-6" x="326.62" y="204.79" width="43.09" height="12.91"></rect><path id="Trac&#xE9;_12225" data-name="Trac&#xE9; 12225" class="cls-7" d="M1252.28,194.67l-12.91-12.91H1215v12.91Z" transform="translate(-845.3 10.13)"></path><path id="Trac&#xE9;_12226" data-name="Trac&#xE9; 12226" class="cls-7" d="M1215,181.76h-43.09v12.91H1215Z" transform="translate(-845.3 10.13)"></path><rect id="Rectangle_3241" data-name="Rectangle 3241" class="cls-6" x="326.62" y="230.61" width="43.09" height="65.99"></rect><rect id="Rectangle_3242" data-name="Rectangle 3242" class="cls-4" x="369.71" y="230.61" width="61.56" height="65.99"></rect></g><g id="Groupe_10366" data-name="Groupe 10366"><path id="Trac&#xE9;_12227" data-name="Trac&#xE9; 12227" class="cls-8" d="M1265.18,207.57h11.39v-12.9h-24.29Z" transform="translate(-845.3 10.13)"></path><path id="Trac&#xE9;_12228" data-name="Trac&#xE9; 12228" class="cls-7" d="M1276.57,194.67V181.76h-37.2l12.91,12.91Z" transform="translate(-845.3 10.13)"></path></g><path id="Trac&#xE9;_12229" data-name="Trac&#xE9; 12229" class="cls-5" d="M1300.89,181.76l-3.77.5L1283,174l9.34-1.17Z" transform="translate(-845.3 10.13)"></path><g id="Groupe_10367" data-name="Groupe 10367"><path id="Trac&#xE9;_12230" data-name="Trac&#xE9; 12230" class="cls-6" d="M1276.57,207.57h50.14l-12.91-12.9h-37.23Z" transform="translate(-845.3 10.13)"></path><path id="Trac&#xE9;_12231" data-name="Trac&#xE9; 12231" class="cls-6" d="M1339.61,220.48h-63v66h89.17V250.61h4Z" transform="translate(-845.3 10.13)"></path><path id="Trac&#xE9;_12232" data-name="Trac&#xE9; 12232" class="cls-7" d="M1313.8,194.67l-12.91-12.91h-24.32v12.91Z" transform="translate(-845.3 10.13)"></path><path id="Trac&#xE9;_12233" data-name="Trac&#xE9; 12233" class="cls-9" d="M1276.57,220.48h54.81v-8.24l-4.67-4.67h-50.14Z" transform="translate(-845.3 10.13)"></path><rect id="Rectangle_3243" data-name="Rectangle 3243" class="cls-10" x="326.62" y="217.7" width="104.64" height="12.91"></rect></g><g id="Groupe_10368" data-name="Groupe 10368"><path id="Trac&#xE9;_12234" data-name="Trac&#xE9; 12234" class="cls-6" d="M1369.74,250.61h31.87v31.86l4,4h7.85v-66h-73.84Z" transform="translate(-845.3 10.13)"></path><path id="Trac&#xE9;_12235" data-name="Trac&#xE9; 12235" class="cls-6" d="M1326.71,207.57h86.75v-12.9H1313.8Z" transform="translate(-845.3 10.13)"></path><path id="Trac&#xE9;_12236" data-name="Trac&#xE9; 12236" class="cls-5" d="M1401.61,282.47v4h4Z" transform="translate(-845.3 10.13)"></path><path id="Trac&#xE9;_12237" data-name="Trac&#xE9; 12237" class="cls-7" d="M1413.46,194.67V181.76H1300.89l12.91,12.91Z" transform="translate(-845.3 10.13)"></path><path id="Trac&#xE9;_12238" data-name="Trac&#xE9; 12238" class="cls-9" d="M1336.09,220.48h3.53l-3.53-3.52Z" transform="translate(-845.3 10.13)"></path><path id="Trac&#xE9;_12239" data-name="Trac&#xE9; 12239" class="cls-10" d="M1336.09,217l3.53,3.52h73.84V207.57h-77.37Z" transform="translate(-845.3 10.13)"></path><path id="Trac&#xE9;_12240" data-name="Trac&#xE9; 12240" class="cls-10" d="M1326.71,207.57l4.67,4.67v-4.67Z" transform="translate(-845.3 10.13)"></path><path id="Trac&#xE9;_12241" data-name="Trac&#xE9; 12241" class="cls-11" d="M1331.38,212.24v8.24h4.71V217Z" transform="translate(-845.3 10.13)"></path><path id="Trac&#xE9;_12242" data-name="Trac&#xE9; 12242" class="cls-7" d="M1336.09,207.57h-4.71v4.67l4.71,4.72Z" transform="translate(-845.3 10.13)"></path><path id="Trac&#xE9;_12243" data-name="Trac&#xE9; 12243" class="cls-12" d="M1385.12,266h-19.38v5.13h24.5Z" transform="translate(-845.3 10.13)"></path><path id="Trac&#xE9;_12244" data-name="Trac&#xE9; 12244" class="cls-12" d="M1365.74,276.23v5.12h34.75l-5.13-5.12Z" transform="translate(-845.3 10.13)"></path><path id="Trac&#xE9;_12245" data-name="Trac&#xE9; 12245" class="cls-12" d="M1401.61,276.23h-6.25l5.13,5.12h1.12Z" transform="translate(-845.3 10.13)"></path><path id="Trac&#xE9;_12246" data-name="Trac&#xE9; 12246" class="cls-12" d="M1374.87,255.73h-9.13v5.13H1380Z" transform="translate(-845.3 10.13)"></path><path id="Trac&#xE9;_12247" data-name="Trac&#xE9; 12247" class="cls-12" d="M1380,260.86h21.62v-5.13h-26.74Z" transform="translate(-845.3 10.13)"></path><path id="Trac&#xE9;_12248" data-name="Trac&#xE9; 12248" class="cls-12" d="M1390.24,271.1h11.37V266h-16.49Z" transform="translate(-845.3 10.13)"></path><path id="Trac&#xE9;_12249" data-name="Trac&#xE9; 12249" class="cls-5" d="M1369.75,250.61h-4v5.12h9.12Z" transform="translate(-845.3 10.13)"></path><path id="Trac&#xE9;_12250" data-name="Trac&#xE9; 12250" class="cls-5" d="M1401.61,255.73v-5.12h-31.87l5.13,5.12Z" transform="translate(-845.3 10.13)"></path><path id="Trac&#xE9;_12251" data-name="Trac&#xE9; 12251" class="cls-5" d="M1380,260.86h-14.25V266h19.38Z" transform="translate(-845.3 10.13)"></path><path id="Trac&#xE9;_12252" data-name="Trac&#xE9; 12252" class="cls-5" d="M1385.12,266h16.49v-5.12H1380Z" transform="translate(-845.3 10.13)"></path><path id="Trac&#xE9;_12253" data-name="Trac&#xE9; 12253" class="cls-5" d="M1395.36,276.23h6.25v-5.12h-11.37Z" transform="translate(-845.3 10.13)"></path><path id="Trac&#xE9;_12254" data-name="Trac&#xE9; 12254" class="cls-5" d="M1390.24,271.11h-24.5v5.12h29.62Z" transform="translate(-845.3 10.13)"></path><path id="Trac&#xE9;_12255" data-name="Trac&#xE9; 12255" class="cls-5" d="M1400.49,281.35h-34.75v5.13h35.87v-4Z" transform="translate(-845.3 10.13)"></path><path id="Trac&#xE9;_12256" data-name="Trac&#xE9; 12256" class="cls-13" d="M1400.49,281.35l1.12,1.12v-1.12Z" transform="translate(-845.3 10.13)"></path></g><rect id="Rectangle_3244" data-name="Rectangle 3244" class="cls-7" x="527.12" y="217.7" width="4.72" height="12.91"></rect><rect id="Rectangle_3245" data-name="Rectangle 3245" class="cls-7" x="445.03" y="217.7" width="4.72" height="12.91"></rect><rect id="Rectangle_3246" data-name="Rectangle 3246" class="cls-11" x="403.99" y="217.7" width="4.72" height="12.91"></rect><rect id="Rectangle_3247" data-name="Rectangle 3247" class="cls-7" x="362.95" y="217.7" width="4.72" height="12.91"></rect><g id="Groupe_10370" data-name="Groupe 10370"><g id="Groupe_10369" data-name="Groupe 10369"><path id="Trac&#xE9;_12257" data-name="Trac&#xE9; 12257" class="cls-14" d="M1335.67,232.46v6.72a3.53,3.53,0,0,0,3.52,3.52V228.94A3.52,3.52,0,0,0,1335.67,232.46Z" transform="translate(-845.3 10.13)"></path><path id="Trac&#xE9;_12258" data-name="Trac&#xE9; 12258" class="cls-15" d="M1339.19,228.94V242.7a3.52,3.52,0,0,0,3.52-3.52v-6.72A3.52,3.52,0,0,0,1339.19,228.94Z" transform="translate(-845.3 10.13)"></path></g><path id="Trac&#xE9;_12259" data-name="Trac&#xE9; 12259" class="cls-16" d="M1341,235.82a1.84,1.84,0,1,1-1.84-1.84h0A1.84,1.84,0,0,1,1341,235.82Z" transform="translate(-845.3 10.13)"></path></g><g id="Groupe_10372" data-name="Groupe 10372"><g id="Groupe_10371" data-name="Groupe 10371"><path id="Trac&#xE9;_12260" data-name="Trac&#xE9; 12260" class="cls-13" d="M1380.15,232.46v6.72a3.53,3.53,0,0,0,3.52,3.52V228.94A3.52,3.52,0,0,0,1380.15,232.46Z" transform="translate(-845.3 10.13)"></path><path id="Trac&#xE9;_12261" data-name="Trac&#xE9; 12261" class="cls-17" d="M1383.67,228.94V242.7a3.53,3.53,0,0,0,3.53-3.52v-6.72A3.53,3.53,0,0,0,1383.67,228.94Z" transform="translate(-845.3 10.13)"></path></g><path id="Trac&#xE9;_12262" data-name="Trac&#xE9; 12262" class="cls-18" d="M1385.51,235.82a1.84,1.84,0,1,1-1.84-1.84h0A1.83,1.83,0,0,1,1385.51,235.82Z" transform="translate(-845.3 10.13)"></path></g><g id="Groupe_10374" data-name="Groupe 10374"><path id="Trac&#xE9;_12265" data-name="Trac&#xE9; 12265" class="cls-12" d="M1327.85,266h-6.6v5.13h35.87V266Z" transform="translate(-845.3 10.13)"></path><path id="Trac&#xE9;_12266" data-name="Trac&#xE9; 12266" class="cls-12" d="M1321.26,255.73v5.13h35.87v-5.13Z" transform="translate(-845.3 10.13)"></path><path id="Trac&#xE9;_12267" data-name="Trac&#xE9; 12267" class="cls-12" d="M1338.1,276.23h-16.84v5.12h35.87v-5.12Z" transform="translate(-845.3 10.13)"></path><rect id="Rectangle_3248" data-name="Rectangle 3248" class="cls-5" x="475.96" y="260.74" width="35.87" height="5.12"></rect><path id="Trac&#xE9;_12268" data-name="Trac&#xE9; 12268" class="cls-5" d="M1322.73,260.86h-1.47V266h35.87v-5.12Z" transform="translate(-845.3 10.13)"></path><path id="Trac&#xE9;_12269" data-name="Trac&#xE9; 12269" class="cls-5" d="M1333,271.11h-11.72v5.12h35.87v-5.12Z" transform="translate(-845.3 10.13)"></path><path id="Trac&#xE9;_12270" data-name="Trac&#xE9; 12270" class="cls-5" d="M1343.23,281.35h-22v5.13h35.87v-5.13Z" transform="translate(-845.3 10.13)"></path></g><g id="Groupe_10375" data-name="Groupe 10375"><rect id="Rectangle_3249" data-name="Rectangle 3249" class="cls-19" x="369.71" y="199.15" width="22.5" height="61.59"></rect><path id="Trac&#xE9;_12271" data-name="Trac&#xE9; 12271" class="cls-20" d="M1215,189h22.5a22.5,22.5,0,1,0-45,0v61.59H1215Z" transform="translate(-845.3 10.13)"></path><path id="Trac&#xE9;_12272" data-name="Trac&#xE9; 12272" class="cls-20" d="M1276.57,189h22.5a22.5,22.5,0,1,0-45,0v61.59h22.5Z" transform="translate(-845.3 10.13)"></path><rect id="Rectangle_3250" data-name="Rectangle 3250" class="cls-19" x="431.27" y="199.15" width="22.5" height="61.59"></rect><path id="Trac&#xE9;_12273" data-name="Trac&#xE9; 12273" class="cls-21" d="M1299.06,250.61V264a22.5,22.5,0,0,1-22.5,22.5h35.92V250.61Z" transform="translate(-845.3 10.13)"></path><path id="Trac&#xE9;_12274" data-name="Trac&#xE9; 12274" class="cls-21" d="M1254.07,264V250.61h-16.56V264a22.51,22.51,0,0,1-22.5,22.5h61.55A22.5,22.5,0,0,1,1254.07,264Z" transform="translate(-845.3 10.13)"></path><path id="Trac&#xE9;_12275" data-name="Trac&#xE9; 12275" class="cls-21" d="M1192.51,264V250.61H1179.9v35.87H1215A22.5,22.5,0,0,1,1192.51,264Z" transform="translate(-845.3 10.13)"></path><rect id="Rectangle_3251" data-name="Rectangle 3251" class="cls-6" x="369.71" y="260.74" width="22.5" height="13.37"></rect><path id="Trac&#xE9;_12276" data-name="Trac&#xE9; 12276" class="cls-5" d="M1215,264V250.61h-22.5V264a22.5,22.5,0,0,0,45,0Z" transform="translate(-845.3 10.13)"></path><path id="Trac&#xE9;_12277" data-name="Trac&#xE9; 12277" class="cls-5" d="M1276.57,264V250.61h-22.5V264a22.5,22.5,0,0,0,45,0Z" transform="translate(-845.3 10.13)"></path><rect id="Rectangle_3252" data-name="Rectangle 3252" class="cls-6" x="431.27" y="260.74" width="22.5" height="13.37"></rect></g><rect id="Rectangle_3253" data-name="Rectangle 3253" class="cls-3" x="334.6" y="260.74" width="132.58" height="7.64"></rect></g><g id="Groupe_10377" data-name="Groupe 10377"><rect id="Rectangle_3254" data-name="Rectangle 3254" class="cls-4" x="416.95" y="92.32" width="10.1" height="44.77"></rect><rect id="Rectangle_3255" data-name="Rectangle 3255" class="cls-6" x="406.85" y="11.89" width="10.1" height="44.77"></rect><rect id="Rectangle_3256" data-name="Rectangle 3256" class="cls-6" x="406.85" y="68.55" width="10.1" height="11.89"></rect><rect id="Rectangle_3257" data-name="Rectangle 3257" class="cls-6" x="406.85" y="92.32" width="10.1" height="44.77"></rect><rect id="Rectangle_3258" data-name="Rectangle 3258" class="cls-4" x="416.95" y="11.89" width="10.1" height="44.77"></rect><rect id="Rectangle_3259" data-name="Rectangle 3259" class="cls-4" x="416.95" y="68.55" width="10.1" height="11.89"></rect><rect id="Rectangle_3260" data-name="Rectangle 3260" class="cls-22" x="416.95" width="10.1" height="11.89"></rect><rect id="Rectangle_3261" data-name="Rectangle 3261" class="cls-23" x="406.85" width="10.1" height="11.89"></rect><rect id="Rectangle_3262" data-name="Rectangle 3262" class="cls-24" x="406.85" y="56.66" width="10.1" height="11.89"></rect><rect id="Rectangle_3263" data-name="Rectangle 3263" class="cls-25" x="416.95" y="56.66" width="10.1" height="11.89"></rect><rect id="Rectangle_3264" data-name="Rectangle 3264" class="cls-25" x="416.95" y="80.43" width="10.1" height="11.89"></rect><rect id="Rectangle_3265" data-name="Rectangle 3265" class="cls-24" x="406.85" y="80.43" width="10.1" height="11.89"></rect></g><g id="Groupe_10378" data-name="Groupe 10378"><rect id="Rectangle_3266" data-name="Rectangle 3266" class="cls-4" x="447.63" y="92.32" width="10.1" height="44.77"></rect><rect id="Rectangle_3267" data-name="Rectangle 3267" class="cls-6" x="437.53" y="11.89" width="10.1" height="44.77"></rect><rect id="Rectangle_3268" data-name="Rectangle 3268" class="cls-6" x="437.53" y="68.55" width="10.1" height="11.89"></rect><rect id="Rectangle_3269" data-name="Rectangle 3269" class="cls-6" x="437.53" y="92.32" width="10.1" height="44.77"></rect><rect id="Rectangle_3270" data-name="Rectangle 3270" class="cls-4" x="447.63" y="11.89" width="10.1" height="44.77"></rect><rect id="Rectangle_3271" data-name="Rectangle 3271" class="cls-4" x="447.63" y="68.55" width="10.1" height="11.89"></rect><rect id="Rectangle_3272" data-name="Rectangle 3272" class="cls-22" x="447.63" width="10.1" height="11.89"></rect><rect id="Rectangle_3273" data-name="Rectangle 3273" class="cls-23" x="437.53" width="10.1" height="11.89"></rect><rect id="Rectangle_3274" data-name="Rectangle 3274" class="cls-24" x="437.53" y="56.66" width="10.1" height="11.89"></rect><rect id="Rectangle_3275" data-name="Rectangle 3275" class="cls-25" x="447.63" y="56.66" width="10.1" height="11.89"></rect><rect id="Rectangle_3276" data-name="Rectangle 3276" class="cls-25" x="447.63" y="80.43" width="10.1" height="11.89"></rect><rect id="Rectangle_3277" data-name="Rectangle 3277" class="cls-24" x="437.53" y="80.43" width="10.1" height="11.89"></rect></g></g><g id="Groupe_10381" data-name="Groupe 10381"><g id="Groupe_10380" data-name="Groupe 10380"><circle id="Ellipse_490" data-name="Ellipse 490" class="cls-26" cx="402.35" cy="62.16" r="43.17"></circle></g><path id="Trac&#xE9;_5588" data-name="Trac&#xE9; 5588" class="cls-3" d="M1220.43,54.29l5.93,7,5.94,6.95,5.94,6.94a4.32,4.32,0,0,0,6.1.52,1.37,1.37,0,0,0,.18-.16h0l6.66-6.25,6.66-6.25,6.67-6.25,2.15-2,4-3.71.55-.52,6.66-6.25a4.86,4.86,0,0,0,.37-6.6l-5.93-6.94a4.34,4.34,0,0,0-6.11-.53l-.19.18-6.67,6.25-.44.41-4.11,3.86-.89.84-1.22,1.14L1246,49.08h0a4.34,4.34,0,0,1-6.13-.17c0-.06-.11-.12-.16-.19l-5.94-6.94a4.34,4.34,0,0,0-6.11-.52l-.19.17-2.35,2.21-4.3,4A4.85,4.85,0,0,0,1220.43,54.29Z" transform="translate(-845.3 10.13)"></path></g><g id="Groupe_11322" data-name="Groupe 11322"><g id="Groupe_9547" data-name="Groupe 9547"><g id="Groupe_9535" data-name="Groupe 9535"><rect id="Rectangle_2851" data-name="Rectangle 2851" class="cls-5" x="650.94" y="368.46" width="205.62" height="136.39"></rect><g id="Groupe_9272" data-name="Groupe 9272"><g id="Groupe_9271" data-name="Groupe 9271"><g id="Groupe_9270" data-name="Groupe 9270"><path id="Trac&#xE9;_11667" data-name="Trac&#xE9; 11667" class="cls-27" d="M1683.88,522c0,.11,11.81.21,26.37.21s26.38-.1,26.38-.21-11.81-.21-26.38-.21S1683.88,521.88,1683.88,522Z" transform="translate(-845.3 10.13)"></path></g></g></g><g id="Groupe_9275" data-name="Groupe 9275"><g id="Groupe_9274" data-name="Groupe 9274"><g id="Groupe_9273" data-name="Groupe 9273"><path id="Trac&#xE9;_11668" data-name="Trac&#xE9; 11668" class="cls-27" d="M1683.64,526.49c0,.11,11.81.21,26.38.21s26.37-.1,26.37-.21-11.8-.21-26.37-.21S1683.64,526.37,1683.64,526.49Z" transform="translate(-845.3 10.13)"></path></g></g></g><g id="Groupe_9281" data-name="Groupe 9281"><g id="Groupe_9277" data-name="Groupe 9277"><g id="Groupe_9276" data-name="Groupe 9276"><rect id="Rectangle_2852" data-name="Rectangle 2852" class="cls-27" x="655.95" y="371.89" width="212.95" height="139.68"></rect></g></g><g id="Groupe_9280" data-name="Groupe 9280"><g id="Groupe_9279" data-name="Groupe 9279"><g id="Groupe_9278" data-name="Groupe 9278"><path id="Trac&#xE9;_11669" data-name="Trac&#xE9; 11669" class="cls-28" d="M1501.25,501.43c0-1.34.06-54.48.16-139.67l-.16.16,212.93.05h0l-.2-.21c0,49.67,0,96.94,0,139.67l.19-.19-212.94.19,212.94.19h.19v-.19c0-42.73,0-90,0-139.67v-.21h-.23l-212.92,0h-.17v.17C1501.18,447,1501.24,500.09,1501.25,501.43Z" transform="translate(-845.3 10.13)"></path></g></g></g></g><g id="Groupe_9283" data-name="Groupe 9283"><g id="Groupe_9282" data-name="Groupe 9282"><path id="Trac&#xE9;_11670" data-name="Trac&#xE9; 11670" class="cls-24" d="M1649.11,438.89l-20.94.29a20.85,20.85,0,0,0,20.94,20.26h.13Z" transform="translate(-845.3 10.13)"></path></g></g><g id="Groupe_9286" data-name="Groupe 9286"><g id="Groupe_9285" data-name="Groupe 9285"><g id="Groupe_9284" data-name="Groupe 9284"><path id="Trac&#xE9;_11671" data-name="Trac&#xE9; 11671" class="cls-28" d="M1614.48,467.25a1.71,1.71,0,0,0,.45,0l1.28,0,4.68.05h.06l0-.05,6.91-8.7,5.57-7.1-.11.06,6.16-.06,1.73,0a3.13,3.13,0,0,0,.61,0,3.18,3.18,0,0,0-.61,0l-1.73,0-6.16-.06h-.07l0,.06-5.61,7.07-6.85,8.75.1-.05-4.68.06-1.28,0A1.71,1.71,0,0,0,1614.48,467.25Z" transform="translate(-845.3 10.13)"></path></g></g></g><g id="Groupe_9289" data-name="Groupe 9289"><g id="Groupe_9288" data-name="Groupe 9288"><g id="Groupe_9287" data-name="Groupe 9287"><path id="Trac&#xE9;_11672" data-name="Trac&#xE9; 11672" class="cls-28" d="M1607,469.66c0,.09,3,.16,6.77.16s6.78-.07,6.78-.16-3-.16-6.78-.16S1607,469.58,1607,469.66Z" transform="translate(-845.3 10.13)"></path></g></g></g><g id="Groupe_9292" data-name="Groupe 9292"><g id="Groupe_9291" data-name="Groupe 9291"><g id="Groupe_9290" data-name="Groupe 9290"><path id="Trac&#xE9;_11673" data-name="Trac&#xE9; 11673" class="cls-28" d="M1607,472.17c0,.09,3,.16,6.77.16s6.78-.07,6.78-.16-3-.16-6.78-.16S1607,472.08,1607,472.17Z" transform="translate(-845.3 10.13)"></path></g></g></g><g id="Groupe_9302" data-name="Groupe 9302"><g id="Groupe_9295" data-name="Groupe 9295"><g id="Groupe_9294" data-name="Groupe 9294"><g id="Groupe_9293" data-name="Groupe 9293"><path id="Trac&#xE9;_11674" data-name="Trac&#xE9; 11674" class="cls-28" d="M1660.61,429.19a1.35,1.35,0,0,0,.36.08l1,.17,3.76.53h.06l.05-.05,5-4.88c2.41-2.36,4.58-4.52,6.14-6.09l1.83-1.87a5.56,5.56,0,0,0,.65-.72,5.5,5.5,0,0,0-.73.63l-1.91,1.8c-1.6,1.53-3.79,3.66-6.2,6l-5,4.93.11,0-3.78-.42-1-.1A1.15,1.15,0,0,0,1660.61,429.19Z" transform="translate(-845.3 10.13)"></path></g></g></g><g id="Groupe_9298" data-name="Groupe 9298"><g id="Groupe_9297" data-name="Groupe 9297"><g id="Groupe_9296" data-name="Groupe 9296"><path id="Trac&#xE9;_11675" data-name="Trac&#xE9; 11675" class="cls-28" d="M1684.82,415.47c0,.09,3,.16,6.78.16s6.78-.07,6.78-.16-3-.16-6.78-.16S1684.82,415.38,1684.82,415.47Z" transform="translate(-845.3 10.13)"></path></g></g></g><g id="Groupe_9301" data-name="Groupe 9301"><g id="Groupe_9300" data-name="Groupe 9300"><g id="Groupe_9299" data-name="Groupe 9299"><path id="Trac&#xE9;_11676" data-name="Trac&#xE9; 11676" class="cls-28" d="M1684.82,418c0,.09,3,.16,6.78.16s6.78-.07,6.78-.16-3-.16-6.78-.16S1684.82,417.89,1684.82,418Z" transform="translate(-845.3 10.13)"></path></g></g></g></g><g id="Groupe_9315" data-name="Groupe 9315"><g id="Groupe_9314" data-name="Groupe 9314"><g id="Groupe_9313" data-name="Groupe 9313"><path id="Trac&#xE9;_11682" data-name="Trac&#xE9; 11682" class="cls-28" d="M1518.44,397.61c0,.12,8,.21,17.76.21s17.77-.09,17.77-.21-8-.21-17.77-.21S1518.44,397.5,1518.44,397.61Z" transform="translate(-845.3 10.13)"></path></g></g></g><g id="Groupe_9318" data-name="Groupe 9318"><g id="Groupe_9317" data-name="Groupe 9317"><g id="Groupe_9316" data-name="Groupe 9316"><path id="Trac&#xE9;_11683" data-name="Trac&#xE9; 11683" class="cls-28" d="M1518.44,393.56c0,.12,8,.21,17.76.21s17.77-.09,17.77-.21-8-.21-17.77-.21S1518.44,393.45,1518.44,393.56Z" transform="translate(-845.3 10.13)"></path></g></g></g><g id="Groupe_9321" data-name="Groupe 9321"><g id="Groupe_9320" data-name="Groupe 9320"><g id="Groupe_9319" data-name="Groupe 9319"><path id="Trac&#xE9;_11684" data-name="Trac&#xE9; 11684" class="cls-28" d="M1518.44,389.51c0,.12,8,.21,17.76.21s17.77-.09,17.77-.21-8-.21-17.77-.21S1518.44,389.4,1518.44,389.51Z" transform="translate(-845.3 10.13)"></path></g></g></g><g id="Groupe_9324" data-name="Groupe 9324"><g id="Groupe_9323" data-name="Groupe 9323"><g id="Groupe_9322" data-name="Groupe 9322"><path id="Trac&#xE9;_11685" data-name="Trac&#xE9; 11685" class="cls-28" d="M1518.44,401.38c0,.11,8,.21,17.76.21s17.77-.1,17.77-.21-8-.21-17.77-.21S1518.44,401.26,1518.44,401.38Z" transform="translate(-845.3 10.13)"></path></g></g></g><g id="Groupe_9327" data-name="Groupe 9327"><g id="Groupe_9326" data-name="Groupe 9326"><g id="Groupe_9325" data-name="Groupe 9325"><path id="Trac&#xE9;_11686" data-name="Trac&#xE9; 11686" class="cls-28" d="M1529.44,405.48c0,.12,5.46.21,12.2.21s12.2-.09,12.2-.21-5.46-.21-12.2-.21S1529.44,405.37,1529.44,405.48Z" transform="translate(-845.3 10.13)"></path></g></g></g><g id="Groupe_9330" data-name="Groupe 9330"><g id="Groupe_9329" data-name="Groupe 9329"><g id="Groupe_9328" data-name="Groupe 9328"><rect id="Rectangle_2853" data-name="Rectangle 2853" class="cls-24" x="742.27" y="444.92" width="3.66" height="40.87"></rect></g></g></g><g id="Groupe_9333" data-name="Groupe 9333"><g id="Groupe_9332" data-name="Groupe 9332"><g id="Groupe_9331" data-name="Groupe 9331"><rect id="Rectangle_2854" data-name="Rectangle 2854" class="cls-29" x="735.21" y="458.81" width="3.66" height="26.99"></rect></g></g></g><g id="Groupe_9336" data-name="Groupe 9336"><g id="Groupe_9335" data-name="Groupe 9335"><g id="Groupe_9334" data-name="Groupe 9334"><rect id="Rectangle_2855" data-name="Rectangle 2855" class="cls-24" x="728.14" y="450" width="3.66" height="36"></rect></g></g></g><g id="Groupe_9339" data-name="Groupe 9339"><g id="Groupe_9338" data-name="Groupe 9338"><g id="Groupe_9337" data-name="Groupe 9337"><rect id="Rectangle_2856" data-name="Rectangle 2856" class="cls-29" x="721.08" y="446.5" width="3.66" height="39.29"></rect></g></g></g><g id="Groupe_9342" data-name="Groupe 9342"><g id="Groupe_9341" data-name="Groupe 9341"><g id="Groupe_9340" data-name="Groupe 9340"><rect id="Rectangle_2857" data-name="Rectangle 2857" class="cls-24" x="714.01" y="459.64" width="3.66" height="26.16"></rect></g></g></g><g id="Groupe_9345" data-name="Groupe 9345"><g id="Groupe_9344" data-name="Groupe 9344"><g id="Groupe_9343" data-name="Groupe 9343"><rect id="Rectangle_2858" data-name="Rectangle 2858" class="cls-29" x="706.95" y="464.77" width="3.66" height="21.03"></rect></g></g></g><g id="Groupe_9368" data-name="Groupe 9368"><g id="Groupe_9367" data-name="Groupe 9367"><g id="Groupe_9366" data-name="Groupe 9366"><g id="Groupe_9365" data-name="Groupe 9365"><path id="Trac&#xE9;_11688" data-name="Trac&#xE9; 11688" class="cls-28" d="M1586,481.73a24.65,24.65,0,0,0,5.43,0A24.65,24.65,0,0,0,1586,481.73Z" transform="translate(-845.3 10.13)"></path></g></g></g></g><g id="Groupe_9372" data-name="Groupe 9372"><g id="Groupe_9371" data-name="Groupe 9371"><g id="Groupe_9370" data-name="Groupe 9370"><g id="Groupe_9369" data-name="Groupe 9369"><path id="Trac&#xE9;_11689" data-name="Trac&#xE9; 11689" class="cls-28" d="M1577,481.89a35.18,35.18,0,0,0,6.49,0A35.18,35.18,0,0,0,1577,481.89Z" transform="translate(-845.3 10.13)"></path></g></g></g></g><g id="Groupe_9376" data-name="Groupe 9376"><g id="Groupe_9375" data-name="Groupe 9375"><g id="Groupe_9374" data-name="Groupe 9374"><g id="Groupe_9373" data-name="Groupe 9373"><path id="Trac&#xE9;_11690" data-name="Trac&#xE9; 11690" class="cls-28" d="M1569.32,481.89a35.18,35.18,0,0,0,6.49,0A35.18,35.18,0,0,0,1569.32,481.89Z" transform="translate(-845.3 10.13)"></path></g></g></g></g><g id="Groupe_9380" data-name="Groupe 9380"><g id="Groupe_9379" data-name="Groupe 9379"><g id="Groupe_9378" data-name="Groupe 9378"><g id="Groupe_9377" data-name="Groupe 9377"><path id="Trac&#xE9;_11691" data-name="Trac&#xE9; 11691" class="cls-28" d="M1561.63,481.89a35.18,35.18,0,0,0,6.49,0A35.18,35.18,0,0,0,1561.63,481.89Z" transform="translate(-845.3 10.13)"></path></g></g></g></g><g id="Groupe_9384" data-name="Groupe 9384"><g id="Groupe_9383" data-name="Groupe 9383"><g id="Groupe_9382" data-name="Groupe 9382"><g id="Groupe_9381" data-name="Groupe 9381"><path id="Trac&#xE9;_11692" data-name="Trac&#xE9; 11692" class="cls-28" d="M1554,481.89a35.18,35.18,0,0,0,6.49,0A35.18,35.18,0,0,0,1554,481.89Z" transform="translate(-845.3 10.13)"></path></g></g></g></g><g id="Groupe_9388" data-name="Groupe 9388"><g id="Groupe_9387" data-name="Groupe 9387"><g id="Groupe_9386" data-name="Groupe 9386"><g id="Groupe_9385" data-name="Groupe 9385"><path id="Trac&#xE9;_11693" data-name="Trac&#xE9; 11693" class="cls-28" d="M1546.26,481.89a35.28,35.28,0,0,0,6.5,0A35.28,35.28,0,0,0,1546.26,481.89Z" transform="translate(-845.3 10.13)"></path></g></g></g></g><g id="Groupe_9407" data-name="Groupe 9407"><g id="Groupe_9406" data-name="Groupe 9406"><g id="Groupe_9405" data-name="Groupe 9405"><rect id="Rectangle_2864" data-name="Rectangle 2864" class="cls-30" x="735.21" y="458.81" width="3.66" height="26.99"></rect></g></g></g><g id="Groupe_9410" data-name="Groupe 9410"><g id="Groupe_9409" data-name="Groupe 9409"><g id="Groupe_9408" data-name="Groupe 9408"><rect id="Rectangle_2865" data-name="Rectangle 2865" class="cls-30" x="721.08" y="446.5" width="3.66" height="39.29"></rect></g></g></g><g id="Groupe_9413" data-name="Groupe 9413"><g id="Groupe_9412" data-name="Groupe 9412"><g id="Groupe_9411" data-name="Groupe 9411"><rect id="Rectangle_2866" data-name="Rectangle 2866" class="cls-30" x="706.95" y="464.77" width="3.66" height="21.03"></rect></g></g></g><g id="Groupe_9421" data-name="Groupe 9421"><g id="Groupe_9420" data-name="Groupe 9420"><path id="Trac&#xE9;_11698" data-name="Trac&#xE9; 11698" class="cls-30" d="M1688.32,388a3.53,3.53,0,1,0,3.52-3.52h0A3.53,3.53,0,0,0,1688.32,388Z" transform="translate(-845.3 10.13)"></path></g></g><g id="Groupe_9424" data-name="Groupe 9424"><g id="Groupe_9423" data-name="Groupe 9423"><g id="Groupe_9422" data-name="Groupe 9422"><path id="Trac&#xE9;_11699" data-name="Trac&#xE9; 11699" class="cls-30" d="M1627.76,385.23c0,.12,11.88.21,26.52.21s26.53-.09,26.53-.21-11.87-.2-26.53-.2S1627.76,385.12,1627.76,385.23Z" transform="translate(-845.3 10.13)"></path></g></g></g><g id="Groupe_9427" data-name="Groupe 9427"><g id="Groupe_9426" data-name="Groupe 9426"><g id="Groupe_9425" data-name="Groupe 9425"><path id="Trac&#xE9;_11700" data-name="Trac&#xE9; 11700" class="cls-30" d="M1659.51,389.49a3.26,3.26,0,0,0,.82.08c.53,0,1.3.05,2.25.07,1.89,0,4.5.06,7.39.06s5.5,0,7.39-.06c1,0,1.71,0,2.24-.07a3.29,3.29,0,0,0,.83-.08,3.29,3.29,0,0,0-.83-.08c-.53,0-1.29-.05-2.24-.06-1.89,0-4.5-.07-7.39-.07s-5.5,0-7.39.07c-.95,0-1.72,0-2.25.06A3.26,3.26,0,0,0,1659.51,389.49Z" transform="translate(-845.3 10.13)"></path></g></g></g><g id="Groupe_9494" data-name="Groupe 9494"><g id="Groupe_9455" data-name="Groupe 9455"><g id="Groupe_9441" data-name="Groupe 9441"><g id="Groupe_9436" data-name="Groupe 9436"><g id="Groupe_9431" data-name="Groupe 9431"><g id="Groupe_9430" data-name="Groupe 9430"><g id="Groupe_9429" data-name="Groupe 9429"><g id="Groupe_9428" data-name="Groupe 9428"><rect id="Rectangle_2869" data-name="Rectangle 2869" class="cls-28" x="727.91" y="567.98" width="47.46" height="2.31"></rect></g></g></g></g><g id="Groupe_9435" data-name="Groupe 9435"><g id="Groupe_9434" data-name="Groupe 9434"><g id="Groupe_9433" data-name="Groupe 9433"><g id="Groupe_9432" data-name="Groupe 9432"><path id="Trac&#xE9;_11701" data-name="Trac&#xE9; 11701" class="cls-28" d="M1628,560.16l8.9-33.37h-37.06l-8.06,33.37Z" transform="translate(-845.3 10.13)"></path></g></g></g></g></g><g id="Groupe_9440" data-name="Groupe 9440"><g id="Groupe_9439" data-name="Groupe 9439"><g id="Groupe_9438" data-name="Groupe 9438"><g id="Groupe_9437" data-name="Groupe 9437"><path id="Trac&#xE9;_11702" data-name="Trac&#xE9; 11702" class="cls-31" d="M1594,557.63h33.1l7.71-29.3h-33.28Z" transform="translate(-845.3 10.13)"></path></g></g></g></g></g><g id="Groupe_9444" data-name="Groupe 9444"><g id="Groupe_9443" data-name="Groupe 9443"><g id="Groupe_9442" data-name="Groupe 9442"><path id="Trac&#xE9;_11703" data-name="Trac&#xE9; 11703" class="cls-32" d="M1634.29,530.44H1601l.56-2.1h33.28Z" transform="translate(-845.3 10.13)"></path></g></g></g><g id="Groupe_9454" data-name="Groupe 9454"><g id="Groupe_9447" data-name="Groupe 9447"><g id="Groupe_9446" data-name="Groupe 9446"><g id="Groupe_9445" data-name="Groupe 9445"><path id="Trac&#xE9;_11704" data-name="Trac&#xE9; 11704" class="cls-27" d="M1630.69,529.39a.36.36,0,0,1-.36.36.37.37,0,0,1-.37-.36.38.38,0,0,1,.37-.37h0A.36.36,0,0,1,1630.69,529.39Z" transform="translate(-845.3 10.13)"></path></g></g></g><g id="Groupe_9450" data-name="Groupe 9450"><g id="Groupe_9449" data-name="Groupe 9449"><g id="Groupe_9448" data-name="Groupe 9448"><path id="Trac&#xE9;_11705" data-name="Trac&#xE9; 11705" class="cls-27" d="M1631.94,529.39a.36.36,0,1,1-.36-.37h0A.36.36,0,0,1,1631.94,529.39Z" transform="translate(-845.3 10.13)"></path></g></g></g><g id="Groupe_9453" data-name="Groupe 9453"><g id="Groupe_9452" data-name="Groupe 9452"><g id="Groupe_9451" data-name="Groupe 9451"><path id="Trac&#xE9;_11706" data-name="Trac&#xE9; 11706" class="cls-27" d="M1633.2,529.39a.37.37,0,0,1-.37.36.36.36,0,0,1-.36-.36.37.37,0,0,1,.36-.37h0A.38.38,0,0,1,1633.2,529.39Z" transform="translate(-845.3 10.13)"></path></g></g></g></g></g><g id="Groupe_9493" data-name="Groupe 9493"><g id="Groupe_9457" data-name="Groupe 9457"><g id="Groupe_9456" data-name="Groupe 9456"><path id="Trac&#xE9;_11707" data-name="Trac&#xE9; 11707" class="cls-30" d="M1609.27,543.28l-3.64,4.17a5.16,5.16,0,0,1-2.24-4.2c0-2.91,2.68-5.3,5.9-5.29s5.87,2.42,5.86,5.34Z" transform="translate(-845.3 10.13)"></path></g></g><g id="Groupe_9460" data-name="Groupe 9460"><g id="Groupe_9459" data-name="Groupe 9459"><g id="Groupe_9458" data-name="Groupe 9458"><path id="Trac&#xE9;_11708" data-name="Trac&#xE9; 11708" class="cls-28" d="M1609.74,544a7.3,7.3,0,0,0-1,1c-.66.7-1.59,1.72-2.7,3l-.13.14.16.12a6.32,6.32,0,0,0,6.15.6,6,6,0,0,0,2.52-2,5.13,5.13,0,0,0,.94-2.74v-.19h-.18c-1.75,0-3.19,0-4.19,0a8.94,8.94,0,0,0-1.55.07,12.32,12.32,0,0,0,1.6.13c1,0,2.43.1,4.13.14l-.18-.19a5,5,0,0,1-.91,2.53,5.72,5.72,0,0,1-2.36,1.88,6.07,6.07,0,0,1-5.78-.51l0,.26c1.06-1.24,1.93-2.28,2.53-3A11,11,0,0,0,1609.74,544Z" transform="translate(-845.3 10.13)"></path></g></g></g><g id="Groupe_9462" data-name="Groupe 9462"><g id="Groupe_9461" data-name="Groupe 9461"><path id="Trac&#xE9;_11709" data-name="Trac&#xE9; 11709" class="cls-28" d="M1612.12,540.13a.33.33,0,1,1-.66,0,.33.33,0,1,1,.66,0Z" transform="translate(-845.3 10.13)"></path></g></g><g id="Groupe_9465" data-name="Groupe 9465"><g id="Groupe_9464" data-name="Groupe 9464"><g id="Groupe_9463" data-name="Groupe 9463"><path id="Trac&#xE9;_11710" data-name="Trac&#xE9; 11710" class="cls-28" d="M1618.67,537.74a19.17,19.17,0,0,0-3.93-.22h-.62l0,.06a14.91,14.91,0,0,0-2.28,2.55,15.7,15.7,0,0,0,2.56-2.26l-.14.06h.52A18.53,18.53,0,0,0,1618.67,537.74Z" transform="translate(-845.3 10.13)"></path></g></g></g><g id="Groupe_9468" data-name="Groupe 9468"><g id="Groupe_9467" data-name="Groupe 9467"><g id="Groupe_9466" data-name="Groupe 9466"><path id="Trac&#xE9;_11711" data-name="Trac&#xE9; 11711" class="cls-28" d="M1626.13,541.92a13.79,13.79,0,0,0,.37-1.54c.23-1,.54-2.49.9-4.3l0-.2h-.2l-8.24-.07-.21.17h0v.18l0,.2-.07.39-.15.77c-.1.51-.19,1-.28,1.5-.18,1-.35,1.92-.52,2.81l0,.22h.22c2.48,0,4.56,0,6-.06l1.67,0a2.19,2.19,0,0,0,.57,0,3.39,3.39,0,0,0-.64,0l-1.71-.06c-1.45,0-3.49-.09-5.89-.11l.19.22.54-2.8.29-1.5.15-.78.08-.39,0-.2,0-.1v-.07h0l-.2.17h8.24l-.17-.2c-.31,1.75-.55,3.21-.71,4.24A13.25,13.25,0,0,0,1626.13,541.92Z" transform="translate(-845.3 10.13)"></path></g></g></g><g id="Groupe_9474" data-name="Groupe 9474"><g id="Groupe_9470" data-name="Groupe 9470"><g id="Groupe_9469" data-name="Groupe 9469"><path id="Trac&#xE9;_11712" data-name="Trac&#xE9; 11712" class="cls-28" d="M1612.61,546.76a.33.33,0,0,1-.66,0,.33.33,0,1,1,.66,0Z" transform="translate(-845.3 10.13)"></path></g></g><g id="Groupe_9473" data-name="Groupe 9473"><g id="Groupe_9472" data-name="Groupe 9472"><g id="Groupe_9471" data-name="Groupe 9471"><path id="Trac&#xE9;_11713" data-name="Trac&#xE9; 11713" class="cls-28" d="M1618.26,546.79a21.39,21.39,0,0,0-6,0A21.39,21.39,0,0,0,1618.26,546.79Z" transform="translate(-845.3 10.13)"></path></g></g></g></g><g id="Groupe_9477" data-name="Groupe 9477"><g id="Groupe_9476" data-name="Groupe 9476"><g id="Groupe_9475" data-name="Groupe 9475"><path id="Trac&#xE9;_11714" data-name="Trac&#xE9; 11714" class="cls-28" d="M1626.1,549.39a7.44,7.44,0,0,0,.36-1.1c.22-.74.53-1.82.9-3.17l.05-.19h-.2c-2.24,0-5.23-.08-8.49-.09l-.2.16h0v0l0,.07,0,.14-.07.29-.14.56c-.1.37-.19.74-.28,1.1-.18.72-.36,1.42-.53,2.08l-.06.25h.25c2.52,0,4.67,0,6.17-.07l1.73,0a3,3,0,0,0,.6-.05,3.79,3.79,0,0,0-.67-.06l-1.77-.06c-1.51,0-3.61-.09-6.06-.11l.19.24.54-2.08c.1-.36.19-.73.29-1.1l.14-.56.07-.28,0-.15,0-.07v0h0l-.2.16c3.27,0,6.25,0,8.49,0l-.15-.19c-.31,1.3-.55,2.37-.72,3.13A8.49,8.49,0,0,0,1626.1,549.39Z" transform="translate(-845.3 10.13)"></path></g></g></g><g id="Groupe_9480" data-name="Groupe 9480"><g id="Groupe_9479" data-name="Groupe 9479"><g id="Groupe_9478" data-name="Groupe 9478"><path id="Trac&#xE9;_11715" data-name="Trac&#xE9; 11715" class="cls-28" d="M1625.47,537.85a19.31,19.31,0,0,0-5.63,0A19,19,0,0,0,1625.47,537.85Z" transform="translate(-845.3 10.13)"></path></g></g></g><g id="Groupe_9483" data-name="Groupe 9483"><g id="Groupe_9482" data-name="Groupe 9482"><g id="Groupe_9481" data-name="Groupe 9481"><path id="Trac&#xE9;_11716" data-name="Trac&#xE9; 11716" class="cls-28" d="M1625.4,538.77a19.17,19.17,0,0,0-5.66,0A19.52,19.52,0,0,0,1625.4,538.77Z" transform="translate(-845.3 10.13)"></path></g></g></g><g id="Groupe_9486" data-name="Groupe 9486"><g id="Groupe_9485" data-name="Groupe 9485"><g id="Groupe_9484" data-name="Groupe 9484"><path id="Trac&#xE9;_11717" data-name="Trac&#xE9; 11717" class="cls-28" d="M1625.24,539.66a18,18,0,0,0-5.48,0,18.3,18.3,0,0,0,5.48,0Z" transform="translate(-845.3 10.13)"></path></g></g></g><g id="Groupe_9489" data-name="Groupe 9489"><g id="Groupe_9488" data-name="Groupe 9488"><g id="Groupe_9487" data-name="Groupe 9487"><path id="Trac&#xE9;_11718" data-name="Trac&#xE9; 11718" class="cls-28" d="M1625.31,546.71a17.58,17.58,0,0,0-5.37,0A17.58,17.58,0,0,0,1625.31,546.71Z" transform="translate(-845.3 10.13)"></path></g></g></g><g id="Groupe_9492" data-name="Groupe 9492"><g id="Groupe_9491" data-name="Groupe 9491"><g id="Groupe_9490" data-name="Groupe 9490"><path id="Trac&#xE9;_11719" data-name="Trac&#xE9; 11719" class="cls-28" d="M1625,547.73a12.59,12.59,0,0,0-4.58,0A12.82,12.82,0,0,0,1625,547.73Z" transform="translate(-845.3 10.13)"></path></g></g></g></g></g><g id="Groupe_9496" data-name="Groupe 9496"><g id="Groupe_9495" data-name="Groupe 9495"><path id="Trac&#xE9;_11720" data-name="Trac&#xE9; 11720" class="cls-33" d="M1676.88,560.05v4.37H1674V653h-5.88V564.42h-31.2V653h-5.88V564.42H1495.69V653h-5.88V564.42h-2.54v-4.37Z" transform="translate(-845.3 10.13)"></path></g></g><g id="Groupe_9500" data-name="Groupe 9500"><g id="Groupe_9499" data-name="Groupe 9499"><g id="Groupe_9498" data-name="Groupe 9498"><g id="Groupe_9497" data-name="Groupe 9497"><path id="Trac&#xE9;_11721" data-name="Trac&#xE9; 11721" class="cls-28" d="M1549.4,593.06a46.53,46.53,0,0,1-7.65,0A44.42,44.42,0,0,1,1549.4,593.06Z" transform="translate(-845.3 10.13)"></path></g></g></g></g><g id="Groupe_9503" data-name="Groupe 9503"><g id="Groupe_9502" data-name="Groupe 9502"><g id="Groupe_9501" data-name="Groupe 9501"><ellipse id="Ellipse_1069" data-name="Ellipse 1069" class="cls-34" cx="759.78" cy="603.99" rx="0.21" ry="0.1"></ellipse></g></g></g><g id="Groupe_9511" data-name="Groupe 9511"><g id="Groupe_9505" data-name="Groupe 9505"><g id="Groupe_9504" data-name="Groupe 9504"><path id="Trac&#xE9;_11722" data-name="Trac&#xE9; 11722" class="cls-34" d="M1522.43,529.6h13.4a9.78,9.78,0,0,1,9.77,9.77v46.76h26.77a6.77,6.77,0,0,1,6.77,6.76H1518v0a5.58,5.58,0,0,1-5.34-5.58V539.37a9.77,9.77,0,0,1,9.76-9.77Z" transform="translate(-845.3 10.13)"></path></g></g><g id="Groupe_9508" data-name="Groupe 9508"><g id="Groupe_9507" data-name="Groupe 9507"><g id="Groupe_9506" data-name="Groupe 9506"><path id="Trac&#xE9;_11723" data-name="Trac&#xE9; 11723" class="cls-28" d="M1541.7,531.14c-.11,0-.2,13.75-.2,30.69s.09,30.69.2,30.69.21-13.73.21-30.69S1541.82,531.14,1541.7,531.14Z" transform="translate(-845.3 10.13)"></path></g></g></g><g id="Groupe_9510" data-name="Groupe 9510"><g id="Groupe_9509" data-name="Groupe 9509"><path id="Trac&#xE9;_11724" data-name="Trac&#xE9; 11724" class="cls-34" d="M1543.4,642V592.92h4.35V642c2.66,5.24,8.92,8.79,16.54,11.7h-38.85C1533.33,650.47,1540.45,648,1543.4,642Z" transform="translate(-845.3 10.13)"></path></g></g></g><path id="Trac&#xE9;_11725" data-name="Trac&#xE9; 11725" class="cls-35" d="M1558.39,483.58" transform="translate(-845.3 10.13)"></path><g id="Groupe_9513" data-name="Groupe 9513"><g id="Groupe_9512" data-name="Groupe 9512"><path id="Trac&#xE9;_11728" data-name="Trac&#xE9; 11728" class="cls-36" d="M1572.78,486.84l-21.31,12.55-2.92-15L1550,480s-2.21,1.91,3.83-2.26c6.26-4.35,16.45,1.48,21.21-3.32C1575.08,474.39,1579.49,481.81,1572.78,486.84Z" transform="translate(-845.3 10.13)"></path><path id="Trac&#xE9;_11729" data-name="Trac&#xE9; 11729" class="cls-36" d="M1558.75,478.28s2.87.53,4.29-.26,4.21-2,6.47-.89a12.84,12.84,0,0,1,3.5,2.18,1.76,1.76,0,0,0,.66.28,18.17,18.17,0,0,0-2.93,2.47,1.75,1.75,0,0,0-.47,1.15,1.57,1.57,0,0,0,.46,1.1,3.35,3.35,0,0,0,2.47.78c.3,0,.6-.09.9-.16a5.38,5.38,0,0,1-2.76,2.7c-2.68,1.2-6.09,5.36-6.09,5.36s-5.57,7.21-8.27,8.63-4.5,4.43-8.15,3.45-4.79-.6-5.71-12S1551.32,475.55,1558.75,478.28Z" transform="translate(-845.3 10.13)"></path></g><path id="Trac&#xE9;_11730" data-name="Trac&#xE9; 11730" class="cls-35" d="M1544.48,510.62s4-3.85,6.83-6.62,9.47,2.15,9.47,2.15-1.41.92-1.26,5.34-13.85-2.1-13.85-2.1Z" transform="translate(-845.3 10.13)"></path><path id="Trac&#xE9;_11731" data-name="Trac&#xE9; 11731" class="cls-35" d="M1551.65,504.36l13.55,2.81a2.09,2.09,0,0,0,2.42-1.32l2-5.73.65.14a1.88,1.88,0,0,0,2.3-1.73l.39-11.84-13.83.89-.65,5.36-1.73-.36s-.49-4.18-2.67-3.31c-1.42.56-1.82,4-.39,5.58l-1.93,5.51Z" transform="translate(-845.3 10.13)"></path><path id="Trac&#xE9;_11732" data-name="Trac&#xE9; 11732" class="cls-3" d="M1562.71,500.28l2.3,2.57,2.79.61" transform="translate(-845.3 10.13)"></path></g><g id="Groupe_9520" data-name="Groupe 9520"><g id="Groupe_9519" data-name="Groupe 9519"><g id="Groupe_9518" data-name="Groupe 9518"><g id="Groupe_9517" data-name="Groupe 9517"><g id="Groupe_9516" data-name="Groupe 9516"><g id="Groupe_9515" data-name="Groupe 9515"><g id="Groupe_9514" data-name="Groupe 9514"><path id="Trac&#xE9;_11733" data-name="Trac&#xE9; 11733" class="cls-37" d="M1565.07,571.05l-21.32-.72c.79-2.34.51-5,.51-7.43a4.08,4.08,0,0,0-1.08-2.9c.59-1.76.89-3.7,1.58-5.26a4.74,4.74,0,0,0-.48-5.09c.19-1,.39-1.93.67-2.87a4.29,4.29,0,0,0-.73-3.76,4.24,4.24,0,0,0,1.19-4c-.83-3.86-3.18-6.91-7.16-7.76a35.48,35.48,0,0,0-5.45-.36,50.9,50.9,0,0,0-5.52-.18l-.66,0a47.44,47.44,0,0,1,.46-9.6c1.44-7.09,12.09-11.61,19.32-11.7a77.59,77.59,0,0,1,12.36,1.21,17.39,17.39,0,0,1,7.1,2.92,66.68,66.68,0,0,0-2.74,16.35,40.78,40.78,0,0,0,.8,9.67Z" transform="translate(-845.3 10.13)"></path></g></g></g></g></g></g></g><path id="Trac&#xE9;_11734" data-name="Trac&#xE9; 11734" class="cls-35" d="M1599.78,554.14s3,.52,4.44-.62,3.14-2.2,5.55-.7,3.21,2.8,3.06,3.67-4.42,1.84-5.25,1.58-2.28-1.1-2.92-.69c-1.75,1.14-3.81.16-5.06-.73C1598.84,556.11,1600.22,555.32,1599.78,554.14Z" transform="translate(-845.3 10.13)"></path><path id="Trac&#xE9;_11735" data-name="Trac&#xE9; 11735" class="cls-37" d="M1565.63,513.11c1,1.54,2.3,3.57,3.87,5.68,3.24,4.34,10.69,27.55,11.77,29.41s19.44,4.72,20.8,5.9a6.56,6.56,0,0,1,1.66,3.65s-21.94,4.17-28.47-.57-13.08-27.42-15.16-32.45c-1.56-3.77,1.42-10,3-12.8C1563.94,512.34,1564.78,512.74,1565.63,513.11Z" transform="translate(-845.3 10.13)"></path><g id="Groupe_9521" data-name="Groupe 9521"><path id="Trac&#xE9;_11736" data-name="Trac&#xE9; 11736" class="cls-38" d="M1594.2,574.75s-9.7,47.55-14.06,69.65c0,0-6.72,3.64-8.39-.11,0,0,.34-54.8,6.71-62.71C1586.4,571.75,1594.2,574.75,1594.2,574.75Z" transform="translate(-845.3 10.13)"></path><path id="Trac&#xE9;_11737" data-name="Trac&#xE9; 11737" class="cls-39" d="M1619.15,654.89l.12.05h22.28a4,4,0,0,0-3.49-2.94c-3.46-.62-9.45-2.85-10.79-7.76,0-.16-.08-.32-.11-.49-1.06-5.24-8.78,1.61-8.78,1.61s0,.21-.06.57C1618.14,647.85,1617.69,654.07,1619.15,654.89Z" transform="translate(-845.3 10.13)"></path><path id="Trac&#xE9;_11738" data-name="Trac&#xE9; 11738" class="cls-39" d="M1572.39,652.52l.12.05H1596c-.22-.88-1-2.49-3.67-2.94-3.65-.63-10-2.86-11.38-7.77l-.12-.48c-1.12-5.25-9.26,1.61-9.26,1.61s0,.21-.06.56C1571.33,645.47,1570.85,651.7,1572.39,652.52Z" transform="translate(-845.3 10.13)"></path><path id="Trac&#xE9;_11739" data-name="Trac&#xE9; 11739" class="cls-33" d="M1545.91,587.45a3.73,3.73,0,0,0-1.17-.47c0-.88,0-1.77,0-2.66s.16-2,.2-3a36.66,36.66,0,0,0-.23-6c.06-.77.11-1.53.14-2.29,0-1,0-2.07,0-3.12l35.62,1.3a47.78,47.78,0,0,1,16.5,4,1.93,1.93,0,0,1,1,1l29.37,68a1.91,1.91,0,0,1-1,2.49,1.48,1.48,0,0,1-.41.12c-.67.14-1.4.28-2,.38-1.81.28-5.46-1.26-8.65-3.2-2.88-1.75-23.85-43.47-27.85-51.46a2.06,2.06,0,0,0-2-1.1c-2.29.21-7,.32-12.62.37a4.1,4.1,0,0,0-4.13-4,4.73,4.73,0,0,0-1.73-.42c-1.66-.08-3.23-.13-4.78-.14a4,4,0,0,0-2-.22,82.4,82.4,0,0,1-8.59.57l-.24,0-.43,0h-1.49a9.57,9.57,0,0,0-3.29-.12Z" transform="translate(-845.3 10.13)"></path></g><g id="Groupe_9530" data-name="Groupe 9530"><g id="Groupe_9529" data-name="Groupe 9529"><g id="Groupe_9523" data-name="Groupe 9523"><g id="Groupe_9522" data-name="Groupe 9522"><path id="Trac&#xE9;_11740" data-name="Trac&#xE9; 11740" class="cls-38" d="M1522.22,528.49h13.4a9.77,9.77,0,0,1,9.77,9.77h0V585h26.78a6.77,6.77,0,0,1,6.76,6.77H1517.8v0a5.59,5.59,0,0,1-5.35-5.57V538.26A9.78,9.78,0,0,1,1522.22,528.49Z" transform="translate(-845.3 10.13)"></path></g></g><g id="Groupe_9526" data-name="Groupe 9526"><g id="Groupe_9525" data-name="Groupe 9525"><g id="Groupe_9524" data-name="Groupe 9524"><path id="Trac&#xE9;_11741" data-name="Trac&#xE9; 11741" class="cls-38" d="M1541.5,530c-.12,0-.21,13.74-.21,30.68s.09,30.7.21,30.7.2-13.74.2-30.7S1541.61,530,1541.5,530Z" transform="translate(-845.3 10.13)"></path></g></g></g><g id="Groupe_9528" data-name="Groupe 9528"><g id="Groupe_9527" data-name="Groupe 9527"><path id="Trac&#xE9;_11742" data-name="Trac&#xE9; 11742" class="cls-38" d="M1543.19,640.86V591.81h4.36v49.05c2.66,5.25,8.91,8.8,16.53,11.7h-38.85C1533.12,649.36,1540.24,646.9,1543.19,640.86Z" transform="translate(-845.3 10.13)"></path></g></g></g><rect id="Rectangle_2870" data-name="Rectangle 2870" class="cls-38" x="674.17" y="577.7" width="4.52" height="7.93"></rect></g><path id="Trac&#xE9;_11743" data-name="Trac&#xE9; 11743" class="cls-24" d="M1561.47,511.23a9.18,9.18,0,0,0-2.87,2.88c-.94,1.71,0,56.28,0,56.28l-2.65-.09V513.68a8.44,8.44,0,0,1,3.28-3.08" transform="translate(-845.3 10.13)"></path><path id="Trac&#xE9;_11744" data-name="Trac&#xE9; 11744" class="cls-24" d="M1534.35,528.55h-.08a4.36,4.36,0,0,0-.51,0h-.2a3.56,3.56,0,0,0-.57,0,2.71,2.71,0,0,0-.4,0,3.64,3.64,0,0,0-.48,0V515.11a8.49,8.49,0,0,1,3.28-3.07l2.95-1.17a37.77,37.77,0,0,0-3.58,4.67C1534.48,516.06,1534.37,521.38,1534.35,528.55Z" transform="translate(-845.3 10.13)"></path><g id="Groupe_9534" data-name="Groupe 9534"><circle id="Ellipse_1070" data-name="Ellipse 1070" class="cls-30" cx="803.79" cy="447.63" r="22.71"></circle><g id="Groupe_9533" data-name="Groupe 9533"><g id="Groupe_9532" data-name="Groupe 9532"><g class="cls-40"><g id="Groupe_9531" data-name="Groupe 9531"><path id="Trac&#xE9;_11745" data-name="Trac&#xE9; 11745" class="cls-3" d="M1649.08,422a15.48,15.48,0,1,0,15.47,15.47h0A15.47,15.47,0,0,0,1649.08,422Zm5.4,23.31a10,10,0,0,1-7.09.45,7.34,7.34,0,0,1-4.67-4.44c-.17-.42-.29-.86-.42-1.3h-1.78a.53.53,0,0,1-.53-.53h0v-1.2a.53.53,0,0,1,.53-.53H1642v-1h-1.47a.53.53,0,0,1-.53-.53h0V435a.54.54,0,0,1,.53-.54h1.88l.06-.18a7.94,7.94,0,0,1,2.7-4,7.75,7.75,0,0,1,3.59-1.48,10.09,10.09,0,0,1,5.43.64,2.49,2.49,0,0,1,.33.16.71.71,0,0,1,.37.94l0,.07c-.2.47-.39.95-.61,1.41a.68.68,0,0,1-.85.45h0c-.6-.14-1.18-.32-1.77-.44a6.31,6.31,0,0,0-3.7.21,3.83,3.83,0,0,0-2.12,2.2v0h3.63a.54.54,0,0,1,.54.54h0v1.2a.54.54,0,0,1-.54.53h-4.15c0,.32,0,.64,0,1h4.16a.53.53,0,0,1,.53.53h0v1.2a.54.54,0,0,1-.53.54h-3.8a4,4,0,0,0,2.6,2.76,6.68,6.68,0,0,0,3.38.1c.58-.12,1.16-.3,1.74-.43a.67.67,0,0,1,.88.38.14.14,0,0,1,0,.06c.22.47.42.94.62,1.43a.69.69,0,0,1-.27.93l-.12.06Z" transform="translate(-845.3 10.13)"></path></g></g></g></g></g></g><path id="Trac&#xE9;_11746" data-name="Trac&#xE9; 11746" class="cls-30" d="M1593.51,406v-1.29a2,2,0,0,0-1.3-1.83v1.83a.65.65,0,0,1-1.29,0v-2.59a13.57,13.57,0,0,0-9.71-13v8.5a.65.65,0,1,1-1.3,0h0v-9.72a.65.65,0,0,0-.65-.64h-3.88a.64.64,0,0,0-.64.64v9.72a.65.65,0,0,1-1.3,0v-8.49a13.49,13.49,0,0,0-9.71,13v2.59a.65.65,0,1,1-1.29,0V402.9a1.93,1.93,0,0,0-1.3,1.82V406a.65.65,0,0,0,.65.65h31.07a.65.65,0,0,0,.65-.65Zm-27.19-2.59h-.65a.65.65,0,0,1,0-1.29h.66a.65.65,0,1,1,0,1.29Zm16.18-11.65a.65.65,0,0,1,1.3,0v3.88a.65.65,0,0,1-1.3,0Zm-11.65,0a.65.65,0,0,1,1.3,0v3.88a.65.65,0,0,1-1.3,0Zm14.89,11.65h-4.53a2,2,0,0,1-1.94,1.95h-3.89a2,2,0,0,1-1.94-1.95h-4.53a.65.65,0,0,1,0-1.29h5.19a.65.65,0,0,1,.65.65v.64a.65.65,0,0,0,.64.65h3.89a.65.65,0,0,0,.64-.65v-.64a.65.65,0,0,1,.65-.65h5.18a.65.65,0,1,1,0,1.29Zm3.24,0h-.65a.65.65,0,0,1,0-1.29h.66a.65.65,0,1,1,0,1.29Z" transform="translate(-845.3 10.13)"></path></g><g id="Groupe_9548" data-name="Groupe 9548"><path id="Trac&#xE9;_10867" data-name="Trac&#xE9; 10867" class="cls-24" d="M1535,475.78l.25.3,4.56-4.55V468.6l-4.81,4.81Z" transform="translate(-845.3 10.13)"></path><path id="Trac&#xE9;_10868" data-name="Trac&#xE9; 10868" class="cls-24" d="M1537.38,478.56l2.41-2.78v-2.56L1536,477Z" transform="translate(-845.3 10.13)"></path><path id="Trac&#xE9;_10869" data-name="Trac&#xE9; 10869" class="cls-24" d="M1524.15,475.78l.42.49,4.39-4.39v-2.69l-4.81,4.81Z" transform="translate(-845.3 10.13)"></path><path id="Trac&#xE9;_10870" data-name="Trac&#xE9; 10870" class="cls-24" d="M1524.15,472.3l4.81-4.81V465l-4.81,4.81Z" transform="translate(-845.3 10.13)"></path><path id="Trac&#xE9;_10871" data-name="Trac&#xE9; 10871" class="cls-24" d="M1526.56,478.56l2.4-2.78v-2.2l-3.6,3.6Z" transform="translate(-845.3 10.13)"></path><path id="Trac&#xE9;_10872" data-name="Trac&#xE9; 10872" class="cls-24" d="M1527.16,459.55l-.6.3-.6-.3v-1.43h-4.21v.6a6.28,6.28,0,0,0,1.58,4.21h6.47a6.32,6.32,0,0,0,1.57-4.21v-.6h-4.21Z" transform="translate(-845.3 10.13)"></path><path id="Trac&#xE9;_10873" data-name="Trac&#xE9; 10873" class="cls-24" d="M1524.15,468.09l4-4h-4Z" transform="translate(-845.3 10.13)"></path><path id="Trac&#xE9;_10874" data-name="Trac&#xE9; 10874" class="cls-24" d="M1538,461.73v1.43l-.6.3-.6-.3v-1.43h-4.21v.6a6.42,6.42,0,0,0,1.58,4.21h6.47a6.42,6.42,0,0,0,1.58-4.21v-.6Z" transform="translate(-845.3 10.13)"></path><path id="Trac&#xE9;_10875" data-name="Trac&#xE9; 10875" class="cls-24" d="M1535,471.7l4-4h-4Z" transform="translate(-845.3 10.13)"></path></g></g><g id="Groupe_11323" data-name="Groupe 11323"><g id="Groupe_10380-2" data-name="Groupe 10380-2"><circle id="Ellipse_490-2" data-name="Ellipse 490-2" class="cls-26" cx="651.3" cy="430.62" r="43.17"></circle></g><path id="Trac&#xE9;_5588-2" data-name="Trac&#xE9; 5588-2" class="cls-3" d="M1469.39,422.76l5.93,6.94,5.94,6.95,5.93,7a4.34,4.34,0,0,0,6.11.52l.18-.16h0l6.66-6.25,6.67-6.26,6.66-6.25,2.16-2,3.95-3.71.56-.53,6.66-6.24a4.85,4.85,0,0,0,.36-6.6l-5.93-6.95a4.33,4.33,0,0,0-6.1-.52l-.2.17-6.66,6.25-.44.42-4.12,3.86-.89.83-1.22,1.15-6.66,6.25h0a4.33,4.33,0,0,1-6.13-.17l-.17-.18-5.93-6.95a4.34,4.34,0,0,0-6.11-.52l-.19.18-2.36,2.21-4.3,4A4.87,4.87,0,0,0,1469.39,422.76Z" transform="translate(-845.3 10.13)"></path></g><g id="Groupe_11324" data-name="Groupe 11324"><g id="Groupe_4857" data-name="Groupe 4857"><g id="Groupe_4856" data-name="Groupe 4856"><g id="Groupe_4843" data-name="Groupe 4843"><rect id="Rectangle_2109" data-name="Rectangle 2109" class="cls-41" x="169.7" y="640.47" width="16.1" height="7.75"></rect><rect id="Rectangle_2110" data-name="Rectangle 2110" class="cls-42" x="162.42" y="638.01" width="9.06" height="12.65"></rect><g id="Groupe_4842" data-name="Groupe 4842"><path id="Trac&#xE9;_6305" data-name="Trac&#xE9; 6305" class="cls-43" d="M1030.52,632.24H1025c-1.92,0-3.56-11.18-3.56-11.18,0-1,1.57-1.86,3.5-1.82,1,0,2,.68,2.83.68s1.52-.6,2.84-.68c1.91-.11,3.49.83,3.49,1.82C1034.08,621.06,1032.44,632.24,1030.52,632.24Z" transform="translate(-845.3 10.13)"></path><path id="Trac&#xE9;_6306" data-name="Trac&#xE9; 6306" class="cls-43" d="M1030.52,636.18H1025c-1.92,0-3.56,11.18-3.56,11.18,0,1,1.57,1.86,3.5,1.82,1,0,2-.67,2.83-.67s1.52.6,2.84.67c1.91.1,3.49-.82,3.49-1.82C1034.08,647.36,1032.44,636.18,1030.52,636.18Z" transform="translate(-845.3 10.13)"></path></g><path id="Trac&#xE9;_6307" data-name="Trac&#xE9; 6307" class="cls-44" d="M1025.45,636.78c-1.57,0-2.84-.86-2.84-1.89v-1.35c0-1,1.27-1.89,2.84-1.89h4.6c1.57,0,2.84.84,2.84,1.89v1.35c0,1-1.27,1.89-2.84,1.89Z" transform="translate(-845.3 10.13)"></path></g><rect id="Rectangle_2111" data-name="Rectangle 2111" class="cls-45" x="91.47" y="612.51" width="12.74" height="52.49"></rect><rect id="Rectangle_2112" data-name="Rectangle 2112" class="cls-45" x="154.04" y="612.57" width="12.74" height="52.49"></rect><g id="Groupe_4855" data-name="Groupe 4855"><path id="Trac&#xE9;_6308" data-name="Trac&#xE9; 6308" class="cls-46" d="M1060.39,598.16v-.08l-.41.08Z" transform="translate(-845.3 10.13)"></path><path id="Trac&#xE9;_6309" data-name="Trac&#xE9; 6309" class="cls-46" d="M974.22,598.16h.42l-.42-.08Z" transform="translate(-845.3 10.13)"></path><path id="Trac&#xE9;_6310" data-name="Trac&#xE9; 6310" class="cls-46" d="M1060.39,366.8h-.25l.25.05Z" transform="translate(-845.3 10.13)"></path><path id="Trac&#xE9;_6311" data-name="Trac&#xE9; 6311" class="cls-46" d="M888.47,366.8v.05l.25-.05Z" transform="translate(-845.3 10.13)"></path><g id="Groupe_4844" data-name="Groupe 4844"><path id="Trac&#xE9;_6312" data-name="Trac&#xE9; 6312" class="cls-41" d="M974.43,358.33c-31.53,0-60.92,3.12-85.71,8.47h171.42C1035.34,361.45,1006,358.33,974.43,358.33Z" transform="translate(-845.3 10.13)"></path><path id="Trac&#xE9;_6313" data-name="Trac&#xE9; 6313" class="cls-41" d="M974.43,606.6c31.46,0,60.79-3.1,85.55-8.44H888.88C913.64,603.5,943,606.6,974.43,606.6Z" transform="translate(-845.3 10.13)"></path><path id="Trac&#xE9;_6314" data-name="Trac&#xE9; 6314" class="cls-47" d="M1060.14,366.8H888.72l-.25.05V598.08l.41.08H1060l.41-.08V366.85Z" transform="translate(-845.3 10.13)"></path></g><rect id="Rectangle_2113" data-name="Rectangle 2113" class="cls-48" x="96.35" y="612.51" width="65.56" height="29.53"></rect><g id="Groupe_4854" data-name="Groupe 4854"><g id="Groupe_4845" data-name="Groupe 4845"><path id="Trac&#xE9;_6315" data-name="Trac&#xE9; 6315" class="cls-49" d="M979.71,619.22a7.87,7.87,0,0,1,.25-.82,8,8,0,0,0,.1-.84l6.06.45-.06.55a6.32,6.32,0,0,1-.19,1.22l-.54,1.72Z" transform="translate(-845.3 10.13)"></path></g><g id="Groupe_4846" data-name="Groupe 4846"><path id="Trac&#xE9;_6316" data-name="Trac&#xE9; 6316" class="cls-49" d="M977.17,622a2.87,2.87,0,0,0,.73-.45,6.89,6.89,0,0,0,.65-.54l4.35,4.24a16.65,16.65,0,0,1-1.36,1.16,9.83,9.83,0,0,1-1.51,1Z" transform="translate(-845.3 10.13)"></path></g><g id="Groupe_4847" data-name="Groupe 4847"><path id="Trac&#xE9;_6317" data-name="Trac&#xE9; 6317" class="cls-49" d="M973.48,622.51s.43,0,.85.07a2.43,2.43,0,0,0,.85,0l.6,6.05a8.25,8.25,0,0,1-1.79,0l-1.23-.13a4.86,4.86,0,0,1-.55-.07Z" transform="translate(-845.3 10.13)"></path></g><g id="Groupe_4848" data-name="Groupe 4848"><path id="Trac&#xE9;_6318" data-name="Trac&#xE9; 6318" class="cls-49" d="M970.33,620.48a5.13,5.13,0,0,0,.56.66c.34.25.66.54.66.54l-3.42,5-1.4-1.14a7.11,7.11,0,0,1-.84-.9,5.31,5.31,0,0,0-.35-.43Z" transform="translate(-845.3 10.13)"></path></g><g id="Groupe_4849" data-name="Groupe 4849"><path id="Trac&#xE9;_6319" data-name="Trac&#xE9; 6319" class="cls-49" d="M969.19,616.94a5.27,5.27,0,0,0,.21,1.68l-5.85,1.65a12.93,12.93,0,0,1-.43-3.55Z" transform="translate(-845.3 10.13)"></path></g><g id="Groupe_4850" data-name="Groupe 4850"><path id="Trac&#xE9;_6320" data-name="Trac&#xE9; 6320" class="cls-49" d="M970.59,613.49s-.26.33-.54.66-.4.76-.4.76l-5.52-2.5.85-1.59a16.75,16.75,0,0,1,1.12-1.4Z" transform="translate(-845.3 10.13)"></path></g><g id="Groupe_4851" data-name="Groupe 4851"><path id="Trac&#xE9;_6321" data-name="Trac&#xE9; 6321" class="cls-49" d="M973.89,611.77a2.11,2.11,0,0,0-.82.17l-.57.17-.23.12-2.63-5.46a12.07,12.07,0,0,1,3.42-1Z" transform="translate(-845.3 10.13)"></path></g><g id="Groupe_4852" data-name="Groupe 4852"><path id="Trac&#xE9;_6322" data-name="Trac&#xE9; 6322" class="cls-49" d="M977.54,612.52s-.38-.19-.75-.41l-.81-.24,1.49-5.9s.88.26,1.72.57l1.58.84Z" transform="translate(-845.3 10.13)"></path></g><g id="Groupe_4853" data-name="Groupe 4853"><path id="Trac&#xE9;_6323" data-name="Trac&#xE9; 6323" class="cls-49" d="M979.81,615.49a5.61,5.61,0,0,0-.73-1.52l4.92-3.55a7.7,7.7,0,0,1,.91,1.54,5,5,0,0,1,.52,1.13l.17.54Z" transform="translate(-845.3 10.13)"></path></g></g></g><rect id="Rectangle_2114" data-name="Rectangle 2114" class="cls-42" x="90.89" y="657.76" width="13.91" height="7.31"></rect><rect id="Rectangle_2115" data-name="Rectangle 2115" class="cls-44" x="89.78" y="659.05" width="16.12" height="6.02"></rect><rect id="Rectangle_2116" data-name="Rectangle 2116" class="cls-42" x="153.46" y="657.76" width="13.9" height="7.31"></rect><rect id="Rectangle_2117" data-name="Rectangle 2117" class="cls-44" x="152.35" y="659.05" width="16.12" height="6.02"></rect></g></g><g id="Groupe_4858" data-name="Groupe 4858"><path id="Trac&#xE9;_6324" data-name="Trac&#xE9; 6324" class="cls-50" d="M904,393.82H914.4V383.4H904v10.42m1.49-1.49h7.44v-7.44h-7.44v7.44" transform="translate(-845.3 10.13)"></path><path id="Trac&#xE9;_6325" data-name="Trac&#xE9; 6325" class="cls-50" d="M917.38,384.88h1.49V383.4h-1.49" transform="translate(-845.3 10.13)"></path><path id="Trac&#xE9;_6326" data-name="Trac&#xE9; 6326" class="cls-50" d="M921.85,384.88h1.49V383.4h-1.49" transform="translate(-845.3 10.13)"></path><path id="Trac&#xE9;_6327" data-name="Trac&#xE9; 6327" class="cls-50" d="M924.82,393.82h10.42V383.4H924.82v10.42m1.49-1.49h7.44v-7.44h-7.44v7.44" transform="translate(-845.3 10.13)"></path><path id="Trac&#xE9;_6328" data-name="Trac&#xE9; 6328" class="cls-50" d="M915.89,386.37h1.49v-1.49h-1.49" transform="translate(-845.3 10.13)"></path><path id="Trac&#xE9;_6329" data-name="Trac&#xE9; 6329" class="cls-50" d="M920.35,386.37h1.49v-1.49h-1.49" transform="translate(-845.3 10.13)"></path><path id="Trac&#xE9;_6330" data-name="Trac&#xE9; 6330" class="cls-50" d="M907,390.84h4.46v-4.47H907v4.47" transform="translate(-845.3 10.13)"></path><path id="Trac&#xE9;_6331" data-name="Trac&#xE9; 6331" class="cls-50" d="M917.38,387.86h1.49v-1.49h-1.49" transform="translate(-845.3 10.13)"></path><path id="Trac&#xE9;_6332" data-name="Trac&#xE9; 6332" class="cls-50" d="M927.8,390.84h4.46v-4.47H927.8v4.47" transform="translate(-845.3 10.13)"></path><path id="Trac&#xE9;_6333" data-name="Trac&#xE9; 6333" class="cls-50" d="M915.89,389.35h1.49v-1.49h-1.49" transform="translate(-845.3 10.13)"></path><path id="Trac&#xE9;_6334" data-name="Trac&#xE9; 6334" class="cls-50" d="M921.84,398.28h1.49v-1.49h1.49V395.3h-1.49v-5.95h-1.49v-1.49h-1.48v1.49h-1.49v1.49h-3v3h1.49v-1.49h1.49v3h3v3m-1.48-4.46h1.48v-3h-1.48v3" transform="translate(-845.3 10.13)"></path><path id="Trac&#xE9;_6335" data-name="Trac&#xE9; 6335" class="cls-50" d="M905.47,398.28H907v-1.49h1.49v1.49h1.49v-1.49h1.48V395.3H904v1.49h1.49v1.49" transform="translate(-845.3 10.13)"></path><path id="Trac&#xE9;_6336" data-name="Trac&#xE9; 6336" class="cls-50" d="M917.38,398.28h3v-1.49h-1.48V395.3h-6v1.49h4.47v1.49" transform="translate(-845.3 10.13)"></path><path id="Trac&#xE9;_6337" data-name="Trac&#xE9; 6337" class="cls-50" d="M926.31,398.28h1.49v-3h-1.49v3" transform="translate(-845.3 10.13)"></path><path id="Trac&#xE9;_6338" data-name="Trac&#xE9; 6338" class="cls-50" d="M929.29,398.28h1.49v-3h-1.49v3" transform="translate(-845.3 10.13)"></path><path id="Trac&#xE9;_6339" data-name="Trac&#xE9; 6339" class="cls-50" d="M932.26,396.79h1.49V395.3h-1.49" transform="translate(-845.3 10.13)"></path><path id="Trac&#xE9;_6340" data-name="Trac&#xE9; 6340" class="cls-50" d="M911.42,399.77h4.47v-1.49h-3v-1.49h-1.49v3" transform="translate(-845.3 10.13)"></path><path id="Trac&#xE9;_6341" data-name="Trac&#xE9; 6341" class="cls-50" d="M904,399.77h1.49v-1.49H904" transform="translate(-845.3 10.13)"></path><path id="Trac&#xE9;_6342" data-name="Trac&#xE9; 6342" class="cls-50" d="M920.35,399.77h1.49v-1.49h-1.49" transform="translate(-845.3 10.13)"></path><path id="Trac&#xE9;_6343" data-name="Trac&#xE9; 6343" class="cls-50" d="M923.33,399.77h1.49v-1.49h-1.49" transform="translate(-845.3 10.13)"></path><path id="Trac&#xE9;_6344" data-name="Trac&#xE9; 6344" class="cls-50" d="M927.8,402.75h1.49v-1.49h1.48v1.49h1.49v-3h1.49v-1.49h-3v1.49h-1.49v-1.49H927.8v1.49h-1.49v1.49h1.49v1.49" transform="translate(-845.3 10.13)"></path><path id="Trac&#xE9;_6345" data-name="Trac&#xE9; 6345" class="cls-50" d="M905.47,402.75H907v-3h-1.49v3" transform="translate(-845.3 10.13)"></path><path id="Trac&#xE9;_6346" data-name="Trac&#xE9; 6346" class="cls-50" d="M908.44,402.75h1.49v-3h-1.49v3" transform="translate(-845.3 10.13)"></path><path id="Trac&#xE9;_6347" data-name="Trac&#xE9; 6347" class="cls-50" d="M921.84,410.19h1.49v-3h3v-1.49h1.49v-1.49h-1.49v-1.49h-1.49v-1.48h-1.49v1.49h-1.49v-1.49h-3v-1.49h-3v1.49h1.49v1.49h-1.49v3h4.47v-1.48h1.49v1.48h-1.49v1.49h1.49v3m1.49-4.47h1.48v-1.48h-1.49v1.48" transform="translate(-845.3 10.13)"></path><path id="Trac&#xE9;_6348" data-name="Trac&#xE9; 6348" class="cls-50" d="M933.75,401.26h1.49v-1.49h-1.49" transform="translate(-845.3 10.13)"></path><path id="Trac&#xE9;_6349" data-name="Trac&#xE9; 6349" class="cls-50" d="M912.91,402.75h1.49v-1.49h-1.49" transform="translate(-845.3 10.13)"></path><path id="Trac&#xE9;_6350" data-name="Trac&#xE9; 6350" class="cls-50" d="M927.8,414.66h1.49v-3h1.48v-1.49h1.49V408.7h1.49v-1.49h-1.49v-1.48h-1.49v-3h-1.48v4.46h1.48v1.49h-1.48v1.49H927.8v1.49h-1.49v1.49h1.49v1.48" transform="translate(-845.3 10.13)"></path><path id="Trac&#xE9;_6351" data-name="Trac&#xE9; 6351" class="cls-50" d="M904,414.66H914.4V404.24H904v10.42m1.49-1.49h7.44v-7.45h-7.44v7.45" transform="translate(-845.3 10.13)"></path><path id="Trac&#xE9;_6352" data-name="Trac&#xE9; 6352" class="cls-50" d="M932.26,405.72h1.49v-1.48h-1.49" transform="translate(-845.3 10.13)"></path><path id="Trac&#xE9;_6353" data-name="Trac&#xE9; 6353" class="cls-50" d="M907,411.68h4.46v-4.47H907v4.47" transform="translate(-845.3 10.13)"></path><path id="Trac&#xE9;_6354" data-name="Trac&#xE9; 6354" class="cls-50" d="M915.89,414.66h1.49v-1.49h3v-1.49h1.49v-1.49h-1.49V408.7h-1.49v3h-1.48v-3h1.48v-1.49h-3v7.44" transform="translate(-845.3 10.13)"></path><path id="Trac&#xE9;_6355" data-name="Trac&#xE9; 6355" class="cls-50" d="M926.31,410.19h1.49v-3h-1.49v3" transform="translate(-845.3 10.13)"></path><path id="Trac&#xE9;_6356" data-name="Trac&#xE9; 6356" class="cls-50" d="M923.33,411.68h1.49v-1.49h-1.49" transform="translate(-845.3 10.13)"></path><path id="Trac&#xE9;_6357" data-name="Trac&#xE9; 6357" class="cls-50" d="M930.77,414.66h3v-1.49h-1.49v-1.49h-1.49v3" transform="translate(-845.3 10.13)"></path><path id="Trac&#xE9;_6358" data-name="Trac&#xE9; 6358" class="cls-50" d="M920.35,414.66h1.49v-1.49h-1.49" transform="translate(-845.3 10.13)"></path><path id="Trac&#xE9;_6359" data-name="Trac&#xE9; 6359" class="cls-50" d="M923.33,414.66h1.49v-1.49h-1.49" transform="translate(-845.3 10.13)"></path></g><g id="Groupe_4859" data-name="Groupe 4859"><path id="Trac&#xE9;_6360" data-name="Trac&#xE9; 6360" class="cls-51" d="M1012.08,525.43a37.64,37.64,0,0,1-37.65,37.66h0a37.66,37.66,0,0,1-37.66-37.65h0a37.65,37.65,0,0,1,37.65-37.64h0a37.63,37.63,0,0,1,37.65,37.63Z" transform="translate(-845.3 10.13)"></path><path id="Trac&#xE9;_6361" data-name="Trac&#xE9; 6361" class="cls-44" d="M974.43,559.2a33.76,33.76,0,1,1,33.76-33.77A33.81,33.81,0,0,1,974.43,559.2Z" transform="translate(-845.3 10.13)"></path><path id="Trac&#xE9;_6362" data-name="Trac&#xE9; 6362" class="cls-43" d="M955.34,540.12s-.83-1.17-2.3-3.19a39.94,39.94,0,0,1-2-4.13l-.85-2.72a21.67,21.67,0,0,1-.5-3.11c-.07-.57-.18-1.07-.21-1.72v-1.71a22.24,22.24,0,0,1,.37-3.73,23.94,23.94,0,0,1,2.68-7.66,26,26,0,0,1,5.45-6.94,25.44,25.44,0,0,1,7.89-4.84,26.65,26.65,0,0,1,9.3-1.85c.72,0,1.35,0,2.15,0l2.46.26a27.5,27.5,0,0,1,4.49,1.1,28.32,28.32,0,0,1,7.82,4.08,31.76,31.76,0,0,1,5.66,5.69,29.87,29.87,0,0,1,3.38,6,19,19,0,0,1,1,2.74,16.42,16.42,0,0,1,.61,2.39,23.24,23.24,0,0,1,.5,3.43l.11,1.23h-9.73v-.83a14.09,14.09,0,0,0-.08-2.34,9.36,9.36,0,0,0-.24-1.66,11.63,11.63,0,0,0-.45-1.92,21,21,0,0,0-1.88-4.42,22.81,22.81,0,0,0-3.62-4.52,21.46,21.46,0,0,0-5.45-3.64,21.91,21.91,0,0,0-3.31-1.22l-1.66-.38c-.57-.11-1.35-.15-2-.23a21.65,21.65,0,0,0-19.73,9.46,21.36,21.36,0,0,0-3.1,6.56,16.31,16.31,0,0,0-.42,1.67,11.51,11.51,0,0,0-.28,1.66c-.06.58-.12,1.14-.18,1.7s0,1,0,1.54a23,23,0,0,0,.15,3l.54,2.65a44.11,44.11,0,0,0,1.45,4.19C954.64,538.88,955.34,540.12,955.34,540.12Z" transform="translate(-845.3 10.13)"></path><path id="Trac&#xE9;_6363" data-name="Trac&#xE9; 6363" class="cls-52" d="M981.77,525.41a7,7,0,1,1-7-7h0a7,7,0,0,1,7,7Z" transform="translate(-845.3 10.13)"></path><path id="Trac&#xE9;_6364" data-name="Trac&#xE9; 6364" class="cls-52" d="M969.11,525.42l-11.93-18.14,17.55,12.77Z" transform="translate(-845.3 10.13)"></path></g></g><g id="Groupe_11325" data-name="Groupe 11325"><g id="Groupe_10380-3" data-name="Groupe 10380-3"><circle id="Ellipse_490-3" data-name="Ellipse 490-3" class="cls-26" cx="43.17" cy="430.62" r="43.17"></circle></g><path id="Trac&#xE9;_5588-3" data-name="Trac&#xE9; 5588-3" class="cls-3" d="M861.26,422.75l5.93,6.95,5.93,6.95,5.94,7a4.33,4.33,0,0,0,6.1.52l.19-.16v0L892,437.7l6.67-6.26,6.66-6.25,2.15-2,4-3.72.55-.52,6.66-6.25a4.85,4.85,0,0,0,.37-6.6l-5.93-6.94a4.34,4.34,0,0,0-6.11-.52l-.19.17L900.15,405l-.45.42-4.11,3.85-.89.84-1.22,1.15-6.66,6.24h0a4.32,4.32,0,0,1-6.12-.17l-.17-.18-5.94-6.95a4.33,4.33,0,0,0-6.1-.52l-.2.17-2.35,2.22-4.3,4A4.84,4.84,0,0,0,861.26,422.75Z" transform="translate(-845.3 10.13)"></path></g></g></svg>