<svg xmlns="http://www.w3.org/2000/svg" id="Calque_1" data-name="Calque 1" viewBox="0 0 828.27 373.89"><defs><style>.cls-1{fill:#d6dee6;}.cls-2{fill:#e7ecf1;}.cls-3{fill:#8da8ba;}.cls-4{fill:#fafafa;}.cls-5{fill:#00aac4;}.cls-6{fill:#e6f2ff;}.cls-7{fill:#263238;}.cls-21,.cls-8{fill:#00456b;}.cls-9{fill:#63bebc;}.cls-10{opacity:0.3;}.cls-11{fill:#e8505b;}.cls-12{fill:#3fa68d;}.cls-13{fill:gray;}.cls-14{fill:#c53389;}.cls-15{fill:#e4e4e4;}.cls-16{fill:#419680;}.cls-17{fill:#cacaca;}.cls-18{fill:#ccd6df;}.cls-19{fill:#f0f0f0;}.cls-20{fill:#16a9c5;}.cls-21{fill-rule:evenodd;}.cls-22{fill:#979797;}.cls-23{fill:#666;}.cls-24{fill:#19a580;}.cls-25{fill:#fff;}.cls-26{fill:#2e2e2e;}.cls-27{fill:#1e1c1c;}.cls-28{fill:#c83622;}.cls-29{fill:#009cb9;}.cls-30{fill:#64bdcf;}.cls-31,.cls-32{fill:#181818;}.cls-32{opacity:0.62;}.cls-32,.cls-39,.cls-40{isolation:isolate;}.cls-33{fill:#e24f05;}.cls-34{fill:#4a4a4a;}.cls-35{fill:#b0bfc5;}.cls-36{fill:#009fbb;}.cls-37,.cls-40{fill:#d54e30;}.cls-38{fill:#f1f2f2;}.cls-40{font-size:45px;font-family:CenturyGothicPro-Bold, Century Gothic Pro;font-weight:700;}</style></defs><g id="Groupe_11337" data-name="Groupe 11337"><g id="Groupe_11328" data-name="Groupe 11328"><g id="Groupe_10279" data-name="Groupe 10279"><g id="Groupe_9570" data-name="Groupe 9570"><g id="Groupe_9568" data-name="Groupe 9568"><path id="Trac&#xE9;_11747" data-name="Trac&#xE9; 11747" class="cls-1" d="M1549.57,368.88l-16,190.8s-1.68,11.56,6.92,11.59c14.14,0,70.4,0,70.4,0s-10.65-2.41-10.52-7.83c.15-6.38,18.76-196.37,18.76-196.37Z" transform="translate(-953.33 -197.45)"></path><path id="Trac&#xE9;_11748" data-name="Trac&#xE9; 11748" class="cls-2" d="M1616.14,567.88c-2.78,0-57.24.1-71-.08-6-.07-7.06-5.34-7.11-8.74a16.88,16.88,0,0,1,.19-2.84l.41-5,1.07-12.64.93-11.17,1.21-14.35,1-12.11,11.4-135.57,69.52-1.8s-7.83,79.5-13.37,137.37c-.62,6.44-1.21,12.63-1.75,18.4q-.27,2.76-.51,5.4c-.52,5.47-1,10.5-1.4,14.94q-.32,3.51-.59,6.51C1605.43,554,1605,559,1605,560a8.05,8.05,0,0,0,.14,1.55C1606.28,567.6,1615.1,567.88,1616.14,567.88Z" transform="translate(-953.33 -197.45)"></path><path id="Trac&#xE9;_11749" data-name="Trac&#xE9; 11749" class="cls-2" d="M1380.74,265.05l39.08,157,5.36,21.5,18.2,73.13H1781.6l-67.1-251.63Z" transform="translate(-953.33 -197.45)"></path><path id="Trac&#xE9;_11750" data-name="Trac&#xE9; 11750" class="cls-1" d="M1380.74,265.05l-5.42,1.81,60.86,255.29,7.2-5.46Z" transform="translate(-953.33 -197.45)"></path><path id="Trac&#xE9;_11751" data-name="Trac&#xE9; 11751" class="cls-1" d="M1436.18,522.15h336.13l9.29-5.46H1443.38Z" transform="translate(-953.33 -197.45)"></path><rect id="Rectangle_2883" data-name="Rectangle 2883" class="cls-3" x="600.89" y="370.43" width="72.78" height="3.46"></rect><path id="Trac&#xE9;_11752" data-name="Trac&#xE9; 11752" class="cls-3" d="M1608.5,522.15l-.38,2.64-68.44,13.83.94-11.17.44-5.3Z" transform="translate(-953.33 -197.45)"></path><path id="Trac&#xE9;_11753" data-name="Trac&#xE9; 11753" class="cls-1" d="M1616.14,567.88c-2.78,0-57.25.1-71-.08-6-.07-7.06-5.34-7.11-8.74l68.12-12.82C1605.43,554,1605,559,1605,560a8,8,0,0,0,.13,1.55C1606.29,567.6,1615.1,567.88,1616.14,567.88Z" transform="translate(-953.33 -197.45)"></path><path id="Trac&#xE9;_11754" data-name="Trac&#xE9; 11754" class="cls-2" d="M1380.74,265.05H1714.5l54.15,202.24H1431.08Z" transform="translate(-953.33 -197.45)"></path><path id="Trac&#xE9;_11755" data-name="Trac&#xE9; 11755" class="cls-4" d="M1752.91,458.53h-312.5L1429.24,414l-4.32-17.21-1.76-7-11.48-45.72-.6-2.38L1405,317.54l-2.71-10.81-2.31-9.22-5.43-21.62h308l6,21.62,2.54,9.22,3,10.81,19.64,71.24h0l1.66,6,.78,2.8,13.56,49.17Z" transform="translate(-953.33 -197.45)"></path><path id="Trac&#xE9;_11756" data-name="Trac&#xE9; 11756" class="cls-5" d="M1708.52,297.51H1400l-5.43-21.62h308Z" transform="translate(-953.33 -197.45)"></path><g id="Groupe_9567" data-name="Groupe 9567"><path id="Trac&#xE9;_11757" data-name="Trac&#xE9; 11757" class="cls-6" d="M1407.3,285.66a2.06,2.06,0,0,1,1.28-2.6,2.12,2.12,0,0,1,.75-.1,3.69,3.69,0,0,1,3.38,2.7,2,2,0,0,1-1.27,2.59,2.19,2.19,0,0,1-.76.11A3.71,3.71,0,0,1,1407.3,285.66Z" transform="translate(-953.33 -197.45)"></path><path id="Trac&#xE9;_11758" data-name="Trac&#xE9; 11758" class="cls-6" d="M1416.28,285.66a2.06,2.06,0,0,1,1.28-2.6,2.12,2.12,0,0,1,.75-.1,3.71,3.71,0,0,1,3.38,2.7,2,2,0,0,1-1.27,2.59,2.19,2.19,0,0,1-.76.11A3.71,3.71,0,0,1,1416.28,285.66Z" transform="translate(-953.33 -197.45)"></path><path id="Trac&#xE9;_11759" data-name="Trac&#xE9; 11759" class="cls-6" d="M1426,285.66a2,2,0,0,1,1.27-2.6,2.15,2.15,0,0,1,.76-.1,3.69,3.69,0,0,1,3.37,2.7,2,2,0,0,1-1.27,2.59,2.16,2.16,0,0,1-.76.11A3.69,3.69,0,0,1,1426,285.66Z" transform="translate(-953.33 -197.45)"></path></g></g></g><g id="Groupe_10278" data-name="Groupe 10278"><g id="Screens"><g id="Groupe_5202" data-name="Groupe 5202"><g id="Groupe_5198" data-name="Groupe 5198"><g id="Groupe_5197" data-name="Groupe 5197"><path id="Rectangle_2201" data-name="Rectangle 2201" class="cls-4" d="M1447.59,299.53l226.53.09,39.74,154.48L1487.33,454Z" transform="translate(-953.33 -197.45)"></path></g></g></g><g id="Groupe_5207" data-name="Groupe 5207"><g id="Groupe_5206" data-name="Groupe 5206"><g id="Groupe_5205" data-name="Groupe 5205"><path id="Trac&#xE9;_6581" data-name="Trac&#xE9; 6581" class="cls-7" d="M1598.06,416.25a2,2,0,0,0,.48,0l1.38,0,5,.06h.06l0-.05,4.87-9.63,3.9-7.85-.1.06,6.54-.06,1.83,0a3.35,3.35,0,0,0,.63-.05,3.6,3.6,0,0,0-.66,0l-1.84-.05-6.57-.06h-.08l0,.06-4,7.82-4.8,9.67.09-.05-5,.06-1.35,0A2.32,2.32,0,0,0,1598.06,416.25Z" transform="translate(-953.33 -197.45)"></path></g></g></g><g id="Groupe_5210" data-name="Groupe 5210"><g id="Groupe_5209" data-name="Groupe 5209"><g id="Groupe_5208" data-name="Groupe 5208"><path id="Trac&#xE9;_6582" data-name="Trac&#xE9; 6582" class="cls-7" d="M1590.75,418.92c0,.1,3.28.18,7.26.18a71.24,71.24,0,0,0,7.16-.18c0-.1-3.27-.17-7.25-.18A71.51,71.51,0,0,0,1590.75,418.92Z" transform="translate(-953.33 -197.45)"></path></g></g></g><g id="Groupe_5213" data-name="Groupe 5213"><g id="Groupe_5212" data-name="Groupe 5212"><g id="Groupe_5211" data-name="Groupe 5211"><path id="Trac&#xE9;_6583" data-name="Trac&#xE9; 6583" class="cls-7" d="M1591.47,421.69c0,.1,3.27.18,7.25.18q3.58.09,7.16-.17c0-.1-3.27-.18-7.25-.18S1591.44,421.6,1591.47,421.69Z" transform="translate(-953.33 -197.45)"></path></g></g></g><g id="Groupe_5225" data-name="Groupe 5225"><g id="Groupe_5218" data-name="Groupe 5218"><g id="Groupe_5217" data-name="Groupe 5217"><g id="Groupe_5216" data-name="Groupe 5216"><path id="Trac&#xE9;_6585" data-name="Trac&#xE9; 6585" class="cls-7" d="M1636.29,374.18a2,2,0,0,0,.42.09l1.15.18,4.15.59h.07l0-.05,4-5.4c1.89-2.62,3.59-5,4.8-6.73l1.42-2.07a4,4,0,0,0,.48-.79,3.91,3.91,0,0,0-.6.69c-.39.52-.9,1.19-1.52,2-1.27,1.69-3,4.05-4.89,6.66l-3.89,5.44.1,0-4.14-.46-1.14-.11A1.34,1.34,0,0,0,1636.29,374.18Z" transform="translate(-953.33 -197.45)"></path></g></g></g><g id="Groupe_5221" data-name="Groupe 5221"><g id="Groupe_5220" data-name="Groupe 5220"><g id="Groupe_5219" data-name="Groupe 5219"><path id="Trac&#xE9;_6586" data-name="Trac&#xE9; 6586" class="cls-7" d="M1658.15,359c0,.1,3.28.18,7.26.18s7.19-.08,7.16-.17-3.27-.18-7.25-.18A71.51,71.51,0,0,0,1658.15,359Z" transform="translate(-953.33 -197.45)"></path></g></g></g><g id="Groupe_5224" data-name="Groupe 5224"><g id="Groupe_5223" data-name="Groupe 5223"><g id="Groupe_5222" data-name="Groupe 5222"><path id="Trac&#xE9;_6587" data-name="Trac&#xE9; 6587" class="cls-7" d="M1658.87,361.79c0,.1,3.27.18,7.25.18a71.24,71.24,0,0,0,7.16-.18c0-.1-3.27-.18-7.25-.18A71.24,71.24,0,0,0,1658.87,361.79Z" transform="translate(-953.33 -197.45)"></path></g></g></g></g><g id="Groupe_5227" data-name="Groupe 5227"><g id="Groupe_5226" data-name="Groupe 5226"><path id="Trac&#xE9;_6588" data-name="Trac&#xE9; 6588" class="cls-8" d="M1540,336.68l-3.55-14.12a21.76,21.76,0,0,1,12.38,4.54,22.72,22.72,0,0,1,9.16,14.63c.1.68.17,1.37.21,2v.05h0L1540.86,340Z" transform="translate(-953.33 -197.45)"></path></g></g><g id="Groupe_5229" data-name="Groupe 5229"><g id="Groupe_5228" data-name="Groupe 5228"><path id="Trac&#xE9;_6589" data-name="Trac&#xE9; 6589" class="cls-9" d="M1540,336.68l-3.55-14.12a21.76,21.76,0,0,1,12.38,4.54,22.72,22.72,0,0,1,9.16,14.63c.1.68.17,1.37.21,2v.05h0L1540.86,340Z" transform="translate(-953.33 -197.45)"></path></g></g><g id="Groupe_5231" data-name="Groupe 5231"><g id="Groupe_5230" data-name="Groupe 5230"><path id="Trac&#xE9;_6590" data-name="Trac&#xE9; 6590" class="cls-8" d="M1522,332.32a11.57,11.57,0,0,1,10.74-9.6l.5-.05.33,0c.32,0,.64,0,1,0h.09l3.55,14.13.83,3.31-15.42,3.71h0a20.8,20.8,0,0,1-1.3-3.67A17.57,17.57,0,0,1,1522,332.32Z" transform="translate(-953.33 -197.45)"></path></g></g><g id="Groupe_5233" data-name="Groupe 5233" class="cls-10"><g id="Groupe_5232" data-name="Groupe 5232"><path id="Trac&#xE9;_6591" data-name="Trac&#xE9; 6591" class="cls-8" d="M1522,332.32a11.57,11.57,0,0,1,10.74-9.6l.5-.05.33,0c.32,0,.64,0,1,0h.09l3.55,14.13.83,3.31-15.42,3.71h0a20.8,20.8,0,0,1-1.3-3.67A17.57,17.57,0,0,1,1522,332.32Z" transform="translate(-953.33 -197.45)"></path></g></g><g id="Groupe_5235" data-name="Groupe 5235"><g id="Groupe_5234" data-name="Groupe 5234"><path id="Trac&#xE9;_6592" data-name="Trac&#xE9; 6592" class="cls-5" d="M1540.44,341.76l17.35,3.83c.38,9.4-7.07,15.3-16.66,13.18a24.35,24.35,0,0,1-16.13-13.3l15.42-3.71" transform="translate(-953.33 -197.45)"></path></g></g><g id="Groupe_5238" data-name="Groupe 5238"><g id="Groupe_5237" data-name="Groupe 5237"><g id="Groupe_5236" data-name="Groupe 5236"><path id="Trac&#xE9;_6593" data-name="Trac&#xE9; 6593" class="cls-7" d="M1476.08,339.19c0,.13,8.52.23,19,.24s18.88-.1,18.84-.22-8.51-.24-18.95-.24S1476.05,339.07,1476.08,339.19Z" transform="translate(-953.33 -197.45)"></path></g></g></g><g id="Groupe_5241" data-name="Groupe 5241"><g id="Groupe_5240" data-name="Groupe 5240"><g id="Groupe_5239" data-name="Groupe 5239"><path id="Trac&#xE9;_6594" data-name="Trac&#xE9; 6594" class="cls-7" d="M1474.93,334.71c0,.13,8.52.23,19,.24s18.87-.1,18.84-.23-8.52-.23-19-.23S1474.89,334.59,1474.93,334.71Z" transform="translate(-953.33 -197.45)"></path></g></g></g><g id="Groupe_5244" data-name="Groupe 5244"><g id="Groupe_5243" data-name="Groupe 5243"><g id="Groupe_5242" data-name="Groupe 5242"><path id="Trac&#xE9;_6595" data-name="Trac&#xE9; 6595" class="cls-7" d="M1473.77,330.23c0,.13,8.52.24,19,.24s18.87-.1,18.84-.22-8.52-.24-19-.24S1473.74,330.11,1473.77,330.23Z" transform="translate(-953.33 -197.45)"></path></g></g></g><g id="Groupe_5247" data-name="Groupe 5247"><g id="Groupe_5246" data-name="Groupe 5246"><g id="Groupe_5245" data-name="Groupe 5245"><path id="Trac&#xE9;_6596" data-name="Trac&#xE9; 6596" class="cls-7" d="M1477.15,343.36c0,.13,8.52.23,19,.24s18.87-.1,18.84-.23-8.52-.23-19-.23S1477.12,343.23,1477.15,343.36Z" transform="translate(-953.33 -197.45)"></path></g></g></g><g id="Groupe_5250" data-name="Groupe 5250"><g id="Groupe_5249" data-name="Groupe 5249"><g id="Groupe_5248" data-name="Groupe 5248"><path id="Trac&#xE9;_6597" data-name="Trac&#xE9; 6597" class="cls-7" d="M1490,347.9c0,.13,5.87.23,13,.23s13-.1,12.92-.22-5.87-.23-13-.24S1490,347.77,1490,347.9Z" transform="translate(-953.33 -197.45)"></path></g></g></g><g id="Groupe_5253" data-name="Groupe 5253"><g id="Groupe_5252" data-name="Groupe 5252"><g id="Groupe_5251" data-name="Groupe 5251"><path id="Rectangle_2202" data-name="Rectangle 2202" class="cls-8" d="M1560.2,380.35h3.89l11.63,45.2h-3.89Z" transform="translate(-953.33 -197.45)"></path></g></g></g><g id="Groupe_5256" data-name="Groupe 5256"><g id="Groupe_5255" data-name="Groupe 5255"><g id="Groupe_5254" data-name="Groupe 5254"><path id="Rectangle_2203" data-name="Rectangle 2203" class="cls-11" d="M1556.63,395.69h3.89l7.68,29.85h-3.89Z" transform="translate(-953.33 -197.45)"></path></g></g></g><g id="Groupe_5259" data-name="Groupe 5259"><g id="Groupe_5258" data-name="Groupe 5258"><g id="Groupe_5257" data-name="Groupe 5257"><path id="Rectangle_2204" data-name="Rectangle 2204" class="cls-8" d="M1546.61,386h3.89l10.25,39.81h-3.9Z" transform="translate(-953.33 -197.45)"></path></g></g></g><g id="Groupe_5262" data-name="Groupe 5262"><g id="Groupe_5261" data-name="Groupe 5261"><g id="Groupe_5260" data-name="Groupe 5260"><path id="Rectangle_2205" data-name="Rectangle 2205" class="cls-11" d="M1538.1,382.08H1542l11.18,43.46h-3.89Z" transform="translate(-953.33 -197.45)"></path></g></g></g><g id="Groupe_5265" data-name="Groupe 5265"><g id="Groupe_5264" data-name="Groupe 5264"><g id="Groupe_5263" data-name="Groupe 5263"><path id="Rectangle_2206" data-name="Rectangle 2206" class="cls-8" d="M1534.32,396.61h3.89l7.45,28.93h-3.9Z" transform="translate(-953.33 -197.45)"></path></g></g></g><g id="Groupe_5268" data-name="Groupe 5268"><g id="Groupe_5267" data-name="Groupe 5267"><g id="Groupe_5266" data-name="Groupe 5266"><path id="Rectangle_2207" data-name="Rectangle 2207" class="cls-11" d="M1528.26,402.27h3.9l6,23.26h-3.89Z" transform="translate(-953.33 -197.45)"></path></g></g></g><g id="Groupe_5271" data-name="Groupe 5271"><g id="Groupe_5270" data-name="Groupe 5270"><g id="Groupe_5269" data-name="Groupe 5269"><path id="Rectangle_2208" data-name="Rectangle 2208" class="cls-8" d="M1516.29,385h3.89l10.44,40.56h-3.89Z" transform="translate(-953.33 -197.45)"></path></g></g></g><g id="Groupe_5274" data-name="Groupe 5274"><g id="Groupe_5273" data-name="Groupe 5273"><g id="Groupe_5272" data-name="Groupe 5272"><path id="Rectangle_2209" data-name="Rectangle 2209" class="cls-11" d="M1510.66,392.28h3.89l8.56,33.25h-3.9Z" transform="translate(-953.33 -197.45)"></path></g></g></g><g id="Groupe_5277" data-name="Groupe 5277"><g id="Groupe_5276" data-name="Groupe 5276"><g id="Groupe_5275" data-name="Groupe 5275"><path id="Rectangle_2210" data-name="Rectangle 2210" class="cls-8" d="M1501.64,386.43h3.89l10.06,39.1h-3.89Z" transform="translate(-953.33 -197.45)"></path></g></g></g><g id="Groupe_5280" data-name="Groupe 5280"><g id="Groupe_5279" data-name="Groupe 5279"><g id="Groupe_5278" data-name="Groupe 5278"><path id="Rectangle_2211" data-name="Rectangle 2211" class="cls-11" d="M1497.33,398.89h3.89l6.86,26.63h-3.9Z" transform="translate(-953.33 -197.45)"></path></g></g></g><g id="Groupe_5283" data-name="Groupe 5283"><g id="Groupe_5282" data-name="Groupe 5282"><g id="Groupe_5281" data-name="Groupe 5281"><path id="Rectangle_2212" data-name="Rectangle 2212" class="cls-8" d="M1488.51,393.82h3.9l8.15,31.7h-3.89Z" transform="translate(-953.33 -197.45)"></path></g></g></g><g id="Groupe_5287" data-name="Groupe 5287"><g id="Groupe_5286" data-name="Groupe 5286"><g id="Groupe_5285" data-name="Groupe 5285"><g id="Groupe_5284" data-name="Groupe 5284"><path id="Trac&#xE9;_6598" data-name="Trac&#xE9; 6598" class="cls-7" d="M1495.89,428.67c0,.09,18.51.17,41.28.18s41.22-.06,41.2-.15-18.51-.17-41.29-.18S1495.86,428.58,1495.89,428.67Z" transform="translate(-953.33 -197.45)"></path></g></g></g></g><g id="Groupe_5291" data-name="Groupe 5291"><g id="Groupe_5290" data-name="Groupe 5290"><g id="Groupe_5289" data-name="Groupe 5289"><g id="Groupe_5288" data-name="Groupe 5288"><path id="Trac&#xE9;_6599" data-name="Trac&#xE9; 6599" class="cls-7" d="M1571.89,432.25a24.3,24.3,0,0,0,5.78,0A25.39,25.39,0,0,0,1571.89,432.25Z" transform="translate(-953.33 -197.45)"></path></g></g></g></g><g id="Groupe_5295" data-name="Groupe 5295"><g id="Groupe_5294" data-name="Groupe 5294"><g id="Groupe_5293" data-name="Groupe 5293"><g id="Groupe_5292" data-name="Groupe 5292"><path id="Trac&#xE9;_6600" data-name="Trac&#xE9; 6600" class="cls-7" d="M1562.35,432.43a36.26,36.26,0,0,0,6.91,0A36.26,36.26,0,0,0,1562.35,432.43Z" transform="translate(-953.33 -197.45)"></path></g></g></g></g><g id="Groupe_5299" data-name="Groupe 5299"><g id="Groupe_5298" data-name="Groupe 5298"><g id="Groupe_5297" data-name="Groupe 5297"><g id="Groupe_5296" data-name="Groupe 5296"><path id="Trac&#xE9;_6601" data-name="Trac&#xE9; 6601" class="cls-7" d="M1554.18,432.43a36.26,36.26,0,0,0,6.91,0A36.26,36.26,0,0,0,1554.18,432.43Z" transform="translate(-953.33 -197.45)"></path></g></g></g></g><g id="Groupe_5303" data-name="Groupe 5303"><g id="Groupe_5302" data-name="Groupe 5302"><g id="Groupe_5301" data-name="Groupe 5301"><g id="Groupe_5300" data-name="Groupe 5300"><path id="Trac&#xE9;_6602" data-name="Trac&#xE9; 6602" class="cls-7" d="M1546,432.43a36.15,36.15,0,0,0,6.9,0A34.59,34.59,0,0,0,1546,432.43Z" transform="translate(-953.33 -197.45)"></path></g></g></g></g><g id="Groupe_5307" data-name="Groupe 5307"><g id="Groupe_5306" data-name="Groupe 5306"><g id="Groupe_5305" data-name="Groupe 5305"><g id="Groupe_5304" data-name="Groupe 5304"><path id="Trac&#xE9;_6603" data-name="Trac&#xE9; 6603" class="cls-7" d="M1537.83,432.42a34.69,34.69,0,0,0,6.91,0A36.26,36.26,0,0,0,1537.83,432.42Z" transform="translate(-953.33 -197.45)"></path></g></g></g></g><g id="Groupe_5311" data-name="Groupe 5311"><g id="Groupe_5310" data-name="Groupe 5310"><g id="Groupe_5309" data-name="Groupe 5309"><g id="Groupe_5308" data-name="Groupe 5308"><path id="Trac&#xE9;_6604" data-name="Trac&#xE9; 6604" class="cls-7" d="M1529.66,432.42a36.15,36.15,0,0,0,6.9,0A36.15,36.15,0,0,0,1529.66,432.42Z" transform="translate(-953.33 -197.45)"></path></g></g></g></g><g id="Groupe_5315" data-name="Groupe 5315"><g id="Groupe_5314" data-name="Groupe 5314"><g id="Groupe_5313" data-name="Groupe 5313"><g id="Groupe_5312" data-name="Groupe 5312"><path id="Trac&#xE9;_6605" data-name="Trac&#xE9; 6605" class="cls-7" d="M1521.48,432.42a36.26,36.26,0,0,0,6.91,0A36.26,36.26,0,0,0,1521.48,432.42Z" transform="translate(-953.33 -197.45)"></path></g></g></g></g><g id="Groupe_5319" data-name="Groupe 5319"><g id="Groupe_5318" data-name="Groupe 5318"><g id="Groupe_5317" data-name="Groupe 5317"><g id="Groupe_5316" data-name="Groupe 5316"><path id="Trac&#xE9;_6606" data-name="Trac&#xE9; 6606" class="cls-7" d="M1513.31,432.41a34.69,34.69,0,0,0,6.91,0A36.26,36.26,0,0,0,1513.31,432.41Z" transform="translate(-953.33 -197.45)"></path></g></g></g></g><g id="Groupe_5323" data-name="Groupe 5323"><g id="Groupe_5322" data-name="Groupe 5322"><g id="Groupe_5321" data-name="Groupe 5321"><g id="Groupe_5320" data-name="Groupe 5320"><path id="Trac&#xE9;_6607" data-name="Trac&#xE9; 6607" class="cls-7" d="M1505.14,432.41a36.15,36.15,0,0,0,6.9,0A36.15,36.15,0,0,0,1505.14,432.41Z" transform="translate(-953.33 -197.45)"></path></g></g></g></g><g id="Groupe_5327" data-name="Groupe 5327"><g id="Groupe_5326" data-name="Groupe 5326"><g id="Groupe_5325" data-name="Groupe 5325"><g id="Groupe_5324" data-name="Groupe 5324"><path id="Trac&#xE9;_6608" data-name="Trac&#xE9; 6608" class="cls-7" d="M1497,432.41a36.26,36.26,0,0,0,6.91,0A36.26,36.26,0,0,0,1497,432.41Z" transform="translate(-953.33 -197.45)"></path></g></g></g></g><g id="Groupe_5330" data-name="Groupe 5330"><g id="Groupe_5329" data-name="Groupe 5329"><g id="Groupe_5328" data-name="Groupe 5328"><path id="Rectangle_2213" data-name="Rectangle 2213" class="cls-5" d="M1556.63,395.69h3.89l7.68,29.85h-3.89Z" transform="translate(-953.33 -197.45)"></path></g></g></g><g id="Groupe_5333" data-name="Groupe 5333"><g id="Groupe_5332" data-name="Groupe 5332"><g id="Groupe_5331" data-name="Groupe 5331"><path id="Rectangle_2214" data-name="Rectangle 2214" class="cls-5" d="M1538.1,382.08H1542l11.18,43.46h-3.89Z" transform="translate(-953.33 -197.45)"></path></g></g></g><g id="Groupe_5336" data-name="Groupe 5336"><g id="Groupe_5335" data-name="Groupe 5335"><g id="Groupe_5334" data-name="Groupe 5334"><path id="Rectangle_2215" data-name="Rectangle 2215" class="cls-5" d="M1528.26,402.27h3.9l6,23.26h-3.89Z" transform="translate(-953.33 -197.45)"></path></g></g></g><g id="Groupe_5339" data-name="Groupe 5339"><g id="Groupe_5338" data-name="Groupe 5338"><g id="Groupe_5337" data-name="Groupe 5337"><path id="Rectangle_2216" data-name="Rectangle 2216" class="cls-5" d="M1510.66,392.28h3.89l8.56,33.25h-3.9Z" transform="translate(-953.33 -197.45)"></path></g></g></g><g id="Groupe_5342" data-name="Groupe 5342"><g id="Groupe_5341" data-name="Groupe 5341"><g id="Groupe_5340" data-name="Groupe 5340"><path id="Rectangle_2217" data-name="Rectangle 2217" class="cls-5" d="M1497.33,398.89h3.89l6.86,26.63h-3.9Z" transform="translate(-953.33 -197.45)"></path></g></g></g><g id="Groupe_5344" data-name="Groupe 5344"><g id="Groupe_5343" data-name="Groupe 5343"><path id="Trac&#xE9;_6609" data-name="Trac&#xE9; 6609" class="cls-5" d="M1654.06,328.64a5.28,5.28,0,0,0,4.75,3.9c2.07,0,3.3-1.74,2.75-3.89a5.29,5.29,0,0,0-4.75-3.9h0C1654.74,324.74,1653.5,326.49,1654.06,328.64Z" transform="translate(-953.33 -197.45)"></path></g></g><g id="Groupe_5347" data-name="Groupe 5347"><g id="Groupe_5346" data-name="Groupe 5346"><g id="Groupe_5345" data-name="Groupe 5345"><path id="Trac&#xE9;_6610" data-name="Trac&#xE9; 6610" class="cls-5" d="M1588.85,325.54c0,.13,12.69.24,28.27.24s28.2-.09,28.16-.21-12.69-.24-28.27-.24S1588.81,325.42,1588.85,325.54Z" transform="translate(-953.33 -197.45)"></path></g></g></g><g id="Groupe_5350" data-name="Groupe 5350"><g id="Groupe_5349" data-name="Groupe 5349"><g id="Groupe_5348" data-name="Groupe 5348"><path id="Trac&#xE9;_6611" data-name="Trac&#xE9; 6611" class="cls-5" d="M1623.84,330.27a3.4,3.4,0,0,0,.9.09l2.4.07c2,.05,4.81.07,7.88.07s5.85,0,7.85-.06l2.36-.07a3.11,3.11,0,0,0,.86-.09,3.44,3.44,0,0,0-.9-.09c-.57,0-1.39-.06-2.4-.08-2,0-4.81-.07-7.89-.07s-5.84,0-7.84.06c-1,0-1.81,0-2.37.08A3.08,3.08,0,0,0,1623.84,330.27Z" transform="translate(-953.33 -197.45)"></path></g></g></g></g><g id="Groupe_7410" data-name="Groupe 7410"><g id="Groupe_4857" data-name="Groupe 4857"><g id="Groupe_4856" data-name="Groupe 4856"><g id="Groupe_4843" data-name="Groupe 4843"><path id="Rectangle_2109" data-name="Rectangle 2109" class="cls-12" d="M1622.2,427h4.67l.6,2.33h-4.67Z" transform="translate(-953.33 -197.45)"></path><path id="Rectangle_2110" data-name="Rectangle 2110" class="cls-13" d="M1626.17,426.24h2.63l1,3.81h-2.63Z" transform="translate(-953.33 -197.45)"></path><g id="Groupe_4842" data-name="Groupe 4842"><path id="Trac&#xE9;_6305" data-name="Trac&#xE9; 6305" class="cls-14" d="M1622.52,427.55h1.61c.55,0,.17-3.37.17-3.37-.08-.3-.6-.56-1.16-.55-.28,0-.52.2-.77.2s-.49-.18-.88-.2c-.56,0-.94.25-.87.55C1620.62,424.18,1622,427.55,1622.52,427.55Z" transform="translate(-953.33 -197.45)"></path><path id="Trac&#xE9;_6306" data-name="Trac&#xE9; 6306" class="cls-14" d="M1622.83,428.74h1.61c.55,0,1.9,3.37,1.9,3.37.07.3-.32.56-.88.55-.28,0-.62-.2-.87-.2s-.4.18-.77.2c-.55,0-1.08-.25-1.16-.55C1622.66,432.11,1622.27,428.74,1622.83,428.74Z" transform="translate(-953.33 -197.45)"></path></g><path id="Trac&#xE9;_6307" data-name="Trac&#xE9; 6307" class="cls-15" d="M1624.34,428.92c.46,0,.76-.26.68-.57l-.1-.41a1,1,0,0,0-1-.57h-1.33c-.46,0-.76.25-.68.57l.1.41a1,1,0,0,0,1,.57Z" transform="translate(-953.33 -197.45)"></path></g><path id="Rectangle_2111" data-name="Rectangle 2111" class="cls-16" d="M1643.7,418.56h3.7l4.07,15.82h-3.7Z" transform="translate(-953.33 -197.45)"></path><path id="Rectangle_2112" data-name="Rectangle 2112" class="cls-16" d="M1625.56,418.57h3.7l4.07,15.82h-3.7Z" transform="translate(-953.33 -197.45)"></path><g id="Groupe_4855" data-name="Groupe 4855"><path id="Trac&#xE9;_6308" data-name="Trac&#xE9; 6308" class="cls-17" d="M1611.22,417.27v0a.5.5,0,0,0,.13,0Z" transform="translate(-953.33 -197.45)"></path><path id="Trac&#xE9;_6309" data-name="Trac&#xE9; 6309" class="cls-17" d="M1636.2,417.28h-.12l.11,0Z" transform="translate(-953.33 -197.45)"></path><path id="Trac&#xE9;_6310" data-name="Trac&#xE9; 6310" class="cls-17" d="M1593.27,347.52h0Z" transform="translate(-953.33 -197.45)"></path><path id="Trac&#xE9;_6311" data-name="Trac&#xE9; 6311" class="cls-17" d="M1643.13,347.54h0Z" transform="translate(-953.33 -197.45)"></path><g id="Groupe_4844" data-name="Groupe 4844"><path id="Trac&#xE9;_6312" data-name="Trac&#xE9; 6312" class="cls-12" d="M1617.54,345a124.89,124.89,0,0,1,25.51,2.57l-49.7,0A107,107,0,0,1,1617.54,345Z" transform="translate(-953.33 -197.45)"></path><path id="Trac&#xE9;_6313" data-name="Trac&#xE9; 6313" class="cls-12" d="M1636.79,419.83a124.46,124.46,0,0,1-25.46-2.56l49.62,0A106.13,106.13,0,0,1,1636.79,419.83Z" transform="translate(-953.33 -197.45)"></path><path id="Trac&#xE9;_6314" data-name="Trac&#xE9; 6314" class="cls-18" d="M1593.35,347.52l49.7,0h.08l17.93,69.71a.35.35,0,0,1-.11,0l-49.61,0a.61.61,0,0,1-.13,0l-17.93-69.71Z" transform="translate(-953.33 -197.45)"></path></g><path id="Rectangle_2113" data-name="Rectangle 2113" class="cls-19" d="M1627,418.55h19l2.29,8.9h-19Z" transform="translate(-953.33 -197.45)"></path><g id="Groupe_4854" data-name="Groupe 4854"><g id="Groupe_4845" data-name="Groupe 4845"><path id="Trac&#xE9;_6315" data-name="Trac&#xE9; 6315" class="cls-20" d="M1636.25,423.63l-.14-.25a2.6,2.6,0,0,1-.1-.25l-1.72.13.06.17a2.39,2.39,0,0,0,.15.37l.29.52Z" transform="translate(-953.33 -197.45)"></path></g><g id="Groupe_4846" data-name="Groupe 4846"><path id="Trac&#xE9;_6316" data-name="Trac&#xE9; 6316" class="cls-20" d="M1637.19,424.45a.92.92,0,0,1-.24-.13l-.23-.17-.94,1.28a5.48,5.48,0,0,0,.49.35,3.2,3.2,0,0,0,.51.29Z" transform="translate(-953.33 -197.45)"></path></g><g id="Groupe_4847" data-name="Groupe 4847"><path id="Trac&#xE9;_6317" data-name="Trac&#xE9; 6317" class="cls-20" d="M1638.31,424.62l-.24,0a.7.7,0,0,1-.25,0l.29,1.82a1.82,1.82,0,0,0,.52,0l.35,0,.16,0Z" transform="translate(-953.33 -197.45)"></path></g><g id="Groupe_4848" data-name="Groupe 4848"><path id="Trac&#xE9;_6318" data-name="Trac&#xE9; 6318" class="cls-20" d="M1639.06,424a.78.78,0,0,1-.11.2l-.15.16,1.38,1.52.32-.35a1,1,0,0,0,.17-.27l.07-.13Z" transform="translate(-953.33 -197.45)"></path></g><g id="Groupe_4849" data-name="Groupe 4849"><path id="Trac&#xE9;_6319" data-name="Trac&#xE9; 6319" class="cls-20" d="M1639.12,422.94a1.79,1.79,0,0,1,.07.51l1.82.5a3.89,3.89,0,0,0-.15-1.07Z" transform="translate(-953.33 -197.45)"></path></g><g id="Groupe_4850" data-name="Groupe 4850"><path id="Trac&#xE9;_6320" data-name="Trac&#xE9; 6320" class="cls-20" d="M1638.44,421.9l.21.2a2.24,2.24,0,0,0,.18.23l1.41-.76-.38-.47a5.81,5.81,0,0,0-.43-.43Z" transform="translate(-953.33 -197.45)"></path></g><g id="Groupe_4851" data-name="Groupe 4851"><path id="Trac&#xE9;_6321" data-name="Trac&#xE9; 6321" class="cls-20" d="M1637.35,421.38a.76.76,0,0,1,.26.06l.17.05.08,0,.34-1.64a4.38,4.38,0,0,0-1.07-.31Z" transform="translate(-953.33 -197.45)"></path></g><g id="Groupe_4852" data-name="Groupe 4852"><path id="Trac&#xE9;_6322" data-name="Trac&#xE9; 6322" class="cls-20" d="M1636.35,421.61l.19-.13.21-.07-.89-1.78-.45.17-.39.26Z" transform="translate(-953.33 -197.45)"></path></g><g id="Groupe_4853" data-name="Groupe 4853"><path id="Trac&#xE9;_6323" data-name="Trac&#xE9; 6323" class="cls-20" d="M1635.93,422.5a1.18,1.18,0,0,1,.1-.45l-1.7-1.07a1.77,1.77,0,0,0-.15.46,1,1,0,0,0-.06.34,1.26,1.26,0,0,1,0,.16Z" transform="translate(-953.33 -197.45)"></path></g></g></g><path id="Rectangle_2114" data-name="Rectangle 2114" class="cls-13" d="M1647,432.2h4l.57,2.2h-4Z" transform="translate(-953.33 -197.45)"></path><path id="Rectangle_2115" data-name="Rectangle 2115" class="cls-15" d="M1646.81,432.59h4.68l.46,1.81h-4.67Z" transform="translate(-953.33 -197.45)"></path><path id="Rectangle_2116" data-name="Rectangle 2116" class="cls-13" d="M1628.89,432.19h4l.56,2.2h-4Z" transform="translate(-953.33 -197.45)"></path><path id="Rectangle_2117" data-name="Rectangle 2117" class="cls-15" d="M1628.67,432.58h4.68l.46,1.82h-4.67Z" transform="translate(-953.33 -197.45)"></path></g></g><g id="Groupe_4858" data-name="Groupe 4858"><path id="Trac&#xE9;_6324" data-name="Trac&#xE9; 6324" class="cls-21" d="M1607.63,355.67h-3l-.81-3.14h3l.81,3.14m-.55-.45h-2.15l-.58-2.24h2.16l.57,2.24" transform="translate(-953.33 -197.45)"></path><path id="Trac&#xE9;_6325" data-name="Trac&#xE9; 6325" class="cls-21" d="M1603.06,353h-.43l-.12-.45h.43" transform="translate(-953.33 -197.45)"></path><path id="Trac&#xE9;_6326" data-name="Trac&#xE9; 6326" class="cls-21" d="M1601.76,353h-.43l-.11-.45h.43" transform="translate(-953.33 -197.45)"></path><path id="Trac&#xE9;_6327" data-name="Trac&#xE9; 6327" class="cls-21" d="M1601.59,355.67h-3l-.81-3.14h3l.81,3.14m-.55-.45h-2.16l-.57-2.25h2.16l.57,2.25" transform="translate(-953.33 -197.45)"></path><path id="Trac&#xE9;_6328" data-name="Trac&#xE9; 6328" class="cls-21" d="M1603.6,353.42h-.43l-.11-.45h.43" transform="translate(-953.33 -197.45)"></path><path id="Trac&#xE9;_6329" data-name="Trac&#xE9; 6329" class="cls-21" d="M1602.31,353.42h-.44l-.11-.45h.43" transform="translate(-953.33 -197.45)"></path><path id="Trac&#xE9;_6330" data-name="Trac&#xE9; 6330" class="cls-21" d="M1606.54,354.77h-1.3l-.35-1.35h1.3l.34,1.35" transform="translate(-953.33 -197.45)"></path><path id="Trac&#xE9;_6331" data-name="Trac&#xE9; 6331" class="cls-21" d="M1603.29,353.87h-.43l-.12-.45h.44" transform="translate(-953.33 -197.45)"></path><path id="Trac&#xE9;_6332" data-name="Trac&#xE9; 6332" class="cls-21" d="M1600.49,354.77h-1.29l-.35-1.35h1.3l.34,1.35" transform="translate(-953.33 -197.45)"></path><path id="Trac&#xE9;_6333" data-name="Trac&#xE9; 6333" class="cls-21" d="M1603.83,354.32h-.43l-.11-.45h.43" transform="translate(-953.33 -197.45)"></path><path id="Trac&#xE9;_6334" data-name="Trac&#xE9; 6334" class="cls-21" d="M1602.8,357h-.43l-.12-.45h-.43l-.11-.45h.43l-.46-1.79h.43l-.12-.45h.43l.12.45h.43l.12.45h.86l.23.9h-.43l-.12-.45h-.43l.23.9h-.86l.23.9m.09-1.35h-.44l-.23-.9h.44l.23.9" transform="translate(-953.33 -197.45)"></path><path id="Trac&#xE9;_6335" data-name="Trac&#xE9; 6335" class="cls-21" d="M1607.55,357h-.43l-.12-.44h-.43l.12.44h-.44l-.11-.44h-.43l-.12-.45h2.16l.11.45h-.43l.12.45" transform="translate(-953.33 -197.45)"></path><path id="Trac&#xE9;_6336" data-name="Trac&#xE9; 6336" class="cls-21" d="M1604.09,357h-.86l-.11-.45h.43l-.12-.44h1.73l.11.44H1604l.11.45" transform="translate(-953.33 -197.45)"></path><path id="Trac&#xE9;_6337" data-name="Trac&#xE9; 6337" class="cls-21" d="M1601.5,357h-.43l-.23-.9h.43l.23.9" transform="translate(-953.33 -197.45)"></path><path id="Trac&#xE9;_6338" data-name="Trac&#xE9; 6338" class="cls-21" d="M1600.64,357h-.43l-.23-.9h.43l.23.9" transform="translate(-953.33 -197.45)"></path><path id="Trac&#xE9;_6339" data-name="Trac&#xE9; 6339" class="cls-21" d="M1599.66,356.56h-.43l-.12-.45h.44" transform="translate(-953.33 -197.45)"></path><path id="Trac&#xE9;_6340" data-name="Trac&#xE9; 6340" class="cls-21" d="M1605.94,357.46h-1.3l-.11-.44h.86l-.12-.45h.44l.23.9" transform="translate(-953.33 -197.45)"></path><path id="Trac&#xE9;_6341" data-name="Trac&#xE9; 6341" class="cls-21" d="M1608.09,357.46h-.43l-.11-.45h.43" transform="translate(-953.33 -197.45)"></path><path id="Trac&#xE9;_6342" data-name="Trac&#xE9; 6342" class="cls-21" d="M1603.35,357.46h-.44l-.11-.45h.43" transform="translate(-953.33 -197.45)"></path><path id="Trac&#xE9;_6343" data-name="Trac&#xE9; 6343" class="cls-21" d="M1602.48,357.46h-.43l-.12-.45h.43" transform="translate(-953.33 -197.45)"></path><path id="Trac&#xE9;_6344" data-name="Trac&#xE9; 6344" class="cls-21" d="M1601.42,358.36H1601l-.12-.45h-.43l.11.45h-.43l-.23-.9h-.43l-.12-.45h.87l.11.45h.43l-.11-.45h.43l.12.45h.43l.11.45h-.43l.12.45" transform="translate(-953.33 -197.45)"></path><path id="Trac&#xE9;_6345" data-name="Trac&#xE9; 6345" class="cls-21" d="M1607.89,358.36h-.43l-.23-.9h.43l.23.9" transform="translate(-953.33 -197.45)"></path><path id="Trac&#xE9;_6346" data-name="Trac&#xE9; 6346" class="cls-21" d="M1607,358.36h-.43l-.23-.9h.43l.23.9" transform="translate(-953.33 -197.45)"></path><path id="Trac&#xE9;_6347" data-name="Trac&#xE9; 6347" class="cls-21" d="M1603.72,360.6h-.43l-.23-.9h-.86l-.12-.45h-.43l-.12-.44h.44l-.12-.45h.43l-.11-.45h.43l.11.45h.44l-.12-.45h.86l-.11-.45h.86l.12.45h-.43l.11.45h.43l.23.9h-1.29l-.12-.45h-.43l.12.45h.43l.11.45h-.43l.23.9m-.78-1.35h-.43l-.11-.45h.43l.11.45" transform="translate(-953.33 -197.45)"></path><path id="Trac&#xE9;_6348" data-name="Trac&#xE9; 6348" class="cls-21" d="M1599.58,357.91h-.43l-.12-.45h.43" transform="translate(-953.33 -197.45)"></path><path id="Trac&#xE9;_6349" data-name="Trac&#xE9; 6349" class="cls-21" d="M1605.74,358.36h-.44l-.11-.45h.43" transform="translate(-953.33 -197.45)"></path><path id="Trac&#xE9;_6350" data-name="Trac&#xE9; 6350" class="cls-21" d="M1602.34,362h-.43l-.23-.9h-.43l-.12-.45h-.43l-.11-.45h-.44l-.11-.45h.43l-.11-.45h.43l-.23-.9h.43l.35,1.35h-.44l.12.45h.43l.12.45h.43l.11.45h.44l.11.45h-.43l.11.45" transform="translate(-953.33 -197.45)"></path><path id="Trac&#xE9;_6351" data-name="Trac&#xE9; 6351" class="cls-21" d="M1609.25,362h-3l-.81-3.14h3l.81,3.14m-.55-.45h-2.16l-.57-2.24h2.15l.58,2.24" transform="translate(-953.33 -197.45)"></path><path id="Trac&#xE9;_6352" data-name="Trac&#xE9; 6352" class="cls-21" d="M1600.36,359.26h-.44l-.11-.45h.43" transform="translate(-953.33 -197.45)"></path><path id="Trac&#xE9;_6353" data-name="Trac&#xE9; 6353" class="cls-21" d="M1608.15,361.05h-1.29l-.35-1.34h1.3l.34,1.34" transform="translate(-953.33 -197.45)"></path><path id="Trac&#xE9;_6354" data-name="Trac&#xE9; 6354" class="cls-21" d="M1605.8,362h-.44l-.11-.45h-.86l-.12-.45h-.43l-.12-.45h.44l-.12-.45h.43l.23.9h.44l-.24-.9h-.43l-.11-.45h.86l.58,2.25" transform="translate(-953.33 -197.45)"></path><path id="Trac&#xE9;_6355" data-name="Trac&#xE9; 6355" class="cls-21" d="M1602.43,360.6H1602l-.23-.9h.43l.23.9" transform="translate(-953.33 -197.45)"></path><path id="Trac&#xE9;_6356" data-name="Trac&#xE9; 6356" class="cls-21" d="M1603.41,361.05H1603l-.12-.45h.43" transform="translate(-953.33 -197.45)"></path><path id="Trac&#xE9;_6357" data-name="Trac&#xE9; 6357" class="cls-21" d="M1601.48,362h-.86l-.12-.45h.43l-.11-.45h.43l.23.9" transform="translate(-953.33 -197.45)"></path><path id="Trac&#xE9;_6358" data-name="Trac&#xE9; 6358" class="cls-21" d="M1604.5,362h-.43l-.12-.45h.43" transform="translate(-953.33 -197.45)"></path><path id="Trac&#xE9;_6359" data-name="Trac&#xE9; 6359" class="cls-21" d="M1603.64,362h-.43l-.12-.45h.43" transform="translate(-953.33 -197.45)"></path></g><g id="Groupe_4859" data-name="Groupe 4859"><path id="Trac&#xE9;_6360" data-name="Trac&#xE9; 6360" class="cls-22" d="M1619.59,395.35c1.61,6.27,7.8,11.36,13.83,11.36h0c6,0,9.62-5.08,8-11.35S1633.61,384,1627.59,384h0c-6,0-9.62,5.07-8,11.34Z" transform="translate(-953.33 -197.45)"></path><path id="Trac&#xE9;_6361" data-name="Trac&#xE9; 6361" class="cls-15" d="M1633.12,405.53c5.4,0,8.61-4.55,7.17-10.17s-7-10.17-12.4-10.18-8.61,4.55-7.18,10.17S1627.72,405.52,1633.12,405.53Z" transform="translate(-953.33 -197.45)"></path><path id="Trac&#xE9;_6362" data-name="Trac&#xE9; 6362" class="cls-14" d="M1637.18,399.78l.42-1a8.76,8.76,0,0,0,.24-1.24c0-.26,0-.53,0-.82a7.3,7.3,0,0,0-.1-.94c0-.17,0-.32-.07-.52l-.13-.52a11.5,11.5,0,0,0-.4-1.12,10.39,10.39,0,0,0-1.38-2.31,11.34,11.34,0,0,0-2.12-2.09,10,10,0,0,0-2.66-1.46,8.9,8.9,0,0,0-2.84-.56c-.21,0-.4,0-.62,0l-.7.08a6.38,6.38,0,0,0-1.21.33,5.76,5.76,0,0,0-2,1.23,6.36,6.36,0,0,0-1.2,1.71,6.74,6.74,0,0,0-.52,1.8,5.69,5.69,0,0,0-.07.83,5.58,5.58,0,0,0,0,.71,7.21,7.21,0,0,0,.13,1c0,.24.07.38.07.38h2.82l-.07-.25a4.15,4.15,0,0,1-.15-.7,2.14,2.14,0,0,1-.06-.5,3.75,3.75,0,0,1,0-.58,5.42,5.42,0,0,1,.2-1.33,5.07,5.07,0,0,1,.7-1.37,4.43,4.43,0,0,1,1.3-1.1,4.7,4.7,0,0,1,.87-.36l.45-.12c.16,0,.38,0,.57-.07a6.59,6.59,0,0,1,2.21.2,9.14,9.14,0,0,1,4.24,2.65,9.5,9.5,0,0,1,1.41,2c.09.17.17.33.25.5a4.4,4.4,0,0,1,.21.5q.09.27.18.51c0,.14.08.32.11.47a8.43,8.43,0,0,1,.19.9c0,.28,0,.55,0,.8,0,.42,0,.84-.1,1.26C1637.28,399.41,1637.18,399.78,1637.18,399.78Z" transform="translate(-953.33 -197.45)"></path><path id="Trac&#xE9;_6363" data-name="Trac&#xE9; 6363" class="cls-23" d="M1628.37,395.35a2.87,2.87,0,0,0,2.59,2.12,1.56,1.56,0,0,0,1.6-1.53,1.5,1.5,0,0,0-.1-.59,2.88,2.88,0,0,0-2.59-2.13h0a1.57,1.57,0,0,0-1.6,1.53A1.55,1.55,0,0,0,1628.37,395.35Z" transform="translate(-953.33 -197.45)"></path><path id="Trac&#xE9;_6364" data-name="Trac&#xE9; 6364" class="cls-23" d="M1632,395.35l2.06-5.47-4.1,3.85Z" transform="translate(-953.33 -197.45)"></path></g></g><g id="Groupe_10277" data-name="Groupe 10277"><ellipse id="Ellipse_490" data-name="Ellipse 490" class="cls-24" cx="1642.68" cy="346.1" rx="11.71" ry="15.26" transform="translate(-724.66 1053.5) rotate(-44.51)"></ellipse><path id="Trac&#xE9;_5588" data-name="Trac&#xE9; 5588" class="cls-25" d="M1634.6,346.81,1637,349l2.37,2.2,2.37,2.2a1.34,1.34,0,0,0,1.89.17h0l0-.05h0l1.51-2,1.52-2,1.52-2,.49-.64.9-1.17.12-.16,1.52-2a1.64,1.64,0,0,0-.43-2.09l-2.36-2.19a1.35,1.35,0,0,0-1.89-.18h0l0,.05-1.52,2-.1.13-.94,1.22-.2.26-.27.36-1.52,2h0a1.3,1.3,0,0,1-1.84,0l0,0-.07-.06-2.37-2.19a1.35,1.35,0,0,0-1.89-.18h0l0,.06-.54.7-1,1.27A1.65,1.65,0,0,0,1634.6,346.81Z" transform="translate(-953.33 -197.45)"></path></g></g></g><g id="Groupe_9566" data-name="Groupe 9566"><g id="Groupe_8695" data-name="Groupe 8695"><path id="Trac&#xE9;_5607" data-name="Trac&#xE9; 5607" class="cls-26" d="M1389.88,556l1.3,14.22h3.11v-1.5l1.94,1.5,12,1.16a.89.89,0,0,0,.93-.84v0a.94.94,0,0,0,0-.37l-.62-2.14a1.55,1.55,0,0,0-1-1.07l-8.13-2.71-1.4-8.69Z" transform="translate(-953.33 -197.45)"></path><path id="Trac&#xE9;_5610" data-name="Trac&#xE9; 5610" class="cls-26" d="M1351.67,556l-1.31,14.22h-3.11v-1.49l-1.94,1.49-12,1.17a.89.89,0,0,1-.93-.84v0a.94.94,0,0,1,0-.37L1333,568a1.57,1.57,0,0,1,1-1.06l8.12-2.71,1.4-8.69Z" transform="translate(-953.33 -197.45)"></path><g id="Groupe_8686" data-name="Groupe 8686"><path id="Trac&#xE9;_5601" data-name="Trac&#xE9; 5601" class="cls-27" d="M1378.27,342.86l-13.08,20.72a1.19,1.19,0,0,1-1.64.37,1.59,1.59,0,0,1-.24-.2l-8.61-9.32a1.13,1.13,0,0,1-.29-.55l-2.1-9.48a1.19,1.19,0,0,1,.91-1.42h0a1.09,1.09,0,0,1,.26,0h.87l-1.34-1.76,1.18.42a1.18,1.18,0,0,0,1.27-.31l7-7.57h0a1.19,1.19,0,0,0,.87,1.44h0a1.16,1.16,0,0,0,.91-.14l3.13-1.9a1.2,1.2,0,0,1,1.64.4,1.25,1.25,0,0,1,.17.68v.17l8-6.09a1.19,1.19,0,0,1,1.67.22,1.15,1.15,0,0,1,.24.58c.37,3.14.77,9.23-.83,13.75" transform="translate(-953.33 -197.45)"></path><path id="Trac&#xE9;_5604" data-name="Trac&#xE9; 5604" class="cls-28" d="M1365.58,370.47l14.23-3.38a3.5,3.5,0,0,0,2.68-3.71l-.52-6.1a.25.25,0,0,1,.2-.27l.15,0a2.57,2.57,0,0,0,1.91-3.1,3.58,3.58,0,0,0-.11-.35l-4.89-12.42a.25.25,0,0,0-.33-.14h0l-13.43,7.55a.25.25,0,0,0-.12.3l1.68,5.68a.25.25,0,0,1-.17.32h0l-1.5.36a.26.26,0,0,1-.28-.11c-.46-.75-2.57-3.91-4.21-2.12-1.19,1.28,0,5.12,2.08,6.18a.29.29,0,0,1,.14.2l.57,6.75a.22.22,0,0,0,0,.08l1.67,4.14A.25.25,0,0,0,1365.58,370.47Z" transform="translate(-953.33 -197.45)"></path><path id="Trac&#xE9;_5605" data-name="Trac&#xE9; 5605" class="cls-28" d="M1366.41,378.55l10.89-2-1.21-10.92-10.9,2Z" transform="translate(-953.33 -197.45)"></path><path id="Trac&#xE9;_5606" data-name="Trac&#xE9; 5606" class="cls-28" d="M1364.68,374.62l11.78-2.2s2.24,6.7-5,7.77C1364.78,381.18,1364.68,374.62,1364.68,374.62Z" transform="translate(-953.33 -197.45)"></path><g id="Groupe_4397" data-name="Groupe 4397"><path id="Trac&#xE9;_5620" data-name="Trac&#xE9; 5620" class="cls-29" d="M1374.11,327.82l-5.13,2.57s-13.58-8.07-20.76,6c-6.59,12.9,7.87,19.92,7.87,19.92l1.58-2.17c-3-2.25-10.16-8.47-7-15,3.94-8.21,10.77-7.62,10.77-7.62a14.1,14.1,0,0,0-6.52,7.61c-2,4.9,3,9.19,5.62,11.07l15.2-20.94Z" transform="translate(-953.33 -197.45)"></path><path id="Trac&#xE9;_5621" data-name="Trac&#xE9; 5621" class="cls-30" d="M1354.92,339.07a14.1,14.1,0,0,1,6.52-7.61s-6.83-.59-10.78,7.62c-3.15,6.56,4,12.77,7,15l2.87-4C1357.88,348.26,1353,344,1354.92,339.07Z" transform="translate(-953.33 -197.45)"></path></g><path id="Trac&#xE9;_5622" data-name="Trac&#xE9; 5622" class="cls-25" d="M1382.56,361.63l-3.93-.09-2.53-2" transform="translate(-953.33 -197.45)"></path></g><g id="Groupe_8689" data-name="Groupe 8689"><path id="Trac&#xE9;_10838" data-name="Trac&#xE9; 10838" class="cls-28" d="M1403,387.51l23.5,6.81-11.08,8.8L1403,393.29Z" transform="translate(-953.33 -197.45)"></path><path id="Trac&#xE9;_10839" data-name="Trac&#xE9; 10839" class="cls-28" d="M1424.78,391.18l15.35-10.43,4,5.17-21.46,17.77a5.39,5.39,0,0,1-5.74.81,11.48,11.48,0,0,1-5.86-6.65Z" transform="translate(-953.33 -197.45)"></path><g id="Groupe_8688" data-name="Groupe 8688"><g id="Groupe_8687" data-name="Groupe 8687"><path id="Trac&#xE9;_10840" data-name="Trac&#xE9; 10840" class="cls-28" d="M1440.13,380.75l2-9.65a1.11,1.11,0,0,1,1.05-.92h0a1.11,1.11,0,0,1,1.1,1.06l.22,3,7.72-6a1.14,1.14,0,0,1,1.61.22,1,1,0,0,1,.2.41l1.35,4.58a1.26,1.26,0,0,1-.18,1.1c-1.54,2.18-7.85,10.75-12.07,11.72Z" transform="translate(-953.33 -197.45)"></path></g></g></g><g id="Groupe_8690" data-name="Groupe 8690"><path id="Trac&#xE9;_10841" data-name="Trac&#xE9; 10841" class="cls-26" d="M1389.09,376.84l25.11,10.39-6.76,15.21L1388.06,394Z" transform="translate(-953.33 -197.45)"></path><path id="Trac&#xE9;_10842" data-name="Trac&#xE9; 10842" class="cls-26" d="M1413.38,388.57a2,2,0,0,1,2.21-1.71,1.87,1.87,0,0,1,.62.19c.43.14.81.28,1.15.42a2.66,2.66,0,0,1,1.67,3.31l-4.49,11.6c-.89,2.28-4,2.82-6.11,1l-1.1-1Z" transform="translate(-953.33 -197.45)"></path><path id="Trac&#xE9;_10843" data-name="Trac&#xE9; 10843" class="cls-31" d="M1395.57,397c.35-1.19,0-10.62,0-10.62l6.19,13.1Z" transform="translate(-953.33 -197.45)"></path></g><g id="Groupe_8692" data-name="Groupe 8692"><g id="Groupe_8691" data-name="Groupe 8691"><path id="Trac&#xE9;_10844" data-name="Trac&#xE9; 10844" class="cls-26" d="M1364.93,373.69l-18.08,11.54,9.46,57h38.79l.68-57.13a8.81,8.81,0,0,0-5.82-8l-13-4.67-3.57,6.17Z" transform="translate(-953.33 -197.45)"></path></g></g><path id="Trac&#xE9;_10845" data-name="Trac&#xE9; 10845" class="cls-18" d="M1365.32,413.41l4.06-27.83,12.72-4.13,13.47,17.47-.48,43.36H1355.7l-2-13.74,15.46-36.26" transform="translate(-953.33 -197.45)"></path><path id="Trac&#xE9;_10846" data-name="Trac&#xE9; 10846" class="cls-32" d="M1361.2,416.19l-4-18.76,11,23.4-5.08,3.62Z" transform="translate(-953.33 -197.45)"></path><g id="Groupe_8694" data-name="Groupe 8694"><path id="Trac&#xE9;_5615" data-name="Trac&#xE9; 5615" class="cls-18" d="M1353.58,448.23l-12.12,112.45,10.87,1,22.83-105,14.72,104.53,9.66-2.36-2.8-115.75Z" transform="translate(-953.33 -197.45)"></path><g id="Groupe_8693" data-name="Groupe 8693"><g id="Groupe_4396" data-name="Groupe 4396"><path id="Trac&#xE9;_5616" data-name="Trac&#xE9; 5616" class="cls-26" d="M1351.7,449.47h46l-.56-7.62h-44.35Z" transform="translate(-953.33 -197.45)"></path><rect id="Rectangle_1804" data-name="Rectangle 1804" class="cls-26" x="401.8" y="251.8" width="21.89" height="30.25"></rect><ellipse id="Ellipse_493" data-name="Ellipse 493" class="cls-25" cx="401.8" cy="248.21" rx="0.98" ry="1.08"></ellipse><path id="Trac&#xE9;_5617" data-name="Trac&#xE9; 5617" class="cls-25" d="M1393.91,445.66a1,1,0,1,0,2,0,1,1,0,0,0-1-1.08h0A1,1,0,0,0,1393.91,445.66Z" transform="translate(-953.33 -197.45)"></path><g id="Groupe_4395" data-name="Groupe 4395"><path id="Trac&#xE9;_5618" data-name="Trac&#xE9; 5618" class="cls-33" d="M1371.22,454.2a49.33,49.33,0,0,0-1-10.35c-1.24-5.79-2.74-9.85-4.14-9.18s.76,5.71,1.52,10.14c.65,3.81,1.3,10.22,1.3,10.22Z" transform="translate(-953.33 -197.45)"></path><path id="Trac&#xE9;_5619" data-name="Trac&#xE9; 5619" class="cls-33" d="M1364.26,456.72a45.88,45.88,0,0,1-4.82-8.94c-2.14-5.47-3.15-9.71-1.66-10.09s2.49,5.09,4.28,9.13c1.55,3.49,4.51,9.07,4.51,9.07Z" transform="translate(-953.33 -197.45)"></path></g><rect id="Rectangle_1805" data-name="Rectangle 1805" class="cls-34" x="405.06" y="251.8" width="14.92" height="26.86"></rect></g></g></g><path id="Trac&#xE9;_5614" data-name="Trac&#xE9; 5614" class="cls-26" d="M1375.62,404.69l6,.81,4.24-3.86-1.92-6.9-10.3,2.69Z" transform="translate(-953.33 -197.45)"></path></g><g id="Groupe_8696" data-name="Groupe 8696"><path id="Trac&#xE9;_10847" data-name="Trac&#xE9; 10847" class="cls-8" d="M1354.65,413.5a22.69,22.69,0,0,0-1.38,32.06h0a22.67,22.67,0,0,0,39.28-17.51l11.21-16.35,42.5-39,11.25-5.52c5.93,1.42,11.48.68,14.35-1.73,4.51-3.77,13.52-20,6.88-19.35l-10.94,8.22-7.83,2.12-8.69-9.06,3.16-7.61,10-9.59s3.24-5.15-6.09-3.47-18.67,8.08-19,14.87a41.94,41.94,0,0,0,.24,9l-4.6,9.58-42.15,39.79-16.8,8.49A22.64,22.64,0,0,0,1354.65,413.5Zm6.25,7.93,5.22,0,4.13-3.59,4,3.79,5.08.3-.15,5.38,3.7,4-4,3.61-.13,5.51-5.23-.22-4.12,3.77-3.82-3.81-5.3-.29-.07-5.55-3.48-3.8,3.82-3.94Z" transform="translate(-953.33 -197.45)"></path><path id="Trac&#xE9;_10848" data-name="Trac&#xE9; 10848" class="cls-35" d="M1390.17,408.45l4.21,4.59a1.7,1.7,0,0,0,2.39.1L1440,373.47a1.7,1.7,0,0,0,.1-2.39l-4.21-4.58a1.68,1.68,0,0,0-2.39-.1l-43.2,39.66A1.69,1.69,0,0,0,1390.17,408.45Z" transform="translate(-953.33 -197.45)"></path></g><g id="Groupe_8699" data-name="Groupe 8699"><path id="Trac&#xE9;_10849" data-name="Trac&#xE9; 10849" class="cls-28" d="M1364.07,422.46l17.57-10.07,3.79,6.3-27.36,19.44s-6.09,2.1-8.43-6.7Z" transform="translate(-953.33 -197.45)"></path><g id="Groupe_8698" data-name="Groupe 8698"><g id="Groupe_8697" data-name="Groupe 8697"><path id="Trac&#xE9;_10850" data-name="Trac&#xE9; 10850" class="cls-28" d="M1381.64,412.39l3.06-10.69a1.19,1.19,0,0,1,1.22-.92h0a1.25,1.25,0,0,1,1.09,1.32l-.06,3.4,8.9-5.86a1.25,1.25,0,0,1,1.72.4,1.2,1.2,0,0,1,.18.52l1,5.33a1.52,1.52,0,0,1-.3,1.22c-1.89,2.29-9.52,11.27-14.16,11.89Z" transform="translate(-953.33 -197.45)"></path></g></g></g><g id="Groupe_8700" data-name="Groupe 8700"><path id="Trac&#xE9;_10851" data-name="Trac&#xE9; 10851" class="cls-26" d="M1346.85,385.23s-4.47,3.94-3.14,17.89a165.47,165.47,0,0,0,4.16,24.52l13.8-8.41L1357.91,394Z" transform="translate(-953.33 -197.45)"></path><path id="Trac&#xE9;_10852" data-name="Trac&#xE9; 10852" class="cls-26" d="M1346.85,425.27s-2.31,7.71,4.35,10.21l-.83-2.79L1363,423s1.17-6.08-3.24-6.36Z" transform="translate(-953.33 -197.45)"></path></g></g></g><ellipse id="Ellipse_1182" data-name="Ellipse 1182" class="cls-36" cx="760.38" cy="55.54" rx="55.89" ry="55.54"></ellipse><g id="Groupe_11329" data-name="Groupe 11329"><path id="Trac&#xE9;_5287" data-name="Trac&#xE9; 5287" class="cls-36" d="M1714,232.05a21.11,21.11,0,1,0,21.11,21.11h0A21.13,21.13,0,0,0,1714,232.05Zm2,23.11h-13.62v-4H1712V235.57h4Z" transform="translate(-953.33 -197.45)"></path><path id="Trac&#xE9;_5288" data-name="Trac&#xE9; 5288" class="cls-36" d="M1738.15,229a34.2,34.2,0,1,0,10,24.18A34.21,34.21,0,0,0,1738.15,229ZM1714,278.27a25.12,25.12,0,1,1,25.12-25.11h0A25.15,25.15,0,0,1,1714,278.27Z" transform="translate(-953.33 -197.45)"></path></g><g id="Groupe_11330" data-name="Groupe 11330"><g id="Groupe_5812" data-name="Groupe 5812"><g id="Groupe_5811" data-name="Groupe 5811"><path id="Trac&#xE9;_6994" data-name="Trac&#xE9; 6994" class="cls-25" d="M1692.82,247.42a5.5,5.5,0,0,0-5.5,5.5V270.5a5.5,5.5,0,0,0,5.5,5.5h6.59a5.44,5.44,0,0,0,3.3-1.11V247.42Z" transform="translate(-953.33 -197.45)"></path></g></g><g id="Groupe_5814" data-name="Groupe 5814"><g id="Groupe_5813" data-name="Groupe 5813"><path id="Trac&#xE9;_6995" data-name="Trac&#xE9; 6995" class="cls-25" d="M1740.08,255.66a4.88,4.88,0,0,0-1.43-3.46,5.48,5.48,0,0,0,1.41-4.2,5.68,5.68,0,0,0-5.74-5h-13.57a32.28,32.28,0,0,0,1.75-8.8c0-4.76-4-8.79-6.6-8.79a6.88,6.88,0,0,0-4,1.34,1.08,1.08,0,0,0-.41.86v7.45l-6.34,13.72-.26.13v23.56a14.16,14.16,0,0,0,5.5,1.3h20.18a5,5,0,0,0,5-3.84,5,5,0,0,0-.4-3.3,4.92,4.92,0,0,0,2.2-6.6A4.91,4.91,0,0,0,1740.08,255.66Z" transform="translate(-953.33 -197.45)"></path></g></g></g><g id="Groupe_7409" data-name="Groupe 7409"><g id="Groupe_4857-2" data-name="Groupe 4857-2"><g id="Groupe_4856-2" data-name="Groupe 4856-2"><g id="Groupe_4843-2" data-name="Groupe 4843-2"><rect id="Rectangle_2109-2" data-name="Rectangle 2109-2" class="cls-12" x="136.74" y="347.31" width="17.4" height="8.38"></rect><rect id="Rectangle_2110-2" data-name="Rectangle 2110-2" class="cls-13" x="128.86" y="344.65" width="9.79" height="13.67"></rect><g id="Groupe_4842-2" data-name="Groupe 4842-2"><path id="Trac&#xE9;_6305-2" data-name="Trac&#xE9; 6305-2" class="cls-14" d="M1106.83,546.81h-6c-2.07,0-3.85-12.08-3.85-12.08,0-1.07,1.7-2,3.78-2,1,0,2.13.73,3.07.73s1.64-.65,3.06-.73c2.07-.12,3.78.9,3.78,2C1110.67,534.73,1108.91,546.81,1106.83,546.81Z" transform="translate(-953.33 -197.45)"></path><path id="Trac&#xE9;_6306-2" data-name="Trac&#xE9; 6306-2" class="cls-14" d="M1106.83,551.07h-6c-2.07,0-3.85,12.08-3.85,12.08,0,1.07,1.7,2,3.78,2,1,0,2.13-.73,3.07-.73s1.64.65,3.06.73c2.07.11,3.78-.9,3.78-2C1110.67,563.15,1108.91,551.07,1106.83,551.07Z" transform="translate(-953.33 -197.45)"></path></g><path id="Trac&#xE9;_6307-2" data-name="Trac&#xE9; 6307-2" class="cls-15" d="M1101.35,551.71c-1.69,0-3.07-.92-3.07-2v-1.46c0-1.13,1.38-2,3.07-2h5c1.7,0,3.07.91,3.07,2v1.46c0,1.12-1.37,2-3.07,2Z" transform="translate(-953.33 -197.45)"></path></g><rect id="Rectangle_2111-2" data-name="Rectangle 2111-2" class="cls-16" x="52.2" y="317.09" width="13.77" height="56.72"></rect><rect id="Rectangle_2112-2" data-name="Rectangle 2112-2" class="cls-16" x="119.81" y="317.16" width="13.77" height="56.72"></rect><g id="Groupe_4855-2" data-name="Groupe 4855-2"><path id="Trac&#xE9;_6308-2" data-name="Trac&#xE9; 6308-2" class="cls-17" d="M1139.11,510v-.1l-.45.1Z" transform="translate(-953.33 -197.45)"></path><path id="Trac&#xE9;_6309-2" data-name="Trac&#xE9; 6309-2" class="cls-17" d="M1046,510h.44a2.16,2.16,0,0,1-.44-.1Z" transform="translate(-953.33 -197.45)"></path><path id="Trac&#xE9;_6310-2" data-name="Trac&#xE9; 6310-2" class="cls-17" d="M1139.11,260h-.27l.27,0Z" transform="translate(-953.33 -197.45)"></path><path id="Trac&#xE9;_6311-2" data-name="Trac&#xE9; 6311-2" class="cls-17" d="M953.33,260v0l.27,0Z" transform="translate(-953.33 -197.45)"></path><g id="Groupe_4844-2" data-name="Groupe 4844-2"><path id="Trac&#xE9;_6312-2" data-name="Trac&#xE9; 6312-2" class="cls-12" d="M1046.22,250.82c-34.08,0-65.83,3.36-92.62,9.15h185.24C1112.05,254.18,1080.3,250.82,1046.22,250.82Z" transform="translate(-953.33 -197.45)"></path><path id="Trac&#xE9;_6313-2" data-name="Trac&#xE9; 6313-2" class="cls-12" d="M1046.22,519.1c34,0,65.69-3.35,92.45-9.12H953.78C980.53,515.75,1012.22,519.1,1046.22,519.1Z" transform="translate(-953.33 -197.45)"></path><path id="Trac&#xE9;_6314-2" data-name="Trac&#xE9; 6314-2" class="cls-18" d="M1138.84,260H953.6l-.27,0V509.89l.45.1h184.88l.45-.1V260Z" transform="translate(-953.33 -197.45)"></path></g><rect id="Rectangle_2113-2" data-name="Rectangle 2113-2" class="cls-19" x="57.47" y="317.09" width="70.84" height="31.91"></rect><g id="Groupe_4854-2" data-name="Groupe 4854-2"><g id="Groupe_4845-2" data-name="Groupe 4845-2"><path id="Trac&#xE9;_6315-2" data-name="Trac&#xE9; 6315-2" class="cls-20" d="M1051.93,532.73s.11-.44.26-.88a6.86,6.86,0,0,0,.12-.91l6.54.49-.07.6a6.58,6.58,0,0,1-.2,1.32l-.58,1.86Z" transform="translate(-953.33 -197.45)"></path></g><g id="Groupe_4846-2" data-name="Groupe 4846-2"><path id="Trac&#xE9;_6316-2" data-name="Trac&#xE9; 6316-2" class="cls-20" d="M1049.18,535.71a2.91,2.91,0,0,0,.79-.49,6.62,6.62,0,0,0,.7-.59l4.7,4.59c-.47.44-1,.86-1.47,1.25a9.93,9.93,0,0,1-1.63,1Z" transform="translate(-953.33 -197.45)"></path></g><g id="Groupe_4847-2" data-name="Groupe 4847-2"><path id="Trac&#xE9;_6317-2" data-name="Trac&#xE9; 6317-2" class="cls-20" d="M1045.19,536.29s.46,0,.92.08a2.59,2.59,0,0,0,.92,0l.65,6.54a8.9,8.9,0,0,1-1.93,0c-.49,0-1-.1-1.33-.14a4.11,4.11,0,0,1-.6-.08Z" transform="translate(-953.33 -197.45)"></path></g><g id="Groupe_4848-2" data-name="Groupe 4848-2"><path id="Trac&#xE9;_6318-2" data-name="Trac&#xE9; 6318-2" class="cls-20" d="M1041.79,534.1a5.12,5.12,0,0,0,.6.71c.37.27.72.58.72.58l-3.7,5.43-1.51-1.23a8.45,8.45,0,0,1-.91-1c-.22-.29-.38-.46-.38-.46Z" transform="translate(-953.33 -197.45)"></path></g><g id="Groupe_4849-2" data-name="Groupe 4849-2"><path id="Trac&#xE9;_6319-2" data-name="Trac&#xE9; 6319-2" class="cls-20" d="M1040.55,530.28a5.91,5.91,0,0,0,.23,1.82l-6.32,1.77A13.79,13.79,0,0,1,1034,530Z" transform="translate(-953.33 -197.45)"></path></g><g id="Groupe_4850-2" data-name="Groupe 4850-2"><path id="Trac&#xE9;_6320-2" data-name="Trac&#xE9; 6320-2" class="cls-20" d="M1042.07,526.54s-.28.36-.58.72-.44.82-.44.82l-6-2.7.92-1.71a17.92,17.92,0,0,1,1.21-1.52Z" transform="translate(-953.33 -197.45)"></path></g><g id="Groupe_4851-2" data-name="Groupe 4851-2"><path id="Trac&#xE9;_6321-2" data-name="Trac&#xE9; 6321-2" class="cls-20" d="M1045.64,524.68a2.67,2.67,0,0,0-.89.19l-.61.18-.25.14-2.84-5.91a13.63,13.63,0,0,1,3.7-1.11Z" transform="translate(-953.33 -197.45)"></path></g><g id="Groupe_4852-2" data-name="Groupe 4852-2"><path id="Trac&#xE9;_6322-2" data-name="Trac&#xE9; 6322-2" class="cls-20" d="M1049.58,525.5s-.41-.2-.81-.45l-.87-.26,1.61-6.36s.94.27,1.86.61l1.71.91Z" transform="translate(-953.33 -197.45)"></path></g><g id="Groupe_4853-2" data-name="Groupe 4853-2"><path id="Trac&#xE9;_6323-2" data-name="Trac&#xE9; 6323-2" class="cls-20" d="M1052,528.7a6.39,6.39,0,0,0-.8-1.64l5.32-3.83a9,9,0,0,1,1,1.66,5.36,5.36,0,0,1,.55,1.22l.19.58Z" transform="translate(-953.33 -197.45)"></path></g></g></g><rect id="Rectangle_2114-2" data-name="Rectangle 2114-2" class="cls-13" x="51.57" y="365.99" width="15.03" height="7.9"></rect><rect id="Rectangle_2115-2" data-name="Rectangle 2115-2" class="cls-15" x="50.37" y="367.38" width="17.42" height="6.5"></rect><rect id="Rectangle_2116-2" data-name="Rectangle 2116-2" class="cls-13" x="119.18" y="365.99" width="15.03" height="7.9"></rect><rect id="Rectangle_2117-2" data-name="Rectangle 2117-2" class="cls-15" x="117.98" y="367.38" width="17.42" height="6.5"></rect></g></g><g id="Groupe_4858-2" data-name="Groupe 4858-2"><path id="Trac&#xE9;_6324-2" data-name="Trac&#xE9; 6324-2" class="cls-21" d="M970.09,289.16h11.26V277.91H970.09v11.26m1.61-1.61h8v-8.05h-8v8" transform="translate(-953.33 -197.45)"></path><path id="Trac&#xE9;_6325-2" data-name="Trac&#xE9; 6325-2" class="cls-21" d="M984.57,279.51h1.61v-1.6h-1.61" transform="translate(-953.33 -197.45)"></path><path id="Trac&#xE9;_6326-2" data-name="Trac&#xE9; 6326-2" class="cls-21" d="M989.4,279.51H991v-1.6H989.4" transform="translate(-953.33 -197.45)"></path><path id="Trac&#xE9;_6327-2" data-name="Trac&#xE9; 6327-2" class="cls-21" d="M992.61,289.16h11.26V277.91H992.61v11.26m1.61-1.61h8v-8.05h-8v8" transform="translate(-953.33 -197.45)"></path><path id="Trac&#xE9;_6328-2" data-name="Trac&#xE9; 6328-2" class="cls-21" d="M983,281.12h1.61v-1.61H983" transform="translate(-953.33 -197.45)"></path><path id="Trac&#xE9;_6329-2" data-name="Trac&#xE9; 6329-2" class="cls-21" d="M987.78,281.12h1.61v-1.61h-1.61" transform="translate(-953.33 -197.45)"></path><path id="Trac&#xE9;_6330-2" data-name="Trac&#xE9; 6330-2" class="cls-21" d="M973.31,285.94h4.82v-4.82h-4.82v4.82" transform="translate(-953.33 -197.45)"></path><path id="Trac&#xE9;_6331-2" data-name="Trac&#xE9; 6331-2" class="cls-21" d="M984.57,282.73h1.61v-1.61h-1.61" transform="translate(-953.33 -197.45)"></path><path id="Trac&#xE9;_6332-2" data-name="Trac&#xE9; 6332-2" class="cls-21" d="M995.83,285.94h4.82v-4.82h-4.82v4.82" transform="translate(-953.33 -197.45)"></path><path id="Trac&#xE9;_6333-2" data-name="Trac&#xE9; 6333-2" class="cls-21" d="M983,284.34h1.61v-1.61H983" transform="translate(-953.33 -197.45)"></path><path id="Trac&#xE9;_6334-2" data-name="Trac&#xE9; 6334-2" class="cls-21" d="M989.39,294H991v-1.61h1.61v-1.61H991v-6.43h-1.61v-1.61h-1.6v1.61h-1.61V286H983v3.22h1.61v-1.62h1.61v3.22h3.21V294m-1.6-4.82h1.6V286h-1.6v3.22" transform="translate(-953.33 -197.45)"></path><path id="Trac&#xE9;_6335-2" data-name="Trac&#xE9; 6335-2" class="cls-21" d="M971.7,294h1.61v-1.61h1.61V294h1.61v-1.61h1.6v-1.61h-8v1.61h1.61V294" transform="translate(-953.33 -197.45)"></path><path id="Trac&#xE9;_6336-2" data-name="Trac&#xE9; 6336-2" class="cls-21" d="M984.57,294h3.21v-1.61h-1.61v-1.61h-6.43v1.61h4.83V294" transform="translate(-953.33 -197.45)"></path><path id="Trac&#xE9;_6337-2" data-name="Trac&#xE9; 6337-2" class="cls-21" d="M994.22,294h1.61v-3.22h-1.61V294" transform="translate(-953.33 -197.45)"></path><path id="Trac&#xE9;_6338-2" data-name="Trac&#xE9; 6338-2" class="cls-21" d="M997.44,294h1.61v-3.22h-1.61V294" transform="translate(-953.33 -197.45)"></path><path id="Trac&#xE9;_6339-2" data-name="Trac&#xE9; 6339-2" class="cls-21" d="M1000.65,292.38h1.61v-1.61h-1.61" transform="translate(-953.33 -197.45)"></path><path id="Trac&#xE9;_6340-2" data-name="Trac&#xE9; 6340-2" class="cls-21" d="M978.13,295.6H983V294h-3.22v-1.61h-1.61v3.22" transform="translate(-953.33 -197.45)"></path><path id="Trac&#xE9;_6341-2" data-name="Trac&#xE9; 6341-2" class="cls-21" d="M970.09,295.6h1.61V294h-1.61" transform="translate(-953.33 -197.45)"></path><path id="Trac&#xE9;_6342-2" data-name="Trac&#xE9; 6342-2" class="cls-21" d="M987.78,295.6h1.61V294h-1.61" transform="translate(-953.33 -197.45)"></path><path id="Trac&#xE9;_6343-2" data-name="Trac&#xE9; 6343-2" class="cls-21" d="M991,295.6h1.61V294H991" transform="translate(-953.33 -197.45)"></path><path id="Trac&#xE9;_6344-2" data-name="Trac&#xE9; 6344-2" class="cls-21" d="M995.83,298.81h1.61v-1.6H999v1.6h1.61V295.6h1.61V294H999v1.61h-1.61V294h-1.61v1.61h-1.61v1.61h1.61v1.6" transform="translate(-953.33 -197.45)"></path><path id="Trac&#xE9;_6345-2" data-name="Trac&#xE9; 6345-2" class="cls-21" d="M971.7,298.81h1.61V295.6H971.7v3.21" transform="translate(-953.33 -197.45)"></path><path id="Trac&#xE9;_6346-2" data-name="Trac&#xE9; 6346-2" class="cls-21" d="M974.91,298.81h1.61V295.6h-1.61v3.21" transform="translate(-953.33 -197.45)"></path><path id="Trac&#xE9;_6347-2" data-name="Trac&#xE9; 6347-2" class="cls-21" d="M989.39,306.86H991v-3.22h3.22V302h1.61v-1.61h-1.61v-1.61h-1.61v-1.6H991v1.6h-1.61v-1.6h-3.21V295.6H983v1.61h1.61v1.6H983V302h4.83v-1.61h1.61V302h-1.61v1.61h1.61v3.22M991,302h1.6v-1.61H991V302" transform="translate(-953.33 -197.45)"></path><path id="Trac&#xE9;_6348-2" data-name="Trac&#xE9; 6348-2" class="cls-21" d="M1002.26,297.21h1.61V295.6h-1.61" transform="translate(-953.33 -197.45)"></path><path id="Trac&#xE9;_6349-2" data-name="Trac&#xE9; 6349-2" class="cls-21" d="M979.74,298.81h1.61v-1.6h-1.61" transform="translate(-953.33 -197.45)"></path><path id="Trac&#xE9;_6350-2" data-name="Trac&#xE9; 6350-2" class="cls-21" d="M995.83,311.68h1.61v-3.21H999v-1.61h1.61v-1.61h1.61v-1.61h-1.61V302H999v-3.22h-1.61v4.83H999v1.61h-1.61v1.61h-1.61v1.61h-1.61v1.61h1.61v1.61" transform="translate(-953.33 -197.45)"></path><path id="Trac&#xE9;_6351-2" data-name="Trac&#xE9; 6351-2" class="cls-21" d="M970.09,311.68h11.26V300.42H970.09v11.26m1.61-1.61h8v-8h-8v8" transform="translate(-953.33 -197.45)"></path><path id="Trac&#xE9;_6352-2" data-name="Trac&#xE9; 6352-2" class="cls-21" d="M1000.65,302h1.61v-1.61h-1.61" transform="translate(-953.33 -197.45)"></path><path id="Trac&#xE9;_6353-2" data-name="Trac&#xE9; 6353-2" class="cls-21" d="M973.31,308.46h4.82v-4.82h-4.82v4.82" transform="translate(-953.33 -197.45)"></path><path id="Trac&#xE9;_6354-2" data-name="Trac&#xE9; 6354-2" class="cls-21" d="M983,311.68h1.61v-1.6h3.21v-1.61h1.61v-1.61h-1.61v-1.61h-1.6v3.22h-1.61v-3.22h1.61v-1.61H983v8" transform="translate(-953.33 -197.45)"></path><path id="Trac&#xE9;_6355-2" data-name="Trac&#xE9; 6355-2" class="cls-21" d="M994.22,306.86h1.61v-3.22h-1.61v3.22" transform="translate(-953.33 -197.45)"></path><path id="Trac&#xE9;_6356-2" data-name="Trac&#xE9; 6356-2" class="cls-21" d="M991,308.47h1.61v-1.61H991" transform="translate(-953.33 -197.45)"></path><path id="Trac&#xE9;_6357-2" data-name="Trac&#xE9; 6357-2" class="cls-21" d="M999,311.68h3.22v-1.61h-1.61v-1.61H999v3.22" transform="translate(-953.33 -197.45)"></path><path id="Trac&#xE9;_6358-2" data-name="Trac&#xE9; 6358-2" class="cls-21" d="M987.78,311.68h1.61v-1.61h-1.61" transform="translate(-953.33 -197.45)"></path><path id="Trac&#xE9;_6359-2" data-name="Trac&#xE9; 6359-2" class="cls-21" d="M991,311.68h1.61v-1.61H991" transform="translate(-953.33 -197.45)"></path></g><g id="Groupe_4859-2" data-name="Groupe 4859-2"><path id="Trac&#xE9;_6360-2" data-name="Trac&#xE9; 6360-2" class="cls-22" d="M1086.91,431.39a40.71,40.71,0,0,1-40.69,40.7h0a40.7,40.7,0,0,1-40.7-40.69h0a40.68,40.68,0,0,1,40.69-40.68h0a40.69,40.69,0,0,1,40.69,40.67Z" transform="translate(-953.33 -197.45)"></path><path id="Trac&#xE9;_6361-2" data-name="Trac&#xE9; 6361-2" class="cls-15" d="M1046.22,467.88a36.48,36.48,0,1,1,36.48-36.49A36.53,36.53,0,0,1,1046.22,467.88Z" transform="translate(-953.33 -197.45)"></path><path id="Trac&#xE9;_6362-2" data-name="Trac&#xE9; 6362-2" class="cls-14" d="M1025.6,447.26s-.9-1.26-2.49-3.45a42.33,42.33,0,0,1-2.12-4.46c-.29-.93-.6-1.9-.92-2.93a24.12,24.12,0,0,1-.54-3.37c-.08-.61-.19-1.15-.23-1.86v-1.85a27,27,0,0,1,3.3-12.31,28.32,28.32,0,0,1,5.89-7.49,27.66,27.66,0,0,1,8.52-5.24,29.34,29.34,0,0,1,10-2c.79,0,1.47,0,2.33,0l2.66.29a29.86,29.86,0,0,1,4.85,1.19,30.88,30.88,0,0,1,8.46,4.41,33.82,33.82,0,0,1,6.1,6.15,31.9,31.9,0,0,1,3.66,6.46,22.15,22.15,0,0,1,1.05,3,18.76,18.76,0,0,1,.66,2.58,24.27,24.27,0,0,1,.54,3.7c.08.85.12,1.33.12,1.33H1067s0-.33,0-.9a16.29,16.29,0,0,0-.09-2.52,9.89,9.89,0,0,0-.26-1.8,12.22,12.22,0,0,0-.49-2.07,22.38,22.38,0,0,0-2-4.78,24.88,24.88,0,0,0-3.9-4.89,23.33,23.33,0,0,0-9.48-5.25l-1.78-.41c-.63-.12-1.47-.16-2.2-.24a23.26,23.26,0,0,0-8,.73,23.7,23.7,0,0,0-13.26,9.49,23,23,0,0,0-3.36,7.09,18.21,18.21,0,0,0-.45,1.8,13.12,13.12,0,0,0-.31,1.79c-.06.62-.12,1.23-.19,1.83s0,1.12,0,1.67a26.78,26.78,0,0,0,.17,3.23c.2,1,.4,2,.58,2.86a46.38,46.38,0,0,0,1.57,4.52C1024.83,445.92,1025.6,447.26,1025.6,447.26Z" transform="translate(-953.33 -197.45)"></path><path id="Trac&#xE9;_6363-2" data-name="Trac&#xE9; 6363-2" class="cls-23" d="M1054.15,431.36a7.62,7.62,0,1,1-7.62-7.61h0a7.61,7.61,0,0,1,7.61,7.61Z" transform="translate(-953.33 -197.45)"></path><path id="Trac&#xE9;_6364-2" data-name="Trac&#xE9; 6364-2" class="cls-23" d="M1040.47,431.37l-9.66-15.51,15.73,9.71Z" transform="translate(-953.33 -197.45)"></path><path id="Trac&#xE9;_13385" data-name="Trac&#xE9; 13385" class="cls-23" d="M1033.35,419.79l-6.67-6.31,2.34.89-1-2.2,7.63,7v1Z" transform="translate(-953.33 -197.45)"></path><path id="Trac&#xE9;_13386" data-name="Trac&#xE9; 13386" class="cls-23" d="M1026.2,407.69l-24.45-.25,22.34,4.15-1.86-2.26Z" transform="translate(-953.33 -197.45)"></path></g></g><g id="Groupe_11334" data-name="Groupe 11334"><ellipse id="Ellipse_1183" data-name="Ellipse 1183" class="cls-37" cx="175.42" cy="55.54" rx="55.89" ry="55.54"></ellipse><g id="Groupe_11332" data-name="Groupe 11332"><g id="Groupe_5812-2" data-name="Groupe 5812-2"><g id="Groupe_5811-2" data-name="Groupe 5811-2"><path id="Trac&#xE9;_6994-2" data-name="Trac&#xE9; 6994-2" class="cls-25" d="M1107.86,262a5.51,5.51,0,0,1-5.5-5.5V238.91a5.5,5.5,0,0,1,5.5-5.5h6.6a5.47,5.47,0,0,1,3.3,1.11V262Z" transform="translate(-953.33 -197.45)"></path></g></g><g id="Groupe_5814-2" data-name="Groupe 5814-2"><g id="Groupe_5813-2" data-name="Groupe 5813-2"><path id="Trac&#xE9;_6995-2" data-name="Trac&#xE9; 6995-2" class="cls-25" d="M1155.12,253.75a4.82,4.82,0,0,1-1.43,3.46,5.46,5.46,0,0,1,1.41,4.2,5.68,5.68,0,0,1-5.73,5h-13.58a31.4,31.4,0,0,1,1.75,8.79c0,4.77-4,8.79-6.59,8.79a6.91,6.91,0,0,1-4-1.34,1.09,1.09,0,0,1-.41-.85v-7.46l-6.33-13.71-.27-.14V236.92a14.53,14.53,0,0,1,5.5-1.3h20.18a5.06,5.06,0,0,1,5,3.84,5,5,0,0,1-.4,3.3,4.92,4.92,0,0,1,2.2,6.6A4.93,4.93,0,0,1,1155.12,253.75Z" transform="translate(-953.33 -197.45)"></path></g></g></g></g><path id="Trac&#xE9;_13384" data-name="Trac&#xE9; 13384" d="M1063.6,417.48l-7.68,8.41,10.35-2.87v4.6l3.07-4.6,14.94,8.62-6.89-8.62,6.89-1.72-9.77-5.17Z" transform="translate(-953.33 -197.45)"></path><g id="Groupe_11336" data-name="Groupe 11336"><g id="Groupe_11335" data-name="Groupe 11335"><path id="Trac&#xE9;_13383" data-name="Trac&#xE9; 13383" class="cls-38" d="M1094.36,343.52a17.23,17.23,0,0,0-13.44-28h-.22a16.19,16.19,0,1,0-30.23,11,24.2,24.2,0,0,0,6.09,47.63h.37s0,0,0,.07a15.66,15.66,0,0,0-.36,31.17,13.49,13.49,0,1,0,18.86-12.51,15.67,15.67,0,0,0,10.77-8.26,22.2,22.2,0,0,0,8.17-41.11Z" transform="translate(-953.33 -197.45)"></path></g></g><g id="_" data-name=" " class="cls-39"><text class="cls-40" transform="translate(110.47 174.14)">!</text></g></g></svg>