<svg xmlns="http://www.w3.org/2000/svg" id="Calque_1" data-name="Calque 1" viewBox="0 0 908.14 568.69"><defs><style>.cls-1{fill:#19a580;}.cls-2{fill:#fff;}.cls-25,.cls-3,.cls-4{fill:none;}.cls-3{stroke:#707070;}.cls-4{stroke:#7f92c2;stroke-miterlimit:10;}.cls-12,.cls-5{fill:#242a28;}.cls-6,.cls-7{fill:#efefef;}.cls-12,.cls-13,.cls-14,.cls-15,.cls-7{fill-rule:evenodd;}.cls-8{fill:#009fbb;}.cls-9{fill:#c2c1c1;}.cls-10{fill:#208277;}.cls-11{fill:#5db1c5;}.cls-13{fill:#979798;}.cls-14{fill:#0b7783;}.cls-15{fill:#49afb8;}.cls-16{fill:#e2e9ef;}.cls-17{fill:#1a1818;}.cls-18{fill:#161615;}.cls-19{fill:#ca3622;}.cls-20{fill:#a0b3ba;}.cls-21{fill:#2e2e2e;}.cls-22{fill:#799baf;}.cls-23{fill:#232928;}.cls-24{fill:#009ebb;}.cls-26{fill:#95d0d4;}.cls-27{fill:#ced8e1;}.cls-28{fill:#9c3b86;}</style></defs><g id="Groupe_11313" data-name="Groupe 11313"><g id="Groupe_11312" data-name="Groupe 11312"><g id="Groupe_11306" data-name="Groupe 11306"><path id="Trac&#xE9;_13375" data-name="Trac&#xE9; 13375" class="cls-1" d="M1264.67,369.08h77.09c5.4,0,10.39,3.93,10.39,6.66V543.07c0,2.73-5,5.42-10.39,5.42h-77.09c-5.4,0-11.65-2.69-11.65-5.42V375.74C1253,373,1259.27,369.08,1264.67,369.08Z" transform="translate(-825.25 -59.52)"></path></g><g id="Groupe_11307" data-name="Groupe 11307"><path id="Trac&#xE9;_13376" data-name="Trac&#xE9; 13376" class="cls-1" d="M1364.78,430.43c0-1.41,4.87-2.87,10.27-2.87h76.21c5.4,0,10.23,1.46,10.23,2.87V545.74c0,1.42-4.83,2.75-10.23,2.75h-76.21c-5.4,0-10.27-1.33-10.27-2.75Z" transform="translate(-825.25 -59.52)"></path></g><g id="Groupe_11308" data-name="Groupe 11308"><path id="Trac&#xE9;_13377" data-name="Trac&#xE9; 13377" class="cls-1" d="M926.31,156.64c0-3.47,5.81-6.09,11.21-6.09h77.15c5.4,0,9.56,2.62,9.56,6.09V541.18c0,3.47-4.16,7.31-9.56,7.31H937.52c-5.4,0-11.21-3.84-11.21-7.31Z" transform="translate(-825.25 -59.52)"></path></g><g id="Groupe_11309" data-name="Groupe 11309"><path id="Trac&#xE9;_13378" data-name="Trac&#xE9; 13378" class="cls-1" d="M1144.68,300.52c0-2.56,4.66-4.93,10.07-4.93H1231c5.39,0,9.23,2.37,9.23,4.93V543.58c0,2.55-3.83,4.91-9.23,4.91h-76.21c-5.4,0-10.07-2.36-10.07-4.91Z" transform="translate(-825.25 -59.52)"></path></g><g id="Groupe_11310" data-name="Groupe 11310"><path id="Trac&#xE9;_13379" data-name="Trac&#xE9; 13379" class="cls-1" d="M1036.18,225.42c0-2.87,4.28-4.78,9.68-4.78h76.21c5.4,0,9.61,1.91,9.61,4.78V543.54c0,2.87-4.21,5-9.61,5h-76.21c-5.4,0-9.68-2.08-9.68-5Z" transform="translate(-825.25 -59.52)"></path></g><g id="Groupe_11311" data-name="Groupe 11311"><path id="Trac&#xE9;_13380" data-name="Trac&#xE9; 13380" class="cls-1" d="M1042.47,152.32l-61.69-90.8a4.42,4.42,0,0,0-6.13-1.27,4.3,4.3,0,0,0-1.23,1.21l-63.6,90.8a4.74,4.74,0,0,0,1.07,6.63,4.8,4.8,0,0,0,2.59.89h125.29a4.75,4.75,0,0,0,3.7-7.46Z" transform="translate(-825.25 -59.52)"></path></g></g><g id="Ellipse_1176" data-name="Ellipse 1176"><circle class="cls-2" cx="593.14" cy="352" r="120"></circle><circle class="cls-3" cx="593.14" cy="352" r="119.5"></circle></g><g id="Groupe_11304" data-name="Groupe 11304"><rect id="Rectangle_3379" data-name="Rectangle 3379" class="cls-2" x="1016.1" y="377.31" width="7.46" height="12.61" rx="0.68" transform="translate(-484.56 1176.15) rotate(-72.06)"></rect><rect id="Rectangle_3380" data-name="Rectangle 3380" class="cls-4" x="1016.1" y="377.31" width="7.46" height="12.61" rx="0.68" transform="translate(-484.56 1176.15) rotate(-72.06)"></rect><path id="Trac&#xE9;_13356" data-name="Trac&#xE9; 13356" class="cls-2" d="M927.9,385.1a7.36,7.36,0,1,1-9.44-4.42,7.36,7.36,0,0,1,9.44,4.42Z" transform="translate(-825.25 -59.52)"></path><g id="Coding"><g id="Groupe_11297" data-name="Groupe 11297"><rect id="Rectangle_3381" data-name="Rectangle 3381" class="cls-5" x="76.15" y="286.69" width="387.61" height="253.26" rx="3.23"></rect><rect id="Rectangle_3382" data-name="Rectangle 3382" class="cls-6" x="93.46" y="303.4" width="354.47" height="218.87"></rect><path id="Trac&#xE9;_13357" data-name="Trac&#xE9; 13357" class="cls-7" d="M825.59,598.19a33.76,33.76,0,0,0-.34,4.82c0,13.92,8.44,25.2,18.85,25.2h503.69c10.41,0,18.85-11.28,18.85-25.2a33.77,33.77,0,0,0-.35-4.82Z" transform="translate(-825.25 -59.52)"></path><path id="Trac&#xE9;_13358" data-name="Trac&#xE9; 13358" class="cls-5" d="M826.86,613.2c2.93,8.84,9.55,15,17.24,15h503.69c7.7,0,14.3-6.17,17.24-15Z" transform="translate(-825.25 -59.52)"></path></g></g><rect id="Rectangle_3383" data-name="Rectangle 3383" class="cls-8" x="114.04" y="343.15" width="88.24" height="39.1"></rect><rect id="Rectangle_3384" data-name="Rectangle 3384" class="cls-8" x="221.27" y="343.15" width="88.24" height="39.1"></rect><rect id="Rectangle_3385" data-name="Rectangle 3385" class="cls-8" x="326.27" y="343.15" width="88.24" height="39.1"></rect><rect id="Rectangle_3386" data-name="Rectangle 3386" class="cls-9" x="114.92" y="401.79" width="130.93" height="8.31"></rect><rect id="Rectangle_3387" data-name="Rectangle 3387" class="cls-9" x="114.92" y="416.09" width="130.93" height="8.31"></rect><rect id="Rectangle_3388" data-name="Rectangle 3388" class="cls-9" x="114.92" y="430.37" width="130.93" height="8.3"></rect><g id="Groupe_11299" data-name="Groupe 11299"><g id="Groupe_11298" data-name="Groupe 11298"><path id="Trac&#xE9;_13359" data-name="Trac&#xE9; 13359" class="cls-10" d="M997.71,553.73,977.1,543.52l-33.71.24,0-3,34.41-.24,20.11,10,47.81-17.16,25,14.06,24.93-12.94,1.37,2.62-26.36,13.68-25.16-14.18Z" transform="translate(-825.25 -59.52)"></path></g><path id="Trac&#xE9;_13360" data-name="Trac&#xE9; 13360" class="cls-5" d="M982.73,542.29a4.85,4.85,0,1,1-4.85-4.85h0a4.85,4.85,0,0,1,4.85,4.84Z" transform="translate(-825.25 -59.52)"></path><path id="Trac&#xE9;_13361" data-name="Trac&#xE9; 13361" class="cls-5" d="M948.22,542.29a4.85,4.85,0,1,1-4.84-4.85,4.84,4.84,0,0,1,4.84,4.85Z" transform="translate(-825.25 -59.52)"></path><path id="Trac&#xE9;_13362" data-name="Trac&#xE9; 13362" class="cls-5" d="M1002.9,552a4.85,4.85,0,1,1-4.85-4.85,4.86,4.86,0,0,1,4.85,4.85Z" transform="translate(-825.25 -59.52)"></path><path id="Trac&#xE9;_13363" data-name="Trac&#xE9; 13363" class="cls-5" d="M1050.66,534.94a4.84,4.84,0,1,1-4.84-4.84,4.84,4.84,0,0,1,4.84,4.84Z" transform="translate(-825.25 -59.52)"></path><path id="Trac&#xE9;_13364" data-name="Trac&#xE9; 13364" class="cls-5" d="M1075.92,548.52a4.85,4.85,0,1,1-4.85-4.85,4.84,4.84,0,0,1,4.85,4.85Z" transform="translate(-825.25 -59.52)"></path><path id="Trac&#xE9;_13365" data-name="Trac&#xE9; 13365" class="cls-5" d="M1101.12,535.79a4.85,4.85,0,1,1-4.84-4.84h0A4.84,4.84,0,0,1,1101.12,535.79Z" transform="translate(-825.25 -59.52)"></path><path id="Trac&#xE9;_13366" data-name="Trac&#xE9; 13366" class="cls-11" d="M943.38,553.36v12.25h152.9V548.52l-25.21,11.91-25.25-13.3-47.77,13.55-20.17-7.32Z" transform="translate(-825.25 -59.52)"></path><rect id="Rectangle_3389" data-name="Rectangle 3389" class="cls-11" x="279.41" y="489" width="8.37" height="17.09"></rect><rect id="Rectangle_3390" data-name="Rectangle 3390" class="cls-11" x="290.98" y="493.84" width="8.37" height="12.24"></rect><rect id="Rectangle_3391" data-name="Rectangle 3391" class="cls-5" x="290.98" y="490.94" width="8.37" height="3.27"></rect><rect id="Rectangle_3392" data-name="Rectangle 3392" class="cls-5" x="279.41" y="485.25" width="8.37" height="4.74"></rect><rect id="Rectangle_3393" data-name="Rectangle 3393" class="cls-5" x="302.56" y="478.13" width="8.37" height="6.13"></rect><rect id="Rectangle_3394" data-name="Rectangle 3394" class="cls-11" x="302.56" y="484.15" width="8.37" height="21.94"></rect></g><g id="Groupe_11300" data-name="Groupe 11300"><path id="Trac&#xE9;_13367" data-name="Trac&#xE9; 13367" class="cls-12" d="M1197.31,466.63a27.58,27.58,0,1,1-27.57,27.58h0A27.58,27.58,0,0,1,1197.31,466.63Z" transform="translate(-825.25 -59.52)"></path><path id="Trac&#xE9;_13368" data-name="Trac&#xE9; 13368" class="cls-12" d="M1182.14,517.23a27.62,27.62,0,0,1-9.38-10.46l24.55-12.56Z" transform="translate(-825.25 -59.52)"></path><path id="Trac&#xE9;_13369" data-name="Trac&#xE9; 13369" class="cls-13" d="M1172.76,506.77a27.59,27.59,0,0,1,7.56-34.28l17,21.72Z" transform="translate(-825.25 -59.52)"></path><path id="Trac&#xE9;_13370" data-name="Trac&#xE9; 13370" class="cls-14" d="M1180.32,472.49a27.43,27.43,0,0,1,17-5.86v27.58Z" transform="translate(-825.25 -59.52)"></path><path id="Trac&#xE9;_13371" data-name="Trac&#xE9; 13371" class="cls-15" d="M1197.31,466.63v27.58L1217,474.87A27.46,27.46,0,0,0,1197.31,466.63Z" transform="translate(-825.25 -59.52)"></path></g><g id="Groupe_11301" data-name="Groupe 11301"><path id="Trac&#xE9;_13372" data-name="Trac&#xE9; 13372" class="cls-2" d="M1012.86,409.85h5.86V434h-3.89V414.16h-4.24Z" transform="translate(-825.25 -59.52)"></path></g><g id="Groupe_11302" data-name="Groupe 11302"><path id="Trac&#xE9;_13373" data-name="Trac&#xE9; 13373" class="cls-2" d="M1223.84,417.93h-4a7.86,7.86,0,0,1,2.19-5.45,7.69,7.69,0,0,1,8.62-1.16,6,6,0,0,1,2.38,2.37,6.15,6.15,0,0,1,.9,3.15,9.23,9.23,0,0,1-1.09,4.11,22.07,22.07,0,0,1-4,5.2l-2.4,2.54h7.64v3.77h-14.84v-2l6.62-6.76a19.07,19.07,0,0,0,3.2-3.91,5.73,5.73,0,0,0,.8-2.67,2.72,2.72,0,0,0-.82-2.05,2.92,2.92,0,0,0-2.12-.81,2.79,2.79,0,0,0-2.18,1A4,4,0,0,0,1223.84,417.93Z" transform="translate(-825.25 -59.52)"></path></g><g id="Groupe_11303" data-name="Groupe 11303"><path id="Trac&#xE9;_13374" data-name="Trac&#xE9; 13374" class="cls-2" d="M1116.82,409.29h11.27v4.23h-7.84l-1,4.37a6.66,6.66,0,0,1,.8-.18,6.16,6.16,0,0,1,.75,0,7.22,7.22,0,0,1,5.43,2.23,7.92,7.92,0,0,1,2.17,5.71,8.09,8.09,0,0,1-2.4,5.93,7.92,7.92,0,0,1-5.82,2.42,8.06,8.06,0,0,1-8.18-6.55h4.81a4,4,0,0,0,1.46,1.71,3.56,3.56,0,0,0,2,.58,3.4,3.4,0,0,0,2.58-1.1A4.27,4.27,0,0,0,1123,423a3.15,3.15,0,0,0-2.4-1.07,3.35,3.35,0,0,0-1.48.38,5.37,5.37,0,0,0-1.43,1.12l-3.73-.83Z" transform="translate(-825.25 -59.52)"></path></g></g><g id="Groupe_11296" data-name="Groupe 11296"><path id="Trac&#xE9;_13300" data-name="Trac&#xE9; 13300" class="cls-16" d="M1618.27,388.52h-24.68a174.61,174.61,0,0,0-7.17-25.28l20.64-11.9a10.43,10.43,0,0,0,3.8-14.17l-20.69-35.82a10.38,10.38,0,0,0-14.13-3.78l-21.45,12.37a167.91,167.91,0,0,0-18.77-18.28L1547.75,271a10.38,10.38,0,0,0-3.8-14.15l-35.82-20.69A10.37,10.37,0,0,0,1494,240l-12.36,21.42a167.63,167.63,0,0,0-25.45-6.45V231.05a10.36,10.36,0,0,0-10.34-10.36h-41.33A10.37,10.37,0,0,0,1394.15,231h0v24.71a171.4,171.4,0,0,0-25.26,7.14L1357,242.25a10.44,10.44,0,0,0-14.21-3.81L1307,259.16a10.35,10.35,0,0,0-3.77,14.12l12.38,21.44a164.33,164.33,0,0,0-18.27,18.76l-20.67-11.93a10.39,10.39,0,0,0-14.15,3.82l-20.71,35.8a10.33,10.33,0,0,0,3.79,14.12h0L1267,367.66a167.34,167.34,0,0,0-6.42,25.41h-23.86a10.38,10.38,0,0,0-10.37,10.37v41.35a10.33,10.33,0,0,0,10.32,10.33h24.75a167,167,0,0,0,7.11,25.3l-20.66,11.91a10.39,10.39,0,0,0-3.77,14.13l20.67,35.8a10.39,10.39,0,0,0,14.15,3.82l21.45-12.38a167.14,167.14,0,0,0,18.76,18.3l-11.93,20.68a10.33,10.33,0,0,0,3.75,14.11h0l35.86,20.7a10.33,10.33,0,0,0,14.09-3.78l12.4-21.42a165.77,165.77,0,0,0,25.43,6.4v23.92a10.3,10.3,0,0,0,10.28,10.32h0l41.41,0a10.36,10.36,0,0,0,10.34-10.35v-24.7a176.52,176.52,0,0,0,25.24-7.13l12,20.6a10.26,10.26,0,0,0,14,3.86l.11-.06L1548,584.5a10.37,10.37,0,0,0,3.76-14.15l-12.39-21.43a166.65,166.65,0,0,0,18.33-18.77l20.68,12a10.34,10.34,0,0,0,14.13-3.79l20.67-35.84a10.34,10.34,0,0,0-3.77-14.1L1588,476a169.43,169.43,0,0,0,6.44-25.38h23.88a10.36,10.36,0,0,0,10.32-10.39V398.84a10.3,10.3,0,0,0-10.27-10.32ZM1427.51,504.36A82.53,82.53,0,1,1,1510,421.81v0A82.55,82.55,0,0,1,1427.51,504.36Z" transform="translate(-825.25 -59.52)"></path><path id="Trac&#xE9;_13301" data-name="Trac&#xE9; 13301" class="cls-16" d="M1427.49,291.17a130.67,130.67,0,1,0,130.69,130.68,130.67,130.67,0,0,0-130.69-130.68Zm0,238A107.32,107.32,0,1,1,1534.8,421.8v0a107.33,107.33,0,0,1-107.29,107.3Z" transform="translate(-825.25 -59.52)"></path><path id="Trac&#xE9;_13302" data-name="Trac&#xE9; 13302" class="cls-16" d="M1427.49,291.17c-1.23,0-2.4,0-3.59.07v23.39c1.19-.07,2.36-.13,3.6-.13a107.32,107.32,0,0,1,0,214.64c-1.24,0-2.41,0-3.6-.1v23.39c1.19,0,2.36.08,3.59.08a130.67,130.67,0,1,0,.06-261.33h-.06Z" transform="translate(-825.25 -59.52)"></path><g id="Groupe_11287" data-name="Groupe 11287"><path id="Trac&#xE9;_13303" data-name="Trac&#xE9; 13303" class="cls-17" d="M1513.33,79.22l21.1,33.16,14-19.74.9-7.47s7.71-6.67-1.57-13.37c-10.2-7.36-26-2-29.34-12.28C1518.46,59.52,1507.42,67.21,1513.33,79.22Z" transform="translate(-825.25 -59.52)"></path><path id="Trac&#xE9;_13304" data-name="Trac&#xE9; 13304" class="cls-18" d="M1434.61,254.23,1419.72,343H1409l8.52-85.8Z" transform="translate(-825.25 -59.52)"></path><rect id="Rectangle_3373" data-name="Rectangle 3373" class="cls-19" x="692.25" y="53.73" width="11.69" height="20.57"></rect><path id="Trac&#xE9;_13305" data-name="Trac&#xE9; 13305" class="cls-20" d="M1556.12,152.86l-11.07,70.39-44.24-8-7-61.34L1466.12,165a6,6,0,0,1-6.36-1.23l-38.46-36.91,4.25-5.74,37.66,27.35,27.78-22.9a9.08,9.08,0,0,1,5.71-2h58.21a6.73,6.73,0,0,1,3.83,1.2l28.33,19.76,39.16-24.15,4.23,5.55-40.33,34.9a7.06,7.06,0,0,1-6.9,1.34Z" transform="translate(-825.25 -59.52)"></path><path id="Trac&#xE9;_13306" data-name="Trac&#xE9; 13306" class="cls-18" d="M1545.73,219s7.52,36.83-24.34,37.24l-84.78-4.3-45.14,92.38-9.91-4.19L1420.15,232a6.3,6.3,0,0,1,4.92-4.12l75.74-12.62" transform="translate(-825.25 -59.52)"></path><path id="Trac&#xE9;_13307" data-name="Trac&#xE9; 13307" class="cls-19" d="M1626.23,120.31c-1.23-9.9,4.12-3.33,4.12-3.33s9.8-4.74,11.35-2.66c2.14,2.86-11.25,11.55-11.25,11.55Z" transform="translate(-825.25 -59.52)"></path><path id="Trac&#xE9;_13308" data-name="Trac&#xE9; 13308" class="cls-19" d="M1425.53,121.28c1.22-9.9-4.13-3.34-4.13-3.34s-9.8-4.73-11.35-2.65c-2.14,2.86,11.25,11.54,11.25,11.54Z" transform="translate(-825.25 -59.52)"></path><g id="Groupe_11285" data-name="Groupe 11285"><path id="Trac&#xE9;_13309" data-name="Trac&#xE9; 13309" class="cls-2" d="M1530.74,123.57l3.57,8.7-9.61-1s-1-6.1,2.69-7.79Z" transform="translate(-825.25 -59.52)"></path><path id="Trac&#xE9;_13310" data-name="Trac&#xE9; 13310" class="cls-2" d="M1522.44,130.73l-8.15.43,3.21-8,5.15.15Z" transform="translate(-825.25 -59.52)"></path><path id="Trac&#xE9;_13311" data-name="Trac&#xE9; 13311" class="cls-21" d="M1529.19,123.52s-5,18-10.33-.29Z" transform="translate(-825.25 -59.52)"></path><path id="Trac&#xE9;_13312" data-name="Trac&#xE9; 13312" class="cls-21" d="M1524.7,131.27l4,53.21L1519,197.61l-7.55-14.56,11-52.32S1524.35,128.59,1524.7,131.27Z" transform="translate(-825.25 -59.52)"></path></g><g id="Groupe_11286" data-name="Groupe 11286"><path id="Trac&#xE9;_13313" data-name="Trac&#xE9; 13313" class="cls-19" d="M1530.68,115.43l-15.18-2.23a4.45,4.45,0,0,1-3.81-4.4l0-8.61-2.15-.31a2,2,0,0,1-1.66-2.24,1.27,1.27,0,0,1,.06-.28l5.62-19,19.3,8.72-1.7,8.34,2.63.39s2.76-6,5.45-3.52c1.76,1.6.6,7-2.2,8.54l0,9.26-.49,1.61A5.35,5.35,0,0,1,1530.68,115.43Z" transform="translate(-825.25 -59.52)"></path></g><path id="Trac&#xE9;_13314" data-name="Trac&#xE9; 13314" class="cls-21" d="M1381.46,339.9l-7.6-3.32a1.59,1.59,0,0,0-1.73,2.62l9.16,8.59a1.7,1.7,0,0,0,.38.26l6,3a1.6,1.6,0,0,0,2.15-.72,1.28,1.28,0,0,0,.11-.31l1.53-6.12" transform="translate(-825.25 -59.52)"></path><path id="Trac&#xE9;_13315" data-name="Trac&#xE9; 13315" class="cls-21" d="M1409.83,337.87l-9.3-1.47a1.4,1.4,0,0,0-1.61,1.16,1.39,1.39,0,0,0,.72,1.46l12,6.54a1.34,1.34,0,0,0,.38.14l6.89,1.45a1.4,1.4,0,0,0,1.66-1.08,1.53,1.53,0,0,0,0-.3l-.07-6.55" transform="translate(-825.25 -59.52)"></path></g><g id="Groupe_11289" data-name="Groupe 11289"><g id="Groupe_11288" data-name="Groupe 11288"><path id="Trac&#xE9;_13316" data-name="Trac&#xE9; 13316" class="cls-17" d="M1602.06,264.36a1.83,1.83,0,0,1,0-1.94c13.15-21.37,36.77-17.23,47.08-6.21,6.37,6.8,12.73,27.55-6.55,43,0,0-4.42,2.83-3.16,7.76a1.76,1.76,0,0,1-1.32,2.11l-.24,0c-2.45.21-6.33,0-8.67-3Z" transform="translate(-825.25 -59.52)"></path><path id="Trac&#xE9;_13317" data-name="Trac&#xE9; 13317" class="cls-19" d="M1628.08,306.18l-18.35.84a1.76,1.76,0,0,1-1.7-1.1l-4.34-10.6a1.82,1.82,0,0,0-.81-.9l-2.32-1.2a1.79,1.79,0,0,1-.78-2.36l1.64-3.46a1.76,1.76,0,0,0,.18-.79l-.15-20.94a1.76,1.76,0,0,1,1.73-1.8,2,2,0,0,1,.42.05l17.83,4.19a1.76,1.76,0,0,1,1.34,1.51l1.07,8.75a1.77,1.77,0,0,0,1.5,1.55l.26,0a1.71,1.71,0,0,0,1.71-.81c1.09-1.77,3.57-5.22,5.54-3.69,2.5,1.93,1.2,5.4-1.4,8.06a1.77,1.77,0,0,0-.46,1.7l1.71,6.3a1.87,1.87,0,0,1,0,.91l-3,12.41A1.76,1.76,0,0,1,1628.08,306.18Z" transform="translate(-825.25 -59.52)"></path><path id="Trac&#xE9;_13318" data-name="Trac&#xE9; 13318" class="cls-19" d="M1628.43,329.06l-9.83.44a1.75,1.75,0,0,1-1.82-1.69h0l-.9-20.41a1.77,1.77,0,0,1,1.67-1.86l9.82-.45a1.78,1.78,0,0,1,1.83,1.7l.9,20.42a1.77,1.77,0,0,1-1.67,1.86Z" transform="translate(-825.25 -59.52)"></path><path id="Trac&#xE9;_13319" data-name="Trac&#xE9; 13319" class="cls-19" d="M1720.31,292.52c-3.69-6.35-.28-5.74,1.64-5a1.73,1.73,0,0,0,1.91-.49c2-2.26,6.93-7.64,8.81-6.59,2.62,1.47-2.66,11-4.83,14.65a1.71,1.71,0,0,1-2.32.64L1721,293.2A1.8,1.8,0,0,1,1720.31,292.52Z" transform="translate(-825.25 -59.52)"></path><path id="Trac&#xE9;_13320" data-name="Trac&#xE9; 13320" class="cls-22" d="M1540.86,406.24l49.49-84.78a5.35,5.35,0,0,1,4.59-2.68l63-.47,36.82,7a1.92,1.92,0,0,0,1.89-.74L1720.57,293l6.4,3.53-23.68,44.9a6.39,6.39,0,0,1-6.33,3.41l-31.23-3.39A5.22,5.22,0,0,0,1660,346l-8.39,64.88h-48.16l-8.72-50.75a1.94,1.94,0,0,0-3.4-1L1547.6,411Z" transform="translate(-825.25 -59.52)"></path><path id="Trac&#xE9;_13321" data-name="Trac&#xE9; 13321" class="cls-19" d="M1608.33,318.31l11.46,18.27a4.49,4.49,0,0,0,7.66,0l11.47-18.27Z" transform="translate(-825.25 -59.52)"></path><path id="Trac&#xE9;_13322" data-name="Trac&#xE9; 13322" class="cls-18" d="M1636.65,612.54a1.76,1.76,0,0,0-1.75,1.78h0v13.89h2.27l.62-2.51a1.74,1.74,0,0,1,2.09-1.31,1.79,1.79,0,0,1,1.09.79l1.35,2.2a1.73,1.73,0,0,0,1.48.83H1656a1.78,1.78,0,0,0,.84-3.33,28.61,28.61,0,0,1-11.07-11.39,1.75,1.75,0,0,0-1.53-1Z" transform="translate(-825.25 -59.52)"></path><path id="Trac&#xE9;_13323" data-name="Trac&#xE9; 13323" class="cls-18" d="M1618.24,612.54a1.77,1.77,0,0,1,1.75,1.78h0v13.89h-2.27l-.62-2.51a1.74,1.74,0,0,0-2.08-1.31,1.77,1.77,0,0,0-1.1.79l-1.34,2.2a1.76,1.76,0,0,1-1.49.83h-12.16a1.78,1.78,0,0,1-.84-3.33,28.58,28.58,0,0,0,11.06-11.39,1.78,1.78,0,0,1,1.54-1Z" transform="translate(-825.25 -59.52)"></path><path id="Trac&#xE9;_13324" data-name="Trac&#xE9; 13324" class="cls-19" d="M1626.23,481.47l-5.63,131.08h-10.2S1589.34,475.83,1591,444.11c.93-17.53,10.24-27.74,12.55-30a1.71,1.71,0,0,1,1.19-.49h46.38a1.69,1.69,0,0,1,1.19.49c2.31,2.27,11.62,12.47,12.55,30,1.69,31.72-19.36,168.44-19.36,168.44h-10.22l-5.62-131.08a1.73,1.73,0,0,0-3.46,0Z" transform="translate(-825.25 -59.52)"></path><path id="Trac&#xE9;_13325" data-name="Trac&#xE9; 13325" class="cls-2" d="M1604.21,299.52l6.67-1.47,3.59-4.61" transform="translate(-825.25 -59.52)"></path><path id="Trac&#xE9;_13326" data-name="Trac&#xE9; 13326" class="cls-18" d="M1596.91,538.48h59.83s24.09-106.68-4-127.44h-49.58S1578.11,423.79,1596.91,538.48Z" transform="translate(-825.25 -59.52)"></path><path id="Trac&#xE9;_13327" data-name="Trac&#xE9; 13327" class="cls-23" d="M1601.76,406.24" transform="translate(-825.25 -59.52)"></path><path id="Trac&#xE9;_13328" data-name="Trac&#xE9; 13328" class="cls-24" d="M1601.76,400.83h51.18l-.77,10.52-48.24-.49Z" transform="translate(-825.25 -59.52)"></path><ellipse id="Ellipse_1167" data-name="Ellipse 1167" class="cls-23" cx="798.84" cy="289.91" rx="1.91" ry="1.94"></ellipse><ellipse id="Ellipse_1168" data-name="Ellipse 1168" class="cls-23" cx="799.67" cy="308.03" rx="1.91" ry="1.94"></ellipse><path id="Trac&#xE9;_13329" data-name="Trac&#xE9; 13329" class="cls-17" d="M1647.52,254.63s20.17,13.83-1.49,72.38a2.31,2.31,0,0,1-2,1.5l-25.87-15.82c0-.21,11.91-14.15,12-14.35l.9-13.14" transform="translate(-825.25 -59.52)"></path><ellipse id="Ellipse_1169" data-name="Ellipse 1169" class="cls-23" cx="800.48" cy="325.64" rx="1.91" ry="1.94"></ellipse></g><path id="Trac&#xE9;_13330" data-name="Trac&#xE9; 13330" class="cls-19" d="M1540.94,406.24l-10,14.63c1.92,1.25,8.67-6.6,8.67-6.6s4.6,4.36,7.6-3.66Z" transform="translate(-825.25 -59.52)"></path></g><g id="Groupe_11295" data-name="Groupe 11295"><g id="Groupe_11294" data-name="Groupe 11294"><path id="Trac&#xE9;_13331" data-name="Trac&#xE9; 13331" class="cls-22" d="M1297.86,317.68l-78.18-16a2.65,2.65,0,0,0-3.13,2l0,.17-3.44,23.87,1.28,0,2.8,89,78.55,8.53,2.83-66.71" transform="translate(-825.25 -59.52)"></path><path id="Trac&#xE9;_13332" data-name="Trac&#xE9; 13332" class="cls-17" d="M1246.53,255.73l9.48,25.16a3.82,3.82,0,0,0,.76,1.25L1268.39,295a3.93,3.93,0,0,0,5.55.28l.16-.16,19.33-19.58a3.94,3.94,0,0,0,1.13-2.61l.46-11.58a3.94,3.94,0,0,0-1.5-3.25l-19.6-15.34a3.9,3.9,0,0,0-2.17-.83l-18.38-1.17a3.91,3.91,0,0,1-2.5-1.11h0a3.92,3.92,0,0,0-6.67,2.8v2.92a3.41,3.41,0,0,0,.1.9l2.23,9.42" transform="translate(-825.25 -59.52)"></path><path id="Trac&#xE9;_13333" data-name="Trac&#xE9; 13333" class="cls-19" d="M1268.09,305.29l-24.91-6.54a4.37,4.37,0,0,1-3.24-4.7l1.28-11.63-3-.8a2.06,2.06,0,0,1-1.46-2.51,1.8,1.8,0,0,1,.09-.28l9.73-23.1,19.74,11.71a4.2,4.2,0,0,1,1.85,4.9l-2.22,6.87,3.2.84s4.23-7,7.21-3.59c1.94,2.22-.23,8.72-3.9,10.24l-1.24,11.42Z" transform="translate(-825.25 -59.52)"></path><path id="Trac&#xE9;_13334" data-name="Trac&#xE9; 13334" class="cls-19" d="M1266.49,319.42l-15-3.43,2.59-18.47,15,3.43Z" transform="translate(-825.25 -59.52)"></path><line id="Ligne_1162" data-name="Ligne 1162" class="cls-25" x1="427.79" y1="244.05" x2="428.11" y2="242.41"></line><path id="Trac&#xE9;_13335" data-name="Trac&#xE9; 13335" class="cls-18" d="M1295.72,425.29l23.55,189.59-19.82,2.42-41.16-171a1.54,1.54,0,0,0-3,.14L1230.58,617.6l-17.87-1.6,4.45-199.24" transform="translate(-825.25 -59.52)"></path><g id="Groupe_11290" data-name="Groupe 11290"><path id="Trac&#xE9;_13336" data-name="Trac&#xE9; 13336" class="cls-19" d="M1327.76,421.67c-9.62,6.37.29,6,.29,6s3.48,11.78,6.51,11.53c4.17-.34,1.36-18.09,1.36-18.09Z" transform="translate(-825.25 -59.52)"></path><path id="Trac&#xE9;_13337" data-name="Trac&#xE9; 13337" class="cls-22" d="M1334.06,422.82h-6.49a1.8,1.8,0,0,1-1.72-1.29l-14.57-49a8.8,8.8,0,0,0-2.25-3.75l-13-12.77a1.8,1.8,0,0,1-.54-1.26l-.42-35.28a1.8,1.8,0,0,1,3.21-1.14l32.35,40.89a7.18,7.18,0,0,1,1.56,4.06l3.64,57.6a1.79,1.79,0,0,1-1.68,1.9Z" transform="translate(-825.25 -59.52)"></path></g><path id="Trac&#xE9;_13338" data-name="Trac&#xE9; 13338" class="cls-19" d="M1201.53,407.67c10.3,5.2.41,5.95.41,5.95s-2.08,12.12-5.11,12.23c-4.18.14-3.47-17.82-3.47-17.82Z" transform="translate(-825.25 -59.52)"></path><path id="Trac&#xE9;_13339" data-name="Trac&#xE9; 13339" class="cls-22" d="M1192.76,409.24l9.69-1.15,9-51.85a8,8,0,0,1,1.65-3.65l12-14.93-3.55-33.37a2.62,2.62,0,0,0-2.9-2.34,2.59,2.59,0,0,0-2,1.24L1191.52,344a13,13,0,0,0-1.92,7.53Z" transform="translate(-825.25 -59.52)"></path><path id="Trac&#xE9;_13340" data-name="Trac&#xE9; 13340" class="cls-26" d="M1211.42,328.52" transform="translate(-825.25 -59.52)"></path><path id="Trac&#xE9;_13341" data-name="Trac&#xE9; 13341" class="cls-26" d="M1249.7,308" transform="translate(-825.25 -59.52)"></path><path id="Trac&#xE9;_13342" data-name="Trac&#xE9; 13342" class="cls-18" d="M1302.55,614.88v11.27h6.1v-2.77l3.8,2.77h20.72a3.75,3.75,0,0,0-1.8-5l-.2-.08-15.56-6.2Z" transform="translate(-825.25 -59.52)"></path><path id="Trac&#xE9;_13343" data-name="Trac&#xE9; 13343" class="cls-18" d="M1228.2,616v11.26h-6.1v-2.78l-3.81,2.78h-20.71a3.74,3.74,0,0,1,1.79-5l.21-.09,15.56-6.2Z" transform="translate(-825.25 -59.52)"></path><path id="Trac&#xE9;_13344" data-name="Trac&#xE9; 13344" class="cls-23" d="M1270.73,344.11l17.8,1.7-1.14,14.74-8.36,6-8.3-6Z" transform="translate(-825.25 -59.52)"></path><path id="Trac&#xE9;_13345" data-name="Trac&#xE9; 13345" class="cls-19" d="M1272.74,312.66l-17.58,19.82-9.93-25.33Z" transform="translate(-825.25 -59.52)"></path><g id="Groupe_11293" data-name="Groupe 11293"><rect id="Rectangle_3374" data-name="Rectangle 3374" class="cls-2" x="419.01" y="350.5" width="51.37" height="58.46"></rect><rect id="Rectangle_3375" data-name="Rectangle 3375" class="cls-27" x="390.47" y="350.5" width="79.9" height="17.14"></rect><rect id="Rectangle_3376" data-name="Rectangle 3376" class="cls-2" x="390.47" y="350.5" width="79.79" height="2.67"></rect><g id="Groupe_11291" data-name="Groupe 11291"><path id="Trac&#xE9;_13346" data-name="Trac&#xE9; 13346" class="cls-21" d="M1273.57,434a69.31,69.31,0,0,1,1.65-15.86c2.1-8.88,4.62-15.11,7-14.09s-1.29,8.76-2.56,15.55c-1.09,5.85-2.18,15.68-2.18,15.68Z" transform="translate(-825.25 -59.52)"></path><path id="Trac&#xE9;_13347" data-name="Trac&#xE9; 13347" class="cls-21" d="M1285.29,437.82a69.22,69.22,0,0,0,8.12-13.72c3.61-8.38,5.3-14.89,2.8-15.48s-4.19,7.8-7.22,14c-2.6,5.35-7.58,13.9-7.58,13.9Z" transform="translate(-825.25 -59.52)"></path></g><g id="Groupe_11292" data-name="Groupe 11292"><path id="Trac&#xE9;_13348" data-name="Trac&#xE9; 13348" class="cls-28" d="M1270,434a69.31,69.31,0,0,0-1.65-15.86c-2.09-8.88-4.61-15.11-7-14.09s1.28,8.76,2.55,15.55c1.09,5.85,2.19,15.68,2.19,15.68Z" transform="translate(-825.25 -59.52)"></path><path id="Trac&#xE9;_13349" data-name="Trac&#xE9; 13349" class="cls-28" d="M1258.26,437.82a69.71,69.71,0,0,1-8.12-13.72c-3.61-8.38-5.3-14.89-2.79-15.48s4.19,7.8,7.21,14c2.61,5.35,7.59,13.9,7.59,13.9Z" transform="translate(-825.25 -59.52)"></path></g><rect id="Rectangle_3377" data-name="Rectangle 3377" class="cls-27" x="425.99" y="374.08" width="38.27" height="28.64"></rect><path id="Trac&#xE9;_13350" data-name="Trac&#xE9; 13350" class="cls-27" d="M1249.49,465.13a1.67,1.67,0,1,1-1.67-1.67,1.66,1.66,0,0,1,1.67,1.67Z" transform="translate(-825.25 -59.52)"></path><circle id="Ellipse_1170" data-name="Ellipse 1170" class="cls-2" cx="394.64" cy="358.37" r="1.67"></circle><path id="Trac&#xE9;_13351" data-name="Trac&#xE9; 13351" class="cls-2" d="M1242.62,417.89a1.67,1.67,0,1,1-1.67-1.66h0A1.67,1.67,0,0,1,1242.62,417.89Z" transform="translate(-825.25 -59.52)"></path><path id="Trac&#xE9;_13352" data-name="Trac&#xE9; 13352" class="cls-27" d="M1293.88,465.13a1.67,1.67,0,1,1-3.33,0,1.67,1.67,0,1,1,3.33,0Z" transform="translate(-825.25 -59.52)"></path></g><path id="Trac&#xE9;_13353" data-name="Trac&#xE9; 13353" class="cls-23" d="M1245.23,307.15s-3.8,1-5.18,2.8c-1.18,1.59-2,5.18-2,5.18l1.88,3.45,4.87.49-1.69,4.82,13.13,6.83S1248.09,316.61,1245.23,307.15Z" transform="translate(-825.25 -59.52)"></path><path id="Trac&#xE9;_13354" data-name="Trac&#xE9; 13354" class="cls-23" d="M1272.74,312.66a9.18,9.18,0,0,1,2.28,4c.39,1.9-.55,6-.55,6l-2.8,2.59-4.35-.87-.47,5.26-13.5,3.37S1265.4,320.32,1272.74,312.66Z" transform="translate(-825.25 -59.52)"></path><rect id="Rectangle_3378" data-name="Rectangle 3378" class="cls-23" x="1212.33" y="366.96" width="82.04" height="5.33" transform="translate(-26.69 1535.14) rotate(-86.06)"></rect><circle id="Ellipse_1171" data-name="Ellipse 1171" class="cls-2" cx="430.57" cy="274.36" r="1.63"></circle><circle id="Ellipse_1172" data-name="Ellipse 1172" class="cls-2" cx="429.43" cy="286.22" r="1.63"></circle><circle id="Ellipse_1173" data-name="Ellipse 1173" class="cls-2" cx="428.9" cy="298.64" r="1.63"></circle><circle id="Ellipse_1174" data-name="Ellipse 1174" class="cls-2" cx="427.95" cy="312.39" r="1.63"></circle><circle id="Ellipse_1175" data-name="Ellipse 1175" class="cls-2" cx="427.09" cy="324.82" r="1.63"></circle></g><path id="Trac&#xE9;_13355" data-name="Trac&#xE9; 13355" class="cls-2" d="M1336.84,292.45h6.37l4.17-3.18" transform="translate(-825.25 -59.52)"></path></g></g></g></svg>