<svg xmlns="http://www.w3.org/2000/svg" id="Calque_1" data-name="Calque 1" viewBox="0 0 569.83 646.14"><defs><style>.cls-1{fill:#2e3533;}.cls-2{fill:#e2e8ed;}.cls-3{fill:#aaafb2;}.cls-4{fill:#8da8ba;}.cls-5{fill:#dfe5ea;}.cls-6{fill:#19a580;}.cls-7{fill:#63bebc;}.cls-8{fill:#3db49f;}.cls-9{fill:#859daa;}.cls-10{fill:#262626;}.cls-11{fill:#3b3a3b;}.cls-12{fill:#738891;}.cls-13{isolation:isolate;}.cls-14{fill:#bdc3c7;}.cls-15{fill:#8b9697;}.cls-16{fill:#ecf0f1;}.cls-17{fill:#d1d3d4;}.cls-18{fill:#f1f2f2;}.cls-19{fill:#e6e7e8;}.cls-20{fill:#aababd;}.cls-21{fill:#2b2b2b;}.cls-22{fill:#231f20;}.cls-23{fill:#141414;}.cls-24{fill:#5a5b5c;}.cls-25{fill:#575859;}.cls-26{fill:#c14530;}.cls-27{fill:#d54d30;}.cls-28{fill:#3c3c3c;}.cls-29{fill:#b9c0c6;}.cls-30{fill:#d7dfe7;}.cls-31{fill:#300901;}.cls-32{fill:#662619;}.cls-33{fill:#00abc5;}.cls-34{fill:#79c8d8;}.cls-35{fill:#2d2d2d;}.cls-36{fill:#fff;}.cls-37{fill:#232323;}.cls-38{fill:#ea6811;}.cls-39{fill:#5c5b5c;}.cls-40{fill:#00aac1;}</style></defs><path class="cls-1" d="M1476.53,460.14l8.63-.36s10-2.58,3.22-11.72c-5.08-6.82-4.33-9.41-7.1-14.75-1.66-3.22-13.63-1-13.63-1s1.74,10.4.8,13.91C1464.36,461.52,1476.53,460.14,1476.53,460.14Z" transform="translate(-1013.77 -46.86)"></path><path class="cls-2" d="M1464.14,252.38c4.37,8.36,7.73,13.42,11.42,39.89,1.62,11.7,1,46.47,3.35,55.9,11.34,46.17,8.81,92.17,8.81,92.17l-22,1.27c-20.07-92.95-18.53-93.87-16.89-87.8-1.58-5.88-10.25-47.81-10.25-47.81l-17.12-45.74Z" transform="translate(-1013.77 -46.86)"></path><path class="cls-1" d="M1425.66,433.15c-1.34,5.84-7.28,10.87-11.6,12.39s-9.65,4.5-8.1,10.27,12.92,3,12.92,3,14.2-4.89,18.54-5,4.14-12.16,2.59-17.94S1425.66,433.15,1425.66,433.15Z" transform="translate(-1013.77 -46.86)"></path><path class="cls-3" d="M1412.57,367.19c7.66,36.21,4.48,74.54,4.48,74.54l25.37-1.23c4.32-48.13,2.42-61.17.35-82.17-1.21-12.32,3.66-.49-.77-36.65,0,0,3.4,31,4.55,37,11.78,60.92,17.52,83.37,17.52,83.37l19.5-1.74c-1.32-11.18-8.1-72.39-13.66-95.25-3.17-13.05,1.52-51.51-14.46-80.41l-47.34,6.88S1408.68,348.8,1412.57,367.19Z" transform="translate(-1013.77 -46.86)"></path><path class="cls-4" d="M1242.2,337a38.05,38.05,0,0,1,18.46-33.3l67.46-40.53,1.5,85.57,15.45,5.8-13,135-22-12.2-44.32-24.23L1244,440.91h0Z" transform="translate(-1013.77 -46.86)"></path><path class="cls-5" d="M1247,317.8l88,48.76,81.16-54.7-88.07-48.65-67.46,40.53A38.1,38.1,0,0,0,1247,317.8Z" transform="translate(-1013.77 -46.86)"></path><path class="cls-6" d="M1281.08,209l1.84,105.29,50,28.2-.92-57.71.86-.5-1.27-40.45.57.43L1373,195.87l-20-11.29-16.57-9.32-11.64-6.55h0c-4.34-3.23-11.18-2.9-18.8,1.7l-2.1,1.25c-8.82,5.3-16.4,14.9-20.19,24.58A34.27,34.27,0,0,0,1281.08,209Z" transform="translate(-1013.77 -46.86)"></path><path class="cls-7" d="M1356,198.61l-2.09,1.26c-12.82,7.69-23,24.43-22.79,37.37l1.84,105.29,49.94-30-3.31-104.87C1379.08,195,1368.59,191,1356,198.61Z" transform="translate(-1013.77 -46.86)"></path><path class="cls-8" d="M1297.36,218.25l.36,20.39,16.47,9.1-.35-19.7a29.43,29.43,0,0,1,.94-7.7c.12-.55.29-1.13.46-1.72s.31-1,.5-1.47a35.19,35.19,0,0,1,2-4.93c.19-.43.41-.86.62-1.28a52.38,52.38,0,0,1,2.85-4.92,49.63,49.63,0,0,1,15.4-15.34l.59-.34,1.5-.92a33.07,33.07,0,0,1,5.37-2.12s0,0,0,0c2.39-.82,5-1.6,6.86-2.12l.29-.12,1.73-.45-12.41-7-4.17-2.35a22.5,22.5,0,0,0-3,.32,11.18,11.18,0,0,0-1.33.27c-.65.12-1.29.26-1.91.41a31.48,31.48,0,0,0-7.93,3.36l-1.23.74-.86.5a46.2,46.2,0,0,0-10.48,8.9,53.6,53.6,0,0,0-5.91,8,47.61,47.61,0,0,0-4.4,9.34c-.19.49-.34,1-.51,1.45s-.23.81-.33,1.21A30.72,30.72,0,0,0,1297.36,218.25Z" transform="translate(-1013.77 -46.86)"></path><path class="cls-9" d="M1418.39,437.69l-2.2-125.84-67.46,40.53a38.1,38.1,0,0,0-18.47,33.32l1.82,103.85Z" transform="translate(-1013.77 -46.86)"></path><polygon class="cls-9" points="292.75 396.18 281.89 402.54 281.03 353.21 292.11 359.27 292.75 396.18"></polygon><polygon class="cls-10" points="303.39 401.68 292.75 396.18 292.11 359.27 302.75 365.09 303.39 401.68"></polygon><polygon class="cls-9" points="303.39 401.68 303.62 414.76 281.89 402.54 292.75 396.18 303.39 401.68"></polygon><polygon class="cls-9" points="249.89 373.86 239.03 380.21 238.17 330.88 249.24 336.94 249.89 373.86"></polygon><polygon class="cls-10" points="260.52 379.35 249.89 373.86 249.24 336.94 259.88 342.76 260.52 379.35"></polygon><polygon class="cls-9" points="260.52 379.35 260.75 392.43 239.03 380.21 249.89 373.86 260.52 379.35"></polygon><path class="cls-11" d="M1340.51,188.56c1.51-2.95,2.9-5.82,4.21-8.64,37.4-78.94,16.53-105.4.18-114.19-18.31-9.84-41-4.3-42.88-1l-3.85-2.19c3.78-6.65,29.31-11.22,48.85-.74,17.72,9.58,40.75,37.79,1.59,120.31-.67,1.45-1.39,2.9-2.1,4.4Z" transform="translate(-1013.77 -46.86)"></path><path class="cls-4" d="M1271.94,84.89l37.74,104.88,8.07,22.45c.19-.43.41-.86.62-1.28a52.38,52.38,0,0,1,2.85-4.92,49.63,49.63,0,0,1,15.4-15.34l.59-.34,1.5-.92a33.07,33.07,0,0,1,5.37-2.12l-3.49-9.68-37.41-104Z" transform="translate(-1013.77 -46.86)"></path><path class="cls-12" d="M1353.17,443.53l-1-59.28L1403,353.71l1,59.28Zm1.21-58,.95,54.15,46.42-27.89-1-54.15Z" transform="translate(-1013.77 -46.86)"></path><g class="cls-13"><path class="cls-10" d="M1363.81,390.81l-.17.11-.08.06,0,0-.06,0-.16.13-.17.14h0l-.16.14-.16.15-.06.06,0,0-.08.07-.16.17-.12.12,0,0,0,0-.15.17-.15.18,0,0,0,0-.1.11-.13.18-.09.13h0l0,0-.13.18-.13.21,0,0,0,0-.1.17-.12.22-.07.11,0,.05a1.74,1.74,0,0,0-.1.19l-.15.29,0,0-.19.43h0l-.12.29-.08.24h0a2.25,2.25,0,0,1-.08.24c0,.07,0,.15-.07.23a.06.06,0,0,1,0,0v0c0,.06,0,.11,0,.16l-.06.25s0,.05,0,.07,0,0,0,.06l0,.12c0,.08,0,.16,0,.24a.45.45,0,0,0,0,.11.13.13,0,0,0,0,.06.19.19,0,0,0,0,.08l0,.23a.91.91,0,0,0,0,.17s0,0,0,0h0c0,.09,0,.16,0,.23v.26a.76.76,0,0,0,0,.15,1.27,1.27,0,0,0,0,.2s0,.08,0,.12v.07c0,.06,0,.12,0,.18a1.16,1.16,0,0,0,0,.18v.05l0,.13a1.09,1.09,0,0,0,0,.17.19.19,0,0,0,0,.08v0s0,0,0,0l.07.18,0,.1,0,0s0,0,0,0a1,1,0,0,0,.1.17.18.18,0,0,0,.05.07l0,.06a.21.21,0,0,1,0,.06c0,.06.1.13.16.19h0s0,0,0,0l.18.17h0a2.61,2.61,0,0,0,.3.2l1.56.86a3.13,3.13,0,0,1-.3-.2l-.2-.19,0,0a2.48,2.48,0,0,1-.19-.26l0,0a2.54,2.54,0,0,1-.16-.28l0,0a2.52,2.52,0,0,1-.13-.33,0,0,0,0,1,0,0c0-.12-.08-.25-.11-.38h0c0-.15,0-.29-.07-.44v0a3.64,3.64,0,0,1,0-.48,4.21,4.21,0,0,1,0-.5v0c0-.16,0-.32,0-.48v-.05c0-.16,0-.32.08-.47a.13.13,0,0,0,0-.06c0-.16.08-.32.13-.48s0,0,0,0c0-.18.1-.35.16-.52h0c.06-.17.13-.35.2-.52h0a5,5,0,0,1,.21-.48c0-.09.09-.19.14-.28s.08-.16.13-.24l.06-.11c.07-.13.15-.26.23-.39s0,0,0,0,.2-.3.3-.45l0,0,.32-.42,0,0c.11-.14.23-.28.35-.41l0,0a4,4,0,0,1,.35-.36l0,0,.38-.34h0c.13-.11.26-.22.39-.31l0,0,.41-.27.41-.22,0,0c.12-.05.24-.11.37-.15l0,0,.35-.1.07,0,.32,0h0a2.11,2.11,0,0,1,.35,0,2.42,2.42,0,0,1,.47.07l.1,0a2.63,2.63,0,0,1,.42.17l-1.55-.85a1.68,1.68,0,0,0-.42-.17l-.11,0a2.32,2.32,0,0,0-.46-.06h0a1.85,1.85,0,0,0-.33,0h0l-.21,0-.11,0h-.06l-.06,0-.21.06-.08,0h0l-.07,0-.19.08-.11.05,0,0,0,0-.18.09a1.51,1.51,0,0,0-.17.1h0Z" transform="translate(-1013.77 -46.86)"></path><path class="cls-11" d="M1361.43,399a9.3,9.3,0,0,1,4.1-7.4c2.31-1.38,4.23-.31,4.27,2.4a9.35,9.35,0,0,1-4.1,7.41C1363.39,402.75,1361.47,401.67,1361.43,399Z" transform="translate(-1013.77 -46.86)"></path></g><g class="cls-13"><path class="cls-10" d="M1376.69,382.34l-.17.12-.07.05,0,0-.06,0-.16.12-.17.14h0l-.15.13a1.29,1.29,0,0,0-.17.16l-.06.05,0,0-.08.07-.16.17a.69.69,0,0,0-.11.13,0,0,0,0,0,0,0l0,0-.15.18a1.15,1.15,0,0,0-.14.17l0,0,0,0-.09.12s-.09.11-.14.17l-.09.13,0,0,0,0-.12.19-.14.21,0,0,0,0-.1.17-.12.22-.07.11,0,0a1.86,1.86,0,0,0-.1.2l-.15.28s0,0,0,.05-.13.28-.19.42h0a2.49,2.49,0,0,0-.11.29l-.09.23h0a2.25,2.25,0,0,0-.08.24,2.17,2.17,0,0,0-.07.24l0,0a.09.09,0,0,1,0,.05l0,.16-.06.24,0,.08s0,0,0,.06a.36.36,0,0,0,0,.11c0,.08,0,.17-.05.25s0,.07,0,.11a.07.07,0,0,0,0,.05.22.22,0,0,0,0,.08l0,.23c0,.06,0,.11,0,.17v.05a1.77,1.77,0,0,1,0,.23v.26c0,.05,0,.1,0,.15s0,.13,0,.19,0,.09,0,.13a0,0,0,0,0,0,0v0l0,.19,0,.18v.05l0,.12a1.21,1.21,0,0,0,0,.18s0,.05,0,.08l0,0v.06a1.22,1.22,0,0,1,.07.17l0,.1s0,0,0,0v0l.1.18,0,.07a.1.1,0,0,0,0,0l0,.06c.05.07.11.13.16.19h0l0,0,.18.17h0a1.61,1.61,0,0,0,.3.21l1.55.85a2,2,0,0,1-.3-.2l-.2-.18,0,0a2.43,2.43,0,0,1-.2-.25l0-.06a1.87,1.87,0,0,1-.16-.28v0c-.05-.11-.1-.22-.14-.33s0,0,0,0-.08-.24-.11-.37v0c0-.13-.05-.28-.07-.43v0a3.59,3.59,0,0,1,0-.47,4.17,4.17,0,0,1,0-.5v0c0-.16,0-.32,0-.48s0,0,0-.06a4.3,4.3,0,0,1,.09-.47.13.13,0,0,1,0-.06,4.21,4.21,0,0,1,.12-.48v0c.05-.17.1-.35.16-.52h0c.07-.18.13-.35.21-.53h0a4.84,4.84,0,0,1,.21-.47c0-.1.09-.19.14-.29s.08-.16.13-.24l.06-.11c.08-.13.15-.26.23-.38l0,0q.13-.23.3-.45v0c.11-.14.21-.29.32-.42l0,0,.35-.4,0,0,.35-.36,0,0,.37-.35h0l.4-.31,0,0a4.81,4.81,0,0,1,.41-.27,3.32,3.32,0,0,1,.41-.22l0,0,.37-.16h0l.35-.11h.06l.32-.05h0a2,2,0,0,1,.35,0,2.32,2.32,0,0,1,.46.06l.1,0a1.54,1.54,0,0,1,.42.17l-1.55-.86a2.63,2.63,0,0,0-.42-.17l-.11,0a3.2,3.2,0,0,0-.46-.06h-.38l-.22,0-.1,0-.07,0H1378l-.21.06-.08,0,0,0-.07,0-.19.07-.1.05,0,0,0,0-.17.09-.18.1h0Z" transform="translate(-1013.77 -46.86)"></path><path class="cls-11" d="M1374.31,390.5a9.31,9.31,0,0,1,4.1-7.4c2.32-1.38,4.23-.31,4.27,2.4a9.29,9.29,0,0,1-4.1,7.4C1376.27,394.28,1374.36,393.21,1374.31,390.5Z" transform="translate(-1013.77 -46.86)"></path></g><g class="cls-13"><path class="cls-10" d="M1389.89,374.41l-.17.11-.07.06,0,0-.06,0-.16.13-.17.14h0l-.15.14-.17.15-.06.06,0,0-.07.07-.17.17-.11.12,0,0,0,0-.16.17-.14.18,0,0,0,0-.09.11-.13.18a1.13,1.13,0,0,0-.1.13l0,0v0a1.27,1.27,0,0,0-.13.19c0,.06-.09.13-.14.2l0,0,0,.05c0,.05-.07.11-.11.17l-.12.21-.07.11s0,0,0,0a1.74,1.74,0,0,0-.1.19l-.15.29s0,0,0,.05l-.19.42h0c0,.1-.08.2-.11.29l-.09.24h0a2.25,2.25,0,0,0-.08.24,1.55,1.55,0,0,0-.07.23.06.06,0,0,0,0,0l0,0c0,.06,0,.11,0,.16l-.06.25s0,0,0,.07a.13.13,0,0,1,0,.06.5.5,0,0,0,0,.12c0,.08,0,.16,0,.24s0,.08,0,.11,0,0,0,.06,0,.05,0,.08l0,.23c0,.06,0,.11,0,.17v0a0,0,0,0,1,0,0v.21a1.48,1.48,0,0,0,0,.21.09.09,0,0,0,0,0v.16c0,.06,0,.13,0,.19a.49.49,0,0,1,0,.12v.07l0,.18,0,.18a0,0,0,0,0,0,0v0l0,.13a.84.84,0,0,0,.05.17l0,.08v.09a1.34,1.34,0,0,1,.07.18.31.31,0,0,1,0,.1l0,0v0l.1.17,0,.07,0,.06,0,.06.16.19h0l0,0,.18.17h0a1.21,1.21,0,0,0,.3.2l1.55.86-.3-.2-.19-.19,0,0a2.56,2.56,0,0,1-.2-.26l0-.05c0-.09-.11-.18-.16-.28v0a2.52,2.52,0,0,1-.14-.33v0c0-.12-.07-.25-.1-.38h0c0-.15,0-.29-.07-.44v0a3.59,3.59,0,0,1,0-.47c0-.17,0-.34,0-.51v0c0-.16,0-.32,0-.48a.09.09,0,0,0,0-.05,3.55,3.55,0,0,1,.09-.47.13.13,0,0,1,0-.06,4.21,4.21,0,0,1,.12-.48v0c0-.18.1-.35.16-.52h0c.07-.17.13-.35.21-.52h0c.06-.16.14-.32.21-.47s.09-.2.14-.29.08-.16.13-.24l.06-.11.23-.39,0,0q.13-.23.3-.45s0,0,0,0,.2-.28.31-.41l0,0c.12-.14.23-.28.35-.41l0,0c.12-.13.23-.25.35-.36s0,0,0,0,.25-.23.38-.34h0a3.9,3.9,0,0,1,.4-.31l0,0,.41-.27.41-.22,0,0,.37-.15,0,0,.35-.1h.06l.32-.06h0a2.06,2.06,0,0,1,.35,0,2.32,2.32,0,0,1,.46.07l.11,0a3,3,0,0,1,.41.17L1393,374a1.54,1.54,0,0,0-.42-.17l-.11,0a2.22,2.22,0,0,0-.46-.06h0a2,2,0,0,0-.34,0h0l-.22,0-.1,0h-.07l-.06,0-.21.06-.08,0-.05,0-.07,0-.19.08-.1.05,0,0,0,0-.17.09-.18.1h0Z" transform="translate(-1013.77 -46.86)"></path><path class="cls-11" d="M1387.51,382.57a9.35,9.35,0,0,1,4.1-7.41c2.32-1.38,4.23-.3,4.28,2.4a9.36,9.36,0,0,1-4.11,7.41C1389.47,386.35,1387.56,385.27,1387.51,382.57Z" transform="translate(-1013.77 -46.86)"></path></g><path class="cls-5" d="M1355,236.52a13.79,13.79,0,0,0,1.18,5.71,7.93,7.93,0,0,0,2.77,3.35l.35.21c2.67,1.57,6.37,1.32,10.41-1.12,8-4.78,14.29-16.2,14.13-25.48-.08-4.78-1.84-8.05-4.63-9.45a7.63,7.63,0,0,0-4.43-.77,14.22,14.22,0,0,0-5.66,2.05,30,30,0,0,0-10.23,11.3,31.5,31.5,0,0,0-3.72,11.16A21,21,0,0,0,1355,236.52Z" transform="translate(-1013.77 -46.86)"></path><path class="cls-11" d="M1361.34,232.69a7.72,7.72,0,0,0,.66,3.19,4.33,4.33,0,0,0,1.55,1.87l.19.12c1.49.88,3.55.73,5.81-.63,4.45-2.67,8-9,7.89-14.22,0-2.67-1-4.49-2.59-5.28a4.19,4.19,0,0,0-2.47-.42,7.8,7.8,0,0,0-3.16,1.14,16.79,16.79,0,0,0-5.71,6.31,17.55,17.55,0,0,0-2.07,6.23A10.79,10.79,0,0,0,1361.34,232.69Z" transform="translate(-1013.77 -46.86)"></path><path class="cls-4" d="M1347.09,232c.08,4.54,1.71,7.74,4.27,9.24l.68.37,6.88,3.93a7.93,7.93,0,0,1-2.77-3.35,13.79,13.79,0,0,1-1.18-5.71,21,21,0,0,1,.17-3,31.5,31.5,0,0,1,3.72-11.16,30,30,0,0,1,10.23-11.3,14.22,14.22,0,0,1,5.66-2.05,7.63,7.63,0,0,1,4.43.77L1372.5,206l-2.06-1.15c-2.54-.89-5.74-.42-9.22,1.67a32.11,32.11,0,0,0-14.13,25.5Z" transform="translate(-1013.77 -46.86)"></path><path class="cls-5" d="M1269.72,79a13.82,13.82,0,0,0,1.19,5.71,7.85,7.85,0,0,0,2.77,3.35l.35.2c2.66,1.58,6.36,1.32,10.41-1.12,8-4.78,14.29-16.2,14.13-25.48-.09-4.77-1.84-8-4.64-9.45a7.67,7.67,0,0,0-4.42-.76,14,14,0,0,0-5.66,2.05,29.89,29.89,0,0,0-10.23,11.29,31.28,31.28,0,0,0-3.72,11.17A19.6,19.6,0,0,0,1269.72,79Z" transform="translate(-1013.77 -46.86)"></path><path class="cls-4" d="M1261.85,74.46c.08,4.55,1.7,7.75,4.27,9.25l.67.37,6.89,3.93a7.85,7.85,0,0,1-2.77-3.35,13.82,13.82,0,0,1-1.19-5.71,19.6,19.6,0,0,1,.18-3,31.28,31.28,0,0,1,3.72-11.17,29.89,29.89,0,0,1,10.23-11.29,14,14,0,0,1,5.66-2.05,7.67,7.67,0,0,1,4.42.76l-6.67-3.72-2.07-1.15c-2.53-.89-5.74-.41-9.21,1.67a30,30,0,0,0-10.4,11.57A29.53,29.53,0,0,0,1261.85,74.46Z" transform="translate(-1013.77 -46.86)"></path><path class="cls-11" d="M1269.58,79.14a10.58,10.58,0,0,1-.58-3.31,15.77,15.77,0,0,1,.13-2.25,23.18,23.18,0,0,1,2.75-8.24,22.13,22.13,0,0,1,7.55-8.34,10.24,10.24,0,0,1,4.18-1.51,5.59,5.59,0,0,1,3.27.56,5.34,5.34,0,0,1,1.46,1.1l33.52,18.49-86.55,116.7-38.19-20.47Z" transform="translate(-1013.77 -46.86)"></path><path class="cls-5" d="M1302.83,97.19a14,14,0,0,0,1.19,5.71,7.79,7.79,0,0,0,2.77,3.35l.35.2c2.66,1.58,6.36,1.32,10.41-1.12,8-4.78,14.29-16.2,14.13-25.48-.09-4.77-1.84-8-4.64-9.45a7.67,7.67,0,0,0-4.42-.76,14,14,0,0,0-5.66,2A29.89,29.89,0,0,0,1306.73,83,31.28,31.28,0,0,0,1303,94.15,19.6,19.6,0,0,0,1302.83,97.19Z" transform="translate(-1013.77 -46.86)"></path><path class="cls-11" d="M1309.2,93.36a7.72,7.72,0,0,0,.67,3.19,4.43,4.43,0,0,0,1.54,1.87l.2.11c1.48.88,3.55.74,5.81-.62,4.44-2.67,8-9,7.88-14.23,0-2.66-1-4.49-2.58-5.27a4.29,4.29,0,0,0-2.47-.43,7.83,7.83,0,0,0-3.16,1.15,16.59,16.59,0,0,0-5.71,6.3,17.44,17.44,0,0,0-2.08,6.23A12.39,12.39,0,0,0,1309.2,93.36Z" transform="translate(-1013.77 -46.86)"></path><path class="cls-4" d="M1295,92.7c.08,4.55,1.7,7.75,4.27,9.25l.67.37,6.89,3.93a7.79,7.79,0,0,1-2.77-3.35,14,14,0,0,1-1.19-5.71,19.6,19.6,0,0,1,.18-3A31.28,31.28,0,0,1,1306.73,83,29.89,29.89,0,0,1,1317,71.69a14,14,0,0,1,5.66-2,7.67,7.67,0,0,1,4.42.76l-6.67-3.72-2.07-1.15c-2.53-.89-5.73-.41-9.21,1.67a30,30,0,0,0-10.4,11.57A29.53,29.53,0,0,0,1295,92.7Z" transform="translate(-1013.77 -46.86)"></path><path class="cls-8" d="M1185.73,169.7l4.83-4.79.06,0a12.65,12.65,0,0,1,5.49-2.87,22.7,22.7,0,0,1,9.71,0c7.48,1.45,15.28,5.73,21.76,11.44a50.85,50.85,0,0,1,11.83,14.84,35.92,35.92,0,0,1,1.95,4.51,22.39,22.39,0,0,1,1.36,9.31,12.61,12.61,0,0,1-2.33,6.61l-.42.51a11.61,11.61,0,0,1-1.63,1.58l-2.84,2.9-.26-1.07c-3.1,1.26-7,1.56-11.66.66-14.7-2.83-30.63-16.61-35.53-30.76-1.62-4.68-1.83-8.79-.87-12.11Z" transform="translate(-1013.77 -46.86)"></path><path class="cls-6" d="M1237.26,196.85a22.34,22.34,0,0,1,1.37,9.3,12.77,12.77,0,0,1-2.34,6.62l-.42.5c-3.16,3.86-8.91,5.53-16.39,4.08-14.7-2.83-30.63-16.62-35.53-30.77-2.52-7.28-1.67-13.21,1.78-16.88a12.23,12.23,0,0,1,6.29-3.61,22.48,22.48,0,0,1,9.7,0c7.48,1.45,15.28,5.73,21.76,11.44a50.88,50.88,0,0,1,11.83,14.85A33.38,33.38,0,0,1,1237.26,196.85Z" transform="translate(-1013.77 -46.86)"></path><path class="cls-4" d="M1170.61,220.4l25.39-36c1.28-2.46,4.24-3.7,8.36-3,7.13,1.15,15,7.56,17.55,14.31,1.29,3.41,1,6.25-.54,8.08l-26.13,36.91Z" transform="translate(-1013.77 -46.86)"></path><path class="cls-5" d="M1168.73,226l.06,0c-.55-5,3-8.09,9-7.11,7.12,1.15,15,7.56,17.54,14.31,1.83,4.83.46,8.51-3.07,9.8-.91.33-23.13,5.94-23.13,5.94Z" transform="translate(-1013.77 -46.86)"></path><path class="cls-11" d="M1161.53,332h-.1a3.82,3.82,0,0,1-3.79-3.85l.46-52a49.23,49.23,0,0,1,4.83-20.74l6.55-13.63a3.82,3.82,0,0,1,6.88,3.31l-6.55,13.63a41.45,41.45,0,0,0-4.07,17.5l-.46,52A3.82,3.82,0,0,1,1161.53,332Z" transform="translate(-1013.77 -46.86)"></path><path class="cls-11" d="M1237.11,182.09h-.56l0-2.23a54.52,54.52,0,0,0,35.55-15.41c13.76-13.54,20.73-34.58,20.71-62.52h2.23c0,28.58-7.19,50.16-21.42,64.13A55.85,55.85,0,0,1,1237.11,182.09Z" transform="translate(-1013.77 -46.86)"></path><g class="cls-13"><polygon class="cls-14" points="94.28 371.69 87.64 367.99 88.56 410.33 95.2 414.03 94.28 371.69"></polygon><polygon class="cls-14" points="94.18 366.63 87.54 362.93 87.64 367.99 94.28 371.69 94.18 366.63"></polygon><polygon class="cls-14" points="93.68 341.89 87.04 338.19 87.54 362.93 94.18 366.63 93.68 341.89"></polygon><polygon class="cls-14" points="94.18 366.63 87.54 362.93 17 405.32 23.63 409.03 94.18 366.63"></polygon><polygon class="cls-14" points="23.63 409.03 17 405.32 17.1 410.38 23.74 414.08 23.63 409.03"></polygon><polygon class="cls-4" points="23.63 409.03 23.74 414.08 94.28 371.69 94.18 366.63 23.63 409.03"></polygon><polygon class="cls-5" points="18.66 381.85 12.02 378.15 13.65 455.34 20.29 459.05 18.66 381.85"></polygon><polygon class="cls-4" points="18.66 381.85 20.29 459.05 24.66 456.42 23.74 414.08 23.63 409.03 23.13 384.28 93.68 341.89 94.18 366.63 94.28 371.69 95.2 414.03 99.56 411.41 97.93 334.21 18.66 381.85"></polygon><polygon class="cls-14" points="97.93 334.21 91.29 330.51 12.02 378.15 18.66 381.85 97.93 334.21"></polygon></g><g class="cls-13"><polygon class="cls-14" points="206.62 434.5 199.98 430.8 200.9 473.14 207.54 476.84 206.62 434.5"></polygon><polygon class="cls-14" points="206.51 429.44 199.88 425.74 199.98 430.8 206.62 434.5 206.51 429.44"></polygon><polygon class="cls-14" points="206.01 404.7 199.38 401 199.88 425.74 206.51 429.44 206.01 404.7"></polygon><polygon class="cls-14" points="206.51 429.44 199.88 425.74 129.33 468.13 135.97 471.84 206.51 429.44"></polygon><polygon class="cls-14" points="135.97 471.84 129.33 468.13 129.44 473.19 136.07 476.89 135.97 471.84"></polygon><polygon class="cls-4" points="135.97 471.84 136.07 476.89 206.62 434.5 206.51 429.44 135.97 471.84"></polygon><polygon class="cls-5" points="130.99 444.66 124.36 440.96 125.98 518.15 132.62 521.86 130.99 444.66"></polygon><polygon class="cls-4" points="130.99 444.66 132.62 521.86 136.99 519.23 136.07 476.89 135.97 471.84 135.47 447.09 206.01 404.7 206.51 429.44 206.62 434.5 207.54 476.84 211.89 474.22 210.27 397.02 130.99 444.66"></polygon><polygon class="cls-14" points="210.27 397.02 203.63 393.32 124.36 440.96 130.99 444.66 210.27 397.02"></polygon></g><g class="cls-13"><polygon class="cls-14" points="319.94 495.94 313.31 492.24 314.23 534.58 320.86 538.28 319.94 495.94"></polygon><polygon class="cls-14" points="319.84 490.88 313.21 487.18 313.31 492.24 319.94 495.94 319.84 490.88"></polygon><polygon class="cls-14" points="319.34 466.14 312.7 462.44 313.21 487.18 319.84 490.88 319.34 466.14"></polygon><polygon class="cls-14" points="319.84 490.88 313.21 487.18 242.66 529.57 249.3 533.27 319.84 490.88"></polygon><polygon class="cls-14" points="249.3 533.27 242.66 529.57 242.76 534.63 249.4 538.33 249.3 533.27"></polygon><polygon class="cls-4" points="249.3 533.27 249.4 538.33 319.94 495.94 319.84 490.88 249.3 533.27"></polygon><polygon class="cls-5" points="244.32 506.1 237.69 502.39 239.31 579.59 245.95 583.29 244.32 506.1"></polygon><polygon class="cls-4" points="244.32 506.1 245.95 583.29 250.32 580.67 249.4 538.33 249.3 533.27 248.79 508.53 319.34 466.14 319.84 490.88 319.94 495.94 320.86 538.28 325.22 535.66 323.59 458.46 244.32 506.1"></polygon><polygon class="cls-14" points="323.59 458.46 316.96 454.76 237.69 502.39 244.32 506.1 323.59 458.46"></polygon></g><g class="cls-13"><polygon class="cls-14" points="433.02 558.78 426.39 555.08 427.31 597.42 433.94 601.12 433.02 558.78"></polygon><polygon class="cls-14" points="432.92 553.72 426.29 550.02 426.39 555.08 433.02 558.78 432.92 553.72"></polygon><polygon class="cls-14" points="432.42 528.98 425.78 525.28 426.29 550.02 432.92 553.72 432.42 528.98"></polygon><polygon class="cls-14" points="432.92 553.72 426.29 550.02 355.74 592.41 362.38 596.12 432.92 553.72"></polygon><polygon class="cls-14" points="362.38 596.12 355.74 592.41 355.84 597.47 362.48 601.17 362.38 596.12"></polygon><polygon class="cls-4" points="362.38 596.12 362.48 601.17 433.02 558.78 432.92 553.72 362.38 596.12"></polygon><polygon class="cls-5" points="357.4 568.94 350.77 565.24 352.39 642.43 359.03 646.14 357.4 568.94"></polygon><polygon class="cls-4" points="357.4 568.94 359.03 646.14 363.4 643.51 362.48 601.17 362.38 596.12 361.87 571.37 432.42 528.98 432.92 553.72 433.02 558.78 433.94 601.12 438.3 598.5 436.67 521.3 357.4 568.94"></polygon><polygon class="cls-14" points="436.67 521.3 430.04 517.6 350.77 565.24 357.4 568.94 436.67 521.3"></polygon></g><g class="cls-13"><polygon class="cls-5" points="363.7 590.93 463.4 530.64 99.7 330.7 0 391 363.7 590.93"></polygon><polygon class="cls-4" points="363.81 596.77 463.51 536.47 463.4 530.64 363.7 590.93 363.81 596.77"></polygon><polygon class="cls-4" points="363.7 590.93 0 391 0.11 396.84 363.81 596.77 363.7 590.93"></polygon></g><g class="cls-13"><path class="cls-10" d="M1018.45,424.71c0-.17,0-.34-.05-.5s0-.24,0-.36c0-.37-.05-.75-.06-1.11,0-3.35,1.06-5.69,2.89-6.8l85.74-53.57c-1.83,1.11-2.94,3.45-2.89,6.8,0,.36,0,.74.06,1.11,0,.12,0,.24.05.36s.06.48.1.72.09.53.15.8.07.37.12.56.09.34.13.51.13.48.21.72.09.28.13.41.19.54.29.81l.12.33c.15.37.3.74.47,1.1l.06.13c.15.33.31.65.48,1l.16.3c.16.31.33.61.51.91l.1.17c.21.35.43.69.66,1,.06.1.13.19.2.29s.34.48.51.71.19.26.29.38.31.39.47.58l.4.47.39.43.69.71.44.42.34.31c.19.17.39.33.59.49l.34.28.65.47.31.21a11,11,0,0,0,1,.6l346.71,191.25c.31.17.62.32.92.46l.24.11.5.19c.25.09.48.16.72.23l.44.12.42.08.53.07.3,0a4.58,4.58,0,0,0,.64,0h.15a6,6,0,0,0,.74-.1l.18,0a3.86,3.86,0,0,0,.55-.17l.17-.06a4.41,4.41,0,0,0,.65-.33h0l-85.74,53.58,0,0a4.66,4.66,0,0,1-.5.25l-.1,0-.17.06-.26.1-.29.07-.18.05-.09,0a4.07,4.07,0,0,1-.61.08h-.66l-.17,0-.3,0-.28,0-.25,0-.42-.08-.21,0a1.55,1.55,0,0,1-.23-.07c-.24-.07-.47-.14-.72-.23l-.24-.08-.26-.11-.24-.11c-.3-.14-.61-.28-.92-.46L1028.68,440a11,11,0,0,1-1-.6,3.37,3.37,0,0,1-.31-.21l-.65-.47-.34-.28c-.2-.16-.4-.32-.59-.49l-.34-.31-.22-.19a2.39,2.39,0,0,0-.22-.23l-.69-.71-.21-.22-.18-.21c-.14-.15-.27-.31-.4-.47s-.18-.2-.26-.31l-.21-.27c-.1-.12-.19-.25-.29-.38s-.13-.16-.19-.25l-.32-.46c-.07-.1-.14-.19-.2-.29l-.09-.12c-.18-.28-.36-.56-.53-.85l0-.06-.1-.17-.36-.61-.15-.29c-.05-.1-.11-.2-.16-.31l-.14-.26c-.12-.23-.23-.47-.34-.7l-.06-.13a.05.05,0,0,0,0,0c-.13-.3-.26-.6-.38-.9,0-.06,0-.11-.07-.17l-.12-.33c-.06-.15-.12-.3-.17-.45l-.12-.35c0-.14-.09-.28-.13-.42l-.09-.26-.12-.46c0-.17-.09-.34-.13-.51a1.8,1.8,0,0,1,0-.19c0-.12-.05-.24-.07-.37s-.11-.53-.15-.8A1.74,1.74,0,0,1,1018.45,424.71Z" transform="translate(-1013.77 -46.86)"></path><g class="cls-13"><polygon class="cls-15" points="147.25 463.59 170.02 449.82 170.67 448.23 147.91 462 147.25 463.59"></polygon><path class="cls-15" d="M1155.83,495.83l22.76-13.77a3.35,3.35,0,0,0-1.34,3.07c0,.28,0,.56.07.84l0,.2c0,.12.05.25.07.38l.06.26.06.24c0,.11.07.22.1.34l.06.19c0,.13.09.26.14.38l.06.16c.07.17.14.35.22.52l0,.06c.07.15.14.31.22.46l.08.14a4.49,4.49,0,0,0,.24.42.41.41,0,0,0,0,.09c.09.16.2.32.3.48l.1.14.24.33.14.18.22.27.19.23.18.2.33.33.16.16c.22.2.44.4.67.57l.13.09a6,6,0,0,0,.75.49,5.48,5.48,0,0,0,.6.29l.19.07.33.11.22.05.19,0,.26,0h.51l.36-.05.08,0a1.12,1.12,0,0,0,.26-.08l.08,0a1.77,1.77,0,0,0,.31-.15l-22.77,13.77,0,0-.24.12h0l-.08,0-.12.05-.14,0-.08,0,0,0-.29,0s0,0,0,0h-.38l-.14,0H1161l-.11,0-.2,0-.11,0-.1,0-.34-.11-.12,0-.07,0c-.2-.09-.4-.18-.6-.29a6.87,6.87,0,0,1-.75-.49l-.12-.09c-.24-.18-.46-.37-.68-.57l-.06,0-.1-.11-.33-.33-.1-.11-.08-.09L1157,505l-.12-.14a1.13,1.13,0,0,1-.1-.13l-.14-.18-.09-.12-.15-.21-.09-.14,0-.05-.26-.4v0a.41.41,0,0,1,0-.09l-.17-.28-.07-.14c0-.05,0-.1-.08-.14l-.06-.13c-.06-.11-.11-.22-.16-.33l0-.06v0l-.18-.42,0-.08-.06-.16a1.8,1.8,0,0,1-.08-.21,1.09,1.09,0,0,1,0-.17,1.46,1.46,0,0,1-.07-.19s0-.08,0-.13,0-.14,0-.21a2.17,2.17,0,0,1-.07-.24s0-.06,0-.09l0-.17c0-.13-.06-.26-.08-.38a.43.43,0,0,0,0-.11v-.09a6.07,6.07,0,0,1-.07-.84A3.32,3.32,0,0,1,1155.83,495.83Z" transform="translate(-1013.77 -46.86)"></path><polygon class="cls-16" points="142.01 447.54 164.78 433.76 162.94 432.44 140.17 446.2 142.01 447.54"></polygon><polygon class="cls-15" points="150.9 463.21 173.67 449.44 175.22 447.17 152.45 460.94 150.9 463.21"></polygon><polygon class="cls-14" points="152.45 460.94 175.22 447.17 174.04 444.88 151.28 458.65 152.45 460.94"></polygon><path class="cls-14" d="M1162,497.37c-.17-.19-.33-.38-.51-.56L1184.26,483c.11.11.21.22.31.34l.2.22a1.46,1.46,0,0,0,.16.19l.09.11c.12.15.24.31.35.47l.06.08-22.77,13.77c-.16-.23-.33-.44-.5-.66C1162.11,497.5,1162.05,497.44,1162,497.37Z" transform="translate(-1013.77 -46.86)"></path><path class="cls-14" d="M1155.78,494.4h0l22.77-13.77.28-.07.22,0h.12a2.29,2.29,0,0,1,.37,0h.15l-22.76,13.77a3.57,3.57,0,0,0-.57,0h-.08A2.77,2.77,0,0,0,1155.78,494.4Z" transform="translate(-1013.77 -46.86)"></path><polygon class="cls-16" points="147.02 447.6 169.78 433.83 166.58 432.06 143.81 445.83 147.02 447.6"></polygon><polygon class="cls-14" points="147.73 449.95 170.5 436.18 169.78 433.83 147.02 447.6 147.73 449.95"></polygon><path class="cls-15" d="M1165.07,504.77a6.81,6.81,0,0,0,0-.78l1.13-1,22.77-13.77-1.13,1c0,.26,0,.52,0,.78s0,.51,0,.74L1165,505.51C1165.06,505.28,1165.07,505,1165.07,504.77Z" transform="translate(-1013.77 -46.86)"></path><polygon class="cls-16" points="150.74 452.06 173.51 438.3 171.67 437.58 148.9 451.35 150.74 452.06"></polygon><polygon class="cls-14" points="152.38 456.1 175.15 442.33 173.51 438.3 150.74 452.06 152.38 456.1"></polygon><path class="cls-14" d="M1159.38,507.05c2.65,1.47,4.77.21,4.73-2.81a10.47,10.47,0,0,0-4.89-8.14c-2.65-1.47-4.78-.21-4.73,2.8a10.49,10.49,0,0,0,4.89,8.15Zm-5.82-9.41-1.18-2.31,1.55-2.26,1.85,1.33a3.31,3.31,0,0,1,1.15-.12l.65-1.59,3.2,1.78.71,2.34a11.37,11.37,0,0,1,1.17,1.41l1.85.71,1.64,4-1.13,1a6.81,6.81,0,0,1,0,.78c0,.26,0,.51,0,.74l1.18,2.3-1.55,2.27-1.85-1.33a3.31,3.31,0,0,1-1.15.11l-.65,1.59-3.21-1.77-.71-2.35a13.34,13.34,0,0,1-1.17-1.4l-1.83-.71-1.65-4.05,1.13-1a7,7,0,0,1,0-.79A5.78,5.78,0,0,1,1153.56,497.64Z" transform="translate(-1013.77 -46.86)"></path></g><g class="cls-13"><polygon class="cls-15" points="162.91 472.54 185.68 458.77 186.33 457.18 163.56 470.94 162.91 472.54"></polygon><path class="cls-15" d="M1171.48,504.77,1194.25,491a3.33,3.33,0,0,0-1.34,3.08,8,8,0,0,0,.07.83l0,.2c0,.13,0,.25.07.38l.06.26.06.24a3.37,3.37,0,0,0,.1.34l.06.2c0,.13.09.25.14.38a1.66,1.66,0,0,0,.06.16c.06.17.14.34.22.52,0,0,0,0,0,.05l.23.46.08.15c.07.14.15.28.23.42a.35.35,0,0,1,.05.08c.1.17.21.33.31.49a1.13,1.13,0,0,0,.1.13,4.15,4.15,0,0,0,.24.34l.13.18.23.27.18.22.19.21.32.33.16.15c.22.21.45.4.68.58l.13.09a8.6,8.6,0,0,0,.74.49,6.5,6.5,0,0,0,.61.28l.18.07.34.11.21.06.2,0,.25,0h.52a2,2,0,0,0,.35-.05l.09,0,.26-.08.08,0a2.2,2.2,0,0,0,.31-.15l-22.77,13.77h0a1,1,0,0,1-.23.12l-.05,0-.08,0-.12,0-.14,0-.09,0h0l-.29,0h-.67l-.12,0-.19,0-.11,0-.11,0-.33-.11-.12,0-.07,0a4.12,4.12,0,0,1-.6-.29,6,6,0,0,1-.75-.48l-.13-.09c-.23-.18-.45-.37-.67-.58l-.06-.05-.1-.1-.33-.34-.1-.1-.08-.1c-.07-.07-.13-.15-.19-.22a1.58,1.58,0,0,1-.12-.15l-.1-.12-.14-.18-.09-.12-.15-.22-.1-.13,0-.06c-.09-.13-.18-.26-.26-.4v0l-.06-.08-.16-.29-.07-.13-.08-.15-.06-.12c-.06-.11-.11-.22-.16-.33l0-.07h0c-.06-.14-.13-.29-.18-.43l0-.08-.06-.15a1.43,1.43,0,0,1-.08-.22l-.06-.16-.06-.2s0-.08,0-.12l-.06-.21-.06-.25a.31.31,0,0,1,0-.08c0-.06,0-.12,0-.18s0-.25-.07-.38a.36.36,0,0,0,0-.1.31.31,0,0,0,0-.1c0-.28-.06-.56-.07-.83A3.36,3.36,0,0,1,1171.48,504.77Z" transform="translate(-1013.77 -46.86)"></path><polygon class="cls-16" points="157.67 456.48 180.44 442.71 178.59 441.38 155.82 455.15 157.67 456.48"></polygon><polygon class="cls-15" points="166.56 472.16 189.33 458.39 190.88 456.12 168.11 469.89 166.56 472.16"></polygon><polygon class="cls-14" points="168.11 469.89 190.88 456.12 189.7 453.82 166.93 467.59 168.11 469.89"></polygon><path class="cls-14" d="M1177.66,506.32c-.17-.19-.33-.38-.51-.56L1199.92,492l.31.33a2.11,2.11,0,0,1,.19.23l.17.19.09.11c.12.15.24.3.35.46l.06.08-22.77,13.77c-.16-.22-.33-.44-.5-.65Z" transform="translate(-1013.77 -46.86)"></path><path class="cls-14" d="M1171.44,503.34h0l22.76-13.76a1.64,1.64,0,0,1,.28-.07l.23,0h.64l-22.77,13.77a2.72,2.72,0,0,0-.57,0h-.07A4,4,0,0,0,1171.44,503.34Z" transform="translate(-1013.77 -46.86)"></path><polygon class="cls-16" points="162.68 456.55 185.44 442.78 182.24 441 159.47 454.77 162.68 456.55"></polygon><polygon class="cls-14" points="163.39 458.89 186.15 445.13 185.44 442.78 162.68 456.55 163.39 458.89"></polygon><path class="cls-15" d="M1180.73,513.71c0-.25,0-.51,0-.78l1.13-1,22.77-13.77-1.13,1c0,.27,0,.53,0,.78a6.15,6.15,0,0,1,0,.75l-22.77,13.77Q1180.73,514.1,1180.73,513.71Z" transform="translate(-1013.77 -46.86)"></path><polygon class="cls-16" points="166.4 461.01 189.16 447.24 187.32 446.53 164.56 460.3 166.4 461.01"></polygon><polygon class="cls-14" points="168.04 465.05 190.81 451.28 189.16 447.24 166.4 461.01 168.04 465.05"></polygon><path class="cls-14" d="M1175,516c2.65,1.48,4.77.21,4.73-2.81a10.51,10.51,0,0,0-4.89-8.14c-2.65-1.47-4.78-.21-4.74,2.81A10.49,10.49,0,0,0,1175,516Zm-5.82-9.41-1.18-2.3,1.55-2.27,1.85,1.33a3.28,3.28,0,0,1,1.14-.11l.66-1.59,3.2,1.77.71,2.35a12.22,12.22,0,0,1,1.17,1.4l1.84.72,1.65,4-1.13,1c0,.27,0,.53,0,.78s0,.51,0,.75l1.18,2.29-1.55,2.27-1.85-1.33a3.31,3.31,0,0,1-1.15.12l-.65,1.59-3.21-1.78-.71-2.34a13.47,13.47,0,0,1-1.17-1.41l-1.84-.71-1.64-4,1.13-1a7.13,7.13,0,0,1,0-.79A4.44,4.44,0,0,1,1169.22,506.58Z" transform="translate(-1013.77 -46.86)"></path></g><g class="cls-13"><polygon class="cls-15" points="81.32 426.68 104.09 412.91 104.74 411.31 81.97 425.08 81.32 426.68"></polygon><path class="cls-15" d="M1089.89,458.91l22.77-13.77a3.34,3.34,0,0,0-1.34,3.08,8,8,0,0,0,.07.83l0,.2c0,.13,0,.25.07.38l.06.26.06.24a3.37,3.37,0,0,0,.1.34l.06.2c0,.13.09.25.14.38l.06.16.22.52s0,0,0,0,.15.31.23.46,0,.1.08.14.15.29.23.43l0,.08c.1.17.21.33.31.49l.1.13.24.34.14.18.22.27.18.22.19.21.32.33.17.15a7.32,7.32,0,0,0,.67.58l.13.09a7.43,7.43,0,0,0,.75.49,5.38,5.38,0,0,0,.6.28l.19.07.33.11.22.06.19,0,.25,0h.52l.35-.05.09,0,.26-.08.08,0a1.77,1.77,0,0,0,.31-.15l-22.77,13.77h0a1,1,0,0,1-.23.12l0,0-.08,0-.12.05-.14,0-.08,0h0l-.29,0h-.67l-.12,0-.19,0-.11,0-.11,0-.33-.11-.12,0-.07,0a4.12,4.12,0,0,1-.6-.29,6,6,0,0,1-.75-.48l-.13-.09c-.23-.18-.45-.37-.67-.58l-.06-.05-.1-.1-.33-.34a.94.94,0,0,1-.1-.1l-.08-.1c-.07-.07-.13-.15-.19-.22a1.58,1.58,0,0,1-.12-.15l-.1-.12-.14-.18-.09-.12-.15-.22a1.13,1.13,0,0,0-.1-.13l0-.06c-.09-.13-.18-.26-.26-.4v0l0-.08c-.06-.1-.12-.19-.17-.29l-.07-.13-.08-.15-.06-.12c-.06-.11-.11-.22-.16-.33l0-.07h0l-.18-.43,0-.08-.06-.15a1.43,1.43,0,0,1-.08-.22l-.06-.16-.06-.2s0-.08,0-.12l-.06-.21-.06-.25a.31.31,0,0,1,0-.08c0-.06,0-.12,0-.18s0-.25-.07-.38a.36.36,0,0,0,0-.1.31.31,0,0,0,0-.1,7.91,7.91,0,0,1-.06-.83A3.33,3.33,0,0,1,1089.89,458.91Z" transform="translate(-1013.77 -46.86)"></path><polygon class="cls-16" points="76.08 410.62 98.85 396.85 97 395.52 74.23 409.29 76.08 410.62"></polygon><polygon class="cls-15" points="84.97 426.3 107.74 412.53 109.29 410.26 86.52 424.03 84.97 426.3"></polygon><polygon class="cls-14" points="86.52 424.03 109.29 410.26 108.11 407.96 85.34 421.73 86.52 424.03"></polygon><path class="cls-14" d="M1096.07,460.46c-.17-.19-.33-.38-.51-.56l22.77-13.77.31.33a2.11,2.11,0,0,1,.19.23l.17.19.09.11c.12.15.24.3.35.46l.06.08-22.77,13.77c-.16-.22-.33-.44-.5-.65S1096.12,460.52,1096.07,460.46Z" transform="translate(-1013.77 -46.86)"></path><path class="cls-14" d="M1089.85,457.48h0l22.76-13.77c.1,0,.19,0,.29-.06a.83.83,0,0,1,.22,0h.64L1091,457.37a2.72,2.72,0,0,0-.57,0h-.07A4,4,0,0,0,1089.85,457.48Z" transform="translate(-1013.77 -46.86)"></path><polygon class="cls-16" points="81.09 410.69 103.85 396.92 100.65 395.14 77.88 408.91 81.09 410.69"></polygon><polygon class="cls-14" points="81.8 413.04 104.56 399.27 103.85 396.92 81.09 410.69 81.8 413.04"></polygon><path class="cls-15" d="M1099.14,467.85c0-.25,0-.51-.05-.78l1.13-1L1123,452.28l-1.13,1c0,.27,0,.53,0,.78a6.15,6.15,0,0,1,0,.75l-22.77,13.77Q1099.14,468.24,1099.14,467.85Z" transform="translate(-1013.77 -46.86)"></path><polygon class="cls-16" points="84.81 415.15 107.58 401.38 105.73 400.67 82.97 414.44 84.81 415.15"></polygon><polygon class="cls-14" points="86.45 419.19 109.22 405.42 107.58 401.38 84.81 415.15 86.45 419.19"></polygon><path class="cls-14" d="M1093.45,470.13c2.65,1.48,4.77.21,4.73-2.81a10.51,10.51,0,0,0-4.89-8.14c-2.65-1.47-4.78-.21-4.73,2.81a10.47,10.47,0,0,0,4.89,8.14Zm-5.82-9.41-1.18-2.3,1.55-2.27,1.85,1.33a3.28,3.28,0,0,1,1.14-.11l.66-1.59,3.2,1.77.71,2.35a11.27,11.27,0,0,1,1.17,1.4l1.84.71,1.65,4-1.13,1c0,.27,0,.53.05.78s0,.51,0,.75l1.18,2.29-1.55,2.27-1.85-1.33a3.31,3.31,0,0,1-1.15.12l-.65,1.59-3.21-1.78-.71-2.34A13.47,13.47,0,0,1,1090,468l-1.84-.71-1.64-4,1.13-1a7.13,7.13,0,0,1-.05-.79A4.44,4.44,0,0,1,1087.63,460.72Z" transform="translate(-1013.77 -46.86)"></path></g><g class="cls-13"><polygon class="cls-15" points="15.84 390.46 38.61 376.69 39.26 375.1 16.49 388.87 15.84 390.46"></polygon><path class="cls-15" d="M1024.41,422.7l22.77-13.77a3.33,3.33,0,0,0-1.34,3.08,5.93,5.93,0,0,0,.07.83l0,.2c0,.13,0,.25.07.38a2.44,2.44,0,0,0,.06.26l.06.24a3.37,3.37,0,0,0,.1.34l.06.2c0,.12.09.25.13.38l.06.15c.07.18.15.35.22.52l0,.06c.07.16.15.31.23.46l.07.14.24.43a.56.56,0,0,1,0,.08c.1.16.2.33.31.48l.09.14c.08.11.16.23.25.34l.13.18.22.27c.07.07.13.15.19.22l.19.2a3.34,3.34,0,0,0,.32.33c0,.06.11.11.16.16.22.21.45.4.68.58l.13.09a6.66,6.66,0,0,0,.74.48,4.78,4.78,0,0,0,.61.29l.18.07.34.11.21.06.2,0,.25,0h.52l.35-.05.09,0,.26-.08.08,0,.31-.16-22.77,13.77,0,0-.24.12,0,0-.08,0-.13,0-.13,0-.09,0h0l-.29,0h-.67l-.12,0-.19,0-.11,0a.45.45,0,0,1-.11,0l-.34-.11-.11,0-.07,0a4.12,4.12,0,0,1-.6-.29,6,6,0,0,1-.75-.48l-.13-.1a7.08,7.08,0,0,1-.68-.57s0,0-.05,0l-.11-.11c-.11-.1-.21-.21-.32-.33l-.1-.1-.09-.1-.19-.23-.12-.14-.09-.12-.14-.18-.09-.12-.15-.22-.1-.14,0-.05-.25-.4,0,0a.41.41,0,0,0,0-.09c0-.09-.11-.18-.16-.28l-.07-.14s0-.09-.08-.14l-.06-.12a3.54,3.54,0,0,1-.16-.34l0-.06h0c-.07-.15-.13-.29-.18-.43a.26.26,0,0,1,0-.08l-.06-.15c0-.08-.06-.15-.08-.22l-.06-.16-.06-.2s0-.08,0-.12l-.06-.22-.06-.24a.29.29,0,0,1,0-.09.85.85,0,0,1,0-.17c0-.13,0-.25-.07-.38s0-.07,0-.1a.31.31,0,0,0,0-.1,8,8,0,0,1-.07-.83A3.33,3.33,0,0,1,1024.41,422.7Z" transform="translate(-1013.77 -46.86)"></path><polygon class="cls-16" points="10.6 374.41 33.37 360.64 31.52 359.31 8.75 373.08 10.6 374.41"></polygon><polygon class="cls-15" points="19.49 390.09 42.26 376.32 43.81 374.05 21.04 387.81 19.49 390.09"></polygon><polygon class="cls-14" points="21.04 387.81 43.81 374.05 42.63 371.75 19.86 385.52 21.04 387.81"></polygon><path class="cls-14" d="M1030.58,424.25c-.16-.19-.33-.38-.5-.56l22.77-13.77.31.33.19.23a1.46,1.46,0,0,1,.16.19l.09.1c.13.16.25.31.36.47l.06.08-22.77,13.77c-.16-.22-.33-.44-.5-.65Z" transform="translate(-1013.77 -46.86)"></path><path class="cls-14" d="M1024.36,421.27h0l22.77-13.77.28-.07.23,0h.64l-22.77,13.77a3.62,3.62,0,0,0-.57,0h-.07A3.06,3.06,0,0,0,1024.36,421.27Z" transform="translate(-1013.77 -46.86)"></path><polygon class="cls-16" points="15.6 374.48 38.37 360.71 35.17 358.93 12.4 372.7 15.6 374.48"></polygon><polygon class="cls-14" points="16.32 376.82 39.08 363.05 38.37 360.71 15.6 374.48 16.32 376.82"></polygon><path class="cls-15" d="M1033.65,431.64c0-.25,0-.52,0-.78l1.13-1,22.76-13.77-1.13,1a7,7,0,0,1,.05.78,6.15,6.15,0,0,1,0,.75l-22.77,13.77A6.15,6.15,0,0,0,1033.65,431.64Z" transform="translate(-1013.77 -46.86)"></path><polygon class="cls-16" points="19.32 378.94 42.09 365.17 40.25 364.45 17.48 378.23 19.32 378.94"></polygon><polygon class="cls-14" points="20.97 382.98 43.74 369.21 42.09 365.17 19.32 378.94 20.97 382.98"></polygon><path class="cls-14" d="M1028,433.92c2.65,1.47,4.77.21,4.73-2.81a10.48,10.48,0,0,0-4.9-8.14c-2.65-1.47-4.77-.21-4.73,2.81a10.48,10.48,0,0,0,4.9,8.14Zm-5.82-9.41-1.19-2.3,1.56-2.27,1.84,1.33a3.36,3.36,0,0,1,1.15-.11l.66-1.6,3.2,1.78.71,2.35a12.22,12.22,0,0,1,1.17,1.4l1.84.71,1.65,4-1.13,1c0,.26,0,.53,0,.78a6.15,6.15,0,0,1,0,.75l1.18,2.29-1.55,2.27-1.85-1.33a3.31,3.31,0,0,1-1.15.12l-.66,1.59-3.2-1.78-.71-2.35a12.39,12.39,0,0,1-1.17-1.4l-1.84-.71-1.65-4,1.14-1c0-.26,0-.52-.06-.79A5.74,5.74,0,0,1,1022.15,424.51Z" transform="translate(-1013.77 -46.86)"></path></g><g class="cls-13"><polygon class="cls-15" points="97.48 436 120.25 422.23 120.9 420.64 98.13 434.41 97.48 436"></polygon><path class="cls-15" d="M1106.05,468.24l22.77-13.77a3.33,3.33,0,0,0-1.34,3.07,7.93,7.93,0,0,0,.07.84l0,.2c0,.12.05.25.07.38l.06.26.06.24c0,.11.06.22.1.34l.06.19c0,.13.09.26.14.38l.06.16c.07.17.14.35.22.52a.14.14,0,0,1,0,.06c.08.15.15.31.23.46l.08.14c.07.14.15.28.23.42a.41.41,0,0,1,0,.09l.31.48.1.14.24.33.14.18.22.27.18.23a1.8,1.8,0,0,1,.19.2l.32.33.17.16a7.21,7.21,0,0,0,.67.57l.13.09a6,6,0,0,0,.75.49,5.48,5.48,0,0,0,.6.29l.19.07.33.11.22,0,.19,0,.25,0h.52l.35-.05.09,0a1.29,1.29,0,0,0,.26-.08l.08,0a1.77,1.77,0,0,0,.31-.15L1113,479.73l0,0-.23.12h0l-.08,0-.12,0-.14,0-.08,0,0,0-.29,0h-.39l-.14,0h-.14l-.12,0-.19,0-.11,0-.11,0-.33-.11-.12,0-.07,0c-.2-.09-.4-.18-.6-.29a6.87,6.87,0,0,1-.75-.49l-.13-.09c-.23-.18-.45-.37-.67-.57l-.06-.05-.1-.11-.33-.33-.1-.11-.08-.1a2,2,0,0,1-.19-.22l-.12-.14a1.13,1.13,0,0,1-.1-.13l-.14-.18-.09-.12-.15-.21-.1-.14,0-.05-.26-.4v0a.41.41,0,0,1,0-.09l-.17-.28-.07-.14c0-.05-.05-.1-.08-.14l-.06-.13c-.06-.11-.11-.22-.16-.33l0-.06v0l-.18-.42,0-.08-.06-.16a1.8,1.8,0,0,1-.08-.21l-.06-.17-.06-.19s0-.08,0-.13l-.06-.21-.06-.24a.29.29,0,0,1,0-.09c0-.06,0-.12,0-.17s-.05-.26-.07-.38a.43.43,0,0,0,0-.11.28.28,0,0,0,0-.09,7.91,7.91,0,0,1-.06-.84A3.31,3.31,0,0,1,1106.05,468.24Z" transform="translate(-1013.77 -46.86)"></path><polygon class="cls-16" points="92.24 419.94 115.01 406.18 113.16 404.85 90.39 418.62 92.24 419.94"></polygon><polygon class="cls-15" points="101.13 435.62 123.9 421.86 125.45 419.58 102.68 433.35 101.13 435.62"></polygon><polygon class="cls-14" points="102.68 433.35 125.45 419.58 124.27 417.29 101.5 431.06 102.68 433.35"></polygon><path class="cls-14" d="M1112.23,469.78c-.17-.19-.33-.38-.51-.56l22.77-13.77c.11.11.21.22.31.34s.13.15.19.22l.17.19.09.11c.12.15.24.31.35.47l.06.08-22.77,13.77c-.16-.23-.33-.44-.5-.66C1112.34,469.91,1112.28,469.85,1112.23,469.78Z" transform="translate(-1013.77 -46.86)"></path><path class="cls-14" d="M1106,466.81h0L1128.77,453l.29-.07.22,0h.11a2.41,2.41,0,0,1,.38,0h.15l-22.77,13.77a3.62,3.62,0,0,0-.57,0h-.07A2.77,2.77,0,0,0,1106,466.81Z" transform="translate(-1013.77 -46.86)"></path><polygon class="cls-16" points="97.25 420.01 120.01 406.24 116.81 404.47 94.04 418.24 97.25 420.01"></polygon><polygon class="cls-14" points="97.96 422.36 120.72 408.59 120.01 406.24 97.25 420.01 97.96 422.36"></polygon><path class="cls-15" d="M1115.3,477.18c0-.26,0-.52,0-.78l1.13-1,22.77-13.77-1.13,1c0,.26,0,.52,0,.78s0,.51,0,.74l-22.77,13.77C1115.29,477.69,1115.3,477.44,1115.3,477.18Z" transform="translate(-1013.77 -46.86)"></path><polygon class="cls-16" points="100.97 424.48 123.73 410.71 121.89 409.99 99.13 423.76 100.97 424.48"></polygon><polygon class="cls-14" points="102.61 428.51 125.38 414.74 123.73 410.71 100.97 424.48 102.61 428.51"></polygon><path class="cls-14" d="M1109.61,479.46c2.65,1.47,4.77.21,4.73-2.81a10.5,10.5,0,0,0-4.89-8.14c-2.65-1.47-4.78-.21-4.73,2.8a10.49,10.49,0,0,0,4.89,8.15Zm-5.82-9.41-1.18-2.31,1.55-2.26,1.85,1.33a3.28,3.28,0,0,1,1.14-.12l.66-1.59,3.2,1.78.71,2.34a11.37,11.37,0,0,1,1.17,1.41l1.84.71,1.65,4-1.13,1c0,.26,0,.52,0,.78s0,.51,0,.74l1.18,2.3-1.55,2.27-1.85-1.33a3.31,3.31,0,0,1-1.15.11l-.65,1.59-3.21-1.77-.71-2.35a13.34,13.34,0,0,1-1.17-1.4l-1.83-.71-1.65-4.05,1.13-1a7,7,0,0,1,0-.79A4.37,4.37,0,0,1,1103.79,470.05Z" transform="translate(-1013.77 -46.86)"></path></g><g class="cls-13"><polygon class="cls-15" points="30.92 399.15 53.69 385.38 54.34 383.79 31.57 397.56 30.92 399.15"></polygon><path class="cls-15" d="M1039.49,431.39l22.77-13.77a3.33,3.33,0,0,0-1.34,3.08,8,8,0,0,0,.07.83l0,.2c0,.13,0,.25.07.38l.06.26.06.24a3.37,3.37,0,0,0,.1.34l.06.2c0,.13.09.25.14.38a.94.94,0,0,0,.06.15,4.77,4.77,0,0,0,.22.52.14.14,0,0,0,0,.06l.23.46a.64.64,0,0,0,.08.14c.07.15.15.29.23.43a.35.35,0,0,1,.05.08c.1.17.2.33.31.49l.09.13c.08.12.17.23.25.34l.13.18.22.27c.07.07.13.15.19.22l.19.2.32.34.16.15c.22.21.45.4.68.58l.13.09a6.66,6.66,0,0,0,.74.48,4.78,4.78,0,0,0,.61.29l.18.07.34.11.21.06.2,0,.25,0h.52l.35-.05.09,0,.26-.08.08,0,.31-.15-22.77,13.76,0,0a1.67,1.67,0,0,1-.23.12l0,0-.08,0-.13,0-.13,0-.09,0h0l-.29,0h-.67l-.12,0-.19,0-.11,0-.11,0-.33-.11-.12,0-.07,0a4.12,4.12,0,0,1-.6-.29,6,6,0,0,1-.75-.48l-.13-.09c-.23-.18-.45-.37-.67-.58l-.06,0-.1-.1L1041,441l-.1-.1-.08-.1c-.07-.07-.13-.15-.19-.22l-.13-.15-.09-.12-.14-.18-.09-.12-.15-.22-.1-.14,0-.05c-.08-.13-.17-.26-.25-.4l0,0a.41.41,0,0,0-.05-.09c0-.09-.11-.18-.16-.28a.83.83,0,0,1-.07-.13l-.08-.15-.06-.12c-.06-.11-.11-.22-.16-.33l0-.07h0a3.93,3.93,0,0,1-.18-.43l0-.08-.06-.15a2,2,0,0,1-.08-.22l-.06-.16-.06-.2s0-.08,0-.12l-.06-.22-.06-.24a.29.29,0,0,1,0-.09c0-.05,0-.11,0-.17s0-.25-.07-.38a.36.36,0,0,0,0-.1.31.31,0,0,0,0-.1c0-.28-.06-.56-.07-.83A3.36,3.36,0,0,1,1039.49,431.39Z" transform="translate(-1013.77 -46.86)"></path><polygon class="cls-16" points="25.68 383.1 48.45 369.33 46.6 368 23.83 381.77 25.68 383.1"></polygon><polygon class="cls-15" points="34.57 398.78 57.34 385.01 58.89 382.74 36.12 396.51 34.57 398.78"></polygon><polygon class="cls-14" points="36.12 396.51 58.89 382.74 57.71 380.44 34.94 394.21 36.12 396.51"></polygon><path class="cls-14" d="M1045.67,432.94c-.17-.19-.33-.38-.51-.56l22.77-13.77.31.33a2.11,2.11,0,0,1,.19.23l.17.19.09.11c.12.15.24.3.35.46l.06.08-22.77,13.77c-.16-.22-.33-.44-.5-.65Z" transform="translate(-1013.77 -46.86)"></path><path class="cls-14" d="M1039.45,430h0l22.76-13.77.28-.06a.91.91,0,0,1,.23,0h.64l-22.77,13.77a2.72,2.72,0,0,0-.57,0H1040Z" transform="translate(-1013.77 -46.86)"></path><polygon class="cls-16" points="30.68 383.17 53.45 369.4 50.25 367.62 27.48 381.39 30.68 383.17"></polygon><polygon class="cls-14" points="31.39 385.51 54.16 371.75 53.45 369.4 30.68 383.17 31.39 385.51"></polygon><path class="cls-15" d="M1048.74,440.33c0-.25,0-.52,0-.78l1.13-1,22.76-13.77-1.13,1a7.11,7.11,0,0,1,0,.78,6.15,6.15,0,0,1,0,.75l-22.77,13.77Q1048.74,440.72,1048.74,440.33Z" transform="translate(-1013.77 -46.86)"></path><polygon class="cls-16" points="34.41 387.63 57.17 373.86 55.33 373.15 32.56 386.92 34.41 387.63"></polygon><polygon class="cls-14" points="36.05 391.67 58.82 377.9 57.17 373.86 34.41 387.63 36.05 391.67"></polygon><path class="cls-14" d="M1043.05,442.61c2.65,1.48,4.77.21,4.73-2.81a10.5,10.5,0,0,0-4.89-8.14c-2.66-1.47-4.78-.21-4.74,2.81a10.48,10.48,0,0,0,4.9,8.14Zm-5.82-9.41-1.19-2.3,1.56-2.27,1.85,1.33a3.28,3.28,0,0,1,1.14-.11l.66-1.59,3.2,1.77.71,2.35a12.22,12.22,0,0,1,1.17,1.4l1.84.71,1.65,4-1.13,1c0,.26,0,.53,0,.78s0,.51,0,.75l1.18,2.29-1.55,2.27-1.85-1.33a3.31,3.31,0,0,1-1.15.12l-.65,1.59-3.21-1.78-.71-2.34a13.47,13.47,0,0,1-1.17-1.41l-1.84-.71-1.64-4,1.13-1a6.81,6.81,0,0,1,0-.78A4.44,4.44,0,0,1,1037.23,433.2Z" transform="translate(-1013.77 -46.86)"></path></g><g class="cls-13"><polygon class="cls-15" points="346.43 575.54 369.2 561.77 369.85 560.17 347.08 573.94 346.43 575.54"></polygon><path class="cls-15" d="M1355,607.77,1377.77,594a3.34,3.34,0,0,0-1.34,3.08,8,8,0,0,0,.07.83l0,.2c0,.13,0,.26.07.38l.06.26.06.25c0,.11.06.22.1.33l.06.2c0,.13.09.25.14.38l.06.16.22.52s0,0,0,0l.23.46.08.15c.07.14.15.28.23.42l.05.08c.1.17.21.33.31.49a1.13,1.13,0,0,0,.1.13l.24.34.13.18.23.27.18.22.19.21.32.33.16.15c.22.21.45.4.68.58l.13.09a7.43,7.43,0,0,0,.75.49,5.38,5.38,0,0,0,.6.28l.18.07a2.67,2.67,0,0,0,.34.11l.22.06.19,0,.25,0h.52a2,2,0,0,0,.35-.05l.09,0,.26-.08.08,0a1.77,1.77,0,0,0,.31-.15L1362,619.27h0a1,1,0,0,1-.23.12l0,0-.08,0-.12,0-.14,0-.08,0h0l-.29,0h-.67l-.12,0-.19,0-.11,0-.11,0-.33-.11-.12,0-.07,0a4.12,4.12,0,0,1-.6-.29,6,6,0,0,1-.75-.48l-.13-.09c-.23-.18-.45-.37-.67-.58l-.06-.05-.1-.1-.33-.34-.1-.1-.08-.1c-.07-.07-.13-.15-.19-.22a1.58,1.58,0,0,1-.12-.15l-.1-.12-.14-.18-.09-.12-.15-.22a1.13,1.13,0,0,0-.1-.13l0-.06c-.09-.13-.18-.26-.26-.4v0l-.06-.08-.16-.29-.07-.13-.08-.15-.06-.12c-.06-.11-.11-.22-.16-.33l0-.07h0l-.18-.43,0-.08-.06-.15a1.43,1.43,0,0,1-.08-.22l-.06-.16-.06-.2s0-.08,0-.12l-.06-.21-.06-.25a.31.31,0,0,1,0-.08c0-.06,0-.12,0-.18s0-.25-.07-.38a.36.36,0,0,0,0-.1.34.34,0,0,0,0-.1,7.91,7.91,0,0,1-.06-.83A3.33,3.33,0,0,1,1355,607.77Z" transform="translate(-1013.77 -46.86)"></path><polygon class="cls-16" points="341.19 559.48 363.96 545.71 362.11 544.38 339.35 558.15 341.19 559.48"></polygon><polygon class="cls-15" points="350.08 575.16 372.85 561.39 374.4 559.12 351.63 572.89 350.08 575.16"></polygon><polygon class="cls-14" points="351.63 572.89 374.4 559.12 373.22 556.82 350.45 570.59 351.63 572.89"></polygon><path class="cls-14" d="M1361.18,609.32c-.17-.19-.33-.38-.51-.56L1383.44,595l.31.33a2.11,2.11,0,0,1,.19.23l.17.19.09.11c.12.15.24.3.35.46l.06.08-22.77,13.77c-.16-.22-.33-.44-.5-.65S1361.23,609.38,1361.18,609.32Z" transform="translate(-1013.77 -46.86)"></path><path class="cls-14" d="M1355,606.34h0l22.76-13.76.29-.07a1.66,1.66,0,0,1,.22,0h.64l-22.77,13.77a2.72,2.72,0,0,0-.57,0h-.07A4,4,0,0,0,1355,606.34Z" transform="translate(-1013.77 -46.86)"></path><polygon class="cls-16" points="346.2 559.55 368.96 545.78 365.76 544 342.99 557.77 346.2 559.55"></polygon><polygon class="cls-14" points="346.91 561.89 369.68 548.13 368.96 545.78 346.2 559.55 346.91 561.89"></polygon><path class="cls-15" d="M1364.25,616.71c0-.25,0-.51,0-.78l1.13-1,22.77-13.77-1.13,1c0,.27,0,.53,0,.78s0,.51,0,.75l-22.77,13.77Q1364.25,617.1,1364.25,616.71Z" transform="translate(-1013.77 -46.86)"></path><polygon class="cls-16" points="349.92 564.01 372.69 550.24 370.84 549.53 348.08 563.3 349.92 564.01"></polygon><polygon class="cls-14" points="351.56 568.05 374.33 554.28 372.69 550.24 349.92 564.01 351.56 568.05"></polygon><path class="cls-14" d="M1358.56,619c2.65,1.48,4.77.21,4.73-2.81a10.51,10.51,0,0,0-4.89-8.14c-2.65-1.47-4.78-.21-4.73,2.81a10.46,10.46,0,0,0,4.89,8.14Zm-5.82-9.41-1.18-2.3,1.55-2.26,1.85,1.32a3.28,3.28,0,0,1,1.14-.11l.66-1.59,3.2,1.77.71,2.35a11.27,11.27,0,0,1,1.17,1.4l1.84.71,1.65,4-1.13,1c0,.27,0,.53,0,.78s0,.51,0,.75l1.18,2.29-1.55,2.27-1.85-1.33a3.31,3.31,0,0,1-1.15.12l-.65,1.59-3.21-1.78-.71-2.34a13.47,13.47,0,0,1-1.17-1.41l-1.84-.71-1.64-4,1.13-1a7.13,7.13,0,0,1,0-.79A4.49,4.49,0,0,1,1352.74,609.58Z" transform="translate(-1013.77 -46.86)"></path></g><g class="cls-13"><polygon class="cls-15" points="362.09 584.48 384.86 570.71 385.51 569.12 362.74 582.89 362.09 584.48"></polygon><path class="cls-15" d="M1370.66,616.72,1393.43,603a3.33,3.33,0,0,0-1.34,3.07,7.93,7.93,0,0,0,.07.84l0,.2c0,.12,0,.25.07.38l.06.26.06.24c0,.11.06.23.1.34l.06.2.13.37.06.16c.07.18.15.35.22.52l0,.06c.07.15.15.31.23.46l.07.14.24.42,0,.09c.1.16.2.32.31.48l.09.14.25.34.13.17.22.27.19.23.19.2.32.33.16.16c.22.2.45.4.68.57l.13.09a6.76,6.76,0,0,0,.74.49,6.67,6.67,0,0,0,.61.29l.18.07.34.11.21.05.2,0,.25,0h.52l.35,0,.09,0,.26-.08.08,0,.31-.16-22.77,13.77,0,0-.24.12h0l-.08,0-.13.05-.13,0-.09,0h0l-.29,0h-.67l-.12,0-.2,0-.1,0-.11,0-.34-.11-.11,0-.07,0a6.67,6.67,0,0,1-.61-.29,6.76,6.76,0,0,1-.74-.49l-.13-.09c-.23-.17-.46-.37-.68-.57l-.05,0-.11-.11-.32-.33a.94.94,0,0,0-.1-.1l-.09-.1-.19-.23-.12-.14-.09-.13-.14-.18-.09-.12-.15-.21-.1-.14a.1.1,0,0,0,0-.05c-.08-.14-.17-.27-.25-.4l0,0a.41.41,0,0,0,0-.09l-.16-.28-.07-.14-.08-.14-.06-.13c-.06-.11-.11-.22-.16-.33l0-.06v0a3.79,3.79,0,0,1-.18-.42.26.26,0,0,1,0-.08l-.06-.16a1.8,1.8,0,0,1-.08-.21l-.06-.17-.06-.19s0-.08,0-.12l-.06-.22-.06-.24,0-.09,0-.17c0-.13,0-.26-.07-.38s0-.07,0-.11a.28.28,0,0,0,0-.09,7.93,7.93,0,0,1-.07-.84A3.33,3.33,0,0,1,1370.66,616.72Z" transform="translate(-1013.77 -46.86)"></path><polygon class="cls-16" points="356.85 568.43 379.62 554.66 377.77 553.33 355 567.1 356.85 568.43"></polygon><polygon class="cls-15" points="365.74 584.11 388.51 570.34 390.06 568.06 367.29 581.83 365.74 584.11"></polygon><polygon class="cls-14" points="367.29 581.83 390.06 568.06 388.88 565.77 366.11 579.54 367.29 581.83"></polygon><path class="cls-14" d="M1376.83,618.26c-.16-.19-.33-.38-.5-.55l22.77-13.77c.1.1.21.21.31.33l.19.23a1.46,1.46,0,0,1,.16.19l.09.1a5.32,5.32,0,0,1,.36.47l.06.08-22.77,13.77c-.16-.23-.33-.44-.5-.66Z" transform="translate(-1013.77 -46.86)"></path><path class="cls-14" d="M1370.61,615.29h0l22.77-13.77.28-.07.23,0h.11a2.41,2.41,0,0,1,.38,0h.15l-22.77,13.77a3.62,3.62,0,0,0-.57,0h-.07A3.06,3.06,0,0,0,1370.61,615.29Z" transform="translate(-1013.77 -46.86)"></path><polygon class="cls-16" points="361.85 568.49 384.62 554.72 381.42 552.95 358.65 566.72 361.85 568.49"></polygon><polygon class="cls-14" points="362.56 570.84 385.33 557.07 384.62 554.72 361.85 568.49 362.56 570.84"></polygon><path class="cls-15" d="M1379.91,625.66c0-.26,0-.52-.05-.78l1.13-1,22.76-13.77-1.13,1a7,7,0,0,1,.05.78,5.93,5.93,0,0,1,0,.74l-22.77,13.77C1379.9,626.17,1379.91,625.92,1379.91,625.66Z" transform="translate(-1013.77 -46.86)"></path><polygon class="cls-16" points="365.57 572.96 388.34 559.19 386.5 558.47 363.73 572.24 365.57 572.96"></polygon><polygon class="cls-14" points="367.22 576.99 389.99 563.22 388.34 559.19 365.57 572.96 367.22 576.99"></polygon><path class="cls-14" d="M1374.21,627.94c2.66,1.47,4.78.21,4.74-2.81a10.48,10.48,0,0,0-4.9-8.14c-2.65-1.47-4.77-.21-4.73,2.8a10.5,10.5,0,0,0,4.89,8.15Zm-5.81-9.41-1.19-2.31,1.56-2.26,1.84,1.33a3.34,3.34,0,0,1,1.15-.12l.66-1.59,3.2,1.78.71,2.35a12.22,12.22,0,0,1,1.17,1.4l1.84.71,1.65,4-1.13,1c0,.26,0,.52.05.78s0,.51,0,.74l1.18,2.3L1379.5,631l-1.85-1.33a3.23,3.23,0,0,1-1.14.11l-.66,1.6-3.2-1.78-.71-2.35a13.34,13.34,0,0,1-1.17-1.4l-1.84-.71-1.65-4.05,1.14-1c0-.26-.05-.53-.06-.79A5.74,5.74,0,0,1,1368.4,618.53Z" transform="translate(-1013.77 -46.86)"></path></g><g class="cls-13"><polygon class="cls-15" points="280.5 538.62 303.27 524.85 303.92 523.26 281.15 537.03 280.5 538.62"></polygon><path class="cls-15" d="M1289.07,570.86l22.77-13.77a3.33,3.33,0,0,0-1.34,3.07,7.93,7.93,0,0,0,.07.84l0,.2c0,.12,0,.25.07.38l.06.26.06.24c0,.11.06.23.1.34l.06.19c0,.13.09.26.14.38s0,.11.05.16.15.35.22.52l0,.06.23.46s.05.09.07.14l.24.42a.41.41,0,0,1,0,.09c.1.16.2.32.31.48l.09.14.25.33.13.18.22.27.19.23.19.2c.11.11.21.23.32.33l.16.16c.22.2.45.4.68.57l.13.09a6.76,6.76,0,0,0,.74.49,6.67,6.67,0,0,0,.61.29l.18.07.34.11.21.05.2,0,.25,0h.52l.35,0,.09,0,.26-.08.08,0,.31-.16L1296,582.35l0,0-.24.12h0l-.08,0-.13.05-.13,0-.09,0h0l-.29,0h-.54l-.13,0-.12,0-.19,0-.11,0-.11,0-.33-.11-.12,0-.07,0a5.48,5.48,0,0,1-.6-.29,6,6,0,0,1-.75-.49l-.13-.09c-.23-.17-.46-.37-.68-.57l0,0-.11-.11-.32-.33-.1-.11-.09-.09-.18-.23-.13-.14-.09-.13-.14-.18-.09-.12-.15-.21-.1-.14a.1.1,0,0,0,0-.05c-.08-.14-.17-.27-.25-.4l0,0a.41.41,0,0,0,0-.09l-.16-.28-.07-.14-.08-.14-.06-.13c-.06-.11-.11-.22-.16-.33l0-.06v0a3.79,3.79,0,0,1-.18-.42l0-.08-.06-.16a1.8,1.8,0,0,1-.08-.21l-.06-.17-.06-.19s0-.08,0-.12l-.06-.22-.06-.24a.29.29,0,0,1,0-.09,1,1,0,0,1,0-.17c0-.13-.05-.26-.07-.38s0-.07,0-.11a.28.28,0,0,0,0-.09,7.93,7.93,0,0,1-.07-.84A3.32,3.32,0,0,1,1289.07,570.86Z" transform="translate(-1013.77 -46.86)"></path><polygon class="cls-16" points="275.26 522.57 298.03 508.8 296.18 507.47 273.41 521.24 275.26 522.57"></polygon><polygon class="cls-15" points="284.15 538.25 306.92 524.48 308.47 522.2 285.7 535.97 284.15 538.25"></polygon><polygon class="cls-14" points="285.7 535.97 308.47 522.2 307.29 519.91 284.52 533.68 285.7 535.97"></polygon><path class="cls-14" d="M1295.24,572.4c-.16-.19-.33-.38-.5-.56l22.77-13.76c.1.1.21.21.31.33l.19.23a1.46,1.46,0,0,1,.16.19l.1.1c.12.15.24.31.35.47l.06.08-22.77,13.77c-.16-.23-.33-.44-.5-.66Z" transform="translate(-1013.77 -46.86)"></path><path class="cls-14" d="M1289,569.43h0l22.76-13.77.28-.07.23,0h.11a2.41,2.41,0,0,1,.38,0h.15l-22.77,13.77a3.62,3.62,0,0,0-.57,0h-.07A2.77,2.77,0,0,0,1289,569.43Z" transform="translate(-1013.77 -46.86)"></path><polygon class="cls-16" points="280.26 522.63 303.03 508.86 299.83 507.09 277.06 520.86 280.26 522.63"></polygon><polygon class="cls-14" points="280.98 524.98 303.74 511.21 303.03 508.86 280.26 522.63 280.98 524.98"></polygon><path class="cls-15" d="M1298.32,579.8c0-.26,0-.52,0-.78l1.13-1,22.76-13.77-1.13,1a6.81,6.81,0,0,1,0,.78,5.93,5.93,0,0,1,0,.74l-22.77,13.77C1298.31,580.31,1298.32,580.06,1298.32,579.8Z" transform="translate(-1013.77 -46.86)"></path><polygon class="cls-16" points="283.99 527.1 306.75 513.33 304.91 512.61 282.14 526.38 283.99 527.1"></polygon><polygon class="cls-14" points="285.63 531.13 308.4 517.36 306.75 513.33 283.99 527.1 285.63 531.13"></polygon><path class="cls-14" d="M1292.63,582.08c2.65,1.47,4.77.21,4.73-2.81a10.48,10.48,0,0,0-4.9-8.14c-2.65-1.47-4.77-.21-4.73,2.8a10.48,10.48,0,0,0,4.9,8.15Zm-5.82-9.41-1.19-2.31,1.56-2.26,1.85,1.33a3.28,3.28,0,0,1,1.14-.12l.66-1.59,3.2,1.78.71,2.34a13.26,13.26,0,0,1,1.17,1.41l1.84.71,1.65,4-1.13,1c0,.26,0,.52,0,.78s0,.51,0,.74l1.18,2.3-1.55,2.27-1.85-1.33a3.31,3.31,0,0,1-1.15.11l-.66,1.6-3.2-1.78-.71-2.35a13.34,13.34,0,0,1-1.17-1.4l-1.84-.71-1.65-4,1.14-1a7,7,0,0,1,0-.79A4.37,4.37,0,0,1,1286.81,572.67Z" transform="translate(-1013.77 -46.86)"></path></g><g class="cls-13"><polygon class="cls-15" points="215.02 502.41 237.78 488.64 238.44 487.05 215.67 500.82 215.02 502.41"></polygon><path class="cls-15" d="M1223.59,534.65l22.77-13.77A3.32,3.32,0,0,0,1245,524a5.93,5.93,0,0,0,.07.83l0,.21c0,.12,0,.25.07.37s0,.18,0,.27,0,.16.07.24l.09.34a1.46,1.46,0,0,1,.07.19c0,.13.09.26.13.38l.06.16c.07.17.14.35.22.52l0,.06c.07.15.15.3.23.46l.07.14.24.42,0,.09c.1.16.2.32.31.48l.09.13c.08.12.16.23.25.34l.13.18.22.27c.06.08.13.15.19.22l.19.21.32.33.16.16c.22.2.45.39.68.57l.12.09a8,8,0,0,0,.75.49l.6.29.19.07.34.11.21,0,.2,0,.25,0,.14,0h.38a1.34,1.34,0,0,0,.35-.05l.08,0,.26-.08.08,0a1.48,1.48,0,0,0,.31-.15l-22.76,13.77h0l-.24.13h0l-.08,0-.13,0-.13,0-.09,0,0,0a2.85,2.85,0,0,1-.29,0h-.39l-.15,0h-.13l-.12,0-.2,0-.1,0-.11,0-.34-.11-.12,0-.06,0a6.5,6.5,0,0,1-.61-.28,6.76,6.76,0,0,1-.74-.49l-.13-.09c-.23-.18-.46-.37-.68-.57,0,0,0,0,0-.05l-.11-.11-.32-.33-.1-.11-.09-.1-.19-.22-.12-.14a1.13,1.13,0,0,0-.1-.13l-.13-.18-.09-.12c-.06-.07-.1-.14-.15-.21l-.1-.14,0-.06c-.08-.13-.17-.26-.25-.4l0,0,0-.09-.16-.28-.08-.14-.07-.15-.07-.12c0-.11-.1-.22-.16-.33l0-.06v0c-.07-.14-.13-.28-.19-.42l0-.08a1,1,0,0,1-.05-.16l-.09-.21,0-.17-.06-.19a.93.93,0,0,1,0-.13l-.06-.21-.06-.25,0-.08,0-.17c0-.13-.05-.26-.07-.38a.43.43,0,0,1,0-.11s0-.06,0-.1a8,8,0,0,1-.07-.83A3.32,3.32,0,0,1,1223.59,534.65Z" transform="translate(-1013.77 -46.86)"></path><polygon class="cls-16" points="209.78 486.35 232.54 472.58 230.7 471.25 207.93 485.02 209.78 486.35"></polygon><polygon class="cls-15" points="218.67 502.03 241.44 488.26 242.99 485.99 220.22 499.76 218.67 502.03"></polygon><polygon class="cls-14" points="220.22 499.76 242.99 485.99 241.81 483.7 219.04 497.47 220.22 499.76"></polygon><path class="cls-14" d="M1229.76,536.19c-.16-.19-.33-.38-.5-.56L1252,521.86l.31.33.19.23.16.19.09.11c.13.15.24.31.36.46l.06.09L1230.43,537c-.16-.22-.33-.44-.51-.65Z" transform="translate(-1013.77 -46.86)"></path><path class="cls-14" d="M1223.54,533.22h0l22.77-13.77.28-.07.23,0h.64l-22.77,13.77a3.62,3.62,0,0,0-.57,0h-.07A2.71,2.71,0,0,0,1223.54,533.22Z" transform="translate(-1013.77 -46.86)"></path><polygon class="cls-16" points="214.78 486.42 237.55 472.65 234.35 470.88 211.58 484.64 214.78 486.42"></polygon><polygon class="cls-14" points="215.49 488.77 238.26 475 237.55 472.65 214.78 486.42 215.49 488.77"></polygon><path class="cls-15" d="M1232.83,543.59a6.81,6.81,0,0,0,0-.78l1.13-1L1256.68,528l-1.13,1a6.81,6.81,0,0,1,0,.78,5.86,5.86,0,0,1,0,.74l-22.76,13.77A6,6,0,0,0,1232.83,543.59Z" transform="translate(-1013.77 -46.86)"></path><polygon class="cls-16" points="218.5 490.88 241.27 477.11 239.43 476.4 216.66 490.17 218.5 490.88"></polygon><polygon class="cls-14" points="220.15 494.92 242.91 481.15 241.27 477.11 218.5 490.88 220.15 494.92"></polygon><path class="cls-14" d="M1227.14,545.87c2.66,1.47,4.78.21,4.73-2.81a10.48,10.48,0,0,0-4.89-8.15c-2.65-1.46-4.77-.2-4.73,2.81a10.52,10.52,0,0,0,4.89,8.15Zm-5.82-9.41-1.18-2.31,1.56-2.26,1.84,1.33a3.11,3.11,0,0,1,1.15-.12l.65-1.59,3.21,1.78.71,2.34a13.15,13.15,0,0,1,1.17,1.4l1.84.72,1.64,4-1.13,1a6.81,6.81,0,0,1,0,.78,6,6,0,0,1,0,.74l1.17,2.3-1.55,2.27-1.85-1.33a3.26,3.26,0,0,1-1.14.11l-.66,1.59-3.2-1.77-.71-2.35a13.15,13.15,0,0,1-1.17-1.4l-1.84-.71-1.65-4,1.14-1a7.18,7.18,0,0,1-.06-.79C1221.29,536.94,1221.3,536.69,1221.32,536.46Z" transform="translate(-1013.77 -46.86)"></path></g><g class="cls-13"><polygon class="cls-15" points="296.66 547.95 319.43 534.18 320.08 532.59 297.31 546.36 296.66 547.95"></polygon><path class="cls-15" d="M1305.23,580.18,1328,566.41a3.34,3.34,0,0,0-1.34,3.08,8,8,0,0,0,.07.83l0,.2c0,.13,0,.26.07.38l.06.26.06.25c0,.11.06.22.1.33l.06.2c0,.13.09.25.14.38a1.42,1.42,0,0,0,0,.16c.07.17.15.34.22.52l0,0c.07.16.15.31.23.46l.07.15.24.42.05.08c.1.17.2.33.31.49l.09.13c.08.12.17.23.25.34l.13.18.22.27c.07.07.13.15.19.22l.19.21.32.33.16.15c.22.21.45.4.68.58l.13.09a6.76,6.76,0,0,0,.74.49,6.5,6.5,0,0,0,.61.28l.18.07a2.67,2.67,0,0,0,.34.11l.21.06.2,0,.25,0h.52a2,2,0,0,0,.35,0l.09,0,.26-.08.08,0a2.2,2.2,0,0,0,.31-.15l-22.77,13.77h0a.9.9,0,0,1-.24.12l0,0-.08,0-.13,0-.13,0-.09,0h0l-.29,0h-.67l-.12,0-.19,0-.11,0-.11,0-.33-.11-.12,0-.07,0a5.38,5.38,0,0,1-.6-.28,7.43,7.43,0,0,1-.75-.49l-.13-.09a7.32,7.32,0,0,1-.67-.58l-.06,0-.11-.1-.32-.34a.94.94,0,0,1-.1-.1l-.08-.1c-.07-.07-.13-.15-.19-.22l-.13-.14-.09-.13-.14-.18-.09-.12-.15-.22-.1-.13,0-.06c-.08-.13-.17-.26-.25-.4l0,0a.22.22,0,0,0,0-.08l-.16-.29a.83.83,0,0,1-.07-.13l-.08-.15-.06-.12c-.06-.11-.11-.22-.16-.33l0-.07h0a3.93,3.93,0,0,1-.18-.43l0-.07-.06-.16a1.43,1.43,0,0,1-.08-.22l-.06-.16-.06-.2,0-.12-.06-.21-.06-.25a.31.31,0,0,1,0-.08,1.16,1.16,0,0,1,0-.18c0-.12,0-.25-.07-.38a.36.36,0,0,0,0-.1.34.34,0,0,0,0-.1c0-.28-.06-.56-.07-.83A3.34,3.34,0,0,1,1305.23,580.18Z" transform="translate(-1013.77 -46.86)"></path><polygon class="cls-16" points="291.42 531.89 314.19 518.12 312.34 516.79 289.57 530.56 291.42 531.89"></polygon><polygon class="cls-15" points="300.31 547.57 323.08 533.8 324.63 531.53 301.86 545.3 300.31 547.57"></polygon><polygon class="cls-14" points="301.86 545.3 324.63 531.53 323.45 529.23 300.68 543 301.86 545.3"></polygon><path class="cls-14" d="M1311.41,581.73l-.51-.56,22.77-13.77.31.33.19.23c.06.06.11.13.16.19l.1.11c.12.15.24.3.35.46l.06.08-22.77,13.77c-.16-.22-.33-.44-.5-.65Z" transform="translate(-1013.77 -46.86)"></path><path class="cls-14" d="M1305.19,578.75h0L1328,565l.28-.07.23,0h.64l-22.77,13.77a2.72,2.72,0,0,0-.57,0h-.07A4,4,0,0,0,1305.19,578.75Z" transform="translate(-1013.77 -46.86)"></path><polygon class="cls-16" points="296.42 531.96 319.19 518.19 315.99 516.41 293.22 530.18 296.42 531.96"></polygon><polygon class="cls-14" points="297.13 534.31 319.9 520.54 319.19 518.19 296.42 531.96 297.13 534.31"></polygon><path class="cls-15" d="M1314.48,589.12c0-.25,0-.51,0-.78l1.13-1,22.76-13.77-1.13,1a7.11,7.11,0,0,1,0,.78,6.15,6.15,0,0,1,0,.75l-22.77,13.77Q1314.48,589.51,1314.48,589.12Z" transform="translate(-1013.77 -46.86)"></path><polygon class="cls-16" points="300.15 536.42 322.91 522.65 321.07 521.94 298.31 535.71 300.15 536.42"></polygon><polygon class="cls-14" points="301.79 540.46 324.56 526.69 322.91 522.65 300.15 536.42 301.79 540.46"></polygon><path class="cls-14" d="M1308.79,591.41c2.65,1.47,4.77.2,4.73-2.82a10.51,10.51,0,0,0-4.89-8.14c-2.66-1.47-4.78-.21-4.74,2.81a10.5,10.5,0,0,0,4.9,8.15ZM1303,582l-1.19-2.3,1.56-2.26,1.85,1.32a3.28,3.28,0,0,1,1.14-.11l.66-1.59,3.2,1.77.71,2.35a12.22,12.22,0,0,1,1.17,1.4l1.84.71,1.65,4-1.13,1c0,.27,0,.53,0,.78s0,.51,0,.75l1.18,2.29-1.55,2.27-1.85-1.33a3.31,3.31,0,0,1-1.15.12l-.65,1.59-3.21-1.78-.71-2.34a14.45,14.45,0,0,1-1.17-1.4l-1.84-.72-1.65-4,1.14-1a7.13,7.13,0,0,1,0-.79A4.49,4.49,0,0,1,1303,582Z" transform="translate(-1013.77 -46.86)"></path></g><g class="cls-13"><polygon class="cls-15" points="230.1 511.1 252.87 497.33 253.52 495.74 230.75 509.51 230.1 511.1"></polygon><path class="cls-15" d="M1238.67,543.34l22.77-13.77a3.33,3.33,0,0,0-1.34,3.07,6,6,0,0,0,.07.84l0,.2c0,.12,0,.25.07.38s0,.17.06.26a2.1,2.1,0,0,0,.06.24c0,.11.06.23.1.34l.06.19c0,.13.09.26.13.38l.06.16.22.52,0,.06c.07.15.15.31.23.46s0,.09.07.14l.24.42,0,.09c.1.16.2.32.31.48l.09.14.25.33.13.18.22.27.19.23.19.2.32.33.16.16c.22.2.45.4.68.57l.13.09a6.76,6.76,0,0,0,.74.49c.21.11.41.21.6.29l.19.07.34.11.21,0,.2,0,.25,0h.52l.35,0,.09,0a1.53,1.53,0,0,0,.26-.08l.08,0a2.2,2.2,0,0,0,.31-.15l-22.77,13.77,0,0-.24.12h0l-.08,0-.13,0-.13,0-.09,0,0,0-.29,0h-.39l-.15,0h-.13l-.12,0-.2,0-.1,0-.11,0-.34-.11-.12,0-.06,0c-.2-.09-.4-.18-.61-.29a6.76,6.76,0,0,1-.74-.49l-.13-.09c-.23-.18-.46-.37-.68-.57l-.05,0-.11-.11-.32-.33-.1-.11-.09-.09-.19-.23-.12-.14-.09-.13-.14-.18-.09-.12-.15-.21-.1-.14a.1.1,0,0,0,0-.05c-.08-.14-.17-.27-.25-.4l0,0a.41.41,0,0,0,0-.09l-.16-.28-.07-.14-.08-.14a.83.83,0,0,0-.07-.13l-.15-.33s0,0,0-.06v0c-.07-.14-.13-.28-.19-.42s0-.05,0-.08a1,1,0,0,1-.06-.16l-.09-.21a1.09,1.09,0,0,0,0-.17l-.06-.19s0-.08,0-.13l-.06-.21-.06-.24,0-.09,0-.17c0-.13,0-.26-.07-.38a.43.43,0,0,1,0-.11s0-.06,0-.09a7.93,7.93,0,0,1-.07-.84A3.32,3.32,0,0,1,1238.67,543.34Z" transform="translate(-1013.77 -46.86)"></path><polygon class="cls-16" points="224.86 495.05 247.63 481.27 245.78 479.95 223.01 493.71 224.86 495.05"></polygon><polygon class="cls-15" points="233.75 510.72 256.52 496.95 258.07 494.68 235.3 508.45 233.75 510.72"></polygon><polygon class="cls-14" points="235.3 508.45 258.07 494.68 256.89 492.39 234.12 506.16 235.3 508.45"></polygon><path class="cls-14" d="M1244.84,544.88c-.16-.19-.33-.38-.5-.56l22.77-13.76c.1.1.21.21.31.33l.19.22.16.19.09.11c.13.15.24.31.36.47l.06.08-22.77,13.77c-.16-.23-.33-.44-.5-.66Z" transform="translate(-1013.77 -46.86)"></path><path class="cls-14" d="M1238.62,541.91h0l22.77-13.77.28-.07.23,0h.11a2.41,2.41,0,0,1,.38,0h.15l-22.77,13.77a3.62,3.62,0,0,0-.57,0h-.07A3.06,3.06,0,0,0,1238.62,541.91Z" transform="translate(-1013.77 -46.86)"></path><polygon class="cls-16" points="229.86 495.11 252.63 481.34 249.43 479.57 226.66 493.34 229.86 495.11"></polygon><polygon class="cls-14" points="230.57 497.46 253.34 483.69 252.63 481.34 229.86 495.11 230.57 497.46"></polygon><path class="cls-15" d="M1247.91,552.28c0-.26,0-.52,0-.78l1.12-1,22.77-13.77-1.13,1a6.81,6.81,0,0,1,0,.78,5.93,5.93,0,0,1,0,.74L1247.89,553A5.93,5.93,0,0,0,1247.91,552.28Z" transform="translate(-1013.77 -46.86)"></path><polygon class="cls-16" points="233.59 499.57 256.35 485.81 254.51 485.09 231.74 498.86 233.59 499.57"></polygon><polygon class="cls-14" points="235.23 503.61 258 489.84 256.35 485.81 233.59 499.57 235.23 503.61"></polygon><path class="cls-14" d="M1242.22,554.56c2.66,1.47,4.78.21,4.74-2.81a10.48,10.48,0,0,0-4.9-8.14c-2.65-1.47-4.77-.21-4.73,2.8a10.52,10.52,0,0,0,4.89,8.15Zm-5.81-9.41-1.19-2.31,1.56-2.26,1.84,1.33a3.34,3.34,0,0,1,1.15-.12l.65-1.59,3.21,1.78.71,2.34a12.33,12.33,0,0,1,1.17,1.41l1.84.71,1.64,4-1.12,1c0,.26,0,.52,0,.78a5.93,5.93,0,0,1,0,.74l1.18,2.3-1.56,2.27-1.85-1.33a3.23,3.23,0,0,1-1.14.11l-.66,1.59-3.2-1.77-.71-2.35a13.34,13.34,0,0,1-1.17-1.4l-1.84-.71-1.65-4.05,1.14-1c0-.26,0-.53-.06-.79A5.74,5.74,0,0,1,1236.41,545.15Z" transform="translate(-1013.77 -46.86)"></path></g><path class="cls-11" d="M1375,606.19c6.4,3.55,11.69,12.37,11.8,19.9.11,7.28-5,10.31-11.41,6.77L1028.71,441.6c-6.41-3.54-11.7-12.35-11.81-19.89-.11-7.28,5-10.31,11.41-6.77ZM1018.29,422.74c.09,6.41,4.75,14.16,10.39,17.29l346.71,191.25c5.63,3.13,10.14.45,10-6.22-.1-6.41-4.76-14.17-10.4-17.29l-346.7-191.25c-5.64-3.13-10.15-.45-10,6.22Z" transform="translate(-1013.77 -46.86)"></path><path class="cls-11" d="M1472.56,572.51c.06,3.61-1.18,6.19-3.21,7.43l-85.76,53.56c2.06-1.22,3.3-3.8,3.24-7.4,0-.44,0-.87-.1-1.34a1.43,1.43,0,0,0,0-.41c0-.3-.07-.57-.11-.87a9,9,0,0,0-.19-1l-.11-.57c-.07-.2-.11-.4-.18-.6s-.14-.54-.21-.84c0-.13-.11-.3-.15-.47s-.21-.6-.32-.9c-.07-.13-.1-.27-.17-.4-.14-.4-.32-.8-.49-1.17,0,0,0-.07,0-.14-.18-.4-.38-.83-.59-1.23a1.59,1.59,0,0,1-.18-.34c-.17-.33-.38-.63-.55-1a2.11,2.11,0,0,0-.18-.27l-.72-1.2a1.48,1.48,0,0,1-.21-.26c-.21-.3-.42-.57-.62-.87a3,3,0,0,1-.31-.43c-.17-.2-.35-.43-.55-.66s-.28-.34-.45-.53-.31-.34-.45-.5-.51-.53-.75-.8a5.29,5.29,0,0,1-.51-.46l-.38-.36c-.24-.17-.45-.37-.68-.56a4.2,4.2,0,0,0-.38-.3,6.73,6.73,0,0,0-.75-.53,3.72,3.72,0,0,0-.34-.26c-.38-.23-.72-.46-1.09-.65l-66.16-36.52-1.73-1L1198,508.53l-1.7-.95-109.14-60.21-1.7-.95-57.11-31.49c-.38-.2-.72-.36-1.06-.52l-.27-.1c-.2-.1-.4-.16-.57-.23s-.55-.19-.82-.25-.33-.1-.5-.16l-.48-.09a5.09,5.09,0,0,0-.64-.06,1.16,1.16,0,0,0-.34,0,6,6,0,0,0-.74,0h-.16l-.84.11c-.07,0-.14,0-.2.07a4.67,4.67,0,0,0-.64.18.4.4,0,0,1-.2.07c-.24.11-.5.25-.74.39l85.73-53.59s.07,0,.07,0c.2-.1.37-.2.57-.28a.21.21,0,0,1,.13,0,.5.5,0,0,1,.17-.07.91.91,0,0,1,.3-.11l.34-.1a1.18,1.18,0,0,1,.2,0l.13,0a4.55,4.55,0,0,1,.67-.08h.2a2.83,2.83,0,0,1,.58,0,.38.38,0,0,0,.17,0c.13,0,.23,0,.37,0l.3,0a1.07,1.07,0,0,1,.3.06c.14,0,.31.07.48.1l.23,0a2.12,2.12,0,0,1,.27.09c.27.07.55.16.82.26l.3.09a1.36,1.36,0,0,0,.27.13,1.66,1.66,0,0,1,.27.13c.34.17.72.33,1.06.52l58.85,32.48,1.73.94L1283.8,455l1.7.94,109.17,60.22,1.7.94,64.39,35.51a7.39,7.39,0,0,1,1.09.69c.14.06.24.16.37.23s.48.36.72.52.27.23.41.33l.65.56a4.29,4.29,0,0,1,.38.33l.24.24a1.63,1.63,0,0,1,.27.26c.24.27.51.5.75.8a1.28,1.28,0,0,1,.24.23c.07.1.14.16.21.26s.31.33.48.53a1.92,1.92,0,0,0,.28.3c.07.13.17.23.24.37l.34.43a1.24,1.24,0,0,0,.17.23l.45.63c0,.07.11.17.18.27s0,.07.06.07c.21.33.42.66.59,1a.21.21,0,0,1,.07.14,1.1,1.1,0,0,1,.18.26c.1.2.21.37.31.57a1.78,1.78,0,0,1,.24.43,1.59,1.59,0,0,0,.18.3,1.94,1.94,0,0,0,.1.24,10.26,10.26,0,0,1,.49,1v0s0,.07.07.1c.11.3.25.6.39.9a2.68,2.68,0,0,0,.07.27c.07.13.1.27.17.4s.11.3.15.44.1.33.17.5.11.3.15.47a.52.52,0,0,1,.07.23c.07.2.11.41.18.61s.1.36.14.57a1.23,1.23,0,0,0,0,.16,1.93,1.93,0,0,1,.07.44,9,9,0,0,1,.19,1c0,.06,0,.13.07.23s0,.4,0,.61,0,.3.08.43C1472.54,571.64,1472.55,572.08,1472.56,572.51Z" transform="translate(-1013.77 -46.86)"></path><polygon class="cls-11" points="160.87 347.93 73.37 400.5 71.67 399.56 159.13 346.98 160.87 347.93"></polygon><polygon class="cls-11" points="271.73 409.09 184.2 461.66 182.5 460.72 270.03 408.14 271.73 409.09"></polygon><polygon class="cls-11" points="382.6 470.25 295.1 522.82 293.37 521.88 380.9 469.3 382.6 470.25"></polygon></g><polygon class="cls-17" points="112.78 400.41 95.54 390.85 94.54 334.1 111.79 343.66 112.78 400.41"></polygon><polygon class="cls-18" points="128.69 313.55 94.54 334.1 111.79 343.66 145.94 323.11 128.69 313.55"></polygon><polygon class="cls-19" points="146.93 379.86 145.94 323.11 111.79 343.66 112.78 400.41 146.93 379.86"></polygon><polygon class="cls-20" points="112.61 400.52 95.36 390.97 94.37 334.22 111.62 343.77 112.61 400.52"></polygon><polygon class="cls-21" points="111.57 401.15 94.39 391.69 93.4 334.77 110.64 344.37 111.57 401.15"></polygon><path class="cls-19" d="M1123,435.09c.07,4-2.69,5.59-6.16,3.66a13.7,13.7,0,0,1-6.42-10.63c-.07-3.95,2.69-5.59,6.17-3.66A13.7,13.7,0,0,1,1123,435.09Z" transform="translate(-1013.77 -46.86)"></path><path class="cls-22" d="M1116.12,405.33a9,9,0,0,1-4.23-7c0-2.6,1.78-3.68,4.06-2.41a9,9,0,0,1,4.22,7C1120.22,405.52,1118.4,406.6,1116.12,405.33Z" transform="translate(-1013.77 -46.86)"></path><path class="cls-23" d="M1116,396.22a8.47,8.47,0,0,1,4,6.56c0,2.44-1.66,3.45-3.8,2.26a8.49,8.49,0,0,1-4-6.56c0-2.43,1.66-3.44,3.81-2.26Zm0-.58c-2.43-1.35-4.36-.2-4.31,2.55a9.61,9.61,0,0,0,4.48,7.44c2.43,1.34,4.36.19,4.31-2.56a9.6,9.6,0,0,0-4.48-7.43Z" transform="translate(-1013.77 -46.86)"></path><path class="cls-23" d="M1119.4,402.5c0,2.11-1.44,3-3.3,1.95a7.33,7.33,0,0,1-3.43-5.68c0-2.11,1.44-3,3.3-2A7.38,7.38,0,0,1,1119.4,402.5Z" transform="translate(-1013.77 -46.86)"></path><path class="cls-10" d="M1118.1,401.78c0,1.3-.88,1.84-2,1.2a4.54,4.54,0,0,1-2.11-3.5c0-1.29.89-1.83,2-1.2A4.48,4.48,0,0,1,1118.1,401.78Z" transform="translate(-1013.77 -46.86)"></path><path class="cls-22" d="M1117.33,401.35c0,.81-.56,1.15-1.27.75a2.82,2.82,0,0,1-1.32-2.19c0-.81.55-1.14,1.27-.75A2.87,2.87,0,0,1,1117.33,401.35Z" transform="translate(-1013.77 -46.86)"></path><path class="cls-10" d="M1116.64,402.56a1.36,1.36,0,0,1-.72-.2,3.13,3.13,0,0,1-1.48-2.44c0-.72.39-1.21,1-1.22a1.46,1.46,0,0,1,.73.2,3.09,3.09,0,0,1,1.47,2.44C1117.64,402.06,1117.24,402.55,1116.64,402.56Zm-1.2-3.27c-.37,0-.41.44-.4.62a2.52,2.52,0,0,0,1.16,1.93.91.91,0,0,0,.43.13c.37,0,.41-.43.4-.62a2.5,2.5,0,0,0-1.17-1.93A.84.84,0,0,0,1115.44,399.29Z" transform="translate(-1013.77 -46.86)"></path><path class="cls-22" d="M1116.37,419.61a9,9,0,0,1-4.23-7c0-2.59,1.78-3.67,4.06-2.41a9.05,9.05,0,0,1,4.22,7C1120.47,419.79,1118.65,420.87,1116.37,419.61Z" transform="translate(-1013.77 -46.86)"></path><path class="cls-23" d="M1116.21,410.5a8.46,8.46,0,0,1,4,6.56c0,2.43-1.66,3.44-3.8,2.25a8.48,8.48,0,0,1-4-6.55c0-2.44,1.66-3.45,3.81-2.26Zm0-.59c-2.43-1.34-4.36-.2-4.31,2.56a9.59,9.59,0,0,0,4.48,7.43c2.43,1.35,4.36.2,4.31-2.56a9.63,9.63,0,0,0-4.48-7.43Z" transform="translate(-1013.77 -46.86)"></path><path class="cls-23" d="M1119.65,416.77c0,2.11-1.44,3-3.3,2a7.35,7.35,0,0,1-3.43-5.69c0-2.11,1.44-3,3.3-2A7.36,7.36,0,0,1,1119.65,416.77Z" transform="translate(-1013.77 -46.86)"></path><path class="cls-10" d="M1118.35,416.05c0,1.3-.88,1.84-2,1.21a4.55,4.55,0,0,1-2.11-3.5c0-1.3.89-1.84,2-1.2A4.48,4.48,0,0,1,1118.35,416.05Z" transform="translate(-1013.77 -46.86)"></path><path class="cls-22" d="M1117.58,415.62c0,.82-.56,1.15-1.27.76a2.81,2.81,0,0,1-1.32-2.19c0-.81.55-1.15,1.27-.75A2.83,2.83,0,0,1,1117.58,415.62Z" transform="translate(-1013.77 -46.86)"></path><path class="cls-10" d="M1116.89,416.84a1.48,1.48,0,0,1-.72-.21,3.09,3.09,0,0,1-1.48-2.44,1.06,1.06,0,0,1,1-1.21,1.37,1.37,0,0,1,.73.2,3.09,3.09,0,0,1,1.47,2.44C1117.89,416.34,1117.49,416.83,1116.89,416.84Zm-1.21-3.27c-.37,0-.4.43-.39.61a2.54,2.54,0,0,0,1.16,1.94,1,1,0,0,0,.43.13c.37,0,.4-.44.4-.62a2.53,2.53,0,0,0-1.17-1.93A.85.85,0,0,0,1115.68,413.57Z" transform="translate(-1013.77 -46.86)"></path><ellipse class="cls-22" cx="1116.57" cy="431.53" rx="4.91" ry="8.5" transform="matrix(0.85, -0.52, 0.52, 0.85, -1075.41, 596.26)"></ellipse><path class="cls-23" d="M1116.46,425.05a12.46,12.46,0,0,1,5.82,9.65c.06,3.58-2.44,5.06-5.59,3.32a12.46,12.46,0,0,1-5.82-9.65c-.06-3.58,2.44-5.07,5.59-3.32Zm0-.86c-3.57-2-6.41-.29-6.34,3.76a14.14,14.14,0,0,0,6.59,10.93c3.57,2,6.41.29,6.34-3.76a14.13,14.13,0,0,0-6.59-10.93Z" transform="translate(-1013.77 -46.86)"></path><path class="cls-23" d="M1121.52,434.27c0,3.11-2.12,4.4-4.85,2.88a10.76,10.76,0,0,1-5-8.36c-.06-3.1,2.11-4.39,4.85-2.87A10.76,10.76,0,0,1,1121.52,434.27Z" transform="translate(-1013.77 -46.86)"></path><path class="cls-10" d="M1119.62,433.22c0,1.91-1.3,2.7-3,1.77a6.62,6.62,0,0,1-3.1-5.14c0-1.91,1.3-2.71,3-1.77A6.66,6.66,0,0,1,1119.62,433.22Z" transform="translate(-1013.77 -46.86)"></path><path class="cls-22" d="M1118.48,432.59c0,1.19-.82,1.69-1.87,1.1a4.14,4.14,0,0,1-1.94-3.21c0-1.19.82-1.69,1.87-1.11A4.16,4.16,0,0,1,1118.48,432.59Z" transform="translate(-1013.77 -46.86)"></path><path class="cls-10" d="M1117.47,434.37a2.13,2.13,0,0,1-1.07-.29,4.56,4.56,0,0,1-2.16-3.59c0-1.06.56-1.78,1.44-1.8a2.26,2.26,0,0,1,1.07.3,4.56,4.56,0,0,1,2.16,3.59C1118.93,433.64,1118.35,434.36,1117.47,434.37Zm-1.78-4.81c-.54,0-.59.64-.58.91a3.69,3.69,0,0,0,1.71,2.84,1.22,1.22,0,0,0,.63.19c.55,0,.6-.63.59-.9a3.75,3.75,0,0,0-1.71-2.85A1.44,1.44,0,0,0,1115.69,429.56Z" transform="translate(-1013.77 -46.86)"></path><polygon class="cls-24" points="93.4 334.77 94.37 334.22 111.62 343.77 110.64 344.37 93.4 334.77"></polygon><polygon class="cls-25" points="111.57 401.15 112.61 400.52 111.62 343.77 110.64 344.37 111.57 401.15"></polygon><polygon class="cls-17" points="202.35 447.65 185.1 438.1 184.11 381.35 201.36 390.9 202.35 447.65"></polygon><polygon class="cls-18" points="218.26 360.79 184.11 381.35 201.36 390.9 235.5 370.35 218.26 360.79"></polygon><polygon class="cls-19" points="236.5 427.1 235.5 370.35 201.36 390.9 202.35 447.65 236.5 427.1"></polygon><polygon class="cls-20" points="202.18 447.77 184.93 438.21 183.94 381.46 201.19 391.02 202.18 447.77"></polygon><polygon class="cls-21" points="201.14 448.39 183.96 438.93 182.96 382.01 200.21 391.62 201.14 448.39"></polygon><path class="cls-19" d="M1212.56,482.33c.07,3.95-2.69,5.59-6.16,3.66a13.7,13.7,0,0,1-6.42-10.63c-.07-3.95,2.69-5.59,6.17-3.66A13.74,13.74,0,0,1,1212.56,482.33Z" transform="translate(-1013.77 -46.86)"></path><path class="cls-22" d="M1205.68,452.57a9,9,0,0,1-4.22-7c0-2.59,1.78-3.67,4.06-2.41a9.06,9.06,0,0,1,4.22,7C1209.79,452.76,1208,453.84,1205.68,452.57Z" transform="translate(-1013.77 -46.86)"></path><path class="cls-23" d="M1205.52,443.46a8.46,8.46,0,0,1,4,6.56c0,2.44-1.66,3.45-3.8,2.26a8.44,8.44,0,0,1-4-6.56c0-2.43,1.66-3.44,3.8-2.26Zm0-.58c-2.42-1.35-4.35-.2-4.31,2.56a9.62,9.62,0,0,0,4.49,7.43c2.42,1.34,4.36.2,4.31-2.56a9.6,9.6,0,0,0-4.49-7.43Z" transform="translate(-1013.77 -46.86)"></path><path class="cls-23" d="M1209,449.74c0,2.11-1.43,3-3.29,1.95a7.31,7.31,0,0,1-3.43-5.68c0-2.11,1.44-3,3.29-2A7.32,7.32,0,0,1,1209,449.74Z" transform="translate(-1013.77 -46.86)"></path><path class="cls-10" d="M1207.67,449c0,1.3-.89,1.84-2,1.2a4.51,4.51,0,0,1-2.11-3.49c0-1.3.89-1.84,2-1.21A4.53,4.53,0,0,1,1207.67,449Z" transform="translate(-1013.77 -46.86)"></path><path class="cls-22" d="M1206.89,448.59c0,.81-.55,1.15-1.26.75a2.78,2.78,0,0,1-1.32-2.18c0-.82.55-1.15,1.27-.76A2.83,2.83,0,0,1,1206.89,448.59Z" transform="translate(-1013.77 -46.86)"></path><path class="cls-10" d="M1206.21,449.8a1.39,1.39,0,0,1-.73-.2,3.11,3.11,0,0,1-1.47-2.44c0-.72.38-1.21,1-1.22a1.51,1.51,0,0,1,.73.21,3.08,3.08,0,0,1,1.47,2.43C1207.2,449.3,1206.81,449.79,1206.21,449.8Zm-1.21-3.27c-.37,0-.4.44-.4.62a2.56,2.56,0,0,0,1.17,1.93.88.88,0,0,0,.43.13c.37,0,.4-.43.4-.61a2.55,2.55,0,0,0-1.17-1.94A1,1,0,0,0,1205,446.53Z" transform="translate(-1013.77 -46.86)"></path><path class="cls-22" d="M1205.93,466.85a9,9,0,0,1-4.22-7c0-2.59,1.78-3.67,4.06-2.4a9,9,0,0,1,4.22,7C1210,467,1208.21,468.12,1205.93,466.85Z" transform="translate(-1013.77 -46.86)"></path><path class="cls-23" d="M1205.77,457.74a8.44,8.44,0,0,1,4,6.56c0,2.43-1.66,3.44-3.8,2.26a8.46,8.46,0,0,1-4-6.56c0-2.44,1.66-3.45,3.8-2.26Zm0-.59c-2.42-1.34-4.36-.19-4.31,2.56a9.58,9.58,0,0,0,4.49,7.43c2.42,1.35,4.36.2,4.31-2.55a9.62,9.62,0,0,0-4.49-7.44Z" transform="translate(-1013.77 -46.86)"></path><path class="cls-23" d="M1209.21,464c0,2.11-1.44,3-3.29,2a7.32,7.32,0,0,1-3.43-5.69c0-2.11,1.44-3,3.29-1.95A7.31,7.31,0,0,1,1209.21,464Z" transform="translate(-1013.77 -46.86)"></path><path class="cls-10" d="M1207.92,463.3c0,1.29-.89,1.83-2,1.2a4.51,4.51,0,0,1-2.11-3.5c0-1.3.89-1.84,2-1.2A4.51,4.51,0,0,1,1207.92,463.3Z" transform="translate(-1013.77 -46.86)"></path><path class="cls-22" d="M1207.14,462.87c0,.81-.55,1.14-1.26.75a2.81,2.81,0,0,1-1.32-2.19c0-.81.55-1.15,1.26-.75A2.8,2.8,0,0,1,1207.14,462.87Z" transform="translate(-1013.77 -46.86)"></path><path class="cls-10" d="M1206.46,464.08a1.49,1.49,0,0,1-.73-.2,3.11,3.11,0,0,1-1.47-2.44c0-.72.38-1.21,1-1.22a1.39,1.39,0,0,1,.73.2,3.11,3.11,0,0,1,1.47,2.44C1207.45,463.58,1207.06,464.07,1206.46,464.08Zm-1.21-3.27c-.37,0-.4.43-.4.62a2.53,2.53,0,0,0,1.17,1.93.88.88,0,0,0,.43.13c.37,0,.4-.44.4-.62a2.53,2.53,0,0,0-1.17-1.93A.85.85,0,0,0,1205.25,460.81Z" transform="translate(-1013.77 -46.86)"></path><ellipse class="cls-22" cx="1206.14" cy="478.78" rx="4.91" ry="8.5" transform="translate(-1086.91 649.68) rotate(-31.31)"></ellipse><path class="cls-23" d="M1206,472.29a12.49,12.49,0,0,1,5.82,9.65c.06,3.58-2.44,5.06-5.6,3.32a12.49,12.49,0,0,1-5.82-9.65c-.06-3.58,2.45-5.06,5.6-3.32Zm0-.86c-3.56-2-6.41-.29-6.34,3.76a14.11,14.11,0,0,0,6.6,10.93c3.57,2,6.41.29,6.34-3.76a14.11,14.11,0,0,0-6.6-10.93Z" transform="translate(-1013.77 -46.86)"></path><path class="cls-23" d="M1211.09,481.52c.05,3.1-2.12,4.39-4.85,2.87a10.76,10.76,0,0,1-5-8.36c-.06-3.1,2.11-4.39,4.84-2.87A10.8,10.8,0,0,1,1211.09,481.52Z" transform="translate(-1013.77 -46.86)"></path><path class="cls-10" d="M1209.18,480.46c0,1.91-1.3,2.7-3,1.77a6.62,6.62,0,0,1-3.1-5.14c0-1.91,1.3-2.7,3-1.77A6.62,6.62,0,0,1,1209.18,480.46Z" transform="translate(-1013.77 -46.86)"></path><path class="cls-22" d="M1208,479.83c0,1.19-.81,1.69-1.86,1.11a4.18,4.18,0,0,1-1.94-3.22c0-1.19.81-1.69,1.86-1.11A4.18,4.18,0,0,1,1208,479.83Z" transform="translate(-1013.77 -46.86)"></path><path class="cls-10" d="M1207,481.62a2.26,2.26,0,0,1-1.07-.3,4.6,4.6,0,0,1-2.17-3.59c0-1.06.56-1.78,1.45-1.79a2.07,2.07,0,0,1,1.06.29,4.6,4.6,0,0,1,2.17,3.59C1208.5,480.88,1207.92,481.6,1207,481.62Zm-1.78-4.81c-.54,0-.59.63-.59.9a3.76,3.76,0,0,0,1.72,2.85,1.44,1.44,0,0,0,.63.19c.55,0,.59-.64.59-.91a3.73,3.73,0,0,0-1.72-2.84A1.22,1.22,0,0,0,1205.26,476.81Z" transform="translate(-1013.77 -46.86)"></path><polygon class="cls-24" points="182.96 382.01 183.94 381.46 201.19 391.02 200.21 391.62 182.96 382.01"></polygon><polygon class="cls-25" points="201.14 448.39 202.18 447.77 201.19 391.02 200.21 391.62 201.14 448.39"></polygon><polygon class="cls-17" points="320.51 512.7 303.27 503.14 302.28 446.39 319.52 455.95 320.51 512.7"></polygon><polygon class="cls-18" points="336.42 425.83 302.28 446.39 319.52 455.95 353.67 435.39 336.42 425.83"></polygon><polygon class="cls-19" points="354.66 492.14 353.67 435.39 319.52 455.95 320.51 512.7 354.66 492.14"></polygon><polygon class="cls-20" points="320.34 512.81 303.1 503.25 302.1 446.5 319.35 456.06 320.34 512.81"></polygon><polygon class="cls-21" points="319.3 513.44 302.12 503.98 301.13 447.05 318.37 456.66 319.3 513.44"></polygon><path class="cls-19" d="M1330.73,547.38c.06,4-2.7,5.58-6.17,3.66a13.76,13.76,0,0,1-6.42-10.64c-.07-3.94,2.7-5.58,6.17-3.66A13.76,13.76,0,0,1,1330.73,547.38Z" transform="translate(-1013.77 -46.86)"></path><path class="cls-22" d="M1323.85,517.62a9,9,0,0,1-4.22-7c-.05-2.59,1.77-3.67,4-2.4a9,9,0,0,1,4.22,7C1328,517.8,1326.13,518.88,1323.85,517.62Z" transform="translate(-1013.77 -46.86)"></path><path class="cls-23" d="M1323.69,508.51a8.49,8.49,0,0,1,4,6.56c0,2.43-1.66,3.44-3.81,2.26a8.47,8.47,0,0,1-3.95-6.56c-.05-2.44,1.66-3.45,3.8-2.26Zm0-.59c-2.43-1.34-4.36-.19-4.31,2.56a9.62,9.62,0,0,0,4.48,7.43c2.43,1.35,4.36.2,4.31-2.56a9.63,9.63,0,0,0-4.48-7.43Z" transform="translate(-1013.77 -46.86)"></path><path class="cls-23" d="M1327.13,514.78c0,2.11-1.44,3-3.3,2a7.35,7.35,0,0,1-3.43-5.69c0-2.11,1.44-3,3.3-1.95A7.33,7.33,0,0,1,1327.13,514.78Z" transform="translate(-1013.77 -46.86)"></path><path class="cls-10" d="M1325.83,514.06c0,1.3-.88,1.84-2,1.21a4.5,4.5,0,0,1-2.11-3.5c0-1.3.88-1.84,2-1.2A4.48,4.48,0,0,1,1325.83,514.06Z" transform="translate(-1013.77 -46.86)"></path><path class="cls-22" d="M1325.06,513.63c0,.82-.55,1.15-1.27.76a2.87,2.87,0,0,1-1.32-2.19c0-.81.56-1.15,1.27-.75A2.83,2.83,0,0,1,1325.06,513.63Z" transform="translate(-1013.77 -46.86)"></path><path class="cls-10" d="M1324.37,514.85a1.57,1.57,0,0,1-.72-.2,3.1,3.1,0,0,1-1.47-2.44c0-.72.38-1.21,1-1.22a1.36,1.36,0,0,1,.72.2,3.09,3.09,0,0,1,1.47,2.44C1325.37,514.35,1325,514.84,1324.37,514.85Zm-1.2-3.27c-.37,0-.41.43-.4.62a2.54,2.54,0,0,0,1.16,1.93,1,1,0,0,0,.43.13c.37,0,.41-.44.4-.62a2.52,2.52,0,0,0-1.16-1.93A.91.91,0,0,0,1323.17,511.58Z" transform="translate(-1013.77 -46.86)"></path><path class="cls-22" d="M1324.1,531.89a9,9,0,0,1-4.22-7c-.05-2.59,1.77-3.67,4-2.41a9,9,0,0,1,4.22,7C1328.2,532.08,1326.38,533.16,1324.1,531.89Z" transform="translate(-1013.77 -46.86)"></path><path class="cls-23" d="M1323.94,522.78a8.51,8.51,0,0,1,4,6.56c0,2.44-1.67,3.45-3.81,2.26a8.49,8.49,0,0,1-4-6.56c0-2.43,1.66-3.44,3.81-2.26Zm0-.58c-2.43-1.35-4.36-.2-4.31,2.56a9.62,9.62,0,0,0,4.48,7.43c2.43,1.34,4.36.2,4.31-2.56a9.62,9.62,0,0,0-4.48-7.43Z" transform="translate(-1013.77 -46.86)"></path><path class="cls-23" d="M1327.38,529.06c0,2.11-1.44,3-3.3,2a7.33,7.33,0,0,1-3.43-5.68c0-2.11,1.44-3,3.3-2A7.35,7.35,0,0,1,1327.38,529.06Z" transform="translate(-1013.77 -46.86)"></path><path class="cls-10" d="M1326.08,528.34c0,1.3-.88,1.84-2,1.2a4.48,4.48,0,0,1-2.11-3.49c0-1.3.88-1.84,2-1.21A4.5,4.5,0,0,1,1326.08,528.34Z" transform="translate(-1013.77 -46.86)"></path><path class="cls-22" d="M1325.31,527.91c0,.81-.55,1.15-1.27.75a2.83,2.83,0,0,1-1.32-2.18c0-.82.55-1.15,1.27-.76A2.87,2.87,0,0,1,1325.31,527.91Z" transform="translate(-1013.77 -46.86)"></path><path class="cls-10" d="M1324.62,529.12a1.36,1.36,0,0,1-.72-.2,3.09,3.09,0,0,1-1.47-2.44c0-.72.38-1.21,1-1.22a1.57,1.57,0,0,1,.72.2,3.1,3.1,0,0,1,1.47,2.44C1325.62,528.62,1325.22,529.11,1324.62,529.12Zm-1.2-3.27c-.37,0-.41.44-.4.62a2.5,2.5,0,0,0,1.16,1.93.91.91,0,0,0,.43.13c.37,0,.41-.43.4-.61a2.54,2.54,0,0,0-1.16-1.94A1,1,0,0,0,1323.42,525.85Z" transform="translate(-1013.77 -46.86)"></path><ellipse class="cls-22" cx="1324.31" cy="543.82" rx="4.91" ry="8.5" transform="translate(-1103.51 720.56) rotate(-31.31)"></ellipse><path class="cls-23" d="M1324.19,537.34A12.43,12.43,0,0,1,1330,547c.06,3.58-2.44,5.07-5.59,3.32a12.43,12.43,0,0,1-5.82-9.64c-.06-3.58,2.44-5.07,5.59-3.32Zm0-.87c-3.57-2-6.41-.29-6.34,3.77a14.14,14.14,0,0,0,6.59,10.93c3.57,2,6.41.29,6.34-3.77a14.14,14.14,0,0,0-6.59-10.93Z" transform="translate(-1013.77 -46.86)"></path><path class="cls-23" d="M1329.25,546.56c.06,3.1-2.12,4.39-4.85,2.88a10.79,10.79,0,0,1-5-8.36c0-3.1,2.12-4.39,4.85-2.88A10.79,10.79,0,0,1,1329.25,546.56Z" transform="translate(-1013.77 -46.86)"></path><path class="cls-10" d="M1327.35,545.51c0,1.91-1.3,2.7-3,1.77a6.67,6.67,0,0,1-3.11-5.15c0-1.91,1.3-2.7,3-1.77A6.64,6.64,0,0,1,1327.35,545.51Z" transform="translate(-1013.77 -46.86)"></path><path class="cls-22" d="M1326.21,544.87c0,1.2-.82,1.69-1.87,1.11a4.14,4.14,0,0,1-1.94-3.21c0-1.2.82-1.69,1.87-1.11A4.14,4.14,0,0,1,1326.21,544.87Z" transform="translate(-1013.77 -46.86)"></path><path class="cls-10" d="M1325.2,546.66a2.05,2.05,0,0,1-1.07-.3,4.55,4.55,0,0,1-2.16-3.59,1.55,1.55,0,0,1,1.44-1.79,2.05,2.05,0,0,1,1.07.3,4.55,4.55,0,0,1,2.16,3.59A1.55,1.55,0,0,1,1325.2,546.66Zm-1.77-4.81c-.55,0-.6.64-.59.91a3.73,3.73,0,0,0,1.71,2.84,1.32,1.32,0,0,0,.64.19c.54,0,.59-.64.58-.91a3.7,3.7,0,0,0-1.71-2.84A1.32,1.32,0,0,0,1323.43,541.85Z" transform="translate(-1013.77 -46.86)"></path><polygon class="cls-24" points="301.13 447.05 302.1 446.5 319.35 456.06 318.37 456.66 301.13 447.05"></polygon><polygon class="cls-25" points="319.3 513.44 320.34 512.81 319.35 456.06 318.37 456.66 319.3 513.44"></polygon><path class="cls-26" d="M1388.5,205.43l6.69,32.29s10.22,9.12,17.69,10.2,16.09-18.52,12.75-22.11c-10-10.85-11.16-28.31-11.16-28.31Z" transform="translate(-1013.77 -46.86)"></path><path class="cls-27" d="M1368.39,301.2c7.83,8.25.77,11.38,1,15.49s2.58,10.92,6,13.43,7.88-.24,6.84-7.24,1-10.24,1.94-10.95,2.18-1.07,4.6.55c3.11,2.09,7.92,3.61,4.26-1.77-3.39-5-3.51-4.24-6.52-6.37-5.27-3.74-5.25-10.52-6.52-11.46S1368.39,301.2,1368.39,301.2Z" transform="translate(-1013.77 -46.86)"></path><path class="cls-28" d="M1386.68,212.84c-12,7.32-12.3,8.75-14.93,14.67s-8.33,42.74-9.3,46.9c-1.76,7.55-2.12,11.94,1.55,20.81,2.47,6,6.31,14.6,6.31,14.6l16.56-7.78L1381.75,281l5.62-30Z" transform="translate(-1013.77 -46.86)"></path><path class="cls-28" d="M1413.75,201.08c5.12,1.49,31.76,0,37.56,13.83,8,18.93-19.08,36.2-19.08,36.2l-21.12,9.95s-13.67-17.13-3.48-24.55C1422.13,225.93,1413.75,201.08,1413.75,201.08Z" transform="translate(-1013.77 -46.86)"></path><path class="cls-28" d="M1408,236.5l3.08,24.56s-13.46-2.82-19-4.63-13.49-16.13-14.3-19-6.58-12.19-2.3-16.22,14.41-8.82,16.34-2.27C1398.59,241.83,1408,236.5,1408,236.5Z" transform="translate(-1013.77 -46.86)"></path><path class="cls-29" d="M1383.4,213.59c-3.37,7.18,1,33.41,4,39.25,7.8,2.6,9.56,1.91,9.56,1.91s-11.25-16.85-8.41-43.11C1388.76,209.42,1383.4,213.59,1383.4,213.59Z" transform="translate(-1013.77 -46.86)"></path><path class="cls-30" d="M1440.82,205.57c-8.33,7.37-10.18,21.52-6.29,37.51-1.76,2.9-9,5.62-9,5.62s-4.51-35.09,8.26-45.48C1439.15,203.93,1440.82,205.57,1440.82,205.57Z" transform="translate(-1013.77 -46.86)"></path><path class="cls-29" d="M1389.07,242c-2.66-1.49.08,9.52-2.29,11.15,0,0,10.33,14.21,13.52,18.42,2.82,3.73,3.13,10.07,9.91,12.33,1.41.47,1.4-1.93,11.23-3.4s17-7.57,18-17.27-6-28.16-6-28.16S1416.07,257.07,1389.07,242Z" transform="translate(-1013.77 -46.86)"></path><path class="cls-30" d="M1450.34,224.54c9.07,11.26,20,32.31,15.77,42.69-1.72,4.29-14.22,4.69-19.75,5.51S1450.34,224.54,1450.34,224.54Z" transform="translate(-1013.77 -46.86)"></path><path class="cls-27" d="M1413.1,302.84A61,61,0,0,1,1409,308c-3.59,3.9-16.11,14.75-17.09,18.8s4.83,9.05,14.93,2.42c7.46-4.89,10.78-10.62,13.86-12.55s3.66-3.31,6.08-4.67S1413.1,302.84,1413.1,302.84Z" transform="translate(-1013.77 -46.86)"></path><path class="cls-27" d="M1407.91,309.83c-4.71,2.47-12.74,3.2-12.7,5.29s4.48,1.11,7.76,1.05S1407.91,309.83,1407.91,309.83Z" transform="translate(-1013.77 -46.86)"></path><path class="cls-27" d="M1411.68,196c-2.63-10.29-4.48-19.11-19.22-15.52-18.42,4.49-14.11,15.4-11.31,28s13.79,24.38,23.24,22.29c7.17-1.6,11.35-10.76,11.7-20.61,1.7-1.5,1.61-5.72,1-8.91C1416.4,197.08,1415.81,193.5,1411.68,196Z" transform="translate(-1013.77 -46.86)"></path><path class="cls-27" d="M1383.85,216.8c4.75,8.37,13.44,15.42,20.4,13.87.33-.07,1.68-.48,1.68-.48-14-17.62-9.66-51.21-10.91-50.72-9.88,3.92-19.2,13.72-17.1,22.93C1377.64,202.42,1380.79,210.69,1383.85,216.8Z" transform="translate(-1013.77 -46.86)"></path><path class="cls-31" d="M1390.44,175.89c-6.19-1.41-14.25,3.26-15.65,10a29,29,0,0,0-.27,12.8,24.16,24.16,0,0,0,4,9.24l2,1.48s-4.53-7.57.59-12.72c4.3-4.32,13.27-5.37,13.27-5.37Z" transform="translate(-1013.77 -46.86)"></path><path class="cls-32" d="M1382.55,195.38c2.26,1.66,7.9,1.83,12.7.38s9.53-1.27,11.24.54a68.42,68.42,0,0,1,4.92,6.8l1.31-4.19,4.15-1.46s-1.42-10.12-5.45-16.18c-2.33-3.5-5.54-6.57-11.09-7.33-2.82-.4-14.4-1.39-19,4.46C1379.89,180.15,1382.55,195.38,1382.55,195.38Z" transform="translate(-1013.77 -46.86)"></path><path class="cls-33" d="M1413.08,187.85c-1.44,6.83-4.67,19.29-7.81,25.74s-33.08,10-34.77,3.3,3.66-13.44,2.49-21.22C1372.47,192.31,1413.08,187.85,1413.08,187.85Z" transform="translate(-1013.77 -46.86)"></path><path class="cls-33" d="M1405.54,203.76c1.68-1.53,8.27-14.32,8.23-17.16s-3.9-11.65-10.83-14.31-20.88,1.63-24.53,4.8-9.48,16.63-5.06,30.54C1380.92,208.49,1405.54,203.76,1405.54,203.76Z" transform="translate(-1013.77 -46.86)"></path><path class="cls-34" d="M1372.06,197.57a64.79,64.79,0,0,0,1,8.1c2.93,3,31.18-1.31,32.05-4.28s-2.11-17.13-9.29-17.31-16.34,1.78-20,3.5C1372.34,189.2,1371.75,192.25,1372.06,197.57Z" transform="translate(-1013.77 -46.86)"></path><polygon class="cls-35" points="392.5 210.57 408.11 206.63 411.29 218.26 404.97 224.48 395.81 222.8 392.5 210.57"></polygon><path class="cls-36" d="M1400.59,228.05s4.68,1,6-2.34.83-1.64.83-1.64" transform="translate(-1013.77 -46.86)"></path><path class="cls-37" d="M1406.26,281.39l.23-.07c4-1.24,57.72-18.16,59.79-22.73,2.15-4.74,3.64,6.17,3.64,6.17s-11.67,11.61-61.31,23.76C1408.61,288.52,1405.82,283.16,1406.26,281.39Z" transform="translate(-1013.77 -46.86)"></path><circle class="cls-36" cx="398.29" cy="237.13" r="1.06"></circle><circle class="cls-36" cx="451.73" cy="216.86" r="1"></circle><rect class="cls-28" x="1431.36" y="270.81" width="33.63" height="42.31" transform="translate(-1033.28 76.78) rotate(-4.86)"></rect><path class="cls-38" d="M1439.08,278.45a63.44,63.44,0,0,1,.27-14.54c1.22-8.24,3-14.1,5.26-13.35s-.49,8.06-1.12,14.33c-.55,5.41-.78,14.43-.78,14.43Z" transform="translate(-1013.77 -46.86)"></path><path class="cls-38" d="M1450,281.07a63.61,63.61,0,0,0,6.33-13.1c2.63-7.9,3.66-13.94,1.34-14.28s-3.21,7.41-5.48,13.29c-2,5.06-5.82,13.22-5.82,13.22Z" transform="translate(-1013.77 -46.86)"></path><rect class="cls-39" x="1436.84" y="270.79" width="22.93" height="37.57" transform="translate(-1033.08 76.78) rotate(-4.86)"></rect><path class="cls-28" d="M1447.27,210.81c6.49-.22,13.26,23.37,3.32,64.3,0,0-12.72,33.7-23.94,38.86-5.17-6.76-14.48-10.11-14.48-10.11s18.61-33.13,18.56-41,2.1-22.84,4.2-35.67C1436.5,217.5,1447.27,210.81,1447.27,210.81Z" transform="translate(-1013.77 -46.86)"></path><ellipse class="cls-40" cx="1504.46" cy="189.02" rx="64.7" ry="105.73" transform="translate(-873.68 803.66) rotate(-33.03)"></ellipse><path class="cls-36" d="M1557.83,224.44l-4.1-2a49.59,49.59,0,0,0-1.24-5.2l3.39-.47c.82-.12,1.08-1.13.6-2.28l-3.51-8.23c-.49-1.14-1.55-2-2.35-1.85l-3.54.49c-1-1.67-2-3.3-3.15-4.87l1.93-2.79c.46-.68.17-2-.66-2.9l-6-6.71c-.82-.92-1.87-1.13-2.33-.47l-2,2.89a46,46,0,0,0-4.23-3.27l-.06-4.35a3.38,3.38,0,0,0-1.74-2.74l-6.85-3.4c-1-.47-1.72,0-1.7,1l0,4.5a23.92,23.92,0,0,0-4.17-.77l-2-4.74c-.49-1.15-1.54-2-2.37-1.86l-5.89.83c-.81.11-1.08,1.13-.59,2.27l2.1,4.92a13.74,13.74,0,0,0-3,1.92L1501,180.5c-.83-.93-1.87-1.13-2.34-.47l-3.35,4.83c-.47.67-.17,2,.66,2.89l3.58,4a23.76,23.76,0,0,0-1,4.11l-4-2a1.07,1.07,0,0,0-1.7,1l.1,7.54a3.38,3.38,0,0,0,1.74,2.73l4.1,2a46.67,46.67,0,0,0,1.24,5.2l-3.4.48c-.82.11-1.08,1.13-.6,2.26l3.51,8.23c.48,1.14,1.54,2,2.36,1.86l3.53-.5c1,1.68,2,3.32,3.15,4.89l-1.93,2.79c-.46.66-.17,2,.66,2.88l6,6.72c.83.93,1.88,1.14,2.33.47l2-2.89a43.12,43.12,0,0,0,4.24,3.26l.05,4.36a3.37,3.37,0,0,0,1.73,2.73l6.87,3.41c1,.47,1.71,0,1.7-1l-.06-4.51a24.94,24.94,0,0,0,4.17.78l2,4.74c.49,1.14,1.53,2,2.35,1.85l5.9-.83c.81-.11,1.08-1.13.59-2.27l-2.1-4.93a14.26,14.26,0,0,0,3-1.91l3.46,3.88c.83.93,1.87,1.13,2.33.47l3.35-4.84c.47-.67.17-2-.65-2.88l-3.59-4a23.19,23.19,0,0,0,1-4.1l4,2a1.07,1.07,0,0,0,1.69-1l-.1-7.54A3.37,3.37,0,0,0,1557.83,224.44Zm-31.4,5.44c-7.56-3.74-13.77-13.52-13.88-21.83s6-12,13.51-8.27,13.78,13.52,13.88,21.84S1534,233.63,1526.43,229.88Z" transform="translate(-1013.77 -46.86)"></path><path id="Trac&#xE9;_6733" data-name="Trac&#xE9; 6733" class="cls-36" d="M1506.25,143.22l-11.5-11.85,5.72-10.34c-6.37-3.69-12.33-2.86-15,2.07s-1.76,12.66,2.42,19.92c-9.14,20.44-8.79,21.27-20.18,39.22-6.67-3.89-12.89-2.88-15.51,2.5-2.49,5.17-1.14,13.32,3.41,20.56l5.21-10.94,11.75,11.41-5,10.5c6,2.65,11.18,1.27,13.49-3.55s1.34-11.95-2.37-18.77c8.85-20.48,9.1-20.54,20.39-39.54,6.24,3.43,12,2.55,14.7-2.24,2.55-4.61,1.81-11.95-1.89-19Z" transform="translate(-1013.77 -46.86)"></path></svg>